<svg width="100%" viewBox="0 0 215 40" fill="none" xmlns="http://www.w3.org/2000/svg">
<path fill-rule="evenodd" clip-rule="evenodd" d="M10.9878 23.2493C11.011 24.547 11.1799 25.8522 11.4958 27.1485C11.8662 28.6671 12.5876 30.4399 13.3935 31.8113C14.2253 33.2363 15.681 34.969 17.0198 36.1196C18.6835 37.5647 20.919 38.7822 23.0376 39.4178C23.707 39.6185 24.9938 39.8861 25.5787 39.953L25.9816 39.9998L25.7541 39.3375C25.2082 37.7787 24.8443 35.4707 24.6948 32.661C24.6298 31.3966 24.5908 31.3163 23.577 30.2526C22.4917 29.1086 22.4722 28.9012 23.3561 27.9379C23.7655 27.4963 23.9215 27.2756 24.0059 27.008C24.2009 26.3992 24.1294 26.0848 23.5185 24.8003L22.9726 23.6697L20.958 22.2849C20.4358 21.9296 19.9235 21.5758 19.5077 21.2853L13.7227 24.2081C13.5794 24.2805 13.4115 24.2859 13.2639 24.2228L10.9878 23.2493ZM24.6639 18.6802C24.074 19.1843 23.8306 19.7096 23.8306 20.4318C23.8306 20.88 23.8565 20.987 24.0775 21.4419L24.331 21.9571L25.3708 21.9972C26.521 22.0373 26.9955 22.1578 27.7298 22.606C28.3017 22.9539 29.0231 23.7366 29.4325 24.4591C30.1539 25.7235 30.7647 26.0045 32.7859 26.0045C33.6957 26.0045 33.7802 26.0179 33.9881 26.1583C34.4235 26.4527 34.4495 26.5798 34.417 28.3459C34.3976 29.7575 34.3781 29.9649 34.2416 30.3864C33.9621 31.2761 33.6437 31.818 32.9028 32.6409C31.98 33.6711 31.0507 35.2098 30.2058 37.1098C29.8029 38.0129 29.0426 39.8861 29.0426 39.973C29.0426 40.0399 30.0239 39.9061 30.9467 39.7188C35.2099 38.8291 39.0312 36.1531 41.5332 32.293C42.0531 31.4835 42.9759 29.5903 43.2684 28.7273C43.3788 28.3995 43.4698 28.1051 43.4698 28.0717C43.4698 28.0382 42.8589 28.0115 42.0271 28.0115C41.2278 28.0115 40.3764 27.978 40.123 27.9446C39.1417 27.8041 38.2903 27.1485 37.8549 26.2052C37.6664 25.7971 37.6534 25.7235 37.6534 24.9675V24.1647L37.9979 23.4222L38.3358 22.6796V21.7162C38.3358 20.9335 38.3163 20.7127 38.2188 20.5187C38.0564 20.1775 37.7574 20.0036 37.244 19.9501C36.4057 19.8631 35.8403 19.6022 35.3009 19.0469C34.6445 18.3713 34.4365 17.729 34.4365 16.391C34.4365 14.7988 34.5925 14.4041 35.6713 13.2602C35.7584 13.1691 35.8436 13.0783 35.9243 12.9908L24.6639 18.6802ZM38.8343 11.5206C38.8011 11.6203 38.7667 11.726 38.7321 11.8352C38.5372 12.4373 38.3097 13.0728 38.2187 13.2602C38.1213 13.4609 37.7703 13.8957 37.3284 14.364C36.9255 14.7855 36.5486 15.2337 36.4836 15.3608C36.3926 15.5414 36.3796 15.7354 36.3991 16.4379C36.4186 17.1871 36.4381 17.3209 36.5551 17.4882C36.7695 17.7826 37.0425 17.9097 37.6274 17.9766C38.8816 18.1237 39.8759 19.0001 40.1879 20.2177C40.3243 20.7596 40.3243 22.6796 40.1879 23.2148C40.1359 23.4222 39.9734 23.8369 39.8304 24.1313C39.525 24.7601 39.486 25.1482 39.707 25.5161C39.9734 25.9576 40.0384 25.971 42.0985 25.971H43.9507L44.0026 25.7703C44.0286 25.6566 44.1001 25.1147 44.1586 24.5661C44.6525 19.8631 42.9953 14.946 39.7005 11.3335C39.6463 11.274 39.5933 11.2167 39.5427 11.1627L38.8343 11.5206ZM25.5396 24.4859C25.4291 24.2584 25.3381 24.051 25.3381 24.0243C25.3381 23.9975 25.5201 23.9975 25.7476 24.0109C26.5859 24.0845 27.2423 24.5728 27.7752 25.5362C28.4511 26.7404 29.4844 27.5565 30.6931 27.8442C30.9076 27.8977 31.4015 27.9579 31.7914 27.9847L32.4868 28.0315V28.6738C32.4868 29.8378 32.2593 30.3998 31.4145 31.3564C30.4137 32.487 29.6468 33.7246 28.7175 35.6714C28.4056 36.3337 28.0091 37.2302 27.8337 37.6583C27.6647 38.0865 27.5087 38.4277 27.4957 38.4143C27.4827 38.4009 27.4048 38.1132 27.3203 37.7654C26.9823 36.4073 26.7419 34.5475 26.6444 32.5539C26.5924 31.5839 26.5599 31.2962 26.4234 30.9082C26.235 30.3329 25.9165 29.8311 25.4486 29.3561L25.0912 29.0016L25.3186 28.6871C25.8256 28.0114 26.0855 27.1016 26.0335 26.2052C25.9945 25.5964 25.8645 25.1415 25.5396 24.4859Z" fill="#3D48EB"/>
<path fill-rule="evenodd" clip-rule="evenodd" d="M48.2241 3.9521L29.1693 0.0114463C29.051 -0.0130128 28.928 0.00261791 28.8196 0.0558707L0.303855 14.0647C-0.0872751 14.2568 -0.104556 14.8081 0.27377 15.0243L7.92541 19.3984C7.61612 20.3364 7.40288 21.3431 7.30412 22.4228C7.03265 25.391 7.63119 28.8531 9.38849 32.8977C9.59184 33.3657 10.1361 33.5803 10.6041 33.377C11.0721 33.1736 11.2867 32.6294 11.0833 32.1613C9.41657 28.3251 8.90785 25.1769 9.14435 22.5912C9.21734 21.7931 9.36178 21.0431 9.56829 20.3376L13.2431 22.4383C13.4016 22.5289 13.595 22.5339 13.758 22.4516L48.3591 4.96944C48.8184 4.73739 48.728 4.05631 48.2241 3.9521ZM9.56829 20.3376C10.0283 18.766 10.7963 17.4148 11.769 16.2442C14.6208 12.812 19.2552 10.9047 23.1057 9.77365C23.5953 9.62984 23.8756 9.11635 23.7318 8.62675C23.5879 8.13715 23.0745 7.85683 22.5849 8.00065C18.6641 9.15233 13.5697 11.1854 10.3477 15.0633C9.31008 16.312 8.46926 17.7491 7.92541 19.3984L9.56829 20.3376Z" fill="#3D48EB"/>
<ellipse cx="8.76112" cy="28.4109" rx="1.85115" ry="2.18748" transform="rotate(-9.83656 8.76112 28.4109)" fill="#3D48EB"/>
<path d="M70.1968 28.7017L68.7456 24.9724H61.1382L59.6869 28.7017H55.8013L63.1044 11.2983H66.8496L74.1761 28.7017H70.1968ZM62.3553 21.9144H67.5518L64.9536 15.2514L62.3553 21.9144Z" fill="#040515"/>
<path d="M83.489 29C78.4095 29 74.6175 25.2459 74.6175 20C74.6175 14.7541 78.4095 11 83.5124 11C86.3447 11 88.7088 12.0939 90.2537 14.0829L87.8193 16.4696C86.7192 15.1271 85.3381 14.4309 83.6996 14.4309C80.6332 14.4309 78.4564 16.7182 78.4564 20C78.4564 23.2818 80.6332 25.5691 83.6996 25.5691C85.3381 25.5691 86.7192 24.8729 87.8193 23.5055L90.2537 25.8923C88.7088 27.9061 86.3447 29 83.489 29Z" fill="#040515"/>
<path d="M96.583 25.4696H105.501V28.7017H92.8144V11.2983H105.197V14.5304H96.583V18.3094H104.19V21.442H96.583V25.4696Z" fill="#040515"/>
<path d="M126.219 24.8232V19.7265H129.683V26.7873C127.881 28.2293 125.4 29 123.059 29C117.91 29 114.118 25.2459 114.118 20C114.118 14.7541 117.91 11 123.129 11C126.009 11 128.396 12.0442 129.988 14.0083L127.553 16.395C126.36 15.0525 124.979 14.4309 123.317 14.4309C120.133 14.4309 117.956 16.6934 117.956 20C117.956 23.2569 120.133 25.5691 123.27 25.5691C124.3 25.5691 125.259 25.3702 126.219 24.8232Z" fill="#040515"/>
<path d="M133.206 28.7017V11.2983H136.998V25.4199H145.214V28.7017H133.206Z" fill="#040515"/>
<path d="M154.993 29C149.82 29 146.028 25.1713 146.028 20C146.028 14.8287 149.82 11 154.993 11C160.143 11 163.959 14.8039 163.959 20C163.959 25.1961 160.143 29 154.993 29ZM154.993 25.5691C157.919 25.5691 160.12 23.3066 160.12 20C160.12 16.6934 157.919 14.4309 154.993 14.4309C152.068 14.4309 149.867 16.6934 149.867 20C149.867 23.3066 152.068 25.5691 154.993 25.5691Z" fill="#040515"/>
<path d="M178.84 19.6519C180.666 20.2735 181.836 21.7652 181.836 23.953C181.836 26.9613 179.589 28.7017 175.282 28.7017H166.808V11.2983H174.814C178.91 11.2983 181.017 13.1133 181.017 15.8232C181.017 17.5635 180.174 18.9061 178.84 19.6519ZM174.346 14.3315H170.577V18.4337H174.346C176.195 18.4337 177.201 17.7376 177.201 16.3702C177.201 15.0028 176.195 14.3315 174.346 14.3315ZM175.001 25.6685C176.967 25.6685 178.021 25.0221 178.021 23.5304C178.021 22.0635 176.967 21.3674 175.001 21.3674H170.577V25.6685H175.001Z" fill="#040515"/>
<path d="M196.949 28.7017L195.498 24.9724H187.89L186.439 28.7017H182.553L189.856 11.2983H193.602L200.928 28.7017H196.949ZM189.107 21.9144H194.304L191.706 15.2514L189.107 21.9144Z" fill="#040515"/>
<path d="M202.628 28.7017V11.2983H206.42V25.4199H214.636V28.7017H202.628Z" fill="#040515"/>
</svg>
