<svg width="256" height="256" viewBox="0 0 256 256" fill="none" xmlns="http://www.w3.org/2000/svg">
<rect width="256" height="256" rx="70" fill="#3D48EB"/>
<path fill-rule="evenodd" clip-rule="evenodd" d="M76.8887 140.282C76.9716 145.189 77.5755 150.125 78.7049 155.027C80.0292 160.77 82.6081 167.474 85.489 172.66C88.4629 178.049 93.6672 184.601 98.4533 188.952C104.401 194.417 112.393 199.021 119.967 201.425C122.36 202.184 126.961 203.196 129.052 203.449L130.492 203.626L129.679 201.121C127.727 195.227 126.426 186.499 125.892 175.873C125.66 171.092 125.52 170.788 121.896 166.766C118.016 162.439 117.946 161.655 121.106 158.012C122.57 156.343 123.127 155.508 123.429 154.496C124.126 152.194 123.871 151.005 121.687 146.147L119.735 141.872L112.533 136.635C110.666 135.292 108.835 133.954 107.348 132.855L86.7524 143.862C86.1893 144.163 85.5182 144.186 84.9365 143.922L76.8887 140.282ZM125.78 123.005C123.672 124.911 122.802 126.897 122.802 129.627C122.802 131.322 122.895 131.727 123.685 133.447L124.591 135.395L128.308 135.547C132.421 135.699 134.117 136.154 136.742 137.849C138.787 139.165 141.366 142.125 142.829 144.857C145.408 149.638 147.592 150.701 154.818 150.701C158.07 150.701 158.372 150.752 159.116 151.283C160.673 152.396 160.766 152.877 160.649 159.555C160.58 164.893 160.51 165.678 160.022 167.272C159.023 170.636 157.885 172.685 155.236 175.797C151.937 179.693 148.614 185.512 145.594 192.697C144.154 196.112 141.435 203.196 141.435 203.524C141.435 203.777 144.944 203.272 148.243 202.563C163.484 199.198 177.145 189.079 186.09 174.482C187.949 171.421 191.248 164.261 192.293 160.997C192.688 159.758 193.014 158.645 193.014 158.518C193.014 158.392 190.83 158.291 187.856 158.291C184.998 158.291 181.954 158.164 181.048 158.038C177.54 157.506 174.496 155.027 172.94 151.46C172.266 149.917 172.22 149.638 172.22 146.78V143.744L173.451 140.936L174.659 138.127V134.484C174.659 131.525 174.589 130.69 174.241 129.956C173.66 128.666 172.591 128.008 170.756 127.806C167.759 127.477 165.737 126.49 163.809 124.39C161.463 121.835 160.719 119.406 160.719 114.347C160.719 108.326 161.277 106.833 165.133 102.507C165.445 102.163 165.749 101.82 166.037 101.49L125.78 123.005ZM176.441 95.9294C176.322 96.3062 176.2 96.7055 176.076 97.1184C175.379 99.3953 174.566 101.799 174.241 102.507C173.892 103.266 172.637 104.91 171.058 106.681C169.617 108.275 168.27 109.97 168.037 110.451C167.712 111.134 167.666 111.867 167.735 114.524C167.805 117.357 167.875 117.863 168.293 118.496C169.06 119.609 170.035 120.09 172.126 120.343C176.61 120.899 180.165 124.213 181.28 128.818C181.768 130.867 181.768 138.127 181.28 140.151C181.094 140.936 180.514 142.504 180.002 143.617C178.911 145.995 178.771 147.463 179.561 148.854C180.514 150.524 180.746 150.574 188.111 150.574H194.732L194.918 149.815C195.011 149.385 195.267 147.336 195.476 145.262C197.242 127.477 191.317 108.882 179.538 95.221C179.344 94.9964 179.155 94.7797 178.974 94.5755L176.441 95.9294ZM128.912 144.958C128.517 144.098 128.192 143.314 128.192 143.213C128.192 143.111 128.842 143.111 129.656 143.162C132.653 143.44 134.999 145.287 136.904 148.93C139.321 153.484 143.015 156.57 147.336 157.658C148.103 157.86 149.869 158.088 151.263 158.189L153.749 158.366V160.795C153.749 165.197 152.935 167.322 149.915 170.94C146.337 175.215 143.596 179.896 140.273 187.257C139.158 189.762 137.741 193.152 137.113 194.771C136.509 196.39 135.952 197.68 135.905 197.63C135.859 197.579 135.58 196.491 135.278 195.176C134.07 190.04 133.21 183.007 132.862 175.468C132.676 171.8 132.56 170.712 132.072 169.245C131.398 167.069 130.26 165.172 128.587 163.376L127.309 162.035L128.122 160.846C129.934 158.291 130.864 154.85 130.678 151.46C130.538 149.158 130.074 147.437 128.912 144.958Z" fill="#F9F9F9"/>
<path fill-rule="evenodd" clip-rule="evenodd" d="M210.012 67.3082L141.962 52.422C141.492 52.3193 141.002 52.3844 140.575 52.6061L38.6552 105.569C37.2317 106.308 37.1666 108.321 38.5394 109.151L65.7851 125.626C61.597 138.922 62.3306 155.675 70.9682 176.704C71.7013 178.489 73.7427 179.341 75.5277 178.608C77.3127 177.875 78.1654 175.834 77.4322 174.049C69.7047 155.236 68.8761 140.703 71.9727 129.368L84.8575 137.159C85.4779 137.534 86.2502 137.555 86.8897 137.213L210.541 71.1287C212.226 70.2281 211.878 67.7165 210.012 67.3082ZM71.9727 129.368C73.6342 123.286 76.4258 118.125 79.888 113.717C90.0623 100.764 106.583 93.5736 120.316 89.3067C122.159 88.7342 123.188 86.7761 122.616 84.9333C122.043 83.0905 120.085 82.0608 118.242 82.6334C104.193 86.9988 85.9327 94.709 74.3926 109.4C70.6763 114.131 67.7106 119.513 65.7851 125.626L71.9727 129.368Z" fill="#F9F9F9"/>
<ellipse cx="6.62943" cy="8.25935" rx="6.62943" ry="8.25935" transform="matrix(0.983594 -0.180396 0.161758 0.98683 61.0713 152.846)" fill="#F9F9F9"/>
</svg>
