<svg width="70" height="70" viewBox="0 0 70 70" fill="none" xmlns="http://www.w3.org/2000/svg">
<rect width="70" height="70" rx="18" fill="#3D48EB"/>
<path d="M18.1278 15C22.425 15 26.7213 15 31.0176 15C31.0518 15.0176 31.0831 15.044 31.1193 15.0519C32.8277 15.4139 33.8384 16.4598 34.0781 18.1838C34.3178 19.9097 34.5184 21.6406 34.7336 23.3704C35.0849 26.1971 35.4322 29.0238 35.7825 31.8505C36.1083 34.4834 36.4361 37.1164 36.7629 39.7493C37.0515 42.0721 37.3431 44.3949 37.6249 46.7186C37.6924 47.2763 37.1768 47.9671 36.7169 47.9671C30.6908 47.9681 24.6646 47.9769 18.6375 47.9524C18.0955 47.9505 17.5094 47.8282 17.0202 47.5992C15.6504 46.9574 15.0115 45.8028 15.0046 44.3068C14.9929 41.8079 15.0017 39.309 15.0017 36.8101C15.0017 30.784 15.0027 24.7578 15.0007 18.7307C15.0007 17.4823 15.4126 16.4099 16.4625 15.7035C16.9546 15.3728 17.5691 15.229 18.1278 15ZM27.235 32.7506C27.2506 32.8123 27.2663 32.8602 27.2761 32.9081C27.5109 34.0803 27.7379 35.2544 27.9825 36.4246C28.1253 37.1095 28.73 37.5263 29.3552 37.4011C30.0166 37.268 30.4188 36.6545 30.2798 35.9608C29.5147 32.1244 28.7466 28.289 27.9747 24.4545C27.825 23.709 27.3993 23.3665 26.6362 23.3607C25.9464 23.3548 25.2566 23.3567 24.5668 23.3607C23.7606 23.3655 23.3545 23.6972 23.1921 24.5035C22.4397 28.2362 21.6912 31.9689 20.9476 35.7035C20.8977 35.955 20.8556 36.225 20.8938 36.4735C20.9789 37.0244 21.474 37.4138 22.0239 37.4206C22.6002 37.4275 23.0659 37.043 23.195 36.4197C23.4455 35.2016 23.6823 33.9795 23.9259 32.7526H27.234L27.235 32.7506Z" fill="#F9F9F9"/>
<path d="M55.001 25.3117V51.873C54.9814 51.921 54.954 51.9679 54.9452 52.0178C54.5998 53.8455 53.23 54.9942 51.3456 54.9962C45.6687 55.003 39.9929 54.9991 34.316 54.9971C34.2231 54.9971 34.1301 54.9776 33.9932 54.9619C35.6682 53.0462 37.2983 51.1695 38.945 49.3066C39.6935 48.4603 40.0633 47.4858 39.9449 46.3694C39.7688 44.7012 39.5399 43.0378 39.3324 41.3725C38.9831 38.5586 38.6329 35.7437 38.2826 32.9297C37.9303 30.103 37.5762 27.2764 37.2239 24.4487C37.128 23.6806 37.0371 22.9116 36.9431 22.1406C37.0273 22.124 37.0654 22.1103 37.1026 22.1103C41.894 22.1103 46.6853 22.1005 51.4757 22.1161C52.5891 22.12 53.5059 22.5926 54.2124 23.4693C54.6507 24.0133 54.8503 24.6493 55.0019 25.3107L55.001 25.3117ZM45.5494 32.734C44.3635 32.734 43.2324 32.7281 42.1014 32.736C41.393 32.7409 40.8803 33.2232 40.8637 33.8758C40.847 34.5285 41.3441 35.049 42.0427 35.0685C42.2795 35.0754 42.3763 35.1498 42.4478 35.3719C42.8704 36.6771 43.4761 37.8982 44.2295 39.0429C44.4907 39.4411 44.7901 39.8139 45.0817 40.2121C44.9359 40.3393 44.8116 40.4528 44.6815 40.5595C43.9672 41.1456 43.2501 41.7267 42.5378 42.3157C41.9693 42.7854 41.8714 43.4742 42.2902 44.0074C42.7051 44.5358 43.3988 44.5955 43.9946 44.1493C44.161 44.0251 44.3224 43.893 44.4839 43.7609C45.2265 43.1523 45.9671 42.5418 46.7254 41.9185C46.8438 42.0154 46.9514 42.1054 47.062 42.1925C47.8858 42.849 48.7028 43.5143 49.5384 44.1571C50.1274 44.6102 50.8299 44.528 51.2379 43.9937C51.6489 43.4546 51.5432 42.7668 50.9659 42.3069C50.5286 41.9586 50.0765 41.6279 49.6392 41.2796C49.2048 40.9342 48.7811 40.5751 48.3389 40.2112C49.6206 38.6535 50.5824 36.9716 51.1675 35.091C51.2644 35.0852 51.3289 35.0803 51.3935 35.0773C52.1557 35.047 52.6694 34.5607 52.6557 33.8807C52.641 33.2007 52.1166 32.7399 51.3456 32.734C50.9033 32.7311 50.4611 32.734 50.0178 32.734C49.3192 32.734 48.6216 32.734 47.8927 32.734C47.8927 32.328 47.8995 31.966 47.8907 31.6039C47.8741 30.9044 47.378 30.3946 46.7235 30.3936C46.0689 30.3917 45.5689 30.9014 45.5513 31.599C45.5425 31.9611 45.5494 32.3231 45.5494 32.735V32.734Z" fill="#F9F9F9"/>
<path d="M28.6968 50.3231H34.8002C34.7258 50.4249 34.6769 50.5071 34.6143 50.5756C33.4617 51.8465 32.3013 53.1116 31.1585 54.3924C30.9706 54.6028 30.8395 54.6184 30.6086 54.4746C29.6987 53.9071 29.1175 53.1116 28.9238 52.0569C28.821 51.4963 28.7731 50.9249 28.6968 50.3231Z" fill="#F9F9F9"/>
<path d="M26.774 30.3779H24.4053C24.7154 28.8222 25.0207 27.289 25.3309 25.7294H25.8455C26.1537 27.2695 26.4609 28.8066 26.775 30.3779H26.774Z" fill="#F9F9F9"/>
<path d="M46.7214 38.4598C45.8956 37.4178 45.2704 36.3268 44.8213 35.0959H48.6939C48.2399 36.3434 47.555 37.4148 46.7204 38.4598H46.7214Z" fill="#F9F9F9"/>
</svg>
