<svg width="70" height="70" viewBox="0 0 70 70" fill="none" xmlns="http://www.w3.org/2000/svg">
<rect width="70" height="70" rx="18" fill="#3D48EB"/>
<path d="M15.6319 54.999C15.155 54.7882 14.9985 54.4198 14.9995 53.9054C15.0131 50.1957 15.0068 46.486 15.0068 42.7764C15.0068 41.9374 15.2844 41.664 16.1359 41.6619C16.2914 41.6619 16.4469 41.6619 16.667 41.6619C16.667 41.4783 16.667 41.3165 16.667 41.1537C16.667 37.3136 16.667 33.4735 16.667 29.6334C16.667 28.5753 16.811 28.4188 17.8514 28.3384C17.8869 28.3353 17.9213 28.3165 17.9944 28.2915C17.8493 27.8438 17.7377 27.3899 17.5561 26.9652C16.8058 25.21 16.5481 23.3891 16.6524 21.4857C16.7265 20.1396 16.7964 20.006 18.1332 20.006H21.6665C21.6665 19.8485 21.6665 19.7118 21.6665 19.5761C21.6665 18.3656 21.6654 17.1552 21.6675 15.9447C21.6675 15.5492 21.8126 15.2341 22.2008 15.0734C22.5242 14.9398 22.855 14.9836 23.0575 15.2456C23.2182 15.4532 23.3267 15.7558 23.333 16.0198C23.3622 17.1907 23.3455 18.3625 23.3455 19.5344C23.3455 19.6752 23.3455 19.8161 23.3455 20.0071C23.5135 20.0071 23.6523 20.0071 23.79 20.0071C24.988 20.0071 26.1848 20.0039 27.3828 20.0081C27.9995 20.0102 28.3334 20.3253 28.3407 20.9379C28.3533 21.9793 28.3501 23.0207 28.3386 24.0621C28.3366 24.2521 28.2833 24.4482 28.2239 24.6309C27.8691 25.7171 27.5038 26.8003 27.1438 27.8855C27.1 28.017 27.0656 28.1527 27.0103 28.3468C27.195 28.3468 27.3327 28.3416 27.4694 28.3468C27.9995 28.3697 28.3032 28.6661 28.3407 29.2014C28.3501 29.3308 28.3439 29.4612 28.3439 29.5917C28.3439 33.4443 28.3439 37.298 28.3439 41.1506V41.6358H36.6627C36.6627 41.5002 36.6627 41.3635 36.6627 41.2268C36.6627 40.5756 36.6543 39.9245 36.6658 39.2744C36.6752 38.6806 36.9789 38.3488 37.5403 38.3477C40.8461 38.3404 44.153 38.3404 47.4588 38.3477C48.0212 38.3488 48.3281 38.6796 48.3364 39.2723C48.3479 40.0507 48.3395 40.8292 48.3395 41.663C48.5106 41.663 48.6484 41.663 48.7861 41.663C49.9183 41.663 51.0516 41.663 52.1838 41.663C53.0593 41.663 53.339 41.9374 53.339 42.7972C53.339 46.4944 53.3348 50.1905 53.3452 53.8876C53.3463 54.3916 53.1981 54.7715 52.7337 55H49.9997C49.9997 52.0229 49.9997 49.0458 49.9997 46.0686C49.9997 45.2912 49.7149 45.0022 48.9489 45.0022C47.4411 45.0011 45.9332 45.0022 44.4253 45.0022C43.6135 45.0022 43.3432 45.2672 43.3422 46.0707C43.3411 48.8141 43.3422 51.5564 43.3422 54.2998C43.3422 54.5336 43.3547 54.7663 43.361 55H15.6319V54.999ZM31.6633 47.516C31.6633 47.516 31.6633 47.516 31.6622 47.516C31.6622 46.9567 31.6737 46.3963 31.6591 45.838C31.6455 45.334 31.3231 45.0105 30.818 45.0053C29.7255 44.9938 28.6319 44.9949 27.5393 45.0053C27.0332 45.0095 26.6878 45.3194 26.6784 45.8255C26.6565 46.9441 26.6555 48.0638 26.6784 49.1814C26.6889 49.6854 27.0364 49.9922 27.5445 49.9964C28.6246 50.0058 29.7046 50.0058 30.7846 49.9964C31.3325 49.9922 31.6507 49.6687 31.6622 49.1167C31.6737 48.5835 31.6643 48.0503 31.6643 47.516H31.6633ZM22.4919 36.6614C22.999 36.6614 23.5072 36.6614 24.0144 36.6614C24.0405 36.6614 24.0665 36.6614 24.0926 36.6614C24.6906 36.6437 25.0005 36.3359 25.0036 35.7327C25.0099 34.6923 25.0088 33.6509 25.0036 32.6105C25.0005 32.0147 24.6864 31.6756 24.0999 31.6683C23.0335 31.6547 21.966 31.6536 20.8995 31.6683C20.3297 31.6766 20.0125 32.0147 20.0083 32.5824C20.001 33.6363 20.0021 34.6902 20.0083 35.7442C20.0125 36.3411 20.3266 36.65 20.9308 36.6593C21.4515 36.6666 21.9712 36.6614 22.4919 36.6614ZM18.3481 47.4628C18.3481 48.0221 18.3377 48.5814 18.3513 49.1407C18.3638 49.6687 18.6852 49.9901 19.2132 49.9953C20.2932 50.0058 21.3732 50.0047 22.4533 49.9953C22.9802 49.9912 23.3257 49.6802 23.3361 49.1553C23.357 48.0503 23.357 46.9431 23.3361 45.838C23.3257 45.3131 22.9792 45.0063 22.4491 45.0032C21.3691 44.9949 20.289 44.9938 19.209 45.0032C18.682 45.0084 18.3638 45.3319 18.3513 45.862C18.3387 46.3953 18.3481 46.9285 18.3481 47.4628ZM35.0046 47.4784C35.0046 48.0252 34.9962 48.572 35.0066 49.1178C35.0171 49.6604 35.3458 49.9912 35.8916 49.9953C36.958 50.0047 38.0255 50.0037 39.092 49.9953C39.6617 49.9912 39.9946 49.6635 39.9988 49.099C40.0071 48.0325 40.0071 46.965 39.9988 45.8985C39.9946 45.3319 39.6638 45.0053 39.093 45.0011C38.0391 44.9938 36.9851 44.9949 35.9312 45.0011C35.3354 45.0043 35.0119 45.3267 35.0035 45.9163C34.9962 46.437 35.0025 46.9577 35.0025 47.4774L35.0046 47.4784ZM22.5002 25.0034C23.0324 25.0034 23.5646 25.0096 24.0968 25.0013C24.6269 24.994 24.9942 24.658 25.0036 24.1863C25.014 23.7105 24.6551 23.3526 24.1281 23.3484C23.0512 23.339 21.9743 23.339 20.8974 23.3484C20.3631 23.3526 20.0073 23.698 20.0104 24.1759C20.0136 24.6465 20.3809 24.994 20.9058 25.0023C21.4379 25.0107 21.9701 25.0044 22.5023 25.0044L22.5002 25.0034Z" fill="#F9F9F9"/>
<path d="M55.0004 23.9891C54.8011 24.5505 54.3847 24.8708 53.8619 25.1348C48.6893 27.7478 43.5145 30.3597 38.3669 33.0217C37.3871 33.5278 36.4938 33.5184 35.5306 33.126C33.9988 32.502 32.6485 31.5785 31.3295 30.6039C30.9945 30.3565 30.6669 30.0998 30.3444 29.8358C30.046 29.5906 29.9218 29.2765 30.0606 28.8977C30.1973 28.5262 30.478 28.3728 30.8704 28.3405C32.2426 28.2288 33.572 28.4699 34.8649 28.8748C35.898 29.1983 36.8037 29.1356 37.7366 28.5346C38.5954 27.9815 39.5471 27.5725 40.5207 27.0664C40.3631 26.9422 40.24 26.841 40.1127 26.745C38.5725 25.5898 37.0312 24.4367 35.491 23.2816C35.0621 22.9602 34.9254 22.6377 35.0496 22.2579C35.18 21.8624 35.466 21.661 35.9961 21.6641C37.1648 21.6694 38.3471 21.5932 39.497 21.7487C40.3235 21.8603 41.1343 22.2329 41.9033 22.5939C42.9719 23.0958 43.9914 23.7021 45.0422 24.2447C45.1622 24.3073 45.3667 24.3 45.493 24.2416C47.051 23.5237 48.6006 22.789 50.1533 22.0607C51.2584 21.541 52.378 21.4753 53.5134 21.9584C54.1593 22.2329 54.7364 22.5845 55.0004 23.2868V23.9901V23.9891Z" fill="#F9F9F9"/>
</svg>
