<svg width="70" height="70" viewBox="0 0 70 70" fill="none" xmlns="http://www.w3.org/2000/svg">
<rect width="70" height="70" rx="18" fill="#3D48EB"/>
<path d="M26.8462 32.4971C27.6357 33.7344 28.3277 35.0021 29.1905 36.1394C31.1756 38.757 33.5945 40.861 36.703 42.0831C37.0939 42.2375 37.4444 42.4968 37.8341 42.7208C36.6714 43.9948 35.5365 45.1208 34.5371 46.3581C32.7039 48.6278 30.8934 50.9202 29.1893 53.286C28.3404 54.4639 27.4016 55.0509 25.9201 54.9965C22.6712 54.8763 19.7765 53.8857 17.3765 51.6844C14.7653 49.2894 13.6254 46.2518 13.8025 42.7233C13.8468 41.8529 14.3427 41.2481 15.0778 40.7952C16.849 39.7021 18.6569 38.6584 20.3547 37.4603C22.403 36.0167 24.3539 34.434 26.3452 32.9095C26.5312 32.7678 26.7058 32.6135 26.8462 32.4971Z" fill="#F9F9F9"/>
<path d="M50.3897 32.2846C47.8024 34.2417 45.3582 36.0927 42.8228 38.0119C41.3185 37.1946 39.6599 36.4178 38.1316 35.4361C35.8784 33.9887 34.1641 31.9923 32.8585 29.6518C32.5586 29.1154 32.26 28.5777 31.9906 28.0261C31.9336 27.9084 31.9488 27.6731 32.0311 27.5833C34.1262 25.3034 36.0833 22.9123 37.8988 20.4048C37.9241 20.3694 37.971 20.3491 38.0595 20.2833C38.4378 23.4993 40.0736 26.0208 42.342 28.1513C44.5839 30.2578 47.1952 31.7355 50.3897 32.2846Z" fill="#F9F9F9"/>
<path d="M41.5171 15.7528C42.6216 15.0835 43.7855 14.9013 45.0001 15.0468C48.2781 15.439 50.8729 17.1192 53.0932 19.4534C54.5494 20.9842 55.6855 22.7212 56.0803 24.8378C56.4484 26.809 56.1182 28.6017 54.4216 29.8896C53.1906 30.8245 51.7509 30.9511 50.2707 30.7195C48.5096 30.445 46.9446 29.6897 45.4201 28.7054C46.4208 27.7464 47.3963 26.8127 48.3717 25.8803C49.0119 25.268 49.3395 24.5127 49.1029 23.6587C48.9638 23.1539 48.6665 22.6302 48.2945 22.2645C46.2437 20.2555 44.1473 18.2919 42.0687 16.312C41.8979 16.1488 41.7372 15.9767 41.5171 15.7528Z" fill="#F9F9F9"/>
<path d="M28.085 31.4507C28.9895 30.5841 29.8423 29.7656 30.7013 28.9407C31.1808 29.7719 31.6261 30.6069 32.1309 31.4039C34.2678 34.7768 37.2232 37.1502 40.9085 38.6823C42.0244 39.1467 43.0226 39.8931 44.0752 40.5105C44.0613 40.5535 44.0487 40.5953 44.0347 40.6383C43.4376 40.7382 42.8417 40.8533 42.242 40.933C41.736 41.0014 41.5095 41.2835 41.4412 41.7706C41.34 42.5031 41.2058 43.2306 41.0679 44.0681C40.7213 43.7012 40.4215 43.4115 40.1532 43.0952C39.107 41.8591 37.9215 40.8888 36.3844 40.2182C33.162 38.8139 30.9202 36.276 29.1452 33.3017C28.7821 32.6931 28.4405 32.0719 28.085 31.4482V31.4507Z" fill="#F9F9F9"/>
<path d="M44.156 27.7944C42.0027 25.7588 40.0898 23.6245 39.6078 20.5932C39.399 19.28 39.6381 18.0224 40.3542 16.8041C40.4959 16.9268 40.611 17.0204 40.7186 17.1229C42.887 19.1939 45.0555 21.2663 47.2202 23.3399C47.8021 23.8978 47.8047 24.3545 47.224 24.9061C46.2182 25.86 45.2048 26.8064 44.1547 27.7944H44.156Z" fill="#F9F9F9"/>
</svg>
