<svg width="70" height="70" viewBox="0 0 70 70" fill="none" xmlns="http://www.w3.org/2000/svg">
<rect width="70" height="70" rx="18" fill="#3D48EB"/>
<path d="M54.9946 54.1297C54.6837 54.8068 54.1453 55.0061 53.4212 54.9999C50.4151 54.9738 47.4081 54.9894 44.402 54.9894H43.9575V35.9327H54.9946V54.1307V54.1297ZM47.959 48.1259C47.959 48.3857 47.9527 48.6445 47.96 48.9043C47.9798 49.5544 48.4598 50.0458 49.0858 50.0667C49.7014 50.0875 50.2482 49.6201 50.2878 48.9805C50.3233 48.4118 50.3202 47.838 50.2899 47.2693C50.2555 46.6287 49.7202 46.1539 49.1046 46.1643C48.464 46.1748 47.9777 46.6756 47.96 47.3476C47.9537 47.6063 47.959 47.8661 47.96 48.1259H47.959ZM47.959 41.8426C47.959 42.1149 47.9517 42.3872 47.96 42.6596C47.9809 43.3085 48.4629 43.7989 49.089 43.8188C49.7046 43.8376 50.2492 43.3691 50.2878 42.7295C50.3223 42.1608 50.3212 41.5869 50.2889 41.0183C50.2534 40.3787 49.715 39.9039 49.0994 39.9164C48.4608 39.929 47.9757 40.4319 47.9579 41.1038C47.9517 41.3501 47.9579 41.5963 47.9579 41.8436L47.959 41.8426Z" fill="#F9F9F9"/>
<path d="M54.9947 30.386C54.7359 30.9327 54.3384 31.2541 53.7008 31.2698C53.3711 31.2781 53.1781 31.5306 53.0675 31.8322C52.8359 32.4613 52.9809 33.0863 53.4796 33.5778H16.5651C17.163 33.1646 17.2976 32.6168 17.1213 31.9803C16.9908 31.5087 16.7164 31.2969 16.2239 31.252C15.4612 31.1832 14.9896 30.7168 15.0073 30.0511C15.0251 29.376 15.5562 28.9065 16.3231 28.9065C28.7781 28.9054 41.2343 28.9065 53.6894 28.9012C54.3352 28.9012 54.7171 29.2351 54.9936 29.7621V30.3871L54.9947 30.386Z" fill="#F9F9F9"/>
<path d="M35.3132 15C35.789 15.2389 36.1427 15.5718 36.1803 16.1717C37.3489 16.1717 38.505 16.1717 39.661 16.1717C39.9605 16.1717 40.26 16.1613 40.5584 16.1749C41.2042 16.203 41.5444 16.8134 41.2241 17.3727C41.0947 17.5981 40.9403 17.8088 40.7942 18.0238C40.5719 18.3514 40.5709 18.6769 40.7931 19.0046C40.9246 19.1986 41.0519 19.3948 41.1823 19.5889C41.3649 19.8581 41.4046 20.1419 41.2543 20.4351C41.0947 20.7471 40.8213 20.8597 40.4812 20.8587C39.1279 20.8556 37.7746 20.8577 36.4213 20.8587C36.3566 20.8587 36.2929 20.865 36.1709 20.8712C36.1709 21.5192 36.1709 22.164 36.1709 22.8078C36.1709 23.2961 36.4008 23.6286 36.8606 23.8053C39.0559 24.6463 41.2501 25.4872 43.4455 26.3293C43.5748 26.3783 43.7001 26.4357 43.818 26.5369H26.1876C26.1824 26.5212 26.1761 26.5066 26.1709 26.491C26.4411 26.3835 26.7103 26.274 26.9827 26.1696C29.1529 25.3359 31.3211 24.497 33.4956 23.6769C33.7648 23.5757 33.8347 23.4411 33.8336 23.1688C33.8232 20.9703 33.8483 18.7709 33.8159 16.5724C33.8055 15.8452 34.0142 15.313 34.6861 15H35.3111H35.3132Z" fill="#F9F9F9"/>
<path d="M15.0064 35.9484H25.9402V54.9884H25.549C22.5033 54.9884 19.4576 54.9884 16.4119 54.9884C15.4457 54.9884 15.0054 54.548 15.0054 53.5839C15.0054 47.8442 15.0054 42.1044 15.0054 36.3647C15.0054 36.2363 15.0054 36.109 15.0054 35.9494L15.0064 35.9484ZM21.7468 41.8885C21.7468 41.8885 21.7447 41.8885 21.7437 41.8885C21.7437 41.589 21.7624 41.2885 21.7395 40.9911C21.6946 40.3974 21.2251 39.9488 20.6439 39.9175C20.0544 39.8862 19.4951 40.3077 19.445 40.9129C19.3929 41.5452 19.3929 42.189 19.445 42.8213C19.4951 43.4285 20.0502 43.848 20.6418 43.8177C21.2387 43.7874 21.703 43.3273 21.7426 42.7075C21.7604 42.4352 21.7457 42.1608 21.7457 41.8885H21.7468ZM21.7468 48.1363C21.7468 48.1363 21.7447 48.1363 21.7437 48.1363C21.7437 47.8369 21.7624 47.5364 21.7395 47.239C21.6946 46.6453 21.2261 46.1967 20.6439 46.1654C20.0534 46.1341 19.4951 46.5545 19.445 47.1608C19.3929 47.7931 19.3929 48.4368 19.445 49.0691C19.4951 49.6764 20.0502 50.0959 20.6429 50.0666C21.2387 50.0364 21.704 49.5752 21.7437 48.9565C21.7614 48.6841 21.7468 48.4097 21.7468 48.1374V48.1363Z" fill="#F9F9F9"/>
<path d="M31.439 54.9769H28.3442V35.9546H41.5652V54.9591H38.4684C38.4684 54.8099 38.4684 54.6701 38.4684 54.5303C38.4684 52.9422 38.483 51.3542 38.4642 49.7661C38.4392 47.6668 36.8834 46.1246 34.8655 46.1653C33.1126 46.2008 31.5736 47.577 31.4859 49.3268C31.4004 51.0276 31.4494 52.7356 31.44 54.4405C31.44 54.6075 31.44 54.7744 31.44 54.9758L31.439 54.9769ZM33.7637 41.8884C33.7637 41.6286 33.7689 41.3698 33.7626 41.11C33.7449 40.4297 33.2701 39.9331 32.6295 39.9164C32.016 39.9007 31.4744 40.3692 31.4348 41.012C31.3993 41.5806 31.3993 42.1545 31.4348 42.7231C31.4744 43.3669 32.0118 43.8344 32.6274 43.8198C33.2691 43.8041 33.7449 43.3085 33.7626 42.6282C33.7689 42.3819 33.7637 42.1357 33.7626 41.8884H33.7637ZM36.2386 41.8717C36.2386 42.1315 36.2324 42.3903 36.2397 42.6501C36.2595 43.3043 36.7321 43.7947 37.3571 43.8187C37.9728 43.8427 38.5205 43.3836 38.5633 42.7388C38.603 42.1576 38.603 41.5702 38.5623 40.99C38.5164 40.3473 37.9644 39.8893 37.3498 39.9174C36.7248 39.9456 36.2584 40.4381 36.2386 41.0933C36.2313 41.3521 36.2376 41.6119 36.2376 41.8717H36.2386Z" fill="#F9F9F9"/>
<path d="M36.1247 54.9737H33.8042C33.7969 54.837 33.7833 54.7014 33.7833 54.5647C33.7823 53.0163 33.7791 51.4679 33.7864 49.9195C33.7864 49.7014 33.8042 49.4719 33.872 49.2674C34.041 48.7603 34.5867 48.442 35.1042 48.514C35.6833 48.5944 36.108 49.0503 36.1174 49.6691C36.1351 50.8273 36.1247 51.9844 36.1257 53.1426C36.1257 53.7404 36.1257 54.3373 36.1257 54.9727L36.1247 54.9737Z" fill="#F9F9F9"/>
</svg>
