<svg width="70" height="70" viewBox="0 0 70 70" fill="none" xmlns="http://www.w3.org/2000/svg">
<rect width="70" height="70" rx="18" fill="#3D48EB"/>
<path d="M32.8186 32.5667C33.6616 33.2365 34.6475 33.7127 35.7514 33.9411C35.8315 33.9573 35.931 34.058 35.9548 34.138C36.5252 36.0871 37.8368 37.3966 39.5597 38.3631C39.8758 38.5405 40.1939 38.7321 40.4591 38.9745C41.0045 39.4756 41.0283 39.81 40.6376 40.4258C40.4569 40.7104 40.274 40.9939 40.0846 41.2721C38.8866 43.0285 38.8704 44.8423 39.8087 46.707C40.4915 48.063 41.4655 49.194 42.5229 50.2632C42.7599 50.5024 43.0045 50.734 43.2447 50.9688C39.2243 54.8583 32.4441 56.4005 26.4518 53.4882C20.1251 50.4126 17.5343 44.0079 17.991 39.0091C19.1295 38.7321 20.1425 38.8306 21.0191 39.7591C22.0374 40.8392 23.1391 41.8359 24.4356 42.5956C24.6034 42.6941 24.7181 42.9701 24.756 43.1811C24.8252 43.5631 24.809 43.9603 24.8436 44.3499C24.901 44.9949 25.0958 45.6107 25.5092 46.1031C26.3501 47.1042 26.7321 48.2557 26.8901 49.5349C26.9572 50.076 27.1932 50.629 27.4767 51.1019C27.8944 51.7989 28.5513 52.222 29.4041 52.1333C30.3522 52.0348 31.0881 51.5316 31.3889 50.6301C31.6205 49.9353 31.9755 49.3552 32.3943 48.7719C32.9733 47.9646 33.2006 47.0122 33.2493 46.0274C33.2677 45.6486 33.4333 45.4192 33.7644 45.2882C34.1151 45.1497 34.4765 45.0382 34.8218 44.8878C35.8888 44.4224 36.3693 43.5144 35.9245 42.4549C35.2384 40.8175 34.2135 39.3728 32.9863 38.0882C32.5848 37.6683 32.0199 37.4962 31.4452 37.4464C30.8208 37.3923 30.2645 37.1769 29.7526 36.836C28.678 36.1207 27.5524 36.046 26.3588 36.4984C25.5384 36.809 25.5309 36.7938 25.0222 36.0633C24.9172 35.9129 24.8285 35.7527 24.7322 35.5969C24.7441 35.5514 24.756 35.506 24.7679 35.4605C25.0936 35.4605 25.4237 35.4281 25.7451 35.4659C27.7592 35.7051 29.6217 35.309 31.2526 34.085C31.8153 33.6619 32.2753 33.1013 32.8196 32.5667H32.8186Z" fill="#F9F9F9"/>
<path d="M49.327 25.583C48.2588 25.7854 47.2945 25.9694 46.3303 26.1501C43.3487 26.7075 40.3672 27.2594 37.3868 27.8243C37.0513 27.8882 36.7872 27.8265 36.5307 27.6057C32.8436 24.4413 29.1532 21.2812 25.465 18.1189C25.3784 18.0443 25.3059 17.9523 25.1587 17.7943C25.8611 17.6579 26.4736 17.5356 27.0883 17.4209C31.3544 16.6233 35.6216 15.83 39.8867 15.0238C40.2103 14.9621 40.4624 15.0173 40.707 15.2272C44.405 18.3981 48.1051 21.5669 51.8042 24.7389C51.8886 24.8114 51.9524 24.9077 52.0607 25.0333C51.6862 25.1512 51.394 25.3395 51.1559 24.898C51.0877 24.7703 50.8724 24.701 50.71 24.6491C46.814 23.3872 42.9159 22.1318 39.0188 20.871C38.6887 20.7639 38.3792 20.7249 38.1324 21.0236C37.8153 21.4067 38.0123 21.9013 38.5588 22.081C39.7493 22.4706 40.943 22.8515 42.1356 23.2368C44.405 23.9694 46.6733 24.7021 48.9428 25.4359C49.0391 25.4672 49.1332 25.5073 49.3302 25.582L49.327 25.583Z" fill="#F9F9F9"/>
<path d="M18.0698 37.6499C18.9854 32.5591 21.6974 28.86 26.2082 26.3871C26.4939 27.4207 27.378 27.8763 28.0728 28.4942C29.2633 29.5516 30.4862 30.5721 31.7416 31.6478C31.5749 31.8784 31.4386 32.1273 31.247 32.321C29.8163 33.769 28.1172 34.4909 26.0545 34.1878C25.4441 34.098 24.8435 34.0969 24.2645 34.3448C23.442 34.6976 23.1617 35.4107 23.5892 36.1932C23.8327 36.6391 24.1454 37.0546 24.4723 37.4453C24.9246 37.9864 25.5188 38.125 26.193 37.9193C26.5794 37.8014 26.9636 37.6748 27.3521 37.5665C27.8607 37.4248 28.3531 37.5005 28.7904 37.783C29.5966 38.3025 30.457 38.626 31.4126 38.7775C31.8098 38.8403 32.2654 39.1271 32.51 39.4518C33.2394 40.4182 33.8811 41.4517 34.5478 42.4658C34.6344 42.5978 34.6831 42.7601 34.7253 42.9149C34.8248 43.2829 34.6982 43.5534 34.34 43.6952C34.1149 43.7839 33.8822 43.8543 33.6528 43.9322C32.458 44.338 31.9721 45.0003 31.8985 46.2655C31.8509 47.0804 31.5966 47.8314 31.0284 48.4353C30.6442 48.8433 30.418 49.3152 30.2903 49.8498C30.2503 50.0175 30.1951 50.1918 30.102 50.3346C29.6756 50.9894 28.9722 51.0392 28.5652 50.3844C28.3185 49.9883 28.1616 49.4959 28.1064 49.0295C27.957 47.7644 27.5761 46.6139 26.7504 45.6248C26.2634 45.0415 26.0653 44.3521 26.0653 43.5978C26.0653 43.3153 26.0631 43.0296 26.0274 42.7493C25.9538 42.1876 25.6357 41.7786 25.1552 41.5026C23.9387 40.8013 22.8738 39.9139 21.9431 38.8706C20.9756 37.7841 19.7754 37.4183 18.3664 37.6293C18.3014 37.639 18.2354 37.639 18.0709 37.6499H18.0698Z" fill="#F9F9F9"/>
<path d="M37.2861 34.1207C40.035 33.6142 42.7167 33.1197 45.4613 32.6143C45.2308 33.4735 45.0197 34.2636 44.8065 35.0536C44.4862 36.2419 44.9375 37.0287 46.1225 37.3436C46.656 37.4854 47.1939 37.6152 47.721 37.7797C47.84 37.8165 47.9948 37.9669 48.0077 38.0795C48.4915 42.587 47.2556 46.5587 44.2665 49.9764C44.2492 49.9959 44.2243 50.0089 44.1615 50.0543C42.7308 48.6377 41.2839 47.2286 40.6096 45.2471C40.2633 44.2298 40.4062 43.2504 40.9549 42.3326C41.1897 41.9398 41.4332 41.5491 41.6994 41.1768C42.562 39.968 42.3261 38.876 41.1334 37.8447C40.7612 37.5222 40.3034 37.2949 39.8716 37.046C38.9138 36.493 38.1595 35.7408 37.6086 34.7852C37.4896 34.5785 37.3987 34.3545 37.2872 34.1229L37.2861 34.1207Z" fill="#F9F9F9"/>
<path d="M28.4357 22.3753C29.3264 23.1372 30.1651 23.8547 31.0028 24.5733C32.5601 25.9077 34.1196 27.241 35.6737 28.5797C36.2299 29.0591 36.8425 29.2464 37.5816 29.1046C40.6259 28.5213 43.6756 27.9607 46.7232 27.3925C46.787 27.3806 46.8531 27.3806 46.9732 27.3709C46.7145 28.3481 46.4645 29.2918 46.2145 30.2344C46.1832 30.3513 46.1388 30.466 46.1193 30.5851C46.0436 31.0342 45.7708 31.2409 45.3304 31.3199C43.5393 31.6424 41.7525 31.9866 39.9625 32.3145C39.1271 32.4671 38.2937 32.6435 37.4507 32.729C36.0297 32.874 34.7386 32.4681 33.6467 31.5558C31.6803 29.9108 29.7463 28.2269 27.7951 26.5635C27.5407 26.3471 27.4433 26.0895 27.5267 25.7724C27.8189 24.6653 28.1187 23.5614 28.4368 22.3764L28.4357 22.3753Z" fill="#F9F9F9"/>
<path d="M49.6138 25.569C50.1744 25.4651 50.735 25.3601 51.3627 25.2432C51.3075 25.4965 51.2751 25.6891 51.2242 25.8774C50.6961 27.8546 50.1604 29.8286 49.6463 31.8091C49.5998 31.9877 49.6236 32.2669 49.7351 32.3913C50.4255 33.1608 50.4666 33.9822 50.0922 34.9075C49.8866 35.4151 49.7892 35.967 49.6496 36.5016C49.5727 36.7982 49.4082 36.8869 49.1095 36.8036C48.2015 36.5503 47.2925 36.3057 46.3791 36.072C46.0522 35.9876 45.9343 35.8306 46.0295 35.4887C46.2773 34.6077 46.496 33.7181 46.7481 32.8383C46.7892 32.6933 46.9223 32.5082 47.0544 32.466C48.0771 32.1327 48.4916 31.4033 48.6983 30.3784C48.9905 28.9293 49.4364 27.5116 49.8303 26.0841C49.8963 25.846 49.8974 25.6869 49.6117 25.569H49.6138Z" fill="#F9F9F9"/>
</svg>
