<svg width="70" height="70" viewBox="0 0 70 70" fill="none" xmlns="http://www.w3.org/2000/svg">
<rect width="70" height="70" rx="18" fill="#3D48EB"/>
<path d="M22.2197 18.2971C22.2197 17.8616 22.2197 17.4528 22.2197 17.044C22.2375 15.7909 23.0374 15 24.2904 15C32.5641 15 40.8378 15 49.1115 15C50.2401 15 50.9866 15.6932 51.0933 16.8129C51.111 16.964 51.1022 17.1151 51.1022 17.2662C51.1022 27.966 51.1022 38.6658 51.1022 49.3746C51.1022 49.6767 51.0934 49.9878 51.0223 50.2811C50.8179 51.1075 50.1069 51.6407 49.2182 51.6674C48.765 51.6763 48.3028 51.6674 47.7874 51.6674C47.7874 52.0762 47.7874 52.4583 47.7874 52.8405C47.7874 54.218 46.9965 55 45.6101 55C37.4341 55 29.2581 55 21.0732 55C19.6602 55 18.896 54.2357 18.896 52.8138C18.896 44.0513 18.896 35.2888 18.896 26.5352C18.896 24.4735 18.896 22.4028 18.896 20.341C18.896 19.0347 19.607 18.3415 20.9044 18.3415C21.2244 18.3415 21.5444 18.3415 21.8643 18.3415C21.9709 18.3415 22.0775 18.3237 22.2286 18.3148L22.2197 18.2971ZM34.8658 34.4268C36.2432 36.5419 37.5941 38.6036 38.936 40.6654C39.256 41.1542 39.6292 41.2164 40.0469 40.8076C40.509 40.3633 40.9267 39.8745 41.4066 39.4657C41.9043 39.048 41.9397 38.6125 41.7175 38.0349C40.8288 35.7332 39.9935 33.4226 39.1137 31.1209C39.0071 30.8365 39.0514 30.6854 39.2647 30.4899C40.1179 29.7167 40.9533 28.9258 41.7976 28.1438C42.4641 27.5217 42.7662 26.7574 42.6062 25.8598C42.4463 24.9267 41.9132 24.2691 40.9979 23.9669C40.0292 23.6559 39.1581 23.8514 38.4383 24.589C37.5941 25.451 36.7586 26.3219 35.941 27.2106C35.7277 27.4417 35.5589 27.4772 35.2656 27.3617C32.8662 26.393 30.4579 25.451 28.0585 24.4823C27.6763 24.3313 27.3741 24.3668 27.0897 24.6778C26.592 25.2022 26.0677 25.6999 25.5701 26.2153C25.1257 26.6685 25.1703 27.0507 25.7035 27.4061C26.1656 27.7172 26.6276 28.0104 27.0897 28.3126C28.6627 29.3435 30.2446 30.3744 31.8265 31.4052C31.7821 31.4675 31.7642 31.5208 31.7286 31.5563C30.6267 32.7472 29.5247 33.938 28.405 35.1111C28.325 35.1911 28.1384 35.2266 28.014 35.2088C27.5252 35.1111 27.0543 34.9422 26.5566 34.88C26.3078 34.8445 25.9789 34.8978 25.7922 35.0489C25.3124 35.4488 24.8858 35.902 24.4592 36.3641C24.1126 36.7463 24.2015 37.1284 24.6547 37.3772C25.4456 37.8127 26.2367 38.2304 27.0188 38.6836C27.2409 38.8169 27.4452 39.0302 27.5785 39.2524C28.0229 40.0078 28.4227 40.7809 28.8404 41.5452C29.1426 42.1051 29.5336 42.1673 29.9957 41.7229C30.4134 41.3142 30.8135 40.8965 31.2311 40.4877C31.4444 40.2833 31.4977 40.0611 31.4177 39.7767C31.2755 39.2702 31.151 38.7547 31.0443 38.2482C31.0177 38.1415 31.0444 37.9638 31.1244 37.8927C32.3419 36.7374 33.5682 35.5999 34.8302 34.4268H34.8658ZM23.5616 18.3237C23.7838 18.3237 23.9439 18.3237 24.1127 18.3237C28.3429 18.3237 32.5642 18.3237 36.7944 18.3237C39.7892 18.3237 42.784 18.3237 45.77 18.3237C46.712 18.3237 47.4587 18.8214 47.6808 19.6301C47.7608 19.9322 47.7785 20.2611 47.7785 20.5721C47.7785 30.2855 47.7785 39.9989 47.7785 49.7212V50.3344C48.1695 50.3344 48.516 50.3344 48.8537 50.3344C49.618 50.3344 49.7691 50.1833 49.7691 49.4101C49.7691 38.6836 49.7691 27.9571 49.7691 17.2306C49.7691 16.4575 49.6358 16.333 48.8893 16.333C40.7578 16.333 32.6174 16.333 24.4859 16.333C24.3793 16.333 24.2636 16.333 24.157 16.333C23.8015 16.3597 23.5794 16.5552 23.5616 16.9107C23.535 17.3639 23.5616 17.8172 23.5616 18.3326V18.3237ZM33.2839 49.5257C35.5856 49.5257 37.8784 49.5257 40.1801 49.5257C40.3223 49.5257 40.4556 49.5257 40.5978 49.5168C40.9266 49.4723 41.1311 49.2768 41.1667 48.9569C41.2111 48.6103 41.06 48.3526 40.7223 48.2548C40.5712 48.2104 40.3934 48.2015 40.2335 48.2015C35.6212 48.2015 31.0088 48.2015 26.3965 48.2015C26.2365 48.2015 26.059 48.2015 25.9079 48.2548C25.588 48.3615 25.3924 48.6014 25.4369 48.948C25.4813 49.2857 25.7034 49.4812 26.05 49.5257C26.1744 49.5434 26.2988 49.5257 26.4232 49.5257C28.7071 49.5257 30.991 49.5257 33.275 49.5257H33.2839ZM33.3105 46.1931C34.6791 46.1931 36.0478 46.1931 37.4253 46.1931C37.9674 46.1931 38.2606 45.962 38.2517 45.5443C38.2517 45.1444 37.923 44.8689 37.4253 44.8689C34.697 44.8689 31.9688 44.8689 29.2405 44.8689C28.7162 44.8689 28.4227 45.1177 28.4227 45.5443C28.4227 45.9798 28.6806 46.1931 29.2405 46.202C30.6002 46.202 31.9508 46.202 33.3105 46.202V46.1931Z" fill="#F9F9F9"/>
</svg>
