<svg height="100%" viewBox="0 0 210 73" fill="none" xmlns="http://www.w3.org/2000/svg"><path d="M60.35 1.06H42.32v42.27c0 9.64-3.53 13.68-11.71 13.68-8.7 0-12.44-4.14-12.44-13.78V1.06H.14v40.93c0 8.4.83 12.95 3.22 17.3C7.9 67.7 16.83 71.73 30.3 71.73c10.15 0 17.2-2.07 22.38-6.84 3.1-3 5.29-6.74 6.53-11.09.83-3.21 1.14-6.22 1.14-11.7z" fill="#231F20"/><path fill-rule="evenodd" clip-rule="evenodd" d="M111.9 6.62s2.07 19.51 1.63 21.43c0 0-.44 4.73 6.65 21.73s2.52 5.32 8.43 18.77l2.66 3.85 2.66-21.29c.45-7.69.3-20.25.3-20.25.44-.3 2.07-21.14 1.77-22.76s-.15-7.25-.15-7.25c-21.73-.88-26.6.89-26.6.89A611 611 0 0 0 75.39.7c-1.03 3.7-1.62 9.17-1.48 10.94.15 1.78.45 4.44.15 9.02s.74 17.89.74 17.89l-1.03-.3c.74 12.57-.3 31.78-.3 31.78h14.49c.74-.89 15.08-35.77 15.08-35.77 5.17-10.64 8.87-27.64 8.87-27.64m-11.52 36.36 13.3-3.1 2.66 2.5-1.48 4.74z" fill="#B96A05"/><path fill-rule="evenodd" clip-rule="evenodd" d="M149.13 1.06v69h35.34c8.4 0 13.89-1.44 18.24-5.07 4.77-3.73 7.15-9.01 7.15-15.54q0-12.47-11.2-16.69l-1.13-.41q9-4.66 9.01-13.99c0-6.42-3.31-11.92-8.9-14.71-3.53-1.77-8.2-2.6-15.35-2.6zm18.03 38.96h13.79c7.35 0 10.67 2.48 10.67 7.98 0 5.39-3.21 7.87-10.26 7.87h-14.2zm0-25.29h12.44c6.53 0 9.43 2.08 9.43 6.84 0 4.25-3.21 6.63-9.02 6.53h-12.84z" fill="#231F20"/></svg>