<svg height="100%" viewBox="0 0 234 65" fill="none" xmlns="http://www.w3.org/2000/svg"><path d="m224.52 37.54 2.66 7.24h-5.33zm-.48-2.66-6.09 16.37-1.52.29v1.04h5.14v-1.04l-1.72-.1-.28-.38 1.9-5.04h6.19l1.9 5.04-.19.38-1.62.1v1.04h5.9v-1.04l-1.52-.29-6.28-16.37zm-28.75 17.8h5.53v-1.14l-1.62-.2-.48-.47V37.83l10 14.85h1.71v-15.8l.48-.48 1.52-.19v-1.05h-5.52v1.05l1.62.2.47.47v12.28l-8.95-13.42v-.67h-4.95v1.05l1.72.1.47.37v14.19l-.47.47-1.62.2zm-13.42-16.66c3.53 0 5.8 3.05 5.8 7.9 0 4.76-2.27 7.8-5.7 7.8s-5.71-3.04-5.71-7.9c0-4.85 2.19-7.8 5.61-7.8m.2-1.43c-5.05 0-8.57 3.81-8.57 9.24s3.52 9.23 8.47 9.23 8.47-3.8 8.47-9.23-3.62-9.24-8.38-9.24M157.3 52.68h12.57v-4.76h-1.33l-.48 3.14-.38.38h-5.9V36.6l.38-.38 1.52-.1v-1.04h-6.38v1.05l1.72.1.47.37v14.47l-.47.38-1.72.1zm-18.84 0h13.51V48.4h-1.33l-.38 2.66-.38.38h-7.05v-7.33h4.29l.38.38.28 1.9h1.24v-5.8h-1.24l-.28 1.9-.38.39h-4.29V36.2h6.1l.38.38.38 2.2h1.52v-3.82h-12.75v1.05l1.52.1.47.38v14.47l-.47.38-1.52.1zm-5.62-4.76h-1.43l-.66 2.95-.39.38c-.76.2-1.52.38-2.28.38-4.28 0-6.85-2.95-6.85-7.8 0-4.86 2.47-7.62 6.37-7.62 1.05 0 2 .2 2.95.67l.29.47.38 2.38h1.52v-4a16 16 0 0 0-5.14-.85c-5.42 0-9.04 3.62-9.04 8.95a9.6 9.6 0 0 0 2.38 6.47 8.8 8.8 0 0 0 6.66 2.76 16 16 0 0 0 5.24-.95zm-29.7-11.7h1.24c3.42 0 4.85 1.04 4.85 3.6 0 2.58-1.43 3.72-4.57 3.72-.28 0-.66 0-1.52-.1zm-4.28-1.15v1.05l1.52.1.47.37v14.47l-.47.38-1.52.1v1.04h6.18v-1.04l-1.52-.1-.47-.38v-6.19c.85-.1 1.04-.1 1.33-.1a3.5 3.5 0 0 1 3.04.96c.57.57.86 1.24 1.34 3.14.85 3.14 1.71 3.9 4.18 3.9.67 0 1.43-.09 2.1-.19v-.95c-2.76 0-3.43-.47-4.1-3.42-.57-2.67-1.33-3.53-3.52-4.1 2.95-.76 4.2-2.1 4.2-4.47q0-4.57-6.3-4.57zm-13.14 2.47 2.67 7.24h-5.34zm-.48-2.66-6.09 16.37-1.52.29v1.04h5.14v-1.04l-1.71-.1-.29-.38 1.9-5.04h6.2l1.9 5.04-.2.38-1.61.1v1.04h6v-1.04l-1.62-.29-6.29-16.37zM64.7 44.4c1.05-.1 1.9-.2 2.57-.2 2.86 0 4.29 1.15 4.29 3.53 0 2.57-1.62 3.71-5.05 3.71-.38 0-.47 0-1.9-.1zm0-8.1c1.24-.09 1.53-.09 1.81-.09 2.57 0 4 1.14 4 3.24 0 2.47-1.52 3.62-4.76 3.62h-.95zm-4.28-1.23v1.05l1.52.1.38.37v14.47l-.38.38-1.52.1v1.04h6.95c4.38 0 6.85-1.8 6.85-5.04q0-4.14-4.85-4.28c2.76-.86 3.8-2 3.8-4.1 0-2.76-2-4.19-6-4.19zM205 15.46h2.67v9.61l-.19.2-1.33.09v.86h5.23v-.86l-1.33-.1-.2-.19v-9.6h2.68l.28.18.29 1.81h1.23v-2.95H203.2v2.95h1.23l.38-1.8zm-10.28 1.05 1.81 4.28h-3.62zm-.38-2.2-4.38 10.86-1.14.19v.86h3.72v-.86l-1.24-.1-.1-.19 1.34-3.33H197l1.33 3.33-.1.2-1.14.09v.86h4.67v-.86l-1.14-.19-4.57-10.85zm-16.65 1.15h2.66v9.61l-.19.2-1.33.09v.86h5.23v-.86l-1.33-.1-.19-.19v-9.6h2.67l.28.18.29 1.81H187v-2.95h-11.04v2.95h1.24l.38-1.8zm-5.81-.95h-5.14v.86l1.23.1.2.18v9.42l-.2.2-1.23.09v.86h5.14v-.86l-1.33-.1-.2-.19v-9.42l.2-.19 1.33-.1zm-18.75 11.33c1.14.38 2.38.57 3.52.57 3.14 0 5.14-1.43 5.14-3.52a2.6 2.6 0 0 0-.86-2 7 7 0 0 0-2.47-1.24c-2.38-.86-2.96-1.33-2.96-2.29 0-1.14.96-1.9 2.48-1.9.57 0 1.05.1 1.62.29l.19.28.28 1.81h1.34v-2.95a11 11 0 0 0-3.43-.57c-2.85 0-4.57 1.33-4.57 3.43 0 1.42.76 2.18 3.14 3.14.76.28 1.53.57 2.29.95.57.28.95.86.95 1.52 0 1.24-1.05 1.9-2.76 1.9q-1 0-2-.28l-.2-.29-.28-2.19h-1.33zm-12.38-10.38h.76c2.29 0 3.33.67 3.33 2.38s-.95 2.29-3.14 2.29h-.85v-4.67zm-3.43-.95v.86l1.15.1.28.18v9.42l-.28.2-1.15.09v.86h4.86v-.86l-1.14-.1-.2-.19v-4h.77c1.8 0 2.28.39 2.95 2.48.76 2.29 1.33 2.86 3.23 2.86.58 0 1.15-.1 1.81-.2v-.75h-.38c-1.52 0-2-.39-2.47-1.81-.57-2.1-.95-2.67-2.48-3.05 2-.48 2.95-1.43 2.95-2.95q-.02-3.14-4.76-3.14zm-5.33 0h-9.42v.86l1.14.1.2.18v9.42l-.2.2-1.14.09v.86h10.09v-3.14h-1.14l-.38 2-.38.19H126V20.6h2.85l.29.2.19 1.32h1.14v-4h-1.14l-.2 1.34-.28.19H126v-4.19h4.09l.28.2.3 1.51h1.23zm-19.8 11.8h1.62l4.38-10.75 1.24-.2v-.85h-3.81v.86l1.24.1.1.18-3.43 8.38-3.53-8.47.2-.2 1.14-.09v-.76h-4.76v.86l1.23.19zm-8.94-11.8H98.2v.86l1.24.1.28.18v9.42l-.28.2-1.24.09v.86h5.05v-.86l-1.34-.1-.19-.19v-9.42l.2-.19 1.33-.1zm-12.38 8.76-6-8.29v-.47h-3.8v.86l1.23.1.29.18v9.33l-.29.29-1.23.09v.86h4.18v-.86l-1.23-.1-.29-.28v-8.1l6.86 9.34h2.28l-.95-1.24v-9.23l.28-.29 1.24-.1v-.85h-4.1v.86l1.25.19.28.28zm136.31-2.86v.48h.67l.1.1v4.47l-.1.09-.67.1v.47h5.53V24.5h-.96l-.19.96-.1.09h-2.09v-2.1h1.05l.1.1.1.67h.75v-2.1h-.76l-.1.67-.09.1h-1.05v-1.9h1.81l.1.09.1.76h.94V20.4zm-6.94.57h.47c1.52 0 2.19.76 2.19 2.29 0 1.52-.67 2.28-2.19 2.28h-.47zm-2.29-.57v.48h.67l.1.1v4.47l-.1.09-.67.1v.47h2.95c2.29 0 3.62-1.05 3.62-2.95s-1.33-2.95-3.62-2.95zM76.88 11.56h-5.05v1.04l1.53.2.47.47v9.14c0 3.52-1.33 5.14-4.57 5.14-3.23 0-4.57-1.52-4.57-5.14v-9.33l.48-.38 1.62-.1v-1.04h-5.9v1.14l1.04.1.38.38v9.51c-.1 1.34.1 2.76.76 3.9.96 1.63 2.96 2.48 5.72 2.48 2 .1 3.9-.57 5.33-1.9.85-.95 1.14-2.2 1.14-4.57v-9.33l.47-.48 1.15-.19z" fill="#1E1E1C"/><path d="M20.9 60.01c-7.9 0-16.37-3.8-19.22-5.9a1.3 1.3 0 0 1-.57-.67 2 2 0 0 1-.29-1.04V10.04c0-.39.1-.67.29-.96s.47-.47.85-.66a58 58 0 0 1 18.85-3.43 65 65 0 0 1 19.04 3.43q.42.14.85.57c.2.28.29.57.39.95v42.17a2.4 2.4 0 0 1-.96 2c-2.85 2-11.32 5.9-19.22 5.9" fill="#fff"/><path d="M20.52 31.74H13q-.28 0-.28-.29v-5.7h-2.57v5.7s-.1.29-.29.29H2.34v2.85h7.43q.28 0 .28.29v6h2.67v-6.1q0-.28.28-.28h7.71c.1-.48-.19-2.76-.19-2.76m17.14-6.28h-2.2v15.32h2.2zm-4.28 0h-2.2v15.32h2.2zm-4.38 0h-2.2v15.32H29zm-4.29 0h-2.19v15.32h2.2zm14.57 21.7h-7.8q-.3 0-.3-.29v-6.09h-2.47v6.1s-.1.28-.38.28h-7.52q.15 1.42 0 2.86h7.42c.2 0 .39.09.39.28v7.24l2.66-.77v-6.66q0-.29.29-.29h7.7zm-19.9-6.19H17.1V58.3h2.28zm-6.57 16.28 2.29.67V40.97h-2.3zm-4.28-1.33 2.28.85v-15.8H8.53zm-4.38-1.91 2.29 1.05V40.97H4.15z" fill="#BC1540"/><path d="M2.72 34.21h-.19V32.6c0-.19.2-.38.48-.38h6.76c.38 0 .66-.19.66-.57v-5.33c0-.19.2-.38.48-.38h1.43c.28 0 .47.2.47.48h-.1q0-.3-.28-.29H11c-.19 0-.28.1-.28.2v5.23c.1.38-.2.76-.57.76H3.2c-.29 0-.29.19-.29.19zm7.9 6.29h-.19v-5.72c0-.19-.19-.38-.47-.47v-.2c.28 0 .57.3.57.67zM4.44 53.92h-.2V41.73c0-.28.1-.47.39-.47h1.52c.19 0 .48.19.48.38v.1h-.2q0-.3-.28-.3H4.63c-.1 0-.2 0-.2.3zm4.38 2h-.2V41.64c0-.29.1-.38.39-.38h1.52c.28 0 .38.19.38.47h-.1q0-.28-.28-.28H9c-.1 0-.2 0-.2.28zm4.28 1.33h-.2V41.64c0-.29.1-.48.39-.48h1.52c.29 0 .38.2.48.48h-.2c0-.2-.09-.29-.18-.29h-1.62c-.2 0-.2 0-.2.29zm4.38.85h-.1V41.65c0-.29.1-.38.38-.38h1.53c.19 0 .47.19.47.38v.1h-.19q0-.3-.28-.3h-1.53c-.1 0-.19 0-.19.3V58.1zm2.95-25.5c0-.1-.1-.2-.29-.2H13.4q-.6 0-.77-.57v-.1l.2-.09v.1c.09.28.28.47.66.47h6.76c.19 0 .38.1.47.29zm1.24 16.94h-.2v-1.52c0-.29.2-.29.3-.29h6.56c.38 0 .76-.29.76-.67v-5.52c0-.19.1-.28.2-.28h1.7v.19h-1.61c-.1 0-.1 0-.1.1v5.51c0 .48-.38.86-.86.77h-6.66c-.19 0-.19 0-.19.19zm7.61 7.52h-.19v-6.47c0-.2-.1-.38-.19-.57-.1-.1-.19-.1-.28-.1v-.2c.19.01.28.1.38.2.19.19.28.38.28.67zm10.09-8.86q0-.27-.28-.28h-6.86a1 1 0 0 1-.85-.48s0-.09-.1-.09l.1-.1.1.1a.7.7 0 0 0 .66.48h7.23-.1c.2.1.3.19.2.38zm-3.62-7.7h-.1V26.3c0-.38.1-.38.39-.38h1.43c.28 0 .47.2.47.48h-.19q0-.3-.28-.29h-1.43c-.1 0-.19 0-.19.29zm-4.37.1h-.1V26.4c0-.37.29-.37.38-.37h1.53c.28 0 .38.19.38.47h-.2q0-.28-.28-.28h-1.43c-.19 0-.28 0-.28.28zm-4.28-.01h-.2V26.31c0-.38.2-.38.38-.38h1.43c.2 0 .38.2.48.38v.1h-.1q0-.3-.28-.29h-1.43c-.2 0-.29 0-.29.2zm-4.39.01h-.1V26.4c0-.37.1-.37.39-.37h1.52c.29 0 .38.19.38.47h-.19c0-.19-.1-.38-.28-.38H22.9c-.19 0-.19 0-.19.29v14.18" fill="#B9966C"/><path d="m10.34 40.21-.1-5.43c0-.19 0-.28-.19-.47v-.1c.2.2.2.38.2.57v5.43z" fill="#B9966C"/><path d="M20.9 6.51h-.66c-6.1.1-12.19 1.15-18 3.14l.1 14.28h37.13V9.84A59 59 0 0 0 20.9 6.51" fill="#2770B7"/><path d="M24.8 15.65a3.8 3.8 0 1 0-7.6 0 3.8 3.8 0 0 0 7.6 0" fill="#0777BD"/><path d="M1.96 23.93V9.65c0-.1.1-.1.2-.1A55 55 0 0 1 20.9 6.24a64 64 0 0 1 18.85 3.42l.2.29v14.09a.4.4 0 0 1-.39.38H2.44a.46.46 0 0 1-.48-.48m.57-.1h36.75v-13.7c-5.9-2-12.19-3.14-18.47-3.33a57 57 0 0 0-18.28 3.23zm37.03 29.32a37 37 0 0 1-18.66 5.7 37.3 37.3 0 0 1-18.65-5.7c-.2-.2-.38-.38-.29-.67V25.74c0-.28.2-.47.38-.47h37.03c.2 0 .38.09.48.38V52.3c.1.28 0 .67-.29.86M2.53 31.07c0 .1.1.29.2.29h6.56c.1 0 .29-.1.29-.29v-4.76c0-.19 0-.38-.29-.38H2.82c-.2 0-.2.1-.2.29v4.85zm.29 9.43h6.47c.1 0 .2-.2.2-.29v-5.05c0-.19-.1-.28-.2-.28H2.72c-.19 0-.28.19-.28.38v4.85c.1.2.19.39.38.39m3.43 1.14c0-.29-.1-.38-.29-.38H4.53c-.19 0-.28.1-.28.38v11.8c0 .2.1.38.19.48.47.28 1.04.57 1.61.85.2 0 .2 0 .2-.28.09-.2 0-12.57 0-12.85m4.37-.1c0-.28-.19-.28-.38-.28H9.01c-.2 0-.39.1-.39.28v13.8c0 .2.1.39.2.39.47.19 1.04.38 1.52.57.19 0 .19 0 .19-.29zm4.29 0c0-.28-.2-.28-.38-.28h-1.34c-.19 0-.38.1-.38.38v15.13q0 .32.29.48c.47.19 1.05.28 1.62.38.19 0 .19 0 .19-.29zm4.38 0q0-.28-.29-.28h-1.43c-.19 0-.28 0-.28.28v16.09c0 .19.19.38.38.48l1.52.19c.1 0 .2-.1.2-.29-.1-.86-.1-16-.1-16.47m1.14-6.28c0-.19-.1-.38-.29-.38h-6.66c-.1 0-.29.1-.29.28v5.05c0 .2.1.29.29.38h6.66c.1 0 .2-.1.2-.28zm-.1-2.86c0-.1-.19-.19-.38-.19H13.2c-.57 0-.57-.38-.57-.76h-.1v-5.14c0-.28-.18-.38-.37-.38H10.8c-.19 0-.28 0-.38.2v5.23c0 .38-.19.76-.76.76H2.91c-.28 0-.28.19-.28.28v1.34c0 .19.19.28.28.28h6.76c.57 0 .76.29.76.76v5.43c0 .2 0 .29.2.29h1.8c.1 0 .2-.2.2-.39v-5.33c0-.38.18-.76.75-.76h6.76c.2 0 .2-.19.2-.38zm0-6.18c0-.2 0-.29-.28-.29h-6.28c-.39 0-.58-.1-.58.38v4.86c0 .1.1.28.2.28h6.47c.1 0 .28-.1.28-.28zM38.9 41.16h-6.67a.2.2 0 0 0-.19.2v5.13c0 .1.1.29.2.29h6.75c.1 0 .1-.1.2-.29v-4.95c-.1-.19-.2-.28-.3-.38m-3.34-1.05c0 .2.1.39.29.39h1.33c.2 0 .38-.2.38-.39v-13.8c0-.28-.19-.38-.38-.38h-1.33c-.2 0-.38.1-.38.38zm-4.37-.09c0 .29.09.38.28.38h1.43c.19 0 .28-.19.28-.29v-13.8c0-.28-.1-.38-.28-.38h-1.33c-.2 0-.38.1-.38.38zm-4.29.1q0 .4.29.38h1.42c.2 0 .3-.2.3-.39v-13.8c0-.28-.1-.38-.3-.38h-1.4c-.2 0-.38.1-.38.38zm-4.28 0c0 .28.19.38.28.38h1.43c.2 0 .29-.1.29-.39v-13.8c0-.28-.1-.38-.29-.38H22.9c-.19 0-.38 0-.38.29zm-1.24 6.56c0 .1.1.29.29.2h6.28c.1 0 .28-.1.28-.2v-5.14c0-.19-.1-.28-.19-.38h-6.28q-.28-.02-.28.38v5.14zm6.85 4.2c0-.2 0-.39-.1-.39h-6.46q-.3-.02-.29.38v7.14c0 .2.1.38.38.38 2.1-.1 4.19-.47 6.19-.95.19-.1.19-.2.19-.38.1-1.33.1-6.19.1-6.19m2.96-.48c0-.39.19-.77.76-.77h7.04c.1 0 .1-.1.1-.28v-1.43c0-.29-.2-.29-.38-.29h-6.86c-.38 0-.76-.28-.76-.66v-5.43q0-.4-.29-.38h-1.42c-.1 0-.29.1-.29.38v5.43c0 .38-.1.76-.76.76h-6.57c-.19 0-.28 0-.38.29v1.14q0 .4.29.38h6.66c.57 0 .76.38.76.76v6.47c0 .1.1.2.2.2l1.7-.58c.1 0 .2-.19.2-.28zm7.9 2.18v-1.8c0-.2-.1-.38-.29-.38h-6.66c-.1 0-.2 0-.2.28v5.24c0 .1.1.19.2.19h.1c2.37-.95 4.75-2.1 6.85-3.53.1 0 0 .1 0 0" fill="#DDC391"/><path d="M24.52 15.46a3.62 3.62 0 1 0-7.23 0 3.62 3.62 0 0 0 7.23 0M20.9 20.6c.3 0 .39.2.39.48 0 .38.1 1.14.1 1.62 0 0 0 .1-.1.1h-.87s.1-1.15.1-1.63q-.02-.57.38-.57m0-10.28c-.28 0-.38-.19-.38-.48 0-.47 0-.95-.1-1.9h.87s.1 0 .1.1c0 .95-.1 1.42-.1 1.9 0 .29-.1.48-.39.38m-1.61 10.09q.3.15.19.57c-.1.48-.38 1.24-.48 1.72l-.1.1h-.85c-.1 0-.1-.1-.1-.1l.77-2c.19-.2.28-.38.57-.29m-1.43-.76q.29.29 0 .57l-1.62 2.47H15c-.1 0-.1-.1-.1-.1s1.82-2.28 2.3-2.85c.28-.19.47-.28.66-.1m-1.14-1.14c.1.2.1.48-.1.58h-.1l-4.47 3.61H9.77s-.2-.09 0-.19l6.28-4.09c.19-.1.48-.1.67.1m-.76-1.43c.09.19-.1.38-.39.47L3.58 22.22h-.1v-2c.77-.2 10.48-2.95 11.8-3.24.3-.1.58-.1.68.1m-.2-1.62c0 .29-.19.38-.47.38l-11.61.67h-.1v-1.9l.1-.1 11.6.67c.2 0 .48.09.48.28m3.53-4.86c-.29.1-.38-.09-.48-.37-.19-.48-.48-1.15-.86-2.2v-.09h.96s.1 0 .1.1c.28 1.04.37 1.61.56 2.09-.1.19-.1.38-.28.48m-1.43.76c-.2.1-.48.1-.57-.1v-.1A97 97 0 0 1 15 8.33v-.1c.29 0 .77 0 1.15-.09h.1c.75 1.14 1.32 2.1 1.7 2.57.1.1.1.38-.1.67q0-.15 0 0m-1.13 1.12q-.3.3-.57 0c-1.05-.66-4.57-2.94-5.43-3.51 0 0-.1-.1 0-.1s.48-.1.76-.19c.29-.1.76-.1.95-.19h.1l4 3.24c.28.19.28.47.19.76m-.76 1.43c-.1.28-.3.28-.58.19-1.33-.29-9.52-2.67-11.7-3.24-.1 0-.1-.1 0-.19 1.14-.38 2.85-.86 2.85-.86l9.04 3.53c.29.19.48.38.38.57m6.57 6.47c.29-.1.38.1.48.38l.76 2s0 .1-.1.1h-.95s-.38-1.34-.47-1.81c-.1-.29 0-.57.28-.67m1.43-.76c.2-.2.38-.1.57.19l2.29 2.85s0 .1-.1.1h-1.24l-1.61-2.48c-.1-.28-.1-.47.1-.66M25 18.5q.29-.27.57 0l6.47 4.2c.1.1 0 .1 0 .1h-2.38c-.38-.3-3.42-2.87-4.47-3.63-.2-.19-.2-.38-.2-.66m.77-1.43c.1-.29.29-.29.57-.2 1.33.3 11.7 3.24 11.7 3.24v2.1h-.09l-11.99-4.57c-.1-.1-.29-.29-.19-.57m.28-1.62c0-.28.2-.38.48-.38l11.52-.67h.1v1.9h-.1l-11.52-.47c-.28 0-.48-.1-.48-.38m-3.52-4.86q-.3-.13-.19-.57c.1-.47.29-1.04.57-2.09h.96l.1.1c-.39 1.04-.68 1.7-.87 2.19-.19.28-.38.47-.57.38m1.43.76q-.29-.3 0-.57l1.71-2.57h.1c.38 0 .76.1 1.14.1v.09a49 49 0 0 0-2.28 2.85c-.29.1-.48.2-.67.1M25 12.5c-.2-.18 0-.47.19-.56.95-.86 3.71-2.95 4-3.24h.1c.18 0 .47.1.85.2.28 0 .57.09.76.18.1 0 .1.1 0 .2l-5.43 3.51c-.1-.09-.28-.09-.47-.28" fill="#DDC391"/><path d="M20.9 60.3c-8 0-16.65-3.9-19.5-6a2 2 0 0 1-.68-.67 2 2 0 0 1-.28-1.04V9.84c0-.38.1-.76.28-1.04.2-.29.48-.48.86-.67A60 60 0 0 1 20.81 4.7a66 66 0 0 1 19.23 3.43q.56.15.86.57a2 2 0 0 1 .38 1.05V52.2c.1.77-.29 1.62-.96 2.1-2.76 2.1-11.42 6-19.41 6m-.09-54.93A58 58 0 0 0 1.87 8.8a2 2 0 0 0-.57.38c-.1.19-.2.38-.2.66V52.6c0 .28.1.47.2.76.1.19.28.28.47.47 2.86 2 11.33 5.9 19.13 5.9 7.81 0 16.28-3.8 19.14-5.9.47-.38.76-.95.66-1.52V9.84c0-.19-.1-.47-.19-.66-.1-.2-.38-.29-.57-.38a66 66 0 0 0-19.13-3.43" fill="#DDC391"/><path d="M25.76 13.94c-.1-.2.1-.38.38-.48 1.24-.47 8.28-3.24 9.04-3.52h.1s1.71.47 2.85.86c.1 0 0 .1 0 .19-2.66.76-10.37 2.95-11.7 3.23-.29 0-.58 0-.67-.28" fill="#DDC391"/><path d="m2.82 3.08.57-.19v1.9c0 .1 0 .3-.1.39.1-.1.2-.1.39-.2l.57-.18v.47l-1.53.48zM5.3 4.99l-.67.19V2.5l.66-.19zm1.33-2.95c.19-.1.47-.1.66-.1.2.1.38.29.29.48 0 .38-.29.67-.57.76v.1c.38-.1.66.1.66.47 0 .29-.1.57-.38.76-.19.1-.47.29-.76.29l-.67.19V2.32zm-.29.47c.1.1.1.2.1.29v.1c0 .09 0 .19-.1.28h.1c.1-.1.19-.1.38-.19.19-.1.28-.19.28-.38a.2.2 0 0 0-.19-.2h-.48zm.1 1.43c0 .1 0 .2-.1.29h.1c.38-.1.66-.2.66-.57q0-.3-.28-.29h-.38l-.1.1c.1.1.1.19.1.28zm1.61-2.28 1.53-.38v.47l-.67.1h-.38l-.1.1c.1.09.1.18.1.28v.1c0 .09 0 .18-.1.28h.1c.1-.1.2-.1.38-.1l.57-.1v.49l-.57.09h-.38l-.1.1c.1.1.1.19.1.28v.1c0 .1 0 .19-.1.28h.1c.1-.1.2-.1.38-.1l.67-.18v.47l-1.62.29zm2.85-.57c.2-.1.49-.1.77 0s.38.28.38.57-.19.57-.47.66v.1l.66 1.05-.76.1L11 2.6h-.28v.1c.1.09.1.28.1.47v.57l-.67.1V1.18zm-.28.47c.1.1.1.2.1.29v.1c0 .09 0 .28-.1.28.2-.1.38-.1.48-.2.19-.09.29-.18.29-.37q0-.3-.29-.29h-.48zm2.86 1.72-.67.1V1.46c0-.1 0-.2.1-.29h-.1c-.1 0-.28.1-.38.1h-.28V.8l1.9-.28v.47h-.67v.1c.1.1.1.19.1.28zM14.72.52l.85-.1.58 2.67-.67.09-.1-.29V2.7c-.1.1-.19.1-.38.1h-.38v.29l-.1.28-.56.1zm.38.19q0 .71-.29 1.42c.1 0 .2-.1.29-.1h.28l.1-.09a4 4 0 0 1-.29-1.42zm3.14.29h-.29a.5.5 0 0 0-.47-.3c-.2 0-.38.2-.38.3s.38.28.76.47c.28.1.38.38.48.66 0 .48-.39.86-1.05.86-.29 0-.57 0-.86-.1v-.66h.2c.09.19.37.38.56.38s.38-.2.38-.29c0-.1-.28-.28-.57-.47-.28-.2-.57-.38-.57-.76 0-.48.38-.76.95-.86.29 0 .48 0 .76.1zm1.9 1.8V.13H21c.29 0 .48 0 .76.1.29.19.38.48.38.76 0 .48-.38.86-.85.86h-.1c-.1 0-.29 0-.38-.1v.1c.1.1.1.28.1.47v.58zm.57-2.19c.1.1.1.2.1.29V1c0 .09 0 .28-.1.37l.1.1c.1 0 .28 0 .38-.1.19-.1.29-.28.19-.38 0-.19-.1-.38-.38-.38zm1.72-.48 1.62.1v.48h-.67c-.1 0-.29 0-.38-.1h-.1c.1.1.1.2.1.29V1c0 .09 0 .18-.1.28l.1.1h.95v.47h-.57c-.1 0-.29 0-.38-.1h-.1c.1.1.1.2.1.29v.1c0 .09 0 .18-.1.28h1.15v.48l-1.72-.1zm2.95.29c.28 0 .48.1.76.2.29.09.38.37.38.66 0 .28-.19.57-.47.57v.1l.66 1.33-.76-.1-.48-1.14c-.1 0-.19 0-.28-.1.1.2.1.29.1.48v.57l-.67-.1V.24zM25 .8c.1.1.1.2.1.29v.1c0 .09 0 .18-.1.28v.1h.47c.2 0 .29-.2.29-.3q0-.25-.29-.37c-.1-.1-.19-.1-.47-.1m3.62.38-.67-.1c-.1 0-.29 0-.38-.09h-.1c.1.1.1.2.1.29v.1c0 .09 0 .18-.1.18l.1.1h.38l.57.1v.47l-.57-.1c-.1 0-.29-.1-.38-.1h-.1c.1.1.1.2.1.3v.85l-.67-.1V.43l1.62.19c.1.2.1.57.1.57m.95.66c.1.38.19.86.19 1.33h.1c0-.38.09-.86.18-1.24l.2-.85.56.1-.76 2.56-.57-.1L28.71.8l.67.1zm2.76.47c.19.38.28.86.28 1.24h.2c-.1-.47-.1-.86-.1-1.33v-.67h.48v2.67l-.67-.1-.57-1.23c-.2-.29-.2-.67-.29-.96h-.19c.1.48.1.86.1 1.34v.76l-.57-.1V1.28l.76.19zm2.09-.47c.29.1.67.19.86.47.28.29.38.77.38 1.15s-.1.76-.38 1.04c-.2.2-.48.2-.95 0l-.67-.19V1.66zm-.1 1.9c0 .1 0 .29-.09.38l.1.1c.1 0 .38.1.47 0 .1-.1.2-.1.2-.57v-.2c0-.37 0-.66-.2-.85-.19-.2-.38-.2-.47-.29h-.1c.1.1.1.29.1.38zm1.71-1.44 1.62.38v.48l-.57-.19c-.1 0-.29-.1-.38-.19h-.1c.1.1.1.19.1.29v.09c0 .1 0 .2-.1.2l.1.09c.1 0 .28 0 .38.1l.57.18v.48l-.57-.2a1 1 0 0 1-.38-.18h-.1c.1.1.1.19.1.28v.29c0 .1 0 .19-.1.28l.1.1h.38l.66.19v.38l-1.61-.48zm3.05 3.43-.57-.19v-1.9c0-.1 0-.2.09-.29v-.1c-.1 0-.29 0-.38-.09l-.29-.1V2.6l1.9.57v.48l-.28-.1c-.1 0-.28-.1-.38-.19h-.1c.1.1.1.2.1.29v1.9zM10.62 60.49c-.66-.2-.95.19-.95 1.14s.38 1.52.95 1.71h.29c.48 0 .67-.38.67-1.14a1.6 1.6 0 0 0-.96-1.71m.29 1.42v.67c0 .19-.1.19-.2.19h-.09c-.19-.1-.28-.29-.28-.95 0-.67.1-.76.19-.76h.1q.28 0 .28.85m2.86.39c-.1.38-.1.76-.1 1.14h-.1c0-.38 0-.76-.09-1.15l-.19-.95-.86-.19v2.76l.57.1v-2.29h.1c0 .2 0 .38.1.67l.38 1.62.38.1.28-1.24c.1-.29.2-.58.2-.86h.09c-.1.48-.1.67-.1.76v1.33l.57.1v-2.67l-.85-.19zm3.23.38a6 6 0 0 0 .1 1.33H17c0-.38-.1-.86-.28-1.14l-.38-.96-.77-.1v2.77l.58.1v-.86c0-.48 0-.86-.1-1.24h.1c0 .29.1.67.28.95l.57 1.24.67.1V62.1l-.57-.1v.68zm1.43 2.09.67.1V62.1h-.67zm2-2.57-.67 2.66h.67l.1-.28v-.29h.66v.2l.1.28h.66l-.57-2.76zm.67 1.8h-.58c.2-.47.29-.94.29-1.32q0 .59.29 1.33m3.42.19c0-.1.1-.2.1-.29v-1.9l-.67.1v2.75l1.52-.19v-.47l-.57.1c-.1-.2-.19-.1-.38-.1m2.28-1.52c-.09.38-.18.76-.18 1.23 0-.38-.1-.85-.2-1.23l-.18-.86-.67.1.76 2.56.67-.1.76-2.85-.67.1zm2.2-1.62c-.67.19-1.05.76-1.05 1.71 0 .29.1.67.19.86.1.19.38.28.57.28h.2c.28-.1.47-.19.75-.38v-.66h-.19c-.1.28-.19.38-.38.47-.19 0-.47-.19-.47-.76s.19-.86.47-.95c.2 0 .29.1.38.19h.2v-.76zm2.38 1.61c-.1 0-.2.1-.38.2 0-.1.09-.2.09-.29v-.1c0-.1 0-.19-.1-.28v-.1h.39l.57-.19v-.47l-.67.1c-.1 0-.19.09-.38.18 0-.1.1-.19.1-.28v-.1c0-.1 0-.19-.1-.19.1 0 .19 0 .29-.1l.57-.18v-.48l-1.53.48v2.76l1.62-.48v-.48zM6.63 60.3q.42.3.57.76c0 .19-.1.38-.29.38h-.19a1.5 1.5 0 0 1-.57-.76.4.4 0 0 1 .38-.39zm28.46 0c.19-.1.38 0 .47.19v.19q0 .59-.57.76c-.19.1-.38 0-.47-.1 0-.1-.1-.19 0-.19.1-.38.28-.76.57-.85M.91 4.6c.2-.09.48.1.48.3v.18c0 .29-.19.58-.57.67-.2.1-.48-.1-.48-.28v-.2c.1-.28.29-.47.57-.66m39.89.09c.29.1.48.38.57.67 0 .19-.19.38-.38.48h-.19c-.29-.1-.48-.39-.57-.67 0-.2.1-.38.38-.48.1-.1.1 0 .19 0" fill="#BC996D"/><path d="M20.62 22.98c-.1-.1-.1 0 0 0-.1-.1 0-.19 0-.19h.76c0-.29-.1-1.14-.1-1.52 0 0 0-.1.1-.1 0 0 .1 0 .1.1 0 .28.1 1.33.1 1.62v.1zM21 10.51c-.19 0-.38-.1-.38-.48 0-.1 0-.1.1-.1.09 0 .09 0 .09.1 0 .29.19.29.19.29l.29-.29c0-.1 0-.47.1-.85V8.13s0-.1.09-.1l.1.1v1.9c0 .29-.39.48-.58.48m-1.9 12.47h-.96s-.1 0-.1-.1c0-.09 0-.09.1-.09H19c.1-.29.38-1.33.48-1.71 0 0 .1-.1.1 0v.1c-.1.37-.39 1.51-.48 1.8m-4 0c-.1-.19-.1-.19 0-.19h1.14c.2-.29 1.33-2 1.52-2.47 0 0 .1-.1.1 0 0 .09.1.09 0 .09-.29.48-1.43 2.19-1.62 2.48zm-2.95 0H9.77s-.1 0-.1-.1c0-.09 0-.09.1-.09h2.28c.29-.19 3.43-2.76 4.48-3.62.28-.19.19-.38.19-.38l.1-.1c.09.1.18.3-.2.58-1.05.85-4.38 3.62-4.47 3.71m-8.38-.58q-.15-.14 0 0l.38-.18c8.66-3.33 11.04-4.28 11.61-4.47.29-.1.29-.3.2-.3-.1 0 0-.09 0-.09h.09s.1.39-.38.58L4.15 22.4zm0-5.7c-.1-.1-.1-.1 0-.2l11.61-.66c.38 0 .38-.19.38-.19s0-.1.1-.1c0 0 .1 0 .1.1s-.1.38-.48.38c-1.43.1-11.52.67-11.71.67m15.52-5.9c-.1 0-.29-.1-.38-.38s-.2-.67-.48-1.05c-.1-.29-.29-.67-.38-1.05v-.1h.1c.18.39.28.77.38 1.05.19.48.28.86.38 1.05.1.29.28.29.38.29s.19-.2.1-.38c-.1-.2-.1-.39-.2-.58-.1-.28-.19-.76-.28-1.04 0 0 0-.1.1-.1h.09c.1.29.19.67.28 1.05s.1.47.2.57q.12.43-.2.57s0 .1-.1.1m-1.52.76c-.19 0-.28-.1-.38-.2-.28-.37-.76-.94-1.23-1.61l-.96-1.24v-.1h.1l1.05 1.24c.57.67.95 1.24 1.23 1.62.2.2.29.2.38.2.1-.1.2-.1 0-.39v-.1h.1c.19.39.1.58 0 .67-.1-.1-.2-.1-.29-.1m-1.23 1.25c-.1 0-.2 0-.29-.1-.67-.48-2.57-1.62-5.43-3.52v-.1h.1l5.33 3.52c.29.2.38 0 .38 0 0-.1 0-.19-.19-.38v-.1h.1c.28.3.19.48.19.58s-.1.1-.2.1m-.76 1.52h-.19c-1.14-.29-8.56-2.38-11.6-3.24h-.1s-.1 0-.1-.1c0 0 0-.09.1 0h.1c3.13.86 10.56 2.96 11.6 3.24.2.1.38 0 .38-.1 0-.09 0-.18-.28-.28-.1 0-.1-.1-.1-.1 0-.09.1-.09.1-.09.38.2.38.38.38.48s-.2.19-.29.19m16.38 8.66h-2.38l-4.48-3.62v-.1h.1c1.05.86 4.19 3.43 4.47 3.62h2.29s.1 0 0 .1q.15 0 0 0m6.09-.58-.1-.09-1.8-.66c-3.24-1.24-9.24-3.62-10.19-3.9-.19-.1-.38-.1-.29-.48 0 0 0-.1.1-.1 0 0 .1 0 .1.1q.02.28.19.28c.95.29 7.04 2.67 10.18 4 .76.29 1.33.57 1.71.67V20.4s0-.1.1-.1c0 0 .1 0 .1.1zm0-5.7-11.61-.67c-.38 0-.48-.28-.48-.38s0-.1.1-.1.1 0 .1.1c0 0 0 .2.28.29l11.51.66v-1.8s0-.1.1-.1.1 0 .1.1v1.9zm-15.52-5.9h-.1s-.37-.2-.18-.57c0 0 0-.1.1-.1 0 0 .09 0 .09.1 0 .19 0 .38.1.38.09 0 .18-.1.37-.2.1-.18.29-.76.48-1.23l.38-.95h.1c.1 0 0 0 0 .1l-.38.94c-.2.57-.39.96-.48 1.24-.2.29-.38.29-.48.29m1.53.76c-.1 0-.2 0-.2-.1v-.1s.1-.09.1 0c0 .1.2.1.38-.18.2-.29.76-.95 1.34-1.72l.95-1.14h.1v.1l-.96 1.14-1.33 1.71c-.1.2-.29.29-.38.29m1.23 1.24c-.1 0-.19-.1-.28-.2v-.1h.1s.09.2.37 0L31 9.19l.09-.1h.1v.1l-.1.1c-2.86 1.8-4.66 3.04-5.33 3.42-.1.1-.2.1-.29.1m.77 1.51c-.2 0-.29-.1-.39-.29v-.1h.1c.1.2.19.2.38.1 1.24-.38 11.33-3.14 11.7-3.23h.1v.1c-.47.09-10.47 2.94-11.7 3.23 0 .19-.1.19-.2.19m.67 8.66h-1.33l-1.62-2.47v-.1h.1c.28.48 1.33 2.1 1.61 2.48h1.15s.1 0 .1.1m-4.11-.01v-.19c-.09-.38-.37-1.33-.47-1.71 0 0 0-.1.1-.1 0 0 .1 0 .1.1.09.28.37 1.33.47 1.71h.67c-.1-.19-.2-.57-.38-.95v-.1h.09c.2.38.38.86.38 1.05l.1.1z" fill="#0777BD"/><path d="M2.53 24.03v-13.9c5.81-2 11.9-3.14 18.09-3.14h.67c6.18.1 12.37 1.14 18.18 3.14l-.1.19c-5.8-2-11.9-3.14-18.08-3.24h-.77a58 58 0 0 0-17.9 3.15l.1 13.8z" fill="#0777BD"/><path d="M17.48 15.65c0-2 1.62-3.62 3.62-3.62.95 0 1.8.29 2.47.95a3.5 3.5 0 0 0-2.67-1.14c-2 0-3.61 1.62-3.61 3.62 0 .95.38 2 1.14 2.66a3.4 3.4 0 0 1-.95-2.47" fill="#F4E0A9"/><path d="M24.43 15.37c0 2-1.62 3.61-3.62 3.61-.95 0-1.8-.28-2.48-.95A3.5 3.5 0 0 0 21 19.17c2 0 3.62-1.62 3.62-3.61 0-.96-.38-2-1.15-2.67.58.76.96 1.62.96 2.48" fill="#AA936C"/><path d="M28.8 49.82c-.18-.1-.28-.19-.47-.19h-6.57a.4.4 0 0 1-.38-.38h.1c0 .2.1.29.28.38h6.57c.19-.1.38 0 .48.2" fill="#F4E0A9"/><path d="M20.9 60.4c-8 0-16.65-3.91-19.51-6a2 2 0 0 1-.67-.67c.2.28.38.47.58.66 2.85 2 11.51 5.9 19.6 6 7.9 0 16.57-3.9 19.42-6a2.1 2.1 0 0 0 .86-2V9.84c0-.38-.1-.66-.38-.95h.1a2 2 0 0 1 .38 1.05V52.3c.1.76-.29 1.62-.96 2.1-2.76 2.09-11.42 6-19.42 6" fill="#AA936C"/><path d="M20.8 58.87a38 38 0 0 0 18.57-5.71q.43-.3.29-.86V25.65h.1V52.3c.09.38-.1.67-.39.86a36.7 36.7 0 0 1-18.56 5.7m-.29-36.16h.77v-.2c0-.38 0-1.14-.1-1.42v-.1c0 .29 0 1.05.1 1.43v.19zm.38-12.38c-.18 0-.38-.19-.38-.48 0 .29.1.38.29.38.2 0 .29-.09.29-.38-.1.38 0 .48-.2.48M19 22.7h-.86zm-.95 0h.86c0-.2.38-1.34.47-1.72v.1c-.1.38-.47 1.71-.47 1.8l.1-.09zm-6 0H9.77zm-2.38 0h2.29l4.47-3.62c.2-.2.2-.29.1-.48h.1c.09.2.09.38-.2.57-1.05.86-4.28 3.52-4.47 3.62zm-5.99-.48.38-.2a644 644 0 0 0 11.51-4.47c.29-.1.29-.19.29-.38q.15.31-.29.48l-11.6 4.47zm0-5.72q0-.13 0 0l11.6-.66c.2 0 .39-.1.39-.28 0 .19-.2.28-.48.38zm15.52-5.9c-.2 0-.3-.09-.39-.37-.1-.2-.19-.67-.38-1.05v-.1c-.1-.28-.29-.66-.38-1.14.19.38.28.76.38 1.05v.1c.2.47.29.75.38 1.04s.2.29.38.29c.2-.1.2-.2.2-.48 0-.29-.2-.67-.3-1.05.1.38.3.95.3 1.14 0 .2 0 .39-.2.58m-1.52.76c-.2 0-.29-.1-.38-.2-.29-.37-.86-.94-1.43-1.7-.29-.39-.57-.77-.95-1.15m0-.1c.28.39.66.77.95 1.15q1 1.14 1.43 1.71c.19.2.28.29.47.2.1-.1.1-.3 0-.48q.3.42 0 .57h-.19zm1.52 4.38c-.1 0-.19-.09-.28-.09-1.15-.76-5.34-3.43-5.34-3.52l5.34 3.52c.19.19.38.19.47 0 .1-.2.1-.29-.19-.48q.32.3.2.57c-.1-.09-.1 0-.2 0m-.76 1.53h-.2a762 762 0 0 0-11.8-3.24s10.48 2.86 11.8 3.14c.2.1.39 0 .48-.1 0-.18 0-.28-.28-.37v-.1c.28.1.38.29.28.48q-.14.17-.28.19m16.37 8.57h-2.38c-.28-.2-4.57-3.72-4.57-3.72-.19-.1-.19-.28-.1-.47a.3.3 0 0 0 0 .38l4.58 3.7h2.28zm6.09-.48-.28-.1-11.71-4.57c-.19-.1-.48-.19-.29-.47h.1c-.1.19.1.28.29.38l11.7 4.57.2.1v-1.91h.09zq0-.15 0 0m0-5.72c-1.14-.09-10.28-.56-11.6-.66-.3 0-.49-.19-.49-.38h.1q-.02.3.38.29zl-.1-2h.1zm-15.51-5.9h-.1q-.3-.13-.19-.57c-.1.29 0 .39.2.48q.25.15.37-.29c.1-.19.29-.57.38-1.04l.48-1.14h.1l-.39 1.04c-.19.48-.28.76-.38 1.05-.19.38-.38.48-.47.48m1.52.76c-.1 0-.1 0-.19-.1 0 0 .29 0 .38-.19.29-.38.76-.95 1.33-1.62l.96-1.14h.1l-.96 1.14c-.57.67-1.05 1.34-1.33 1.72q-.15.17-.29.19m1.14 1.23c-.1 0-.19 0-.19-.1 0 0 .29.1.48 0-.1 0-.2.1-.29.1m.86 1.53c-.19 0-.29-.1-.38-.2h.1c.09.2.19.2.47.1 1.33-.28 11.61-3.23 11.7-3.23 0 0-10.37 2.85-11.7 3.23zM2.44 40.21v-4.95q-.02-.32.38-.48h6.57c.1 0 .1 0 .19.1.1.1.1.1.1.19h-.1a.2.2 0 0 0-.2-.2l-.09-.09H2.72c-.19 0-.28.2-.28.38v4.95c.1.1.1.1 0 .1m1.71 1.33c0-.28.1-.47.38-.47h1.43c.29 0 .38.19.38.47h-.1c0-.19-.09-.38-.28-.38H4.44q-.3-.02-.29.38m4.38 13.9v-13.9c0-.19.1-.38.29-.38h1.52c.28 0 .38.2.38.38h-.1c0-.19-.1-.38-.28-.38H8.9q-.28-.02-.28.38zm4.28 1.24V41.54c0-.19.1-.38.38-.47h1.43c.2 0 .38.1.38.28v.1h-.1c0-.2-.09-.29-.28-.38H13.2q-.28-.02-.28.38zm4.39.95-.1-16.18a.4.4 0 0 1 .38-.38h1.43c.28 0 .38.19.38.47m0 0c0-.19-.1-.38-.29-.38h-1.43q-.28 0-.28.29v16.18zm-6.09-1.33v-5.34c.09-.09.09-.09.18-.09h6.67c.19 0 .38.2.28.38v.1-.1c0-.19-.1-.28-.28-.38H13.1c-.1 0-.1.1-.1.2z" fill="#AA936C"/><path d="M2.44 10.13A57 57 0 0 1 20.7 6.8a65 65 0 0 1 18.47 3.33c-6-2-12.18-3.14-18.47-3.24a57 57 0 0 0-18.27 3.24m.1 21.04V26.3c0-.28.1-.47.38-.47h6.57c.2 0 .29.19.29.38m-.1 0c0-.2-.1-.29-.28-.38H2.72c-.19 0-.28.1-.28.38v4.95zm-7.23 7.72V32.4c0-.19.19-.38.38-.28h6.76c.28.1.66-.2.66-.48v-5.42c0-.2.2-.38.38-.38h1.43c.29 0 .38.19.38.47h-.1c0-.28-.09-.38-.37-.38h-1.43c-.2 0-.29.1-.29.2v5.23c.1.38-.19.66-.57.76H2.72c-.19 0-.28.1-.38.28v1.43c.1 0 .2.1.1.1m17.89-1.53s-.1-.19-.28-.19h-6.86c-.19 0-.47-.1-.57-.19h.1c.19.1.38.2.57.2h6.76c.1-.1.28.09.28.18m-7.13-1.23v-4.95c0-.2.09-.38.47-.38h6.47c.2 0 .29.19.29.38v.1-.1c0-.2-.1-.29-.29-.38h-6.56c-.29 0-.39.1-.39.28zm18.65 15.51v-5.23c0-.2.2-.29.29-.29h6.76c.19 0 .19.2.28.38 0-.1-.1-.19-.19-.28h-6.76q-.15 0-.28.28v5.24c0-.1 0-.1-.1-.1m3.62-6.47v-14c0-.18.1-.37.28-.37h1.53c.28 0 .38.19.38.47m.1 0c0-.19-.2-.38-.39-.47h-1.52c-.2 0-.29.1-.38.38v13.9h-.1zm-6.57 13.8v-13.8c0-.19.1-.38.38-.47h1.52c.19 0 .38.1.38.38v.1m-.19-.1a.4.4 0 0 0-.38-.38h-1.43c-.19 0-.38.1-.38.38v13.8H31zm-6.38 0q-.02-.32.38-.48h1.53c.19 0 .38.2.38.38v.1h-.1c0-.2-.1-.29-.28-.38h-1.53c-.19 0-.28.1-.38.38m-4.38 13.89v-13.8c0-.28.1-.47.38-.47h1.43c.29 0 .38.19.38.47v.1s-.1.1-.1 0v-.1c0-.28-.09-.38-.37-.38H22.8c-.2 0-.38.1-.38.38zm-1.14 6.57v-5.14c0-.28.1-.38.29-.47h6.37c.2 0 .29.19.29.38v.1c0-.2-.1-.3-.19-.3h-6.38c-.19 0-.19.2-.19.39v5.14c-.1-.1-.19-.1-.19-.1m0 11.24v-7.24c0-.19.1-.38.29-.38h6.47q.29 0 .29.29a.2.2 0 0 0-.2-.2h-6.47c-.19.1-.19.2-.19.39v7.14c0-.1-.19 0-.19 0m0-8.67v-1.23c0-.2.1-.38.29-.38h6.66c.29 0 .67-.2.67-.48v-5.62c0-.19.1-.28.28-.38h1.62c.2 0 .38.2.38.48h-.1c0-.2-.09-.38-.28-.38h-1.62q-.17 0-.19.28v5.52c.1.38-.19.67-.57.77h-6.76c-.19 0-.28.19-.28.38zM29 56.87V50.3c0-.19 0-.38-.2-.48.1.2.2.39.2.58zm10.18-8.85q0-.3-.28-.29h-6.95c-.2 0-.38 0-.57-.19.19.1.28.19.47.19h6.95c.2-.1.38.1.38.29m-7.33 7.9v-5.33c0-.2.1-.29.2-.29h6.75c.2 0 .38.1.38.29v.19c0-.2-.19-.29-.28-.29h-6.67a.2.2 0 0 0-.19.2V56c-.1-.1-.1-.1-.19-.1q.15 0 0 0" fill="#AA936C"/><path d="M1.3 53.35a2 2 0 0 1-.2-.76V9.75c0-.29.1-.48.2-.67.19-.19.38-.38.57-.47A58 58 0 0 1 20.8 5.18a66 66 0 0 1 19.13 3.43c.2.1.38.19.57.38v.1m-.1.09a1.2 1.2 0 0 0-.56-.38A65 65 0 0 0 20.7 5.37 58 58 0 0 0 1.77 8.8c-.19.1-.38.19-.57.38-.1.19-.19.38-.19.66V52.6c0 .28.1.47.2.66v.1z" fill="#AA936C"/><path d="M2.34 24.4q-.42-.02-.57-.47v-.1c0 .2.2.39.38.39h37.03c.2 0 .38-.1.38-.38V9.94c0-.2-.19-.29-.19-.29h.1q.17.15.19.29v14c0 .28-.2.47-.48.47z" fill="#AA936C"/><path d="M26.8 22.7h-1.23c-.29-.39-1.33-2-1.62-2.48v-.1l1.62 2.38zm-4 0v-.2c-.09-.38-.37-1.23-.47-1.61v-.1c.1.38.29 1.24.48 1.62zl.86-.1-.38-.95v-.1h.09l.38 1.05z" fill="#AA936C"/><path d="M20.62 9.84c-.1-.28-.1-.57-.1-.95V7.85h.86-.76zM15 22.7c1.24-1.62 2-2.57 2.29-2.96.28-.38.38-.28.57-.19.19.2.19.29 0 .58.1-.2.1-.39 0-.48-.2-.1-.29 0-.48.19S16.24 21.27 15 22.7m-5.23 0 6.47-4.2q.43-.27.57 0h-.1c-.09-.18-.28-.18-.47 0-.95.67-5.14 3.34-6.47 4.2m-6.09-.48v-2c2.47-.67 10.56-2.95 11.7-3.24.29-.1.48 0 .57.2 0-.2-.19-.2-.47-.2-1.14.29-9.23 2.57-11.71 3.24v1.9zm0-7.62 11.6.67c.3 0 .48.2.48.38 0-.19-.1-.28-.38-.28zM19 8.42l-.1-.48h-.85.95c0 .2.1.38 0 .48q.15 0 0 0m-1.14 2.38c-.29-.38-.57-.86-1.05-1.53l-.66-.95c-.38 0-.86.1-1.15.1.29 0 .67-.1 1.15-.1l.66 1.05c.48.57.76 1.05 1.05 1.43m-1.33 1.14-4-3.33h-.2c-.18 0-.47.1-.75.1l-.77.18c.2 0 .58-.1.77-.19l.76-.1h.19c.66.58 3.14 2.48 4 3.34m-.86 1.52c-1.24-.47-8.28-3.14-9.14-3.52-.28.1-1.8.47-2.85.86h-.1c1.05-.29 2.57-.77 2.86-.86.76.28 7.9 3.05 9.04 3.52v.1zm16.37 9.24a280 280 0 0 1-6.47-4.2q-.31-.14-.48 0s.29-.18.57 0c1.05.67 5.05 3.24 6.38 4.2m6.09-2.48c-1.8-.48-10.56-2.95-11.8-3.24-.28-.1-.38 0-.47.2h-.1c.1-.2.29-.3.57-.2 1.24.2 10 2.67 11.8 3.24m-12.08-4.66c-.1-.29.09-.38.38-.38l11.6-.67-11.5.67c-.2 0-.39.1-.48.38.09 0 .09-.1 0 0m-3.72-5.43.2-.95v-.2c.09-.28.18-.56.28-.94h.86s0 .1-.1 0h-.86c-.1.38-.19.66-.28.95l-.1.19zm1.62 1.14q-.29-.14 0-.57l.95-1.43q.32-.57.76-1.14c.39 0 .86.1 1.15.1h-.1c-.28-.1-.66-.1-1.14-.1l-.76 1.14-.95 1.43c-.1.29-.1.48.1.57m1.14 1.23c-.1-.18-.1-.37.09-.56.95-.86 3.71-3.05 4-3.33h.19c.19 0 .47.1.76.1l.76.18c-.2 0-.57-.1-.76-.19-.2-.1-.48-.1-.76-.1h-.2l-4 3.24c-.18.2-.18.29-.09.48.1.19.1.1 0 .19m.76 1.43c-.1-.2.1-.38.29-.48a492 492 0 0 0 9.04-3.52c.38.1 1.9.47 2.86.86h-.1c-.95-.29-2.38-.77-2.85-.86l-9.05 3.52c-.19.1-.19.2-.19.48q0-.15 0 0M2.15 53.16c-.19-.2-.38-.38-.38-.67V25.74c0-.28.2-.47.48-.57h37.03c.28 0 .47.19.47.38v.1h-.1a.4.4 0 0 0-.37-.38H2.25c-.2 0-.48.19-.48.38V52.3c.1.38.2.67.38.86" fill="#F4E0A9"/><path d="M9.39 40.59H2.72c-.19 0-.28-.19-.28-.38 0 .19.1.29.19.38zq.17-.14.19-.29v-5.14h.1v5.14q0 .15-.3.29M6.15 54.68q-1-.43-1.71-.86c-.2-.1-.2-.28-.2-.47 0 .19.1.28.2.38.47.28 1.04.57 1.61.85 0 0 .1 0 .1.1.1-.1.2-.2.2-.29V41.44m-.1.1V54.3c0 .1 0 .19-.1.28zm4.18 14.86-1.7-.58a.5.5 0 0 1-.3-.47c0 .19.1.28.2.38.47.19 1.04.38 1.52.57.19.1.28.1.28.1.1-.2.1-.2.1-.3V41.55v14.47c0 .1 0 .2-.1.38m4.29 1.23a10 10 0 0 1-1.62-.38c-.2-.1-.38-.29-.29-.57v-.1q0 .31.29.48c.48.19 1.05.28 1.62.38h.19c.1-.1.1-.1.1-.2v-15.8 15.71c0 .1 0 .2-.1.29 0 .1-.1.19-.2.19m4.39.57h-.29c-.29 0-.95-.1-1.33-.19-.2 0-.38-.28-.38-.48 0 .2.1.39.28.39.38 0 .95.1 1.34.1H19c.09 0 .18-.1.18-.3V41.55v16.28c.2.38 0 .38-.1.38m1.06-17.62h-6.66c-.19 0-.29-.19-.29-.38 0 .19.1.29.2.38zc.1-.1.2-.19.2-.29v-5.04l.09-.1v5.14zm-9.61.01c-.1 0-.2 0-.2-.1-.09-.1-.09-.2-.09-.2h.1c0 .1 0 .2.1.2 0 0 .09.1.18.1h1.72c.1-.1.19-.2.19-.39v-5.33c-.1-.38.19-.67.57-.76h7.04c.1 0 .29-.1.29-.2 0 .2-.2.2-.38.3h-6.67c-.28-.1-.66.18-.66.47v5.52c0 .19-.1.38-.2.38zM1.87 24.03l-.1-14.19c0-.1 0-.1.1-.19 0-.1.1-.1.19-.1A54 54 0 0 1 20.7 6.24a64 64 0 0 1 18.85 3.42A64 64 0 0 0 20.7 6.33 59 59 0 0 0 2.06 9.65c-.1 0-.1.1-.1.1v.19z" fill="#F4E0A9"/><path d="M39.18 23.84H2.44v-.1zM9.3 31.45H2.62c-.2-.1-.2-.19-.2-.38 0 .1.1.29.2.29zc0-.1.1-.1.1-.1.1 0 .1-.1.1-.2v-4.94h.09v4.95c0 .1 0 .19-.1.19 0 .1-.1.1-.19.1m.85 2.95c-.2-.19-.38-.19-.57-.19H2.82c-.2 0-.38-.1-.38-.28v-.1q0 .3.28.29h6.76c.29-.1.48 0 .67.28m2.47-2.47q-.17-.3-.19-.57v-5.24 5.24c0 .28.1.38.2.57m.75-.48c-.1 0-.1 0-.19-.1 0-.09-.1-.18 0-.18h.1c0 .1 0 .1.1.19h6.75c.1 0 .29-.1.29-.29v-4.85h.1v4.95q-.15.28-.3.28zM38.9 46.97h-6.76c-.1 0-.2 0-.2-.1-.09-.1-.09-.1-.09-.19h.1c0 .1 0 .1.1.2h6.94c.1 0 .2-.1.2-.2v-5.14h.09v5.14c-.1.1-.29.2-.38.29m-3.05-6.37a.4.4 0 0 1-.38-.39q0 .27.28.38c0-.1 0-.1.1 0l1.43-.1c.19 0 .28-.19.28-.38v-13.9 13.9c0 .29-.1.48-.38.48zm-4.38 0c-.28 0-.38-.2-.38-.49h.1c0 .29.1.39.28.48l1.52-.1c.2 0 .29-.09.29-.38v-13.9m.1 0v13.9c0 .2-.1.39-.39.39zM27.19 40.6a.4.4 0 0 1-.38-.39v-.1m0 0c0 .2.1.29.28.39h1.52c.2 0 .3-.1.3-.39v-13.9s0-.09.09-.09v14c0 .19-.2.38-.39.38zm-4.01.49c-.28 0-.37-.2-.37-.49h.1c.09.29.18.39.28.48l1.52-.1c.2 0 .29-.19.29-.38v-13.9h.1v13.8c0 .2-.1.49-.39.49zm5.24 6.37h-6.37q-.3 0-.29-.29h.1c0 .1.1.2.19.2zh.1s.1-.1.1-.2v-5.23h.09v5.14c0 .1 0 .2-.1.2 0 0-.09.09-.19.09M21.76 58.3c-.28 0-.47-.2-.47-.38h.1c-.1.19.09.28.37.38 2-.2 4.1-.48 6.19-1.05.1 0 .28-.2.28-.29V50.6m0 0v6.37c0 .2-.19.29-.28.38-2.1.58-4.19.86-6.28.96zm.96 6.46c-.1 0-.2-.1-.29-.2.1 0 .2.1.29.2l1.71-.57c-.57.19-1.14.28-1.71.57m1.81-.57c.1 0 .19-.1.19-.2V50.3c-.1-.38.19-.67.57-.76h7.23c.1 0 .2-.1.2-.29v-1.33 1.43q0 .28-.3.28h-7.04c-.28-.1-.66.2-.66.48v6.1l-.29.28zm.38-9.05c-.1-.19-.2-.38-.2-.57v-5.33h.1v5.33c-.1.2 0 .38.1.57m.76 8.66s-.1 0-.1-.09h.1q3.68-1.28 6.95-3.43v-.19c0 .2 0 .2-.1.2A30 30 0 0 1 32.23 56h-.1z" fill="#F4E0A9"/><path d="M.72 53.73a2 2 0 0 1-.28-1.05V9.84c0-.38.1-.76.28-1.04.2-.29.48-.57.86-.67A60 60 0 0 1 20.71 4.7a64 64 0 0 1 19.33 3.53c.38.1.66.38.86.66m.09 0a1.4 1.4 0 0 0-.86-.57A64 64 0 0 0 20.71 4.9 60 60 0 0 0 1.58 8.32c-.38.1-.67.38-.86.67a1.6 1.6 0 0 0-.28.95v42.84c0 .38.1.76.28 1.04h-.1z" fill="#F4E0A9"/><path d="M20.9 59.72c-7.8 0-16.37-3.8-19.22-5.9-.2-.1-.29-.28-.48-.47.1.19.29.28.48.47 2.95 2 11.42 5.9 19.22 5.9 7.81-.1 16.28-3.9 19.14-5.9.47-.38.76-.95.66-1.52V9.84c0-.19-.1-.47-.19-.66.2.19.2.38.29.66V52.2c.1.58-.2 1.24-.67 1.62-2.85 2.1-11.42 5.9-19.23 5.9m5.9-37.02-2.28-2.86c-.19-.2-.28-.29-.47-.2-.1.1-.2.3 0 .49v.09q-.3-.43 0-.57c.19-.1.38-.1.57.19.38.48 1.8 2.28 2.28 2.86zm-3.51-.96-.39-.85c-.1-.29-.19-.29-.38-.29-.19.1-.19.2-.1.48v.1q-.12-.44.2-.58c.19-.1.38 0 .47.29.2.28.2.57.39.85h-.2m-2.76.96c0-.48.1-1.24.1-1.62s.19-.48.38-.48c.2 0 .38.2.38.48 0-.2-.1-.38-.28-.38q-.3-.02-.29.38c0 .28-.1 1.14-.1 1.52v.1zm-2.47 0c.19-.48.57-1.62.76-2s.29-.38.48-.29q.3.15.19.57c.1-.19 0-.38-.1-.47-.19 0-.28 0-.38.28-.19.38-.57 1.52-.76 2z" fill="#F4E0A9"/></svg>