<svg height="100%" viewBox="0 0 188 61" fill="none" xmlns="http://www.w3.org/2000/svg"><path d="M131.06.07c-2.58.11-4.51 1.09-5.64 2.85-.4.61-.78 1.6-.97 2.46-.2.88-.32 2.56-.32 4.2v.88l-.35.23c-.42.26-1.11.61-1.65.83l-.38.15v1h1.18l1.18.01v4.92c.02 5.02-.02 7.23-.14 8-.15 1-.44 1.42-1.18 1.76a4 4 0 0 1-1.07.25h-.15v.87l.22-.02a76 76 0 0 1 8.92-.04l.64.03v-.92l-.58-.03c-1.28-.06-2.1-.4-2.35-.97-.27-.61-.31-1.64-.31-8.26v-5.6h4.02v-2.2l-2-.01-2-.02-.01-2.03c-.03-3.2.07-4.23.44-5.01.32-.66.78-1.04 1.51-1.24.4-.1 1.24-.1 1.65 0q1.33.34 2.07 1.84c.2.41.22.43.37.43.07 0 .18-.02.22-.04.04-.01.47-.57.95-1.24.85-1.18.87-1.22.85-1.4-.04-.22-.06-.24-.5-.54a8 8 0 0 0-4.62-1.14m53.64.1c-.13.09-1.24.33-2.28.51-1.4.24-2.4.36-3.14.4l-.6.03v.8l.3.03c.5.05.95.15 1.19.25.76.34.83.8.83 5.37v2.78l-.14-.03c-1.5-.31-3.95-.4-5.23-.17a9 9 0 0 0-4.26 1.82q-2.89 2.25-3.38 6.55c-.1.89-.07 2.66.06 3.4a8.4 8.4 0 0 0 2.11 4.48 7.6 7.6 0 0 0 5.2 2.33 8.5 8.5 0 0 0 5.3-1.38l.41-.27.03.76.02.75.23.08c.18.07.24.07.34.03.56-.28 3.39-.73 5.02-.8l.74-.02v-.93l-.49-.05c-.84-.09-1.34-.3-1.6-.7q-.2-.3-.29-1.41c-.03-.39-.04-4.56-.04-10.98 0-9.3.02-11.97.12-13.14l.02-.37-.14-.08c-.16-.09-.22-.09-.32-.04m-5.87 12.12.68.18c.39.14 1.04.5 1.28.7l.21.19v12.09l-.37.19a5 5 0 0 1-2.56.51 6 6 0 0 1-3.43-.91c-.4-.27-1-.87-1.27-1.28-.85-1.25-1.25-3-1.17-5.06.15-4.1 1.43-6.17 4.14-6.67a10 10 0 0 1 2.5.06M4.55 4.01.57 7.84.56 18.22.55 28.59l3.46 3.46 3.47 3.47h3.18l-.03.27q-.12 1.07 1.3.92.97-.11.05.3c-.48.23-.65.37-.76.64l-.09.2H.55v10.6l3.99 3.84 3.98 3.85h21.13l4-3.86 3.98-3.84v-19.8l-3.49-3.49-3.48-3.48h-5.93l-.6-.38a5 5 0 0 1-1.4-1.2 14 14 0 0 0 2.19.3c.46.02.67.06.84.13.38.17.77.1 1.06-.19.18-.17.31-.52.28-.75l-.01-.15h10.54V7.88l-4.01-3.85L29.6.18H8.53zm28.4.7 3.72 3.58v10.18h-5.28c-2.9 0-5.28 0-5.28.02 0 .01.1.15.23.3.3.37.4.61.4.87q0 .42-.38.57c-.2.07-.21.07-.47-.02a4 4 0 0 0-1.04-.17 10 10 0 0 1-2.7-.54l-.17-.08.03.15c.04.23.41.74.85 1.18.4.41.76.66 1.8 1.28.36.21.71.43.79.5l.14.1h4.7l3.19 3.18 3.19 3.2v9.53l-.01 9.53-3.72 3.58-3.73 3.57H8.94l-3.74-3.6-3.74-3.6v-9.2h10.52l-.19-.18c-.23-.2-.31-.37-.31-.6q0-.37.43-.6a4 4 0 0 1 1.26-.34c.7-.14 1.32-.52 1.64-1.03.12-.18.14-.24.1-.31q-.16-.3-.85.03a6 6 0 0 1-2.44.6q-.85.01-.63-.65c.12-.33.27-.67.43-.9l.14-.21-1.84-.02H7.87l-3.2-3.24-3.2-3.22V8.29l3.71-3.57L8.9 1.14h20.35z" fill="#8C1515"/><path d="M5.87 5.4 2.42 8.7v19.07l2.94 2.94 2.94 2.94h4.75l.26-.12c.13-.07.5-.22.81-.35.74-.3.78-.35.85-1.01l.03-.22h-.3c-.16 0-.5-.04-.76-.09a3 3 0 0 0-1.45 0q-.64.3-.81-.11c-.06-.13-.06-.2-.02-.36q.15-.54.7-1.1c.42-.42.7-.62 1.43-1 .66-.35 1.75-1.09 2.05-1.38.28-.27.48-.66.48-.9l-.01-.18-.38.22c-.7.42-1.33.56-2.17.47-.77-.08-.8-.08-.9-.2q-.2-.23-.03-.58a3.4 3.4 0 0 1 1.55-1.18c.65-.32.91-.47 1.1-.65.22-.21.5-.67.47-.77 0-.03-.15.04-.3.14-.5.32-1 .45-1.75.45a2 2 0 0 0-1.66.7c-.33.37-.51.49-.74.49q-.27 0-.39-.3c-.11-.3.02-1.47.26-2.3.32-1.13.74-1.61 2.1-2.43.48-.28 1-.61 1.16-.73a4.5 4.5 0 0 0 1.32-1.48 1 1 0 0 0 .05-.33v-.21l-.24.2c-.31.28-.54.37-1.13.5-.47.09-.93.12-1.6.09-.29-.02-.4 0-.64.1-.36.15-.57.15-.76.03-.35-.2-.38-.64-.08-1.08.49-.72 2.47-2.07 4.41-3.03.6-.3.91-.52 1.03-.73q.19-.4-.67-.14c-.42.14-.45.14-1.14.13-.6-.02-.73-.03-.85-.1q-.45-.28-.03-.8c.29-.35.64-.59 1.4-.93.8-.36.94-.48.94-.76v-.16l-.39.03c-.45.03-.69-.01-.84-.17q-.4-.46.69-1.37c.39-.32.63-.46 1.07-.62l.36-.14-.36-.02c-.65-.06-.9-.2-.9-.54 0-.23.24-.48.8-.86a4 4 0 0 0 .95-.8q-.01-.06-.13-.14a2 2 0 0 1-.6-.63c-.1-.3.08-.52.46-.57a1 1 0 0 0 .27-.09c.13-.1.25-.46.42-1.18a7 7 0 0 1 .24-.83q.15-.26.48-.23c.13 0 .16.03.19.15l.18.84c.19.87.24.96.6 1.03.41.08.6.34.44.63a2 2 0 0 1-.3.36c-.3.3-.28.33.2.43s.6.18.6.48c0 .21-.1.37-.43.67l-.3.27.13.18c.07.1.36.34.64.55q.52.4.63.58c.14.26.15.53.02.7-.1.12-.35.27-.4.23q-.03-.01-.08.05c-.05.07-.03.1.13.2a5 5 0 0 1 1.25 1.1c.16.23.17.54.05.68-.15.15-.37.2-.85.17l-.43-.03.03.2c.03.27.2.4.97.74.85.37 1.18.55 1.47.82.83.74.25 1.46-1 1.26-.56-.09-1.23-.06-1.23.05 0 .06.38.23.76.36.62.2 1.67.78 2.39 1.33l.3.23.92-.03 5.3-.02h4.37V8.7l-3.43-3.3-3.43-3.3H9.31z" fill="#8C1515"/><path d="M18.87 4.5q-.24.96-.45 1.27a1 1 0 0 1-.61.3l-.14.01.14.13c.09.06.26.22.4.34.23.2.26.24.26.4 0 .15-.03.21-.25.44-.14.15-.5.44-.79.65-.6.4-.78.57-.7.62.03.02.26.05.5.07.65.06.88.16.88.42 0 .2-.24.4-.58.51q-.64.2-1.16.64c-.33.27-.64.63-.64.72q-.01.05.52.02c.6-.03.69-.01.79.23q.14.35-.06.74c-.15.32-.28.4-1.05.74q-1.02.47-1.3.83c-.05.07-.09.15-.08.15 0 .01.32.03.7.03.63 0 .71 0 1.01-.11.55-.2 1-.13 1.13.18.25.52-.12.96-1.36 1.58-2.42 1.21-4.38 2.7-4.25 3.2.04.13.13.14.44 0 .28-.11.32-.12 1.15-.12.75 0 .93-.02 1.3-.11.53-.13.5-.11.92-.46.3-.23.37-.28.5-.27s.17.05.25.2q.44.81-.71 2.01c-.41.44-.8.72-1.84 1.35-.43.26-.88.55-1.01.65-.69.54-1.04 1.36-1.24 2.82-.04.33-.06.65-.04.72.03.13.03.12.43-.29.61-.62.97-.76 2.12-.83.76-.05 1-.13 1.52-.46q.53-.36.75-.15c.28.29-.09 1.22-.68 1.68-.14.11-.5.32-.78.46-1.06.51-1.1.53-1.4.86l-.31.32.3.04c.16.03.53.05.82.05.48 0 .55-.01.9-.14.2-.08.46-.2.58-.29.44-.3.69-.33.9-.1.1.1.1.15.1.44 0 .45-.15.76-.59 1.2a12 12 0 0 1-2.12 1.46c-.73.4-1.06.63-1.41 1-.3.3-.6.81-.54.88.01.01.13-.02.26-.08.33-.14.82-.16 1.37-.07.85.15.97.16 1.25.1.26-.05.27-.05.36.06s.09.17.07.62c-.04.86-.17 1.01-1.32 1.51a8 8 0 0 0-2.06 1.14c-.2.2-.53.76-.61 1.06-.04.13-.01.13.6.06a5 5 0 0 0 1.93-.57q.75-.42 1.25.07c.15.14.17.2.17.37 0 .26-.19.6-.52.92-.47.46-1 .71-1.81.85-.3.05-.62.13-.73.17-.22.08-.41.23-.41.33a2 2 0 0 0 .38.43c.42.4.53.57.53.86 0 .37-.15.54-.77.85-.9.44-1.41.89-1.68 1.46a11 11 0 0 0-.61 1.84c-.07.41.03.79.21.79.04 0 .23-.15.42-.33a9 9 0 0 1 2.68-1.59c.34-.12.53-.15 1.16-.2 1.29-.12 1.63-.25 2.3-.87.58-.55.91-.68 1.1-.44.09.1.1.2.07 3.57-.02 3.74-.04 4.11-.28 4.83-.15.45-.27.61-.72 1.04a9 9 0 0 0-1.87 2.13 6 6 0 0 1-1.66 1.83c-.03.02 2.66.04 5.96.04h6.01l-.36-.2a3 3 0 0 1-1.09-.82c-.35-.4-.69-.66-1.29-1.01a3.7 3.7 0 0 1-1.8-2.35c-.11-.44-.11-.45-.15-3.3a96 96 0 0 1-.01-3.15c.03-.37.11-.53.3-.6.17-.05.38.02.8.32.44.3.61.34 1.73.3.87-.02 1-.02 1.33.07.5.12 1.32.54 2.24 1.14.43.28.9.57 1.03.64.3.15.52.18.56.06.09-.23-.02-.83-.32-1.7a5 5 0 0 0-.61-1.38c-.2-.24-.63-.58-1.09-.84q-.8-.46-.79-1c0-.15.13-.39.32-.59.6-.67.38-1.02-.81-1.2a4 4 0 0 1-1.33-.45c-.53-.31-1.06-.97-1.06-1.3 0-.37.36-.66.82-.66.22 0 .33.03.67.2.23.12.58.27.78.33.53.18 1.71.32 1.71.22 0-.02-.04-.16-.1-.31-.27-.68-.64-1.03-1.56-1.48l-1.17-.53c-.3-.11-.6-.26-.7-.32-.35-.23-.55-.83-.45-1.35.1-.5.31-.54.74-.16.46.41.67.49 1.43.53.71.04.86.07 1.19.3q.34.23.43.19c.04-.05-.19-.77-.4-1.2-.42-.9-.88-1.33-1.98-1.9-.95-.51-2.1-1.32-2.38-1.68a2 2 0 0 1-.38-.75c-.02-.14 0-.18.1-.26.18-.14.34-.11 1 .16.6.25.96.3 1.49.18q.63-.13 1.02 0 .63.2.11-.37a6 6 0 0 0-1.74-1.11c-.66-.32-.8-.4-1.05-.66-.36-.36-.63-.85-.63-1.17 0-.18.03-.24.13-.34.34-.32.5-.3 1.59.12.48.18 1.11.42 1.41.5.3.1.66.24.8.32.47.26.96.3.96.08 0-.19-.2-1.1-.32-1.5-.26-.8-.68-1.25-1.78-1.9l-1.1-.69a6 6 0 0 1-1.68-1.8c-.18-.34-.19-.78-.03-.94.11-.11.3-.09.67.08a8 8 0 0 0 2.62.53c.49.03.77.07.97.15.24.08.3.08.36.03q.27-.2-.71-1.2a8 8 0 0 0-1.58-1.3 8 8 0 0 0-1.64-.86q-1.19-.4-1.17-.88c0-.21.04-.25.34-.35q.51-.18 1.37-.05c.53.08.8.05.93-.08.06-.06.06-.09-.02-.22q-.2-.34-1.45-.9c-.9-.4-1.04-.5-1.2-.77-.17-.28-.18-.67-.03-.87.1-.13.1-.13.67-.14.32 0 .58-.04.58-.06 0-.18-.87-.95-1.28-1.14q-.86-.42.1-.92c.14-.08.26-.17.26-.2 0-.11-.27-.38-.63-.63a3 3 0 0 1-.86-.88c-.1-.27-.05-.4.29-.67.16-.13.32-.29.36-.34.08-.13.07-.13-.27-.17q-.7-.1-.71-.65c0-.14.03-.2.27-.43.15-.15.27-.28.27-.3l-.2-.03c-.43-.05-.62-.33-.82-1.2L19 3.96z" fill="#007663"/><path d="M26.45 23.67c.24.53.53 1.68.53 2.11q0 .68-.74.63c-.23-.01-.4-.06-.8-.25a4 4 0 0 0-.56-.24c-.1 0-.83-.26-1.7-.6a9 9 0 0 0-.86-.32.4.4 0 0 0-.17.07c-.08.07-.08.08.08.41.27.53.5.71 1.55 1.23q1.92.96 2 1.7c.02.17 0 .21-.11.34a.6.6 0 0 1-.65.17 4 4 0 0 0-1.25 0 2.4 2.4 0 0 1-1.41-.21c-.24-.1-.45-.17-.45-.16-.05.04.25.4.47.6.33.28 1.25.88 1.83 1.2a5 5 0 0 1 1.38.9q.82.75 1.23 2.03c.32 1.04-.1 1.39-.98.8l-.3-.18-.64-.03c-.8-.04-1.1-.14-1.55-.51l-.23-.19.03.28c.04.46.15.58.83.84.65.26 1.76.81 2.06 1.02.4.28.63.58.84 1.01.26.52.32.77.23.93-.12.22-.33.3-.77.26q-1.36-.1-2.34-.63c-.27-.14-.37-.18-.51-.16q-.51.06-.18.5.56.84 1.87 1.04c.95.16 1.36.4 1.48.82.09.35-.1.82-.46 1.17-.29.28-.16.52.49.9.64.38 1.21.93 1.42 1.37.29.62.66 1.78.74 2.35q.1.64-.19.92c-.12.11-.17.13-.4.13-.33 0-.62-.15-1.72-.86A8 8 0 0 0 24.51 44a4 4 0 0 0-1.21-.04c-1.2.04-1.55-.04-2.14-.47a1 1 0 0 0-.26-.15c-.04 0-.05.7-.04 2.96.02 3.19.03 3.21.28 3.9a3.2 3.2 0 0 0 1.56 1.76c.45.26.65.42 1.19.93.57.56.69.65 1.07.84.24.11.63.27.85.33.38.11.5.13 1.71.17l1.3.04.4-.38c.2-.21 1.76-1.71 3.44-3.32l3.05-2.94V29.42l-2.92-2.92-2.91-2.91h-1.73c-1.63 0-1.73 0-1.7.08M2.46 39.8c-.02.02-.04 1.78-.04 3.92v3.9l3.44 3.3 3.44 3.3h1.26c1.45 0 1.7-.04 2.28-.32.5-.25.95-.7 1.46-1.48.78-1.2.85-1.28 1.76-2.11 1.16-1.07 1.18-1.13 1.18-5.98 0-1.68-.02-3.05-.03-3.05-.03 0-.25.19-.5.42-.72.66-1.12.8-2.46.9a4 4 0 0 0-1.88.56c-.7.35-1.38.8-1.7 1.13-.36.36-.46.42-.7.42a.6.6 0 0 1-.58-.35c-.13-.28-.12-.93.05-1.45.15-.5.41-1.2.57-1.53.21-.47.83-1.03 1.6-1.47l.26-.14h-4.7c-2.57 0-4.7.02-4.71.03M57.38 2.58c-2.15.26-3.7.95-4.83 2.14a6 6 0 0 0-1.58 3.3c-.08.47-.1.67-.07 1.4.06 1.74.5 2.86 1.63 4.15.6.69 1.47 1.36 3.5 2.72 2.96 1.98 3.5 2.36 4.1 2.95a4 4 0 0 1 1.27 3.09q0 3.03-2.66 3.79a8 8 0 0 1-2.23.27 7 7 0 0 1-2.94-.5c-1.43-.57-2.06-1.45-2.2-3.1l-.03-.35h-1.06l.03.31c.07.82.09 1.32.12 3.05l.02 1.88.67.19c1.72.5 3.3.7 5.35.7 1.84 0 3.16-.2 4.42-.67a6.3 6.3 0 0 0 4.4-5.6c.07-.6.03-1.84-.07-2.4a6.4 6.4 0 0 0-2.12-3.74 34 34 0 0 0-3.69-2.6c-2.7-1.8-3.24-2.18-3.77-2.72a3 3 0 0 1-.85-1.36c-.12-.34-.13-.4-.13-1.25 0-.81 0-.93.1-1.24.38-1.21 1.2-1.88 2.67-2.2.42-.1.6-.1 1.69-.1a7 7 0 0 1 3.32.57c.38.18.5.27.75.54q.72.76.8 2.01l.04.4h.44l.44.02V2.97l-.1-.02a33 33 0 0 0-7.43-.37M72.33 6.8c-.38.68-.94 1.54-1.34 2.09-.5.67-1.45 1.63-2.04 2.05A13 13 0 0 1 67 11.97q-.07-.02-.07.37v.37h2.4l-.04 2.18c-.05 3.8-.04 8.7.02 9.34.14 1.49.51 2.38 1.33 3.2.48.48.77.67 1.38.9a6 6 0 0 0 2.25.36 6 6 0 0 0 1.58-.07 6 6 0 0 0 2.54-1 5 5 0 0 0 .93-.83l.1-.13-.15-.34-.15-.35s-.17.06-.35.15c-.46.2-.99.37-1.42.44a8 8 0 0 1-1.97-.06c-1.26-.35-1.83-1.23-2-3.07a165 165 0 0 1-.05-5.62v-5.1h6.13v-2.24h-6.13V6.45h-.8zM88.1 9.96q-2.4.26-3.9 1.69a5 5 0 0 0-1.31 1.96l-.14.38.43.25.46.25.2-.31a4 4 0 0 1 3.5-1.89c1.65 0 2.87.8 3.3 2.17.14.42.22 1.27.2 2l-.02.48-1.3.4c-1.78.54-2.62.82-3.93 1.29-1.75.62-2.38.97-3.08 1.71a4.5 4.5 0 0 0-1.2 2.5 5.5 5.5 0 0 0 .73 3.79q1.04 1.6 3.33 1.92a9 9 0 0 0 2.64-.08A6 6 0 0 0 90.78 27l.22-.2.17.35c.1.19.28.46.4.6.89.97 2.74 1.12 4.1.34a6 6 0 0 0 1.85-1.76c0-.02-.13-.17-.29-.34l-.28-.32-.2.17q-.39.29-.87.23c-.65-.1-.96-.56-1.06-1.6q-.04-.45 0-2.4c.04-1.07.06-3.09.07-4.48 0-2.21 0-2.61-.08-3.11-.22-1.5-.58-2.31-1.4-3.11-.97-.95-2.26-1.39-4.2-1.44-.4 0-.9 0-1.12.02m2.75 12.28v3.03l-.32.2c-1.14.67-2.95.84-3.97.36a2.3 2.3 0 0 1-1.18-1.54c-.11-.45-.1-1.26.02-1.73.15-.58.38-1 .75-1.37.53-.53 1.55-1 3.55-1.68.6-.19 1.09-.34 1.1-.33.03.01.05 1.39.05 3.06M141.7 10a9 9 0 0 0-4.87 1.83 9 9 0 0 0-2.94 4.82 12 12 0 0 0 .7 7.9c1.2 2.38 3.36 3.78 6.36 4.17.55.07 2.23.07 2.75 0a9 9 0 0 0 3.78-1.32c2.28-1.49 3.68-4.07 3.95-7.33.06-.77.03-1.87-.08-2.68-.63-4.77-3.83-7.47-8.77-7.42-.38 0-.77.02-.87.03m1.78 2.14c.37.08.97.35 1.3.57.71.5 1.44 1.57 1.81 2.7a14 14 0 0 1 .3 7.01c-.35 1.64-1.15 3-2.16 3.68-.67.44-1.39.62-2.38.58a3.5 3.5 0 0 1-2.09-.63c-1.19-.8-1.99-2.43-2.33-4.75-.1-.61-.1-.88-.1-2.01 0-1.4.05-1.98.27-2.97a6 6 0 0 1 1.64-3.22c.6-.6 1.26-.92 2.17-1.03.4-.06 1.16-.02 1.57.07m-33.76-2.09a9 9 0 0 0-3.75 1.39l-.39.26-.01-.67c-.02-.73-.03-.78-.28-.88-.1-.05-.18-.03-.57.16a7 7 0 0 1-2.02.57c-1.1.18-1.75.24-2.7.24h-.84v1.02l.47.03c.93.06 1.47.3 1.7.78.26.57.31 1.93.28 7.4-.03 4.12-.05 4.81-.2 5.55-.13.7-.43 1.13-1 1.4-.3.16-.88.31-1.15.31h-.2v.88l.18-.03c1.03-.15 5.5-.2 7.7-.07l1.09.07v-.85h-.2c-.55 0-1.34-.3-1.62-.6-.36-.41-.5-.96-.56-2.33-.02-.48-.05-3.25-.05-6.13 0-4.13.02-5.25.06-5.29a6.5 6.5 0 0 1 3.28-.71c.86 0 .97.01 1.38.12a3 3 0 0 1 1.48.83c.62.63.9 1.34 1.06 2.74.07.6.08 1.15.08 4.15 0 4.13-.05 5.08-.32 5.94q-.2.6-.69.9a4 4 0 0 1-1.18.38l-.3.06v.81l.22-.02a57 57 0 0 1 8.04-.04l.7.03v-.84h-.21c-.32 0-.83-.13-1.2-.3-.53-.26-.75-.63-.9-1.53-.07-.42-.09-1.1-.12-5.23-.02-2.62-.04-4.83-.06-4.92l-.07-.64a7 7 0 0 0-.37-1.6 5.1 5.1 0 0 0-4.05-3.25 14 14 0 0 0-2.71-.09m49.31.21c-.95.4-3.45.8-5.01.8h-.73v1.08l.42.03c.91.06 1.54.34 1.76.77.25.49.25.53.27 5.69.03 5.92-.01 6.92-.3 7.72-.14.37-.53.76-.93.94-.3.14-.88.27-1.15.27h-.16v.92l.2-.02a77 77 0 0 1 8.96-.04l.67.03v-.98h-.36c-.51 0-1.13-.07-1.5-.18-.85-.26-1.12-.58-1.28-1.48-.07-.37-.08-1.13-.1-6.32l-.02-5.91.25-.14c.13-.08.4-.2.6-.26a3 3 0 0 1 1.1-.13 3.3 3.3 0 0 1 2.87 1.35l.15.23.38-.01.38-.02.75-1.37c.74-1.35.75-1.37.75-1.65v-.28l-.26-.21a4.6 4.6 0 0 0-2.86-.9 6 6 0 0 0-4 1.5l-.2.16v-1.57l-.16-.07c-.2-.08-.16-.08-.49.05M97.1 37.93c-.22.08-.5.26-.63.44a1.6 1.6 0 0 0-.08 1.75c.36.54 1.1.74 1.84.52.25-.08.36-.15.55-.34.3-.3.4-.6.4-1.09 0-.83-.58-1.36-1.5-1.36-.2 0-.45.04-.57.08m49.01 0c-.23.08-.5.26-.64.44a1.6 1.6 0 0 0-.08 1.75c.36.54 1.1.74 1.84.52.25-.08.36-.15.55-.34.3-.3.41-.6.4-1.09 0-.83-.58-1.36-1.49-1.36-.21 0-.46.04-.58.08m-81.28.64.01.31.24.03c.5.08.95.31 1.09.59.17.33.17.44.2 5.37.04 5.17.05 5.3.28 6.21q.72 2.76 3.8 3.4c1.9.37 4.34.2 5.69-.39a4.4 4.4 0 0 0 2.6-3.15c.26-1 .26-1.1.3-5.98.02-3.1.05-4.62.09-4.82q.1-.66.5-.94c.23-.16.62-.3.89-.3h.17v-.65l-.33.04c-1 .1-3.46.1-4.6 0l-.33-.04v.33c0 .32 0 .32.13.32.17 0 .54.1.76.22q.38.19.51.64c.08.25.08.61.08 5.06 0 3.69-.01 4.9-.06 5.22-.21 1.49-.7 2.32-1.66 2.78-.52.25-.87.33-1.62.4a6 6 0 0 1-1.18 0c-1.1-.1-1.76-.34-2.3-.85a2.6 2.6 0 0 1-.74-1.18c-.33-.98-.39-2.05-.35-7.03.02-4.05.03-4.22.27-4.64.2-.34.73-.62 1.18-.62h.18v-.65l-.29.04c-.86.1-4.38.1-5.26 0l-.26-.04zm89.46 1.99c-1.1 1.9-1.87 2.7-3.12 3.26l-.4.18v.44h.76l.75.02.02 3.82c0 4.3 0 4.11.37 4.87q.39.8 1.09 1.14c.97.47 2.47.5 3.6.06a3.4 3.4 0 0 0 1.28-.88c.1-.12.1-.13.02-.34l-.1-.23-.3.13a3 3 0 0 1-1.49.27c-1.04-.05-1.5-.4-1.78-1.34-.07-.26-.08-.61-.1-3.9v-3.62h3.88v-1.42h-3.88l-.01-1.3-.01-1.29h-.24c-.23-.02-.25-.02-.33.13m-66.84 2.25c-.7.13-1.62.5-2.2.89l-.2.14-.03-.46c-.02-.4-.04-.47-.12-.53-.07-.05-.13-.03-.38.09-.63.28-1.68.48-2.87.52l-.7.03v.61l.36.03c.19.01.43.05.53.09.24.07.5.33.57.56.1.35.15 2.16.12 4.82-.03 2.7-.05 3.16-.21 3.6-.16.4-.6.7-1.18.77l-.24.03v.27c0 .22.02.27.07.26.03-.02.48-.05 1-.09.89-.05 2.56-.03 4.05.04l.6.03V54l-.22-.03c-.67-.08-1.03-.34-1.17-.83-.13-.47-.16-1.52-.17-5v-3.3l.3-.13c.6-.27 1.37-.4 2.11-.35.99.06 1.58.4 1.94 1.15.3.6.36 1.31.36 3.8 0 2.72-.07 3.66-.34 4.12-.14.23-.53.45-.97.53l-.29.05v.27c0 .22.02.26.07.25.04-.02.56-.05 1.15-.09 1.03-.05 2.18-.04 3.83.04l.67.03V54l-.33-.06q-.72-.1-.96-.53a2 2 0 0 1-.17-.5 55 55 0 0 1-.1-3.52c-.04-3.64-.05-3.84-.36-4.6a3.3 3.3 0 0 0-2.28-1.9 7 7 0 0 0-2.24-.09m11.33-.03c-.08.07-.88.3-1.33.38a16 16 0 0 1-2.15.23h-.36v.64h.17c.27 0 .78.13.95.23.23.14.33.4.4.98.03.32.03 1.65.02 3.88-.02 4-.02 4-.43 4.44q-.3.29-.86.37c-.46.06-.43.04-.43.33v.25l.77-.04c.97-.04 3.22-.04 4.3 0l.83.04v-.56h-.18c-.25 0-.76-.15-.97-.29q-.3-.18-.41-.72c-.08-.34-.11-6.73-.05-8.59l.05-1.39-.1-.1q-.15-.15-.23-.08m49.01 0c-.07.07-.87.3-1.32.38a16 16 0 0 1-2.15.23h-.36v.64h.18c.26 0 .77.13.94.23.42.26.45.6.42 4.9-.02 2.98-.03 3.4-.1 3.7-.1.42-.15.53-.38.74q-.3.27-.9.35l-.27.03-.02.26-.01.27.74-.04a67 67 0 0 1 4.28 0l.84.04v-.56h-.18c-.25 0-.76-.15-.97-.29q-.3-.18-.4-.72c-.09-.34-.12-6.6-.06-8.51l.05-1.47-.1-.1q-.15-.15-.23-.08m-30 .07c-.15.02-.46.1-.69.16q-2.97.86-3.67 4.8c-.1.6-.1 1.97 0 2.58q.65 3.72 4.27 4.2a9 9 0 0 0 2.48-.1 5 5 0 0 0 2.52-1.42l.16-.18-.14-.25-.17-.27c-.02-.02-.23.06-.47.16q-1.18.52-2.58.45c-2.07-.11-3.2-1.24-3.54-3.54a7 7 0 0 1-.07-.83v-.37h7.24l-.03-.77a6 6 0 0 0-.33-2.03 3.7 3.7 0 0 0-2.75-2.5 4 4 0 0 0-1.16-.12c-.44 0-.92 0-1.07.03m.89 1.23c1 .16 1.62.93 1.71 2.15l.05.53.02.2h-4.58l.04-.33c.04-.47.2-1.11.38-1.45.44-.88 1.3-1.27 2.38-1.1m18.73-1.21q-2.12.35-2.64 2.15a5 5 0 0 0-.05 1.76c.09.35.33.84.57 1.15.33.41.73.71 2.05 1.54.68.42 1.37.86 1.54.99.57.43.77.84.72 1.47q-.12 1.54-2.31 1.41c-.83-.05-1.23-.2-1.66-.65a2.2 2.2 0 0 1-.58-1.43v-.19h-.8l.04.15c.03.18.12 1.76.13 2.41v.48l.4.13a9 9 0 0 0 3.05.38q3.27-.16 3.92-2.43c.12-.42.14-1.35.05-1.77a3 3 0 0 0-1.15-1.75 27 27 0 0 0-1.7-1.08c-1.92-1.14-2.16-1.38-2.16-2.13q0-.83.54-1.17c.33-.2.63-.27 1.2-.27q2 0 2.24 1.64l.05.34h.72l-.02-.97c-.02-.53-.01-1.2.01-1.46l.04-.5-.24-.04c-.92-.2-3.2-.29-3.96-.16m-9.32.02c-.37.22-2.43.55-3.39.55h-.35v.67l.35.03q.89.05 1.1.57c.1.27.14 1.23.15 3.87 0 2.74-.05 3.95-.16 4.4q-.19.75-1.1.92l-.39.08v.53l.68-.04a92 92 0 0 1 4.7 0l.88.04v-.59l-.37-.03c-.8-.06-1.24-.22-1.44-.52-.21-.32-.21-.36-.23-4.48l-.02-3.89.25-.12c.33-.15.58-.2 1.02-.2.7 0 1.18.2 1.64.69.28.3.3.31.52.31h.23l.48-.9c.56-1.03.58-1.12.32-1.34a2.8 2.8 0 0 0-1.87-.56q-1.3 0-2.32.78l-.3.23v-.47c0-.43-.02-.48-.1-.53q-.14-.07-.28 0m-27.01.43v.35h.15c.47 0 .78.25 1.06.84.1.23 1.06 2.6 2.13 5.28l1.95 4.9a2 2 0 0 0 .56-.05l.55-.1a201 201 0 0 0 2.08-4.6c2.11-4.74 2.48-5.56 2.7-5.81.17-.2.54-.4.8-.44l.22-.04v-.19l.03-.34.03-.15-.27.03c-1.03.11-2.2.11-3.84 0l-.38-.02v.62l.28.06q.96.17.89.88a3 3 0 0 1-.15.6c-.13.36-2.34 5.85-2.36 5.88l-1.18-3.12c-1-2.6-1.13-2.99-1.17-3.34-.03-.33.04-.5.27-.68.14-.11.6-.26.78-.26.07 0 .08-.04.08-.32v-.32l-.35.03c-1.4.1-3.7.1-4.62 0l-.24-.03zm59.07 0v.35h.17c.2 0 .58.17.75.35.18.2.34.58 2.45 5.99l1.94 4.95-.33.86c-1.14 2.93-1.75 3.64-3.08 3.56q-1.05-.05-1.47-.79c-.1-.17-.14-.2-.28-.2s-.2.05-.7.67c-.69.84-.7.87-.26 1.19.36.27.51.34.97.48.63.2 1.45.27 2.2.17 1.7-.21 2.73-1.08 3.51-2.94l.64-1.64 2.38-6.37c1.07-2.86 2-5.3 2.07-5.43.27-.5.73-.85 1.1-.85h.14v-.69l-.19.03-1.16.06c-.88.04-1.4.03-2.73-.06l-.35-.03v.67l.23.03c.3.04.67.22.8.39q.1.12.1.4c.01.25-.06.5-1.13 3.7l-1.18 3.46c-.03.03-.1-.17-.19-.43-.08-.25-.6-1.69-1.17-3.19l-1.12-3.05q-.18-.62.03-.92c.13-.17.54-.37.83-.4l.24-.03v-.63l-.33.03c-1.49.1-3.7.1-4.64 0l-.25-.03z" fill="#8C1515"/></svg>