<svg height="100%" viewBox="0 0 232 77" fill="none" xmlns="http://www.w3.org/2000/svg"><path d="M221.14.06H10.86a10 10 0 0 0-10 10v56.76a10 10 0 0 0 10 10h210.27a10 10 0 0 0 10-10V10.06a10 10 0 0 0-10-10" fill="#000"/><path d="M172.07 76.82V20.9h18.92v44.06h24.56v11.97m-98.78-.03c-8.37-6.03-12.32-16.12-12.32-25.8 0-16 10.75-32.38 31.09-32.38 9.05 0 17.69 3.18 24.02 9.6a27 27 0 0 1 4.99 6.98l-15.93 7.83c-1.5-3.57-4.41-9.9-12.43-9.9-4.15 0-6.8 1.99-8.1 3.18-4.53 4.34-4.53 11.1-4.53 13.47 0 8.87 3.3 17.23 12.63 17.23 8.86 0 11.47-7.83 12.13-9.78l16.12 7.82c-1.5 2.84-3.04 5.57-5.84 8.49a24 24 0 0 1-3.95 3.18m-103.12.08c-.85-.58-1.5-1.12-2.27-1.8-5.95-5.76-6.02-12.44-6.22-18.66V20.98h19.04v37.26c0 2.54.08 5.18 2.15 7.14 1.5 1.61 3.88 2.15 6.02 2.15a9 9 0 0 0 6.03-2.07c2.15-2.07 2.26-4.72 2.26-7.25V20.98h19.12v31.74c0 6.87 0 15.73-7.06 22.41q-1 .96-2.27 1.8M33.45 34.38 23.2 32.23s-10.17 2.15-10.25 2.15c-.07 0 0 .07 0 .07l.08.58s.2 0 .27.07l.19.85s0 .08.08.08h19.42l.19-.85c.07-.19.27-.19.27-.19l.07-.58v-.07h-.07z" fill="#fff"/><path d="M32.42 36.25v-.3H30.8v.27h.08v.07s0 .27.2.39v.07H31v5.91l-.08.08v.08h-.08V43h1.5v-.2h-.08l-.07-.07v-5.91s-.08-.08 0-.08c.19-.07.19-.26.19-.38v-.04h.07v-.08zm-3.38 0v-.3h-1.61v.27h.11v.07s0 .27.2.39v.07h-.08v5.91l-.08.08v.08h-.08V43H29v-.2h-.08l-.07-.07v-5.91s-.08-.08 0-.08c.19-.07.19-.26.19-.38v-.04h.07v-.08zm-3.3 0v-.3h-1.61v.27h.07v.07s0 .27.2.39v.07h-.08v5.91l-.08.08v.08h-.08V43h1.5v-.2h-.08l-.07-.07v-5.91h-.08s-.08-.08 0-.08c.08-.07.2-.26.2-.38v-.04h.07zm-3.38 0v-.3h-1.61v.27h.07v.07s0 .27.2.39v.07h-.08v5.91l-.08.08v.08h-.07V43h1.5v-.2h-.12l-.08-.07v-5.91s-.08-.08 0-.08c.2-.07.2-.26.2-.38v-.04h.07zm-3.38 0v-.3h-1.61v.27h.08v.07s0 .27.19.39v.07h-.08v5.91l-.07.08v.08h-.08V43h1.5v-.2h-.08l-.08-.07v-5.91h-.07s-.08-.08 0-.08c.19-.07.19-.26.19-.38v-.04h.07zm-3.3 0v-.3h-1.61v.27h.08v.07s0 .27.19.39v.07h-.08v5.91l-.08.08v.08h-.07V43h1.5v-.2h-.08l-.08-.07v-5.91h-.08s-.07-.08 0-.08c.08-.07.2-.26.2-.38v-.04h.07zM28 30.12h-.2v-.2h-.19v-.19h-.07s-.08 0-.08-.07c0-.2.08-1.8-.77-2.84a5 5 0 0 0-2-1.7c0-.18-.26-.26-.45-.38-.08 0-.08-.07-.08-.07v-.08q.01-.1.2-.08h.07v-.19s0-.07-.08-.07h-.2s-.07 0-.07-.08v-.08q.02-.09-.07-.07V22.9h.07v-.07h-.07v-.35h-.16l-.38-.38s0-.08-.08-.08 0-.08 0-.08v-.07l-.07-.2s-.08.08-.08.2v.15q-.1-.02-.08.08s-.19.27-.38.38h-.16v.23h-.07v.08h.07v1.11l-.07.08v.07s0 .08-.08.08h-.2s-.07 0-.07.08v.19h.08c.08 0 .2 0 .2.08v.07c0 .08-.09.08-.09.08-.07 0-.38.08-.46.38a4.7 4.7 0 0 0-2 1.7c-.84 1.1-.76 2.64-.76 2.83 0 0 0 .08-.08.08h-.07v.2h-.2V30h-.19v.2c.08 0 .2.07.2.19 0 .19.07.19.19.19v.65c0 .2-.08.2-.2.2v.64l4.73-1.03 4.72 1.03v-.65c-.08 0-.2-.07-.2-.19v-.65s.2 0 .2-.2c0-.07.07-.19.19-.19V30zm5.18 13.66h-.77v-.58H14.07v.58h-.77v1.42h-.84v1.3h21.57v-1.3h-.85z" fill="#fff"/></svg>