<svg height="100%" viewBox="0 0 230 62" fill="none" xmlns="http://www.w3.org/2000/svg"><path d="M84.7 35.6a10 10 0 0 1-3.4-8c0-2 .5-5.1 3.2-7.5 2-1.8 4.5-2.9 8.5-2.9 1.7 0 2.7.2 4 .3l2.7.4q.4 0 .4.3l-.1 1.5v3q0 .6-.4.6-.2 0-.2-.6 0-1.3-1.1-2.5-1.5-1.6-5.5-1.7-3.5 0-5.1 1.7c-2 1.8-2.5 4.3-2.5 7 0 6.5 5 9.7 8.5 9.7 2.5 0 4-.2 5-1.5a5 5 0 0 0 1-1.8q0-.6.4-.5.2 0 .2.4c0 .3-.3 2.7-.6 3.6q-.1.7-.7.8c-1 .5-3.1.7-4.9.7q-5.8 0-9.4-3Zm18.9-6.1c0-3.9 2.6-9 9.4-9 5.7 0 9.2 3.4 9.2 8.6a9 9 0 0 1-9.4 9.3c-6.5 0-9.2-4.8-9.2-9Zm15.4.4c0-5-3-8.2-6.7-8.2-2.6 0-5.5 1.4-5.5 7.1 0 4.8 2.6 8.5 7 8.5 1.5 0 5.2-.8 5.2-7.4Zm11.3 1.6q-.1 4.4.5 4.9c.4.3 1 .5 2.8.5q1.7.2 2.7-.7.4-.6.5-1.3 0-.3.3-.3t.2.3l-.3 2.7c-.2.5-.3.6-1.5.6L129 38h-3q-.4 0-.4-.2-.1-.2.4-.2h.8q.5-.2.7-1.3V22.7q.1-1-1-1.3h-.7q-.4 0-.4-.2t.5-.2h6.1q.6 0 .6.2t-.4.2h-1q-.7.1-.7 1.3v4.9zm11.4-4v-4.8q-.1-1.2-1-1.3l-1-.1q-.3 0-.3-.2t.5-.2h6.1q.5 0 .5.2t-.4.2h-.7q-.8.3-.8 1.4v8c0 3.3.6 4.7 1.7 5.5q1.6 1.2 2.8 1c1 0 2.3-.3 3.1-1.3 1.3-1.2 1.4-3.3 1.4-5.6v-2.8l-.1-4.8q0-1.2-1-1.3l-.8-.1q-.4 0-.4-.2t.5-.2h5.2q.5 0 .5.2t-.4.2h-.7q-1 .3-.8 1.4l-.1 4.8v2.4c0 2.5-.3 5.2-2.2 6.9a7 7 0 0 1-4.7 1.6c-1.2 0-3.4 0-5.1-1.6-1.2-1-2-2.7-2-6zM163 21q.2-.6.4-.6.3-.1.7.7l6.2 12.8 6.2-13q.2-.5.5-.5t.4.6l2 14.1q.3 2 1.2 2.3l1.4.3q.3 0 .4.2 0 .3-.6.2l-5.3-.3q0-.2.3-.3t.1-1l-1.4-10-5 10.3q-.6 1.4-.8 1.3t-.8-1.2l-2.6-5.2-2.4-5-1.3 9v1.1q0 .6.7.8h.9q.3 0 .3.3t-.6.2h-4.6q-.3 0-.4-.2 0-.2.4-.2h.6q1-.4 1-1.9zm24.4 6.5-.1-4.8q0-1.2-1-1.3l-.9-.1q-.3 0-.4-.2 0-.2.5-.2h5.9c4 0 4.8 2.2 4.8 3.5q-.2 2.6-2.3 4c1.8.6 4 2.2 4 5 0 2.3-1.8 4.9-6 4.9l-3.3-.2h-2.9q-.4 0-.4-.2l.4-.1.8-.1q.5-.1.7-1.3v-4.8zm2.6.4q0 .3.2.2h1q1.2.1 1.7-.4 1-.7 1-2.4c0-1.5-1-3.5-2.9-3.5h-.7q-.2.1-.2.4zm3 1.8q-.7-.5-1.8-.5h-1q-.2 0-.2.2v5.3q-.1 2 .9 2.2.8.4 1.6.3c1 0 2.8-.6 2.8-3 0-1.4-.5-3.3-2.3-4.5Zm10.1-2.2v-4.8q-.1-1.2-.8-1.3h-.8q-.4 0-.4-.3t.6-.2h5.7q.5 0 .5.2t-.4.3h-.7q-.8.1-.8 1.3v13.9q-.1 1 1 1 .5.3 1.1.2l.4.1q0 .3-.4.3h-6.5q-.4 0-.4-.3l.4-.1.8-.1q.5-.1.7-1.1zm13.9 4.7q-.2 0-.2.2l-1.2 3.2q-.4 1-.3 1.4-.2.6.9.7h.3q.4 0 .3.2 0 .3-.4.2h-5.1q-.4 0-.4-.2t.2-.2h.7q1.4-.4 2-2.1l5.7-14.3q.4-1 .6-1 .3 0 .6.8l5.6 14c1 2 1.5 2.4 2 2.5h1q.3 0 .3.3.1.3-1 .2h-4.4q-.7 0-.7-.2t.3-.2q.3-.1.2-.5l-1.8-4.8q0-.2-.2-.2zm4.6-1.1q.3 0 .2-.2l-2.1-5.6-.1-.2-.1.2-2.1 5.6v.2zm-138 18.5v-5q0-1.1-1-1.4h-1q-.4 0-.4-.3t.6-.2H88q.6 0 .6.2t-.4.3h-.7q-.8.2-.9 1.4v8.3c0 3.4.7 4.8 1.8 5.8q1.7 1.1 3 1 1.7 0 3.2-1.3C95.9 57 96 55 96 52.5v-2.9l-.1-5q.1-1.2-1-1.3H94q-.4 0-.4-.3t.5-.2h5.4q.5 0 .5.2t-.4.2h-.7q-.9.3-.9 1.4v7.6c0 2.6-.3 5.4-2.3 7A7 7 0 0 1 91 61c-1.3 0-3.6 0-5.2-1.6-1.2-1-2.2-2.8-2.2-6.2zm21.3 8.2q0 2.2.7 2.2l1 .2.4.1q0 .3-.5.3l-2.4-.1H102q-.5 0-.5-.2l.4-.1.8-.1c.5-.2.6-.7.6-2.5l.2-11.6q0-.6.3-.7t.7.6l6 6.4 4.4 4.5h.1l-.2-8.9c0-1.2-.2-1.5-.6-1.8h-1q-.4 0-.4-.2t.5-.2h4.4q.4 0 .4.2l-.4.1h-.6q-.8.3-.7 1.8l-.2 12.4q0 .6-.3.6t-.7-.5l-5.7-5.8c-2.2-2-4.4-4.6-4.8-5zm18.2-6.5v-4.1q-.1-1-.7-1.1h-.7q-.3 0-.3-.3l.5-.1h4.9l.4.1q0 .3-.3.2h-.6q-.7.2-.7 1.2v12q0 .8.8 1h1q.4 0 .4.2t-.4.2h-5.6q-.4 0-.4-.2-.1-.2.4-.2h.7q.4-.1.6-1zm8.7-3.7c-.5-1.1-.8-1.3-1.5-1.6h-.8q-.2 0-.2-.2l.5-.1h5.3l.4.1q0 .3-.3.2l-.7.1-.2.5q0 .4.4 1.5l3.4 9c1-2.2 3.5-8.6 4-9.9l.1-.7-.2-.4h-.9q-.2 0-.3-.2t.6-.2h3.9l.4.1q0 .3-.3.2t-1 .2c-.3.2-.5.5-1 1.8l-2.5 5.3-2.6 6q-.6 1.6-.9 1.5-.4.1-.7-1.2zm17 3.7v-4.1q0-1-.9-1.2h-.7q-.4 0-.4-.2l.5-.1h7.8l.8-.1h.3l.1.1-.1 1.3-.1 1.3q0 .2-.3.2l-.1-.2-.1-.7q-.1-.6-1.3-.8h-2.9l-.1.2v5l.1.2h3.2l1-.3q0-.3.2-.3l.2.2-.2 1.4v1.3q0 .4-.2.4l-.1-.1-.1-.7q-.1-.7-1-.8h-2.9l-.1.2V58c0 1.4.4 1.7 2.4 1.7l1.8-.2q.9-.2.9-1.4 0-.4.2-.3.3 0 .2.4l-.3 2.1q-.1.6-1 .5h-8.1q-.3 0-.3-.2t.3-.2h.7q.5-.2.6-1.1l.1-4.2zm13.6 0v-4.1q0-1-1-1.2h-.7q-.3 0-.3-.2l.4-.1h5.5q1.9-.2 3.6.8c.6.4 1.4 1.4 1.4 2.7q.2 2.1-2.6 4.4 2.4 3.4 4.3 5.2c1 1.2 1.9 1.3 2.2 1.4h.5q.3 0 .2.2t-.3.2h-2q-1.4 0-2-.4c-1-.4-1.6-1.3-2.8-2.8-.8-1.1-1.6-2.5-2-2.8l-.3-.1h-1.9v.4l.1 4.2q0 1 .8 1l1 .1q.2 0 .2.2t-.4.2H161q-.3 0-.3-.2t.3-.2h.7q.5-.1.6-1.1v-7.8Zm2.3 1.6q0 .3.2.4.7.3 1.5.2c.8 0 1 0 1.4-.3q1-.6 1.1-3c0-2.8-1.8-3.6-3-3.6h-1q-.2 0-.2.3zm12.7 7.4q-.4-.1-.4-.7l.1-2.6q0-.4.2-.5t.3.4l.1 1q.9 2.1 2.8 2c1.8 0 2.7-1.2 2.7-2.2s-.3-2-2-3.2l-.9-.7q-3-2.3-2.9-4.6c0-2.2 1.8-3.8 4.6-3.8q1.8.1 2.6.4.2 0 .2.2v2.4q0 .6-.2.6t-.3-.4-.5-1.3c-.2-.4-.8-1-2.1-1q-2.3.2-2.3 2c0 1 .4 1.6 2 2.8l.6.5c2.4 1.8 3.3 3.1 3.3 5a4 4 0 0 1-1.9 3.4q-1.5 1-3.1.8-1.7 0-2.9-.5Zm13.4-9v-4.1q0-1-.7-1.1h-.7q-.3 0-.3-.3l.5-.1h4.9l.5.1q0 .3-.4.2h-.6q-.7.2-.7 1.2v12q0 .8.8 1h1q.4 0 .4.2t-.4.2h-5.6q-.3 0-.3-.2t.3-.2h.7q.5-.1.6-1zm13.5-4.6h-3q-1.5.1-1.8.7-.4.4-.4.7t-.2.2-.2-.3l.5-2.3q0-.4.2-.4l.9.2 2 .2h7.7q1.8-.1 2-.3v2.7l-.1.4q-.3 0-.3-.4v-.2q.1-1-2.3-1.1h-2.5v8l.1 4.2q0 1 .8 1.1h1q.3 0 .3.2t-.3.3l-3.1-.1H203q-.4 0-.4-.2l.3-.1h.7q.5-.2.6-1.2l.1-4.1zm16.3 8.8q0-1.5-.4-2.1l-3.5-5.7q-.7-1-1.3-1.4l-.8-.3q-.3 0-.3-.2l.4-.1h4.5l.4.1q0 .2-.5.2l-.2.4.2.7c.2.6 3 5.3 3.3 5.9l3-5.4.3-1q.1-.4-.5-.6-.2 0-.3-.2l.3-.1h3.9l.4.1q0 .3-.4.2-.3 0-.8.3l-1.1 1a39 39 0 0 0-3.7 6.2q-.4 1-.3 2V59q0 .9.9 1h1l.3.2q0 .3-.5.3l-3-.1h-2.5q-.3 0-.4-.2l.3-.1h.7q.6-.2.6-1.2v-3.5Z" fill="#1D4F91" stroke="#1D4F91" stroke-width=".3"/><path d="M35 51.8H8.7c.1-2.4-.6-5.1-1.4-7.2-2.5-6.4-8-12.2-6.7-19.8A9 9 0 0 1 9 17.2c7.6-.5 14 3.4 21.3 4.7.6.1 1.3-1.2 2-1.8-3.4-2.5-2.9-7.5 1-9.6.2-.4 0-3.3 0-3.4-.4-.2-2.8.3-3.2-.1-.3-.4-.2-3.3 0-3.6.3-.2 3 0 3.3 0 0-.3-.2-3 .2-3.2.2-.2 1.7-.1 1.7-.1h-.6l1.6.1c.3.3 0 2.9.3 3.1 0 .2 3-.1 3.2.1a9 9 0 0 1 0 3.6c-.4.4-2.9-.1-3.1.1-.1.1-.3 3 0 3.4 4 2.1 4.3 7.1 1 9.6.7.7 1.4 2 2 1.8 7.2-1.3 13.7-5.2 21.2-4.7 4.1.4 7.6 3.4 8.3 7.6 1.3 7.6-4.2 13.4-6.8 19.8-.8 2-1.5 4.8-1.4 7.2H34.8m14-15.7s3-.5 3.3 0-1 3-.9 3.3c.3.5 4.2-.3 4.3.1s-.2 2.6-.6 3-4 .4-4 .4q-1 1-1 3 .1 2.4 3.1 1.7c3.6-1 8-8.8 10.6-14.1 2-4 3.1-10.4-2-12.4-3-1.2-6.3-.5-9.6.4-3.5 1.1-8.1 2.4-10.9 4.2-.7.4.8.1-1.7 5.5a25 25 0 0 0-1.7 10.5c.7 3.8 2.7 6.2 4.5 6.3q1.7 0 3-1.2c1.2-1 2.1-2.7 1.8-3.7-.3-.4-3.4.1-3.6-.1-.3-.4.3-2.8.7-3.1s3.2.1 3.6-.3c.4-.3.8-3.4 1.2-3.5m-28.3 0c.4.2.7 3.2 1 3.5.4.4 3.3 0 3.7.3.3.3.9 2.7.7 3-.3.4-3.4 0-3.6.2-.4 1 .6 2.6 1.8 3.7q1.2 1.1 3 1.2c1.7 0 3.9-2.4 4.5-6.3.5-2.6-.6-8-1.8-10.5-2.4-5.4-1-5-1.7-5.5a53 53 0 0 0-10.8-4.2c-3.3-1-6.6-1.6-9.7-.4-5 1.9-3.9 8.4-2 12.4 2.6 5.3 7 13 10.6 14.1q3 .8 3.1-1.8.1-1.9-1-3s-3.6 0-4-.3c-.3-.4-.7-2.5-.6-3s4 .4 4.3 0c.2-.6-1-3-.8-3.4.3-.5 3.3 0 3.3 0M35 55.4H8.1v4.4H35" fill="#1D4F91"/><path d="M34.3 55.4h26.8v4.4H34.3" fill="#1D4F91"/></svg>