<svg height="100%" viewBox="0 0 224 95" fill="none" xmlns="http://www.w3.org/2000/svg"><path d="m4.358 59.66 4.412-.89-.185-.852-4.338.927c-.779.222-1.595-.186-1.817-.964-.222-.779.185-1.595.964-1.817.111-.037.185-.037.297-.074l4.412-.89-.185-.853-4.413.927c-1.223.223-2.039 1.372-1.817 2.558 0 .038 0 .112.038.149.222 1.223 1.408 2.002 2.632 1.78m6.302 4.745L5.878 66.15l3.782-4.56-.333-.927-6.23 2.299.297.815 4.82-1.78-3.819 4.561.334.927 6.266-2.262zm1.27 2.668L6 70.056l.4.795 5.929-2.982zm3.33 5.712-5.34 1.409 3.485-4.302-.519-.778-4.338 5.562.37.519 6.823-1.632zm-.928 4.857 1.854 2.188.594-.52-1.891-2.15 1.668-1.446 1.854 2.188.593-.52-2.447-2.817-5.005 4.338 2.447 2.818.593-.482-1.891-2.188zm7.748 2.558-1.78-1.483-4.301 5.08.667.556 1.372-1.631 1.038.89-.296 2.484.741.63.334-2.632a2.267 2.267 0 0 0 2.892-1.447 2.25 2.25 0 0 0-.667-2.447m-.371 2.67a1.38 1.38 0 0 1-1.965.26c-.037 0-.037-.037-.074-.037l-1.113-.965 1.891-2.261 1.113.964c.593.482.667 1.372.185 1.965 0 .037 0 .037-.037.074m5.155.519a1.88 1.88 0 0 0-2.596.37.8.8 0 0 0-.11.186c-.631 1.076.073 1.928.852 2.818.408.482.89 1.001.482 1.669a1.2 1.2 0 0 1-1.668.333c-.038 0-.038-.037-.038-.037-.704-.333-.963-1.186-.63-1.89a.3.3 0 0 0 .074-.149l-.741-.445c-.668 1.001-.371 2.336.63 3.004l.223.11a2.04 2.04 0 0 0 2.818-.37c.037-.037.074-.111.11-.148.668-1.113-.11-2.04-.852-2.892-.445-.52-.853-1.002-.482-1.595a1.07 1.07 0 0 1 1.446-.37c.037.037.074.037.111.074.594.333.779 1.038.482 1.631 0 .037-.037.037-.037.074l.742.445c.593-.927.296-2.15-.63-2.744-.075 0-.112-.037-.186-.074m3.522 1.994-2.618 6.099.818.35 2.618-6.098zm6.193 2.122-4.116-1.187-.223.742 1.669.482-1.669 5.636.853.222 1.632-5.636 1.668.482zm2.372.371L35.8 94.144l.89.11.482-.963 2.67.37.222 1.076.89.111-1.372-6.896zm-1.409 4.672 1.558-3.226.593 3.56zm7.528-1.594c-.63-.186-1.186-.371-1.26-1.076-.074-.704.445-1.038 1.186-1.075a1.23 1.23 0 0 1 1.298 1.112v.075h.853c0-1.113-.927-1.966-2.002-1.966h-.186c-1-.074-1.89.705-1.965 1.706v.223c0 1.26 1.075 1.594 2.262 1.89.63.186 1.26.371 1.298 1.187.037.816-.52 1.186-1.261 1.186-.779.075-1.483-.481-1.557-1.223v-.186h-.853c0 1.187.964 2.188 2.15 2.188h.223c1.112.074 2.076-.778 2.15-1.854v-.185c-.074-1.372-1.223-1.706-2.335-2.002m10.271.63-3.263-4.412-.852.26 4.264 5.598.556-.185.185-7.045-.89.296zm2.822-6.767-.803.383 2.86 5.99.802-.384zm5.742 3.542-3.115-4.97-.742.446 3.523 5.636 2.595-1.595-.445-.667zm2.855-9.493 3.337 3.893-5.599-1.928-.741.63 4.338 5.043.667-.556-3.374-3.93 5.636 1.965.705-.63-4.301-5.043zm7.081 1.112-1.631-1.372 1.854-2.188-.63-.519-1.817 2.188-1.669-1.372 1.817-2.188-.556-.519-2.41 2.855 5.08 4.264 2.41-2.855-.594-.482zm.52-10.827 4.375 2.67-5.932-.111-.52.815 5.674 3.449.482-.705-4.413-2.707 5.933.149.519-.816-5.673-3.485zm7.415-4.56c-1.186-.52-2.002.37-2.744 1.186-.445.52-.89.964-1.52.704a1.064 1.064 0 0 1-.556-1.371c0-.038.037-.075.074-.112.222-.63.927-.927 1.557-.704.037 0 .075.037.075.037l.333-.779a1.997 1.997 0 0 0-2.632 1.001c-.038.075-.038.112-.075.186-.482.89-.148 2.002.742 2.521.074.037.111.074.185.074 1.187.482 1.891-.333 2.67-1.186.408-.482.89-1.001 1.595-.705.593.297.852 1.001.556 1.595 0 .037-.037.037-.037.074-.26.741-1.039 1.112-1.78.89-.074-.037-.111-.037-.186-.074l-.333.778c1.075.52 2.373.037 2.892-1.038l.111-.222a2.006 2.006 0 0 0-.741-2.744.8.8 0 0 1-.186-.112m-3.681-4.446-.256.853 6.357 1.907.256-.852zm6.129-5.342c-1.298-.26-1.891.779-2.41 1.78-.334.593-.668 1.112-1.335 1.001a1.05 1.05 0 0 1-.816-1.224c0-.037.037-.074.037-.11.074-.668.705-1.113 1.335-1.039h.111l.148-.853c-1.075-.26-2.113.408-2.373 1.483 0 .075-.037.149-.037.223-.333.964.223 2.002 1.187 2.336.074.037.185.037.26.074 1.186.222 1.78-.704 2.41-1.78.296-.556.63-1.186 1.409-1.038.63.148 1.038.816.89 1.446 0 .037 0 .037-.038.074a1.365 1.365 0 0 1-1.557 1.224c-.074 0-.111 0-.185-.037l-.149.852c1.15.297 2.336-.444 2.633-1.594.037-.074.037-.185.037-.26.334-1.038-.26-2.187-1.298-2.52-.111 0-.185 0-.26-.038M36.356 65.407c.148.112.333.075.445-.074.11-.148.074-.333-.075-.445a.28.28 0 0 0-.185-.074c-.148-.111-.334-.074-.445.074-.111.149-.074.334.074.445a.6.6 0 0 0 .186.074M67.91 52.431V26.106H19.042c0 10.604-.148 21.394-.074 31.96h28.921c.334-1.89 2.781-4.152 1.632-6.302l-1.41-1.669a6.5 6.5 0 0 0 1.187-.445l1.558 1.52c.111.52.26 1.038.556 1.52-.668 1.224-1.187 2.522-1.446 3.894-.52.111-.742.519-.445 1.483h1.594a9.2 9.2 0 0 1 1.187-2.93 3.55 3.55 0 0 0 0-3.336c-1.187-.927-2.114-1.891-3.337-2.967-.149 0-.26-.148-.408-.11-.148.036.222.518.37.592-2.261.965-4.449.668-6.785.371-.037-.519 0-1.038.186-1.52.296.334.519.742.667 1.186.37-.444.667-.926.964-1.408l1.41 1.446a11 11 0 0 1 .63-3.3 28 28 0 0 0 3.077.519c.148.593-.111 1.557.408 1.557s.26-1.187.222-1.557c.556.037 1.113.037 1.632 0 .111.556 0 1.446.482 1.409s.222-1.038.185-1.483a9.5 9.5 0 0 0 1.483-.223c-.852 1.78-.593 3.893.705 5.376l-1.41 4.895c-.481.148-.592.63-.259 1.483h15.388zM41.067 29.405l.26-1.483.37 1.52 7.49-.222 2.114.593-2.077.52h-7.49l-.222 1.52-.408-1.41h-.26a1.33 1.33 0 0 0-.074-1zM37.06 45.164c.89-.371 1.854-.556 2.818-.482.038.185.075.37.112.593a10.4 10.4 0 0 0-3.19.63c0-.296.112-.556.26-.741m-.185-2.522c1.298-1.038 2.781-1.817 4.412-2.224.112 0 .149.074.26.074a10.54 10.54 0 0 0-4.56 3.67c-.038-.518-.038-1.038-.112-1.52m.556 1.78a9.07 9.07 0 0 1 4.153-3.485c-.074.593.185.853.556 1.186l-1.335 1.335-.89.63c-.815.075-1.668.149-2.484.334m6.267-9.344c.741-.964.815-2.298.185-3.374a3.5 3.5 0 0 1 2.04.074 3.9 3.9 0 0 1-.557 2.707l.37.593c-.37.075-1 .149-1.482.223q0 .778.11 1.557-.666.167-1.334.223c0-.705.223-1.41.668-2.003m-.186-.556a2.7 2.7 0 0 1-.63-2.04c0-.221.222-.63.519-.592.519.26.593 2.336.111 2.632m.964 2.781c.111.668.297 1.298.482 1.928-.37.111-1.112.408-1.631.556a8.6 8.6 0 0 1-.26-2.187c.52-.074.927-.186 1.41-.297m.705 2.41.333.668a17 17 0 0 0-2.966 1.52c-.297-.297-.704-.927-.26-1.15zm-4.301 4.375 1.371 1.039v.185l-1.854-.111c-.037-.223-.074-.445-.074-.705.186-.148.371-.296.557-.408m.407-.333a10.5 10.5 0 0 1 4.413-2.93c.296.445.63.89 1 1.298-.147.334-.592.63-1.408.853-1.038.52-2.262 1.669-2.67 1.891zm3.486-8.12 3.93-.594c.556 1.446.816 6.007-.779 7.342-1.742-.853-3.077-4.301-3.151-6.748m-4.895-6.23c.371.112.594.445.557.78a.97.97 0 0 1-.334.63c0 .63.185 2.41.26 3.448l2.632 1.075a3.3 3.3 0 0 0-.37 1.298l-3.45-1.52c0-1.447 0-2.893.112-4.339-.37-.222-.445-.704-.222-1.075a.98.98 0 0 1 .815-.297m-1.816.482a.29.29 0 0 1 .407 0c.112.149.112.334 0 .445-.11.112-.296.149-.407.037l-.038-.037a.63.63 0 0 1 .038-.445m1.186 8.232a6.6 6.6 0 0 1 1.594 1.89 5 5 0 0 0-.704.186 5.54 5.54 0 0 0-2.633-2.41l.186.445a4.87 4.87 0 0 1 1.89 2.076 10.7 10.7 0 0 0-2.965 1.817c.074-.519-.112-1.038.11-1.631.372-1.001.557-2.04-.592-2.744a3.2 3.2 0 0 0-.853-.222c0-.297 0-.668-.074-.965 1.52.075 2.929.63 4.041 1.558m-3.003 3.151h-.556l-.334-3.114c.519 0 .964.297 1.186.742.334.519-.333 1.78-.296 2.372m-.927 1.706a1.09 1.09 0 0 1-1.076-1.001 6.2 6.2 0 0 1 2.003-.223c.111.705-.223 1.224-.927 1.224m0-1.743c-.26 0-.779.149-1.187.223l-.074-.074-.704-2.892a2.8 2.8 0 0 1 1.52-.445zm-1.965-5.153a1.3 1.3 0 0 1 .852.593h.557c.037.296.074.593.11.927a3.5 3.5 0 0 0-1.594.519l-.26-.556c-.37-.594-.184-.482-.481-.816.37.037.704.185 1.001.408-.074-.408-.148-.705-.185-1.075m-4.227 13.57c.11-.667.26-1.298.445-1.928a19.3 19.3 0 0 1 3.596-2.076c1.038-.037 2.04 0 3.078.148-.074.334-.111.63-.149.964-.927-.074-1.816-.148-2.818-.148a9.5 9.5 0 0 0-2.892 1.557c-.074.482 0 .964.149 1.446-.334 0-1.001 0-1.41.037m2.336.816q-.168.555 0 1.112-.556.111-1.113.111c0-.556.148-1.112.445-1.594.668-.667 1.52-1.446 2.15-2.04.26-.296.52-.555.853-.778l3.857-.26v-.11a2.25 2.25 0 0 0-1.001-.112v-.445c1.075-.445 2.224-.704 3.374-.704q.056 1.557-.111 3.114c-1.41.26-4.005-.556-5.636-.519zm10.122-1.52a3 3 0 0 0 0 1.15c0 .37-.704.444-1.187.555a10.3 10.3 0 0 0-2.076.89c.074-.593.445-1.075.964-1.372.297-.111.556-.296.816-.519a13.3 13.3 0 0 0 .408-4.004l1.817.11c.11 1.224-.557 2.188-.742 3.19m4.227-4.19c-.593 1.075-.89 2.262-.927 3.485l-1.15-1.15c-.185.334-.444.928-.704 1.336-.111-.223-.37-.594-.593-.89.26-.705.334-1.446.222-2.188a13.4 13.4 0 0 1 2.67-1.89c.89-.298 1.483-.631 1.669-1.002.185.185.407.334.63.482a4.77 4.77 0 0 1-2.818 1.706c.297.11.667.148 1.001.11m.26.741c.11-.333.222-.667.407-.964a4.8 4.8 0 0 0 1.335-.927c.556.668.927 1.447 1.001 2.3a9.8 9.8 0 0 1-2.743-.409m3.337.445a8.5 8.5 0 0 0-1.187-2.855 1.87 1.87 0 0 1 1.706.594c.593.63.964 1.446 1.112 2.336-.26-.075-1.186-.038-1.631-.075m8.305 1.558c.26.296.445.667.482 1.075-.333-.26-.778-.408-1.186-.37.148.37.222.815.111 1.186a5 5 0 0 0-.705-.853c-.667-.742-.444-1.891 0-2.966 0-.445-.222-.89-.741-.89-1.335.222-2.484 1.334-3.782 1.186-.445-.964-.705-2.41-1.965-3.003 1.409.148 2.67.89 3.485 2.076 1.15-1 2.522-2.15 4.153-1.705.556.185.927.63 1.038 1.186.111 1.001-.519 2.299.556 3.152-.519.37-1-.223-1.446-.074" fill="#78003F"/><path d="M66.315 58.994h-47.35c.149 5.71 2.262 11.234 5.933 15.61 9.678 11.53 28.7 11.346 37.969-.927a24 24 0 0 0 5.005-14.683h-.927a24 24 0 0 1-2.113 9.232 1.5 1.5 0 0 1-.667.37c-1.002.409-1.52.372-2.559.705-.222.112-.482.186-.556.334.704 0 1.409-.111 2.076-.26-.296.186-.556.371-.741.483a58.5 58.5 0 0 1-7.639 3.782c.445-2.374.223-4.82-.667-7.082a16 16 0 0 0 2.299-.482 5.7 5.7 0 0 1 1.15 3.263 2.07 2.07 0 0 0 .407-1.372 6.7 6.7 0 0 0-.927-2.188c.63-.26 1.52-.779 2.188-1.038.667-.26 1.631-.445 2.04-.63-.26-.186-.965 0-1.336 0a22.6 22.6 0 0 1 5.71-2.559c-.074-.334-1.075 0-1.408 0a6.5 6.5 0 0 0 2.113-2.558m-31.146 5.599v12.606a4.5 4.5 0 0 0-.445-.408V64.185c0-.371.074-.63.297-.63 1.112-.112 2.67-.26 3.967-.446 1.298-.185 2.892-.333 4.264-.519.111-.111.074-.222-.074-.37l-8.417 1c-.222.112-.445.297-.445.371V76.68l-.482-.111c-.074-3.93 0-8.528 0-12.792a3 3 0 0 1 0-.816c.074-.148.482-.148.482-.148 2.93-.297 5.933-.705 8.899-1.076.148 0 .111-.222 0-.333-2.892.296-6.34.593-9.121.927a1 1 0 0 0-.89.222 1.26 1.26 0 0 0-.111.742c0 4.375.148 8.861 0 13.274h-.408c0-4.487-.075-10.197-.075-14.053a.77.77 0 0 1 .594-.816h.111c3.597-.296 5.858-.408 8.788-.778.852 0 1.594.074 2.002.704a.87.87 0 0 1-.297 1.224.3.3 0 0 1-.148.074c-.37.148-.742.222-1.15.26l-6.896.778c-.26.037-.445.334-.445.63m7.193-.816v1.854h-.408a1.67 1.67 0 0 1-1.186-1.669c.445-.148 1.112-.148 1.594-.185m-6.785 1.186c0-.296 0-.593.408-.63l1.52-.111c0 1.26-.52 1.89-1.891 1.89 0-.37 0-.704-.037-1.149m.63 13.497c-.26 0-.445-.149-.556-.371V76.42c.482 0 .927.149 1.298.408.445.408.704.964.667 1.558-.445.037-.927.074-1.409.074m1.891-.149a2.29 2.29 0 0 0-.853-1.89 2.53 2.53 0 0 0-1.557-.408l-.074-9.455c1.112.185 2.15-.594 2.336-1.706a2.3 2.3 0 0 0 0-.705l2.41-.259c-.037 1.15.853 2.15 2.002 2.188h.074l.26 9.27c-1.224.147-2.114 1.297-1.928 2.52 0 .037 0 .075.037.112zm3.115-.407c-.186-.927.408-1.817 1.297-2.003h.075s.074 1.817.074 1.854c-.445.074-.927.112-1.446.149m1.668-14.276a2.25 2.25 0 0 0 1.446-.63c.149.37 0 .779-.333 1.001-.334.223-.705.334-1.113.408 0-.148-.074-.779 0-.779m0 1.224a2.5 2.5 0 0 0 1.483-.593v2.707c-.148.556-.778.704-1.483.89zm0 3.485c.556-.074 1.038-.296 1.483-.63.186.185.186.482 0 .705a2.85 2.85 0 0 1-1.446.519c-.037-.186 0-.371 0-.557zm0 1.076c.445-.037.927-.149 1.335-.371v2.41l-1.298.704zm.186 4.19c.148 0 .222 0 .296.222.075.222.371.185.63.297a.67.67 0 0 0 .557.26v1.52c0 .333-1.187.704-1.483.667zm1.409 3.596a3.3 3.3 0 0 1-1.335.408v-.445a3.37 3.37 0 0 0 1.594-.63.593.593 0 0 1-.185.778zm9.789-3.596c-.075.296-.26.296-.408.222a5.8 5.8 0 0 1-.853-2.818c.37-.37.853-.705 1.335-.89.185 1.187.185 2.41 0 3.597zm0-3.968c-2.337.964-3.93 3.597-6.675 4.005a9.3 9.3 0 0 0 1.52-.927c0-.112 0-.149-.185-.149-.778.52-1.631.89-2.521 1.187l-1.558.296c-.074 0-.26 0-.333-.148.37-.222 1.594-.556 2.224-.89.594-.296 1.187-.63 1.706-1.038 0-.111 0-.26-.222-.222-.52.296-1.076.593-1.595.852a14.5 14.5 0 0 1-2.41.89c-.222 0-.519 0-.556-.148s0-.111.26-.222c.26-.149 1.371-.52 2.076-.89a11 11 0 0 0 1.78-1.076c0-.148 0-.222-.223-.148-1.26.742-2.558 1.372-3.93 1.817a.92.92 0 0 1-.63 0V72.6l2.224-1.075a10 10 0 0 0 1.706-1.075l1.557-1.372v-.222a6.3 6.3 0 0 1-3.522 0v-.149c.593-.148 1.186-.222 1.817-.408 1-.26 1.89-.704 2.966-.964 1.075-.222 2.633-.148 3.967-.333.408.815.594 1.742.63 2.67z" fill="#78003F"/><path d="M36.653 77.198a.357.357 0 0 0-.482.223.356.356 0 0 0 .222.482c.223.074.408 0 .482-.223.037-.185-.037-.408-.222-.482m4.487-6.711c0-.667-.446-.816-1.039-.853.037-.334-.074-.63-.26-.89-.74-.333-1.63 0-1.408 1.001-.408.075-1.187.334-1.113 1.039.112.667.445.89 1.187.852 0 .594.408 1.187 1.001 1.15.593-.074.704-.742.704-1.41.445-.073.965-.333.927-.889m-1.372.52c0 .518.185 1.186-.297 1.186-.705.074-.37-.78-.593-1.076-.186-.26-1.001.186-1.187-.333.074-.705.668-.63 1.112-.705 0-.519-.333-.927.408-1.112.594 0 .371.556.408.927.371 0 1.075-.075 1.075.519 0 .593-.482.445-.926.593m8.269-30.366c-.075-.408-.186-.853-.223-1.187.371 0 .63-.074.89-.111l-.111-.63c-.297.074-.37.074-.816.185-.074-.408-.148-.742-.222-1.187l.89-.074v-.63c-.223 0-.668.111-.927.185-.075-.408-.149-.852-.149-1.297a3.7 3.7 0 0 0-.667.11c.111.409.222.78.26 1.187-.26 0-.52.074-.928.111l.075.594c.296 0 .778-.186.964-.186.074.482.148.816.185 1.187a7 7 0 0 1-.927.148l.148.63c.297-.037.557-.148.853-.222a7.6 7.6 0 0 1 0 1.298c.223 0 .482-.037.705-.111m-5.858 36.225a.35.35 0 0 0-.482.074.35.35 0 0 0 .074.482c.037 0 .037.037.074.037.445.148.704-.482.334-.593m-7.527-37.414a.46.46 0 0 0-.074-.482c-.148 0-.222-.11-.37 0a.63.63 0 0 0 0 .52c.185.148.407.148.444-.038m6.933 25.4c.148.037.334-.037.37-.222.038-.148-.036-.334-.222-.371-.37-.111-.482.593-.148.593M7.843 39.157l-6.155-3.448-.149.926 4.82 2.596-5.45.779-.148.89 6.933-1.113zm-5.317-6.29-.244.856 6.383 1.819.244-.856zM10.66 29.7l-.705-.26-.778 2.003-5.488-2.113-.297.815 6.192 2.41zm.927-1.964L7.064 25.29l5.932-.185.482-.816L7.62 21.1l-.408.779 4.524 2.447-5.933.185-.482.853 5.859 3.152zM9.7 18.019l-.513.727 5.425 3.824.512-.728zm6.82 2.041-.52-.926 1.78-2.003 1.001.408.594-.667-6.526-2.67-.408.482 3.448 6.118zm-2.818-4.745 3.263 1.483-1.447 1.631zm8.083-.407c.964-.779 1.149-2.188.37-3.152-.037-.037-.037-.074-.074-.11l-2.892-3.45-.667.557 2.892 3.448c.556.593.556 1.483-.037 2.04s-1.483.556-2.04-.037l-.148-.149-2.818-3.448-.667.556 2.892 3.448a2.24 2.24 0 0 0 3.151.334s.038 0 .038-.037m3.299-6.12c.63-.148 1.298-.296 1.706.371a1.175 1.175 0 0 1-.52 1.594c-.63.445-1.52.297-1.964-.37-.037-.037-.074-.112-.111-.149l-.742.52c.556 1.075 1.89 1.483 2.93.89a.8.8 0 0 0 .222-.15c1-.444 1.446-1.63 1-2.669-.036-.074-.073-.11-.073-.185-.668-1.112-1.817-.89-2.93-.63-.667.148-1.297.26-1.631-.334-.297-.52-.111-1.15.408-1.41.037-.036.074-.036.111-.036.556-.371 1.298-.186 1.669.37 0 .038.037.038.037.075l.741-.445c-.519-.964-1.705-1.298-2.67-.779-.074.037-.11.074-.185.111-.927.445-1.335 1.52-.89 2.448.037.074.074.11.074.185.594 1.112 1.632.89 2.818.593m9.678-.741c1.224-.296 1.928-1.52 1.668-2.707 0-.037-.037-.074-.037-.11L35.207.89l-.779.223 1.187 4.338a1.463 1.463 0 0 1-.816 1.89 1.463 1.463 0 0 1-1.891-.815c-.037-.111-.074-.185-.074-.297l-1.187-4.338-.816.223 1.187 4.338c.297 1.186 1.52 1.928 2.744 1.631-.037-.037-.037-.037 0-.037m4.448-1.112-.407-5.117 3.374 4.894.964-.111-.556-6.6-.853.074.445 5.117L38.766.297l-.965.11.557 6.6zM45.393.112l-.397 6.625.888.054.397-6.626zm4.57 7.232 3.523-6.081-.89-.148-2.67 4.783-.704-5.45-.89-.186 1 6.97zM56.6 9.381l.26-.704-2.67-1.001.742-2.002 2.67 1 .26-.74-2.67-1.002.741-2.04 2.707 1.002.26-.742-3.486-1.298-2.336 6.23zm2.114 1.077 1.038-1.854 1.187.668.11 2.484.854.482-.111-2.67c.926.186 1.89-.296 2.335-1.112a2.2 2.2 0 0 0-.778-3.04c-.037-.038-.074-.038-.111-.075l-2.04-1.186-3.263 5.821zm2.892-5.117 1.26.742c.668.37.928 1.223.52 1.928 0 .037-.037.037-.037.074-.334.705-1.187.964-1.891.63-.037 0-.037-.037-.074-.037l-1.261-.741zm2.484 5.858a2.18 2.18 0 0 0 .223 3.077c.074.037.11.112.185.149.779.778 2.04.778 2.818 0 .037-.037.074-.112.148-.149.816-1.038.186-2.039-.445-2.966-.37-.556-.667-1.112-.26-1.668.371-.445 1.039-.482 1.484-.075l.074.075c.52.408.63 1.149.223 1.668l-.075.074.742.52c.704-.816.593-2.077-.222-2.781-.038-.038-.112-.075-.186-.112a1.904 1.904 0 0 0-2.633 0c-.037.037-.074.112-.148.149-.778 1-.222 1.89.445 2.892.37.519.705 1.112.223 1.705a1.22 1.22 0 0 1-1.706.111l-.037-.037c-.63-.444-.816-1.334-.37-1.965.036-.037.073-.11.11-.148zm8.15 1.069-4.732 4.654.624.634 4.733-4.654zm-1.993 7.644.556.704 4.56-3.67 1.076 1.334.63-.482-2.707-3.374-.593.52 1.038 1.334zm4.263 6.266.63-.408-1.484-2.447 1.817-1.113 1.52 2.447.631-.407-1.483-2.448 1.89-1.112 1.484 2.447.63-.408-1.928-3.188-5.673 3.448zm1.261 2.632.37.816 5.34-2.41.705 1.594.704-.333-1.743-3.93-.704.333.704 1.557zm1.409 3.376h1.075l.816 2.559-.853.63.26.853 5.636-4.19-.186-.593-7.008-.149zm5.525 0-2.93 2.077-.667-2.077zm.927 4.225c-1.186.223-1.409 1.298-1.557 2.484-.074.63-.185 1.335-.964 1.446-.667.075-1.26-.37-1.335-1.038v-.074c-.185-.742.26-1.52 1.001-1.706.074 0 .111-.037.186-.037l-.149-.852c-1.186.148-2.039 1.26-1.854 2.447 0 .074.038.148.038.26.074 1.112 1.038 1.927 2.15 1.853h.074c1.298-.222 1.483-1.409 1.632-2.558.074-.668.222-1.298.89-1.41.556-.073 1.112.297 1.186.89v.112a1.17 1.17 0 0 1-.927 1.409l.148.853c1.076-.186 1.817-1.187 1.632-2.262 0-.037 0-.074-.037-.148-.074-1.001-.964-1.78-2.002-1.706 0 0-.075 0-.112.037M36.394 21.137v-5.525h-.668c0 .667-.185.927-1.186.927v.593h1.112v4.042h.742zm7.748 0h.778l2.447-5.525H43.92v.63h2.41zm6.23-.002 1.631-2.632q.334-.501.334-1.113a1.9 1.9 0 0 0-1.891-1.89 1.9 1.9 0 0 0-1.891 1.89 1.9 1.9 0 0 0 1.89 1.892c.112 0 .223-.038.335-.075l-1.261 1.928zm.074-2.52a1.195 1.195 0 0 1-1.187-1.187c0-.63.557-1.187 1.187-1.187s1.187.556 1.187 1.187c0 .63-.52 1.186-1.187 1.186m-19.243.742a.89.89 0 1 0 0-1.78.89.89 0 0 0 0 1.78m24.472.038a.89.89 0 1 0 0-1.78.89.89 0 0 0 0 1.78M4.394 48.536a.89.89 0 1 0 0-1.78.89.89 0 0 0 0 1.78m78.606 0a.89.89 0 1 0 0-1.78.89.89 0 0 0 0 1.78M40.878 17.355c-.482-.038-.964.185-1.298.556v-1.669h2.67v-.63h-3.337v3.077h.667c.297-.593 1.001-.852 1.595-.556.408.223.704.63.667 1.113a1.23 1.23 0 0 1-1.112 1.297h-.074a.976.976 0 0 1-1.076-.741h-.667c.111.852.89 1.483 1.743 1.409a1.87 1.87 0 0 0 1.928-1.817v-.148c.11-.89-.52-1.743-1.41-1.854-.11-.037-.185-.075-.296-.037M103.468.52h-1.187v94.438h1.187zm14.979 25.473h3.819l3.189 10.864 3.189-10.864h3.819l-5.191 15.424h-3.708zm14.76 1.817c-.037-1.15.89-2.077 2.039-2.114s2.076.89 2.113 2.04c.038 1.149-.889 2.076-2.039 2.113h-.037c-1.112.037-2.039-.89-2.076-2.003zm.37 3.003h3.375v10.604h-3.375zm6.154-4.82h3.375v15.424h-3.375zm6.118 4.822h3.375v1.52a3.64 3.64 0 0 1 3.448-1.817c2.558 0 3.893 1.446 3.893 4.338v6.563h-3.374v-5.45c0-1.78-.519-2.596-1.891-2.596s-2.039.89-2.039 2.522v5.561h-3.375V30.815zm12.979-3.005c-.037-1.15.89-2.077 2.039-2.114s2.077.89 2.114 2.04-.89 2.076-2.04 2.113h-.037c-1.112.037-2.039-.89-2.076-2.003zm.371 3.003h3.374v10.604h-3.374zm6.116 6.527v-6.563h3.411v5.821c0 1.446.482 2.262 1.78 2.262s2.04-.927 2.04-2.41v-5.673h3.337V41.38h-3.375v-1.483a3.55 3.55 0 0 1-3.3 1.817c-2.595 0-3.893-1.594-3.893-4.375m12.533.891h3.337c0 .704.704 1.186 1.743 1.186.741 0 1.186-.371 1.186-1.001a.83.83 0 0 0-.778-.89l-2.596-.668c-1.52-.185-2.67-1.52-2.67-3.077 0-1.965 1.743-3.374 4.524-3.374 3.115 0 4.746 1.297 4.746 3.3h-3.337c0-.742-.556-1.187-1.446-1.187s-1.187.334-1.187.89c0 .52.334.779.89.964l2.522.668c1.483.185 2.632 1.446 2.706 2.966 0 2.187-1.742 3.596-4.634 3.596-3.152.149-5.006-1.372-5.006-3.374M119.671 62.59V52.393h3.56v9.974a2.66 2.66 0 0 0 2.669 2.67 2.66 2.66 0 0 0 2.67-2.67v-9.974h3.597V62.59c0 3.596-2.41 5.598-6.23 5.598-3.856.037-6.266-2.002-6.266-5.598m14.944-5.376h3.374v1.52a3.64 3.64 0 0 1 3.448-1.816c2.559 0 3.894 1.446 3.894 4.338v6.563h-3.374v-5.45c0-1.78-.52-2.596-1.891-2.596-1.372 0-2.04.89-2.04 2.521v5.562h-3.374zm12.977-3.006c-.037-1.15.89-2.076 2.039-2.113s2.077.89 2.114 2.04-.89 2.076-2.039 2.113h-.037c-1.113.037-2.04-.89-2.077-2.003zm.371 3.004h3.374v10.604h-3.374zm4.709.001h3.708l2.41 6.674 2.41-6.674h3.745l-4.597 10.604h-3.041zm23.433 6.228h-7.823c0 1.224 1.001 2.188 2.225 2.188h.259c1.038 0 1.706-.334 1.965-1.001h3.3c-.333 2.076-2.447 3.522-5.302 3.522-3.597 0-5.821-2.076-5.821-5.636a5.25 5.25 0 0 1 4.931-5.599h.779c3.3 0 5.562 2.077 5.562 5.043 0 .482 0 1.001-.075 1.483m-3.225-2.076a2.01 2.01 0 0 0-1.854-2.188h-.408a2.11 2.11 0 0 0-2.373 1.891v.297zm5.191-4.152h3.374v2.224c.259-1.408 1.52-2.41 2.929-2.41.297 0 .593 0 .89.075v3.114c-.334-.037-.668-.074-1.001-.074-1.632 0-2.781 1.001-2.781 3.596v4.08h-3.374V57.212zm8.083 7.415h3.337c0 .705.704 1.187 1.742 1.187.742 0 1.187-.371 1.187-1.001a.83.83 0 0 0-.779-.89l-2.595-.668c-1.521-.185-2.67-1.52-2.67-3.077 0-1.965 1.743-3.374 4.524-3.374 3.114 0 4.746 1.297 4.746 3.3h-3.337c0-.742-.557-1.187-1.446-1.187-.89 0-1.187.334-1.187.89 0 .52.334.779.89.964l2.521.668c1.483.185 2.633 1.446 2.707 2.929 0 2.187-1.743 3.596-4.635 3.596-3.114.186-5.005-1.335-5.005-3.337m11.346-10.42c-.037-1.15.89-2.076 2.039-2.113s2.077.89 2.114 2.04-.89 2.076-2.039 2.113h-.038c-1.112.037-2.039-.89-2.076-2.003zm.371 3.004h3.374v10.604h-3.374zm12.903 7.936v2.67c-.741.111-1.483.185-2.261.185-1.595 0-3.745-.333-3.745-3.893v-4.227h-1.669v-2.67h1.669v-3.188h3.374v3.152h2.41v2.67h-2.41v3.522c0 1.557.63 1.817 1.483 1.817.371 0 .742 0 1.149-.038m12.458-7.935v10.27a5.03 5.03 0 0 1-1.483 3.82 5.48 5.48 0 0 1-3.893 1.186c-1.409.111-2.781-.297-3.931-1.112a3.84 3.84 0 0 1-1.334-2.781h3.374c.074.89.593 1.446 1.854 1.446 1.26 0 2.039-.704 2.039-2.41v-1.595c-.705 1.187-2.002 1.854-3.374 1.78-2.707 0-3.931-1.817-3.931-4.45v-6.154h3.375v5.673c0 1.372.482 2.299 1.891 2.299s2.039-1.076 2.039-2.67V57.25h3.374z" fill="#78003F"/></svg>