<svg height="100%" viewBox="0 0 232 49" fill="none" xmlns="http://www.w3.org/2000/svg"><mask id="a" style="mask-type:luminance" maskUnits="userSpaceOnUse" x="0" y="0" width="42" height="49"><path d="M.84.56H41.7v47.87H.84z" fill="#fff"/></mask><g mask="url(#a)"><path d="M10.3 1.32h21.88l1-.01h2.23q1.6 0 5.3-.16l.92-.03a49 49 0 0 0-.17 3.68l-.01 2.95-.01 2.78v15.58c0 9.8-2.22 13.13-12.8 18.35-.47.24-5.86 2.93-6.42 3.23l-.53.28-.54.28-.54-.28-.54-.28c-2.22-1.16-4.48-2.19-6.23-3.05-9.7-4.75-12.8-8.13-12.8-18.53V10.53l-.02-2.78L1 4.8a30 30 0 0 0-.17-3.68l.92.03c2.44.1 4.25.16 5.3.16h3.24" fill="#211E1E"/></g><mask id="b" style="mask-type:luminance" maskUnits="userSpaceOnUse" x="0" y="1" width="42" height="48"><path d="M.84 1.35H41.7v47.08H.84z" fill="#fff"/></mask><g mask="url(#b)"><path d="m21.15 47.3 4.16-2.04.11-.04-.03-.09V25.96l-.04-.11.13.02h15.08l.13.04-.04-.16v-8.13l.04-.13-.13.04H25.48l-.13.02.04-.13V2.17l.03-.13-.12.04h-8.25l-.13-.04.03.13v15.25l.03.13-.12-.02H1.9l-.13-.04.04.13v8.2l-.04.09.13-.04h14.96l.12-.02-.03.15v19.1l-.03.15.1.03z" fill="#fff"/></g><mask id="c" style="mask-type:luminance" maskUnits="userSpaceOnUse" x="0" y="1" width="19" height="18"><path d="M.84 1.35h17.33V18.7H.84z" fill="#fff"/></mask><g mask="url(#c)"><path d="m1.97 2.08-.2-.04.04.15v15.26l-.04.12.18-.04h14.9l.13.04-.03-.14V2.15l.03-.1-.13.03z" fill="#EE2E4F"/></g><path d="m25.55 2.08-.18-.04.02.15v15.26l-.02.11.17-.03h15.01l.14.03-.04-.13V2.15l.04-.1-.14.03z" fill="#EE2E4F"/><mask id="d" style="mask-type:luminance" maskUnits="userSpaceOnUse" x="0" y="24" width="19" height="22"><path d="M.84 24.9h17.33v21.06H.84z" fill="#fff"/></mask><g mask="url(#d)"><path d="M16.92 25.87H1.86l-.09-.03.04.1v.9c0 8.39 2.8 12.46 11.4 16.62l2.73 1.32.95.44.07.1V25.94l.02-.11z" fill="#EE2E4F"/></g><path d="m25.47 25.87-.1-.04.02.1v19.2l-.02.14.1-.11.86-.4c11.7-5.5 14.32-8.78 14.32-17.84v-.96l.04-.13-.13.04z" fill="#EE2E4F"/><path d="m4.26 18.28.1.1.1.12.12.12.1.1-.07.06-.13.11-.1.12-.04.04v.12c0 1.06.27 1.77.86 2.25l.1.09-.1.06h-.12l-.25-.04-.22-.03-.13-.03-.13.94h-.18l-.13-.94-.13.03-.21.03-.26.03-.12.01q-.09 0-.1-.04 0-.03.06-.08l.2-.15c.16-.12.27-.27.46-.66q.13-.26.13-.43c0-.28.04-.5.09-.5l.02-.48.02-.18-.06-.04-.1-.12-.13-.11-.05-.06.1-.1c.18-.18.2-.2.3-.34m4.94 0c.1.14.11.16.3.34l.1.1-.05.06-.13.11-.1.12-.07.04.03.18.02.48c.04.7.42 1.49.82 1.7q.1.07.11.1l-.06.06H10l-.24-.03-.23-.04-.12-.03-.13.94H9.1l-.13-.94-.14.03-.22.04-.24.02-.12.02h-.02q-.08 0-.09-.04 0-.05.06-.09l.19-.15c.17-.13.22-.2.46-.66q.14-.27.14-.43c0-.28.04-.5.08-.5l.03-.48v-.18l-.03-.04-.12-.12-.13-.11-.05-.06.1-.1.12-.12.1-.12zm-2.47 2.9.1.1.09.11q.05.07.11.12l.12.1-.06.05-.12.13-.12.1-.04.05v.12c0 1.09.26 1.76.86 2.25l.1.09-.1.07-.11-.02-.25-.02-.22-.04-.13-.03-.13.94h-.18l-.14-.94-.13.03-.22.04-.24.02-.12.02h-.01q-.1 0-.1-.05 0-.03.07-.08l.2-.15c.41-.32.7-1.19.7-2.13v-.12l-.04-.05-.12-.1-.12-.12-.06-.06c.2-.17.3-.27.41-.44m4.96 0c.12.16.21.26.41.43l-.07.05-.11.13-.12.1-.04.05v.12c0 .7.2 1.56.44 1.84l.27.3q.02.03.14.1l.12.1-.11.07-.12-.02-.24-.02-.23-.04-.13-.03-.13.94h-.18l-.13-.94-.13.03-.22.04-.25.02-.11.02h-.02q-.08 0-.09-.05 0-.03.06-.08l.19-.15c.4-.32.71-1.2.71-2.13v-.12l-.03-.05-.12-.1-.12-.12-.06-.06.12-.1q.06-.05.11-.12l.1-.11zm2.47-2.9a2 2 0 0 0 .3.34l.1.1-.05.06-.13.11-.1.12-.06.04.02.18.02.48c.04.68.43 1.5.82 1.7q.1.07.11.1 0 .05-.05.06h-.16l-.26-.03q-.12 0-.23-.04l-.11-.03-.13.94h-.18l-.13-.94-.14.04-.22.03-.24.02-.12.02h-.02q-.08 0-.09-.04 0-.05.06-.09l.2-.15c.17-.13.22-.21.45-.66q.15-.27.14-.43c0-.28.04-.5.08-.5l.03-.48v-.18l-.03-.04-.12-.12-.11-.11-.07-.06.33-.34zm14.05-.02.09.11.09.1.12.14.11.1-.06.05-.12.12-.12.1-.04.06v.1c0 1.06.36 1.97.86 2.25q.12.07.12.11v.03l-.12.02h-.11a3 3 0 0 1-.6-.1l-.13.93h-.19l-.12-.93c-.19.06-.45.1-.6.1h-.12q-.11 0-.11-.04 0-.06.11-.11c.5-.27.86-1.2.86-2.25v-.11l-.04-.05-.12-.1-.11-.13-.07-.05.12-.1.12-.13.08-.1zm4.96 0 .09.11.1.1.12.14.1.1-.06.05-.12.12-.12.1-.04.06v.1c0 1.04.36 1.98.87 2.25q.1.07.1.11v.03l-.1.02h-.12a3 3 0 0 1-.6-.1l-.13.93h-.19l-.12-.93q-.32.1-.65.1-.19 0-.17-.05 0-.06.11-.1c.1-.05.3-.25.4-.42.21-.33.33-.62.33-.78 0-.29.05-.51.1-.51l.02-.48.01-.17-.05-.05-.3-.28.12-.1.12-.13.1-.1zm-2.48 2.89.1.1.1.12.1.12.12.1-.06.05-.12.13-.12.1-.04.06.02.17.02.48c.04.71.41 1.48.82 1.7q.11.07.11.12v.01l-.1.03h-.12a3 3 0 0 1-.6-.1l-.13.93h-.19l-.13-.93c-.17.06-.43.1-.65.1q-.18 0-.17-.06t.12-.1a2 2 0 0 0 .75-1.2c0-.27.03-.5.07-.5l.03-.48.01-.17-.05-.06-.11-.1-.13-.13-.05-.05.1-.1c.19-.18.2-.2.3-.34m5 0 .1.1.1.12.12.12.1.1-.05.05-.13.13-.12.1-.04.06.02.17.02.48c.04.71.41 1.48.82 1.7q.11.07.11.12v.01l-.1.03h-.12a3 3 0 0 1-.6-.1l-.13.93h-.17l-.15-.93c-.17.06-.43.1-.65.1q-.18 0-.17-.06t.12-.1c.1-.04.3-.24.4-.41.21-.35.34-.64.34-.78 0-.28.04-.51.08-.51l.03-.48.01-.17-.05-.06-.11-.1-.13-.13-.05-.05.1-.1c.19-.18.2-.2.3-.34m2.48-2.9.09.12.1.1.12.14.1.1-.06.05-.12.12-.12.1-.03.06v.1c0 1.04.35 1.98.86 2.25q.1.07.1.11v.03l-.1.02h-.12a3 3 0 0 1-.6-.1l-.13.93h-.18l-.13-.93q-.32.1-.65.1-.19 0-.17-.05 0-.06.11-.1c.1-.05.3-.25.4-.42.21-.33.33-.62.33-.78 0-.29.05-.51.1-.51l.02-.48.01-.17-.05-.05-.1-.1-.13-.13-.05-.05.1-.1.12-.13.1-.1zM18.9 31.72c.1.13.11.16.3.34l.1.1-.05.05-.13.12-.1.11-.06.06.02.17.02.48c.02.42.2.97.42 1.29.14.2.3.37.4.41q.13.05.12.11c0 .04-.03.05-.19.05-.2 0-.46-.04-.63-.1l-.13.93h-.18l-.13-.93c-.18.05-.45.1-.6.1h-.12q-.11 0-.1-.04-.01-.06.1-.12c.12-.06.3-.24.4-.41q.34-.57.34-.78c0-.29.04-.5.08-.5l.03-.5.01-.16-.04-.06-.12-.11-.11-.12-.07-.05.1-.1.12-.12.1-.12zm4.64 0a2 2 0 0 0 .41.44l-.05.05-.13.12-.1.11-.06.06.01.17.03.48c.03.42.2.97.42 1.29.14.2.3.37.4.41q.13.05.12.11c0 .04-.03.05-.18.05-.2 0-.47-.04-.64-.1l-.13.93h-.19l-.13-.93c-.17.05-.44.1-.6.1h-.11q-.12 0-.11-.04 0-.06.1-.12c.14-.06.31-.24.41-.41q.34-.57.34-.78c0-.29.03-.5.08-.5l.02-.5.02-.16-.04-.06-.23-.23-.07-.05.1-.1.12-.12.1-.12zm-2.36 4.21.06.14.12.09.12.13.1.1-.05.05-.13.12-.1.1-.06.06.02.16.02.49c.04.7.44 1.53.82 1.7q.13.06.12.1l-.02.03-.09.04-.11-.01-.27-.03q-.1 0-.21-.04l-.12-.02-.14.94h-.17l-.14-.94-.13.02-.22.04-.25.03-.11.01h-.02q-.08 0-.09-.06t.1-.11c.13-.07.31-.25.41-.41q.34-.57.34-.79c0-.28.04-.5.08-.5l.03-.49.01-.16-.04-.06-.12-.1-.12-.12-.06-.05.1-.1.12-.13.1-.11zm-2.31 4.3.1.12.1.1.11.14.1.12-.06.03-.11.12-.12.1-.04.05.01.17.03.49c.04.7.4 1.48.82 1.7q.11.06.11.12v.01l-.11.02h-.12q-.14 0-.6-.08l-.13.92h-.18l-.13-.92a3 3 0 0 1-.65.09q-.19 0-.17-.06 0-.05.11-.1c.11-.04.3-.25.41-.42.21-.34.34-.63.34-.78 0-.28.03-.5.08-.5l.02-.49.02-.17-.06-.05-.1-.1-.13-.12-.05-.05.1-.1.12-.13.1-.11zm4.67 0 .08.12.1.1.1.15.13.09-.05.05-.13.12-.1.1-.06.05.01.17.03.48c.03.43.2.98.42 1.3.14.2.3.36.4.4q.13.07.12.12.02.06-.17.05-.25 0-.65-.1l-.13.93h-.19l-.13-.92q-.45.08-.6.08h-.11q-.11.01-.11-.04t.1-.11c.14-.06.31-.25.41-.42q.34-.56.34-.78c0-.28.03-.5.08-.5l.02-.49.02-.17-.04-.05-.12-.1-.11-.12-.07-.05.1-.1.12-.13.1-.11zm-2.36-12.76.07.12.1.1.13.13.1.1-.05.06-.13.12-.1.1-.06.05.02.17.02.48c.04.7.44 1.55.82 1.7q.12.06.11.1.02.07-.16.06-.25 0-.65-.08l-.14.93h-.17l-.14-.93q-.44.09-.6.08h-.11q-.11 0-.11-.04 0-.05.1-.11c.13-.07.31-.25.41-.42q.34-.56.34-.78c0-.28.04-.5.08-.5l.03-.49.01-.17-.04-.05-.12-.1-.12-.12-.06-.05.1-.1.12-.14.1-.1zM18.83 3.7l.1.1.1.12.11.12.1.1-.04.05-.13.12-.12.11-.04.05.01.18.03.47c.03.45.23 1.08.42 1.3l.25.3.15.11.11.1-.11.06-.12-.01-.24-.03-.23-.04-.13-.02-.14.9-.16.04-.13-.94-.12.02-.23.04-.25.03-.13.01q-.08 0-.09-.04t.06-.08l.2-.15c.16-.13.2-.2.45-.67q.15-.27.14-.43c0-.28.04-.5.08-.5l.02-.47.02-.18-.06-.05-.1-.11-.13-.12-.05-.05.1-.1c.18-.18.2-.2.3-.34m4.71 0a2 2 0 0 0 .41.44l-.05.05-.13.12-.1.11-.06.05.01.18.03.47c.04.68.43 1.5.82 1.71q.1.06.11.1t-.05.05h-.16l-.26-.03q-.11 0-.23-.04l-.11-.02-.13.94h-.19l-.13-.94-.14-.01-.2.07-.25.03-.12.01h-.02q-.08 0-.09-.04 0-.03.06-.08l.2-.15c.17-.14.22-.22.45-.66q.14-.29.14-.43c0-.28.03-.51.08-.51l.02-.47.02-.18-.04-.04-.12-.12-.11-.12q-.03 0-.07-.05l.1-.1.12-.12.1-.12zm-2.4 4.07.1.1.1.13.12.12.1.1-.06.06-.11.12-.12.1-.04.05.01.17.02.45c.03.7.42 1.52.83 1.74q.1.06.1.12v.01l-.1.03h-.12c-.15 0-.42-.05-.6-.1l-.13.93h-.18l-.13-.94c-.17.06-.43.1-.65.1q-.19.01-.17-.05 0-.04.11-.1c.11-.05.3-.24.41-.42q.31-.51.32-.78c0-.28.04-.5.1-.5l.02-.49.02-.17-.06-.05-.1-.1-.13-.12-.05-.05.1-.11.12-.13q.1-.09.1-.12zm-2.32 4.06.09.11.09.12q.05.06.12.11l.12.11-.07.05-.12.12-.15.15v.13c0 .68.2 1.54.43 1.79l.28.33.15.13.1.08-.1.07-.12-.01-.25-.03-.22-.04-.13-.02-.13.93h-.18l-.13-.93-.13.02-.23.04-.24.03-.12.01h-.02q-.08 0-.09-.04t.06-.08l.2-.15c.43-.35.71-1.19.71-2.13v-.13l-.04-.03-.12-.12-.11-.12-.07-.05.24-.22.09-.12zm4.7 0 .1.11q.06.09.1.12l.11.11.1.11-.06.05-.27.27.01.19.03.48q.07 1.09.82 1.7l.1.09-.1.07-.12-.01-.25-.03-.22-.04-.13-.02-.13.93h-.18l-.15-.97c-.23.05-.24.1-.32.1l-.26.03-.12.01h-.01q-.08 0-.08-.04 0-.05.05-.08l.2-.15c.17-.13.22-.2.46-.67q.14-.28.14-.43c0-.27.04-.5.07-.5l.03-.47.02-.18-.06-.04-.1-.12-.13-.12-.05-.05.1-.1c.18-.18.2-.2.3-.35m-9.75-2.1.05.2.1.42c.17.74.3.94.67.94q.32-.01.43-.29l.07-.26q.04-.1.13-.1.2 0 .21.48 0 .14.1.64.05.29.05.57c0 .16-.02.23-.08.4.04.26.08.6.08.8 0 .32-.06.62-.16.78.06.22.07.3.07.5q0 .21-.04.42c-.06.32-.07.4-.07.45q0 .1.03.18l.04.16q0 .05-.04.06l-.26-.1-.29-.16a1 1 0 0 1-.3-.23c-.25.22-.33.26-1 .44a1 1 0 0 0-.28.12q-.12.08-.17.09-.17 0-.17-.55 0-.43.09-.73-.31-.12-.47-.12l-.2.03h-.05q-.07-.02-.07-.12c0-.05.04-.18.08-.28l.13-.32q.08-.17.32-.38a1 1 0 0 1 .33-.19l.47-.1c.28-.04.44-.2.44-.39q.01-.27-.4-.41l-.56-.2a3 3 0 0 1-.5-.24c-.32-.18-.37-.2-.44-.2q-.17 0-.18.22c0 .23.15.4.37.4q.06 0 .13-.03.09-.04.13-.04.09 0 .09.1v.05l-.03.23c-.02.19-.14.42-.42.78l-.11.16c-.1.41-.37.8-.7 1.02l-.15.1-.1.2-.26.3q-.15.16-.33.3-.22.17-.26.24l-.13.22a.1.1 0 0 1-.1.06q-.19-.01-.3-.32-.04-.21-.18-.2l-.23.04-.18.03H8.7a2 2 0 0 0-.85.17q-.04 0-.08-.08l-.03-.1a2.5 2.5 0 0 1 .74-1.47q-.1-.33-.37-.44l-.21-.06q-.06-.02-.06-.07 0-.1.3-.26.4-.2.71-.2.32 0 .67.27c.36.27.45.32.62.32.28 0 .54-.25.54-.52 0-.17-.09-.37-.34-.69-.36-.47-.47-.7-.47-1.06 0-.21.07-.48.15-.6l.13-.2a.2.2 0 0 0 .04-.13q-.02-.13-.24-.14c-.2 0-.6.14-.91.34q-.25.15-.26.27 0 .07.05.1l.15.1.02.05-.05.1-.26.34q-.25.3-.55.57l-.13.13-.1.2a2 2 0 0 1-.58.58l-.18.15-.1.18a4 4 0 0 1-.48.67l-.37.37c-.11.11-.21.33-.36.81q-.15.44-.23.45-.04 0-.1-.07-.4-.46-.6-.47l-.14.06a1 1 0 0 1-.35.13l-.48.1c-.37.06-.51.14-.72.39l-.11.09q-.06-.01-.07-.16l.01-.12.06-.35q.11-.56.27-.84l.22-.41a.4.4 0 0 0 .06-.21c0-.3-.3-.57-.69-.6q-.14-.02-.13-.1c0-.06.1-.19.25-.3.26-.2.6-.34.82-.34q.2 0 .59.16l.28.11q.15.07.3.07c.3 0 .59-.28.95-.9q.24-.4.23-.67-.01-.51-.4-.53c-.2 0-.42.1-.57.25q-.2.2-.2.4v.18q0 .19-.1.2c-.13 0-.3-.18-.82-.8-.38-.47-.47-.67-.48-1.13-.45-.56-.55-.8-.55-1.2l.02-.27c-.31-.36-.4-.56-.4-.9 0-.12.02-.2.1-.35a1 1 0 0 1-.25-.5l-.07-.28q-.06-.25-.2-.48c-.13-.17-.14-.19-.14-.25 0-.15.1-.2.57-.32l-.03-.3c0-.07 0-.14.03-.3l.1-.48q.05-.3.05-.42c0-.1 0-.16-.1-.42l-.1-.3a.4.4 0 0 1-.09-.17q0-.08.1-.08c.12 0 .46.2.81.5.75.62.9.87 1 1.62l.04.26q.54.4.55.92c0 .27-.1.58-.26.83l-.26.4a1 1 0 0 0-.11.44c0 .24.07.47.24.78q.28.51.59.5c.33 0 .64-.6.64-1.28V7.8l.02-.43.04-.37.02-.3v-.21q0-.11-.13-.25l-.29-.32q-.63-.69-.64-1.2c0-.39.28-.68.66-.68.08 0 .14.01.28.05v-.1c0-.56.12-.99.27-.99l.06.02.24.21.29.18.07.08c0-.16.01-.18.17-.36l.19-.25.13-.2.06-.11q.06-.1.1-.1.07-.01.12.19c.03.09.05.11.28.3l.15.18q.04.05.1.26l.05.1a1 1 0 0 1 .26-.23l.19-.12.15-.07q.03 0 .06.08l.1.2c.15.24.19.36.19.47v.29c.43.13.58.35.58.8q0 .52-.5 1.12c-.23.27-.25.32-.25.51 0 .96.67 1.52 1.85 1.53l.87.02a4 4 0 0 1 1.42.23c.62.2.8.25.98.25a.3.3 0 0 0 .17-.05q.06-.06.07-.12c0-.18-.32-.33-1.37-.62-2.14-.61-3.06-1.48-3.06-2.9 0-1.1.92-1.95 2.1-1.95.38 0 .97.1 1.3.22l.54.2q.13.05.28.05.27 0 .28-.46 0-.22.15-.21c.15 0 .38.18.6.48.2.3.34.63.34.85q.01.43-.46.68-.41.66-1.13.65c-.38 0-.9-.21-1.8-.71-.3-.18-.46-.24-.62-.24q-.36.02-.38.34c0 .19.14.31.52.44.57.2.7.28.93.51.66.12.95.23 1.37.55 1.14.36 1.85 1.14 1.85 2.04 0 .86-.59 1.49-1.4 1.49-.2 0-.32-.02-.62-.08m24.3 0 .05.2.1.42c.16.74.3.94.66.94q.34-.01.43-.29l.08-.26a.13.13 0 0 1 .13-.1q.22 0 .22.48.01.18.08.64.05.3.06.6c0 .13-.02.21-.08.37l.02.16c.05.26.06.36.06.48 0 .56-.03.72-.16.94.05.21.07.31.07.47q0 .14-.05.45l-.05.4.02.23.04.16q0 .05-.04.06l-.27-.1-.28-.16a1 1 0 0 1-.3-.23c-.25.22-.29.24-.59.32a3 3 0 0 0-.85.33c-.1 0-.18-.2-.18-.49 0-.41.03-.63.1-.79a2 2 0 0 0-.48-.12l-.19.03h-.06q-.06 0-.06-.12c0-.13.1-.39.21-.6.17-.29.43-.53.64-.57l.47-.1c.28-.04.44-.2.44-.39q.01-.26-.4-.41l-.55-.2a3 3 0 0 1-.8-.41.3.3 0 0 0-.15-.04q-.18 0-.18.22c0 .22.17.4.37.4q.08 0 .13-.02l.13-.04q.09.01.1.14c0 .23-.15.63-.3.82l-.16.2-.11.16c-.05.33-.38.8-.7 1.02l-.15.1-.1.2-.26.3q-.15.16-.33.3-.23.17-.26.24l-.13.22q-.04.07-.1.06-.19-.01-.3-.32-.04-.21-.18-.2l-.23.04-.18.03H33a2 2 0 0 0-.86.17q-.1 0-.1-.2c0-.41.31-1.04.73-1.45q-.1-.36-.35-.44l-.24-.06q-.04-.02-.04-.06 0-.13.3-.27c.37-.17.48-.2.69-.2q.32-.01.68.27c.35.27.45.32.62.32.28 0 .54-.25.54-.52 0-.18-.1-.38-.34-.69-.35-.44-.47-.73-.47-1.1 0-.26.05-.4.27-.76q.06-.08.06-.14c0-.07-.12-.13-.25-.13q-.2 0-.55.15c-.39.18-.63.35-.63.45q0 .06.07.11l.13.1.03.05q0 .06-.06.1l-.25.34a3 3 0 0 1-.55.57l-.13.13-.1.2c-.1.16-.35.43-.56.58l-.19.15-.11.18a4 4 0 0 1-.49.67l-.35.37c-.1.1-.24.4-.38.8q-.15.47-.22.46-.03 0-.1-.07c-.25-.3-.48-.47-.6-.47l-.14.06a1 1 0 0 1-.36.13l-.46.1c-.4.07-.55.15-.73.38q-.07.1-.1.1-.08-.01-.09-.16l.02-.12.06-.35c.07-.37.17-.68.26-.84l.24-.41a.4.4 0 0 0 .06-.21c0-.3-.28-.55-.7-.6q-.13-.04-.13-.1.01-.1.26-.3c.28-.21.58-.34.8-.34q.2 0 .6.15l.28.12a1 1 0 0 0 .29.07q.43.02.96-.9.24-.41.23-.67-.01-.51-.4-.53-.31 0-.56.25-.21.21-.21.42v.19q0 .16-.1.16c-.1 0-.22-.1-.45-.36l-.36-.44c-.4-.46-.48-.64-.5-1.12-.44-.56-.54-.87-.54-1.2l.01-.27c-.31-.38-.38-.53-.38-.9a.6.6 0 0 1 .08-.35c-.15-.23-.2-.33-.25-.5l-.06-.28q-.05-.25-.2-.48c-.12-.17-.14-.2-.14-.24q-.02-.2.46-.3l.1-.03-.03-.3.04-.3.1-.49q.05-.29.05-.42c0-.11-.02-.2-.08-.41l-.13-.3q-.08-.1-.08-.17.01-.07.1-.08.07 0 .13.04c.45.24.92.62 1.27 1 .3.33.39.6.45 1.34.4.3.55.56.55.98q0 .37-.26.77l-.26.4a1 1 0 0 0-.12.45c0 .23.07.45.25.77q.28.5.58.5c.34 0 .65-.6.65-1.25V7.7l.03-.31.03-.38.02-.3.01-.18c0-.13-.02-.17-.42-.6q-.66-.7-.65-1.24c0-.35.3-.65.66-.65.08 0 .14.02.27.05v-.15l.02-.27.08-.34c.06-.27.09-.32.18-.32l.06.02.24.2.29.2.07.07c.02-.17.04-.2.17-.36l.19-.26.13-.19.07-.12q.07-.1.11-.1.04-.01.1.2.03.08.12.17l.17.14q.2.17.28.53c.1-.13.16-.18.27-.23l.2-.12.14-.07q.02 0 .06.08l.1.2c.17.27.19.3.19.49v.26c.42.12.58.35.58.81q0 .53-.5 1.12c-.22.27-.26.35-.26.55 0 .92.7 1.48 1.87 1.5H36c.56.02.9.07 1.42.24.6.2.8.25.98.25.13 0 .24-.07.24-.16 0-.2-.31-.34-1.36-.63-2.15-.61-3.07-1.48-3.07-2.9 0-1.1.92-1.95 2.1-1.95.38 0 .97.1 1.3.22l.54.2q.14.05.27.05c.19 0 .26-.1.28-.46q.03-.22.16-.22c.14 0 .4.22.6.48.2.28.34.64.34.88q0 .41-.46.66-.42.66-1.13.65c-.37 0-1-.25-1.8-.72-.31-.17-.45-.23-.62-.23-.23 0-.39.13-.39.34 0 .19.14.3.53.44.62.22.75.3.92.51.67.12.96.23 1.37.55 1.19.38 1.85 1.12 1.85 2.05 0 .86-.58 1.48-1.39 1.48-.2 0-.32-.02-.62-.08M14 34.34c.12.28.16.42.17.6l.03.55q.03.82.54.82.2 0 .3-.09l.14-.14.05-.02q.15 0 .14.17l-.01.21q-.02.15.05.6.04.26.04.52c0 .28-.02.39-.12.64q.15.4.15.79 0 .4-.16.63a2 2 0 0 1 .01.93q-.06.42-.05.63v.03q0 .13-.08.13-.06 0-.16-.1-.1-.15-.18-.15c-.1 0-.12.05-.26.44q-.06.18-.31.49-.19.23-.23.37l-.08.28q-.03.05-.08.06h-.02q-.33-.01-.7-1.33-.11-.36-.3-.35a.3.3 0 0 0-.23.14l-.08.19q-.02.05-.07.05c-.1 0-.26-.2-.36-.43q-.12-.31-.12-.6c0-.4.3-.71 1.2-1.23.4-.22.55-.5.55-1.01 0-.4-.12-.64-.47-.9-.27-.2-.43-.29-.58-.29-.12 0-.22.08-.22.2q0 .16.24.25.3.1.3.23-.02.14-.23.47a1 1 0 0 1-.42.43c-.06.36-.23.59-.63.85-.07.22-.12.3-.26.48l-.27.35c-.09.11-.18.31-.2.4-.02.2-.04.24-.12.24-.1 0-.31-.18-.53-.46a.7.7 0 0 1-.17-.43c-.13.11-.17.12-.44.16q-.24.03-.35.09a1 1 0 0 1-.3.14q-.07 0-.08-.12l-.01-.3c0-.39.15-.85.4-1.15q-.36-.3-.65-.34-.11-.01-.1-.05.01-.09.13-.24l.23-.26c.19-.16.5-.27.76-.27q.25 0 .74.18.17.07.31.07.22-.01.23-.26c0-.24-.12-.6-.38-1.2q-.27-.6-.26-.86c0-.46.21-.92.48-1.06a.5.5 0 0 0-.3-.07 1 1 0 0 0-.4.13q-.29.16-.3.27 0 .05.12.11c.1.08.11.1.11.2 0 .32-.26.75-.64 1.03-.08.46-.29.73-.7.92-.06.26-.1.32-.28.6-.35.48-.43.63-.49.9q-.04.2-.1.2-.1 0-.3-.23l-.21-.24a1 1 0 0 1-.14-.42l-.19.04-.2-.01h-.1c-.29 0-.6.06-.74.16l-.12.04c-.08 0-.15-.17-.15-.39 0-.47.13-.85.44-1.28-.11-.1-.15-.13-.25-.24l-.1-.09-.15-.08q-.08-.03-.08-.08c0-.07.19-.25.42-.4q.37-.23.63-.23c.21 0 .33.05.6.28q.26.24.4.24.09 0 .18-.12a.4.4 0 0 0 .07-.2c0-.24-.3-.66-.63-.88a1.5 1.5 0 0 0-.78-.25.9.9 0 0 0-.81.47l-.14.3q-.06.1-.13.1c-.08 0-.12-.03-.42-.37l-.34-.4q-.15-.17-.2-.33l-.07-.17-.13-.1q-.4-.29-.56-1.09l-.04-.16c-.32-.4-.51-.88-.51-1.3 0-.05 0-.08.03-.18-.19-.18-.21-.23-.35-.73-.1-.35-.18-.5-.3-.67q-.06-.07-.06-.1 0-.11.3-.16c.18-.03.2-.04.27-.04l.25.02-.01-.35c0-.21.01-.35.07-.6l.03-.27-.02-.22-.07-.3q0-.07.08-.07.06 0 .17.06.35.16.56.33c.45.35.8.9.8 1.23v.1l-.03.2q0 .08.1.2l.13.2c.13.18.22.38.22.51 0 .12-.03.18-.24.48a1 1 0 0 0-.22.59q0 .36.26.82.24.4.5.41c.3 0 .42-.25.46-.94q.03-.5.1-1l.02-.18c0-.07-.03-.12-.13-.25L5.7 30c-.36-.44-.48-.66-.48-.97 0-.36.24-.61.58-.61l.16.01v-.1q0-.12.06-.35c.08-.28.18-.5.24-.5l.13.07.23.09c.07.02.12.05.26.13.06-.22.1-.33.2-.45.18-.22.37-.4.43-.4q.06 0 .22.16l.24.26q.07.06.15.25l.05.12.16-.1.2-.11.25-.12.13-.07c.05 0 .07.08.17.51.07.3.07.36.09.58q.62.07.61.74.01.62-.65 1.31c-.12.13-.15.2-.15.32 0 1.15.4 1.51 1.84 1.66.89.1 1.15.15 2.22.47.56.17.88.24 1.09.24q.37 0 .38-.25c0-.24-.18-.32-1.21-.54-2.41-.5-3.36-1.33-3.36-2.92 0-1.13.85-1.98 1.98-1.98.5 0 .95.15 1.65.55.66.39.8.45.94.45q.26.02.24-.4 0-.27.17-.26.18 0 .41.27c.21.25.3.38.3.74q0 .71-.74.91l-.12.13c-.27.3-.5.4-.93.4-.37 0-.84-.15-1.15-.37l-.63-.44q-.4-.29-.65-.28-.42.01-.43.43.01.4.45.56l.59.18c.2.07.31.1.56.24l.3-.03q.57 0 1.1.28.15.08.23.1l.33.09a2 2 0 0 1 1.34 1.84c0 .92-.6 1.5-1.57 1.5zm22.66-.2c.23.3.55.5.8.5q.19-.01.36-.06l.17-.03q.1 0 .1.09c0 .04-.04.15-.07.24q-.05.1-.08.24l-.05.27-.13.23-.19.17-.05.05v.18c0 .32-.1.5-.35.67l-.1.07-.02.1-.13.45q-.05.12-.24.37-.24.3-.33.53-.08.18-.18.17c-.13 0-.25-.16-.28-.35l-.06.08-.16.1-.25.17-.2.16-.15.14-.07.04q-.1 0-.2-.33l-.13-.42a2 2 0 0 1-.05-.43c0-.21.01-.29.09-.46-.27.03-.33.04-.47.1l-.12.02q-.06 0-.06-.08l.05-.2.17-.44c.13-.34.55-.65.9-.65q.1 0 .32.06.13.05.2.05c.15 0 .27-.11.27-.25q0-.12-.1-.17l-.47-.15c-.22-.06-.33-.14-.57-.42-.18-.21-.26-.27-.32-.27q-.08 0-.08.1l.01.17V35c0 .37-.1.71-.36 1.19l-.36.66a1.6 1.6 0 0 0-.25.8c0 .26.11.49.26.53l.2.05q.04 0 .06.04.04.04.04.08t-.06.11l-.24.3c-.22.3-.36.4-.64.49-.16.38-.41.6-.87.75l-.05.1c-.16.27-.5.51-.72.51h-.05a1 1 0 0 1-.45.67l-.3.22-.07.12q-.08.19-.19.18-.2 0-.33-.38l-.12.08-.24.17-.46.13c-.32.08-.6.21-.67.32l-.11.2-.06.02q-.1-.01-.17-.2a4 4 0 0 1-.11-.73c0-.47.15-.77.62-1.24v-.1c0-.73.55-1.22 1.36-1.22h.13l.44.04h.04q.36 0 .7-.3c.32-.25.42-.42.42-.7 0-.1-.03-.2-.13-.53q-.1-.33-.1-.61c0-.54.4-1.21.93-1.58q.22-.16.24-.3 0-.04-.03-.05-.06 0-.17.1a1 1 0 0 1-.3.2l-.22.1-.23.1q-.11.04-.11.1l.03.13.02.1-.06.15-.18.3c-.18.3-.3.41-.54.51q-.2.63-.66.7c-.25.49-.46.66-.9.71-.06.2-.16.35-.4.6l-.16.21c-.1.18-.1.2-.16.2s-.2-.1-.3-.2l-.11-.16-.12-.2q-.06-.1-.12-.1h-.09l-.28.04a1 1 0 0 0-.52.3l-.16.24-.06.03q-.19-.02-.2-.68 0-.54.2-.8l.36-.5a.4.4 0 0 0 .08-.2.3.3 0 0 0-.07-.17q-.11-.15-.2-.16l-.28-.04q-.07 0-.07-.04 0-.05.04-.09.14-.16.33-.28c.32-.2.53-.28.75-.28q.34 0 .68.22l.38.25q.08.05.18.05.25 0 .43-.33.18-.34.18-.6a.8.8 0 0 0-.84-.85q-.35.01-.68.26a.4.4 0 0 0-.13.15l-.1.23q-.04.09-.1.09c-.06 0-.21-.19-.33-.43a3 3 0 0 1-.3-1.12l.02-.35a1.4 1.4 0 0 1-.14-1.26 1 1 0 0 1-.14-.59l.01-.16.04-.18.02-.16c-.12-.16-.16-.27-.28-.84a2 2 0 0 0-.21-.63c0-.07.18-.14.39-.14l.18.01-.05-.26q0-.27.1-.52c.06-.2.08-.25.08-.32q0-.24-.06-.4l-.1-.25-.04-.14q0-.03.07-.04c.25 0 .74.28 1.12.64s.5.65.5 1.19l-.02.28q.53.45.52.85c0 .2-.07.34-.27.53-.35.35-.43.53-.43.98q0 1.06.59 1.07c.33 0 .6-.37.64-.9l.04-.5.06-.47.04-.34c0-.17-.11-.4-.46-.79-.36-.43-.48-.66-.48-1 0-.39.27-.68.65-.68.1 0 .14.01.25.07 0-.23.01-.27.15-.59.1-.25.2-.43.25-.43q.03 0 .08.06l.17.14.13.09.12.12c.08-.3.16-.43.4-.67.19-.18.25-.23.29-.23q.04 0 .09.06l.16.21.22.25c.08.1.11.18.15.4l.13-.07.21-.12.16-.1q.05-.05.08-.05.04 0 .06.1l.08.3.17.33c.05.1.07.18.07.34v.08h.08c.26 0 .48.3.48.65 0 .47-.37 1.07-.85 1.38a1 1 0 0 0-.06.35c0 1.04.28 1.25 1.87 1.5a9 9 0 0 1 2.1.55q.5.17.77.17.3 0 .3-.16c0-.18-.27-.34-1.06-.65l-1.14-.44c-1.15-.45-1.7-1.15-1.7-2.19 0-1.2.91-2.11 2.12-2.11.45 0 .9.1 1.54.33.82.3.86.3.95.3q.24 0 .27-.33.03-.29.18-.27c.16 0 .34.14.46.39.1.2.17.46.17.67q-.01.66-.64.8-.4.54-1.05.53c-.52 0-.77-.1-1.66-.65-.31-.2-.45-.25-.68-.25-.31 0-.54.2-.54.46q0 .35.62.5c.26.08.3.1.43.23l.22-.04c.42 0 .94.23 1.38.61.8.25 1.52 1.11 1.52 1.84 0 .8-.7 1.52-1.47 1.52a5 5 0 0 1-1-.16" fill="#211E1E"/><path d="m15.05 15.44-.04-.32v-.1l.04-.2.02-.17q0-.28-.1-.4l-.15-.2-.13-.25-.02-.1q0-.1.09-.1c.03 0 .05 0 .16.07q.09.05.13.05.12-.01.12-.35 0-.38-.08-.45l-.2-.23-.16-.14q-.07-.06-.07-.11.01-.1.1-.1.12 0 .3.07l.06.01q.07 0 .07-.1v-.06l-.04-.27-.08-.29c-.03-.1-.04-.1-.1-.1h-.03l-.33.06h-.05c-.43 0-.88-.35-1.02-.8l-.26-.85q-.1-.38-.62-.8-.16-.13-.26-.14l-.24-.03q-.07 0-.07-.06 0-.08.17-.08l.43.04q.23.02.7.18c.39.14.65.2.87.2.65 0 1.04-.36 1.04-.95 0-.4-.2-.86-.53-1.15-.19-.16-.36-.29-.43-.29q-.07.01-.07.07l.02.17v.01q0 .11-.1.12-.09 0-.22-.26c-.24-.52-.63-.82-1.04-.82q-.1 0-.12.07l.07.2.1.22.05.12q0 .03-.06.03-.1 0-.22-.12l-.2-.21-.16-.26a1.2 1.2 0 0 0-.54-.46l-.31-.17a.3.3 0 0 0-.16-.05q-.07 0-.07.07 0 .06.05.14.14.22.13.26 0 .07-.07.08c-.1 0-.3-.2-.5-.48a1.3 1.3 0 0 1-.23-.73c0-.56.4-.98.97-.98.28 0 .64.12.97.33l.61.38c.22.13.53.23.72.23.08 0 .25-.03.38-.06l.16-.07q.05-.03.06-.07t-.04-.06l-.08-.03-.28-.05q-.12-.01-.35-.13a5 5 0 0 1-.65-.32 3 3 0 0 0-.43-.25q-.17-.06-.18-.12t.06-.06.14.05q.3.18.48.18l.56.2c.28.1.68.18.87.18a.43.43 0 0 0 .43-.43c0-.16-.1-.38-.23-.57q-.04-.07-.09-.07-.08 0-.08.1l.02.1.01.16c0 .17-.11.3-.26.3l-.2-.04-.85-.27a4 4 0 0 0-1.39-.3c-1.01 0-1.78.7-1.78 1.61 0 1.04.72 1.7 2.52 2.32 1.77.61 2.02.76 2.02 1.22 0 .26-.26.5-.56.5l-.31-.03-.88-.21a7 7 0 0 0-1.63-.19c-1.27 0-1.99.23-2.6.82-.15.15-.2.18-.38.18h-.08l-.18-.02h-.03q-.21 0-.37.24l-.22.35a.2.2 0 0 1-.15.08c-.11 0-.19-.1-.32-.4a1 1 0 0 0-.27-.4l-.26-.23q-.06-.06-.07-.1 0-.04.06-.12a1 1 0 0 0 .18-.34c.03-.17.04-.18.11-.18s.1.07.11.37q0 .13.1.36l.15.3q.02.07.11.07c.14 0 .31-.31.36-.65.03-.28.06-.36.12-.36q.04 0 .06.02l.11.24q.06.12.17.2l.16.09h.02c.1 0 .14-.07.16-.32l.02-.13-.03-.18-.02-.12q0-.15.08-.14.04 0 .1.05l.13.13q.13.13.25.13.17 0 .18-.11c0-.07-.03-.13-.12-.3l-.09-.18q-.14-.28-.29-.27l-.13.02-.16.06-.1.03q-.03 0-.04-.06 0-.18.22-.52.16-.26.2-1.03c.05-.68.14-1.12.24-1.12q.09 0 .09.2v.18l-.01.13q0 .2.06.21.17-.01.35-.43.06-.17.06-.27l-.01-.06-.26-.48-.26-.08q-.07-.02-.1-.06v-.32l-.02-.15-.05-.13-.07-.14a1.4 1.4 0 0 0-.51.39q-.15.19-.22.18-.05 0-.06-.06l.04-.22v-.07a.9.9 0 0 0-.44-.73l-.08.1-.1.13-.15.19a1 1 0 0 0-.16.4v.07q.01.15-.05.14l-.04-.02-.09-.12-.14-.16-.22-.14-.12-.1-.05.12-.06.2-.02.22-.01.22v.04q0 .16-.1.16l-.15-.07a.4.4 0 0 0-.19-.05q-.31.01-.33.36 0 .4.21.68l.16.22c.05.06.14.11.15.08l.02-.27-.03-.23v-.1q0-.12.07-.13.1-.01.16.3l.1.48.11.61q.04.27.16.52.15.37.22.46c.14.18.16.21.16.25q0 .06-.06.06l-.12-.04-.15-.05-.1-.01c-.21 0-.25.18-.25 1.04 0 .54.1 1.26.24 1.6l.28.7q.06.14.06.32c0 .94-1.26 2.44-2.64 3.12-.51.26-.68.5-.72 1.07l-.01.17a2 2 0 0 1 .44-.18c.39-.1.47-.15.53-.34l.04-.17c.03-.06.06-.09.36-.25l.2-.17q.11-.16.16-.17.05 0 .05.05l-.01.05-.13.36-.02.1q.01.42.43.64c.05-.3.09-.4.18-.55l.23-.36q.13-.19.13-.56 0-.2-.04-.4v-.11q0-.1.09-.1.07 0 .08.04l.06.24q.02.1.12.1.2-.01.46-.46a1 1 0 0 0 .1-.34l-.02-.18-.04-.2v-.03q0-.14.11-.15.04 0 .06.03l.08.3q.05.16.17.17c.08 0 .23-.15.32-.33q.12-.23.12-.53c0-.28.03-.36.13-.36q.05 0 .07.03l.04.17q.04.1.1.1c.05 0 .2-.16.3-.32l.03-.12q0-.08-.11-.18c-.14-.12-.15-.13-.15-.3s.03-.25.15-.45l.17-.32c.16-.32.22-.4.28-.4q.09.01.1.11 0 .06-.03.1l-.05.16q0 .09.1.1.08 0 .22-.08l.37-.14.43-.16.26-.04q.12 0 .23.03l.3.05a.2.2 0 0 0 .22-.22 1 1 0 0 0-.2-.4q-.07-.07-.07-.11l.01-.05q.03-.05.07-.06c.1 0 .3.23.48.51 1.12 1.77 1.52 2.2 2.28 2.43s.97.4.97.86q0 .36-.41.93c-.57.8-.7 1.11-.7 1.64v.1l.14-.07.2-.1.33-.06c.1-.02.18-.14.18-.26v-.04l-.03-.29-.01-.03c0-.1.05-.22.12-.28l.07-.02q.06 0 .1.07l.2.45c.1.18.2.27.46.39M4.55 6q-.14 0-.14.26l-.03.25-.03.31c0 .19.05.33.13.33s.21-.16.27-.34q.06-.15.06-.3t-.06-.3Q4.68 6 4.55 6" fill="#FDDC02"/><path d="M3.36 3.97v.11c0 .16-.04.36-.17.85l-.04.24q0 .12.1.3l.12.12.16.08.03.19q-.02.1.04.28.05.2.05.4 0 .15-.04.15-.07-.02-.21-.34c-.13-.31-.24-.43-.41-.43a1 1 0 0 0-.41.1l.08.1.11.23.19.35.22.42q.06.1.18.18l.2.12q.1.05.11.12 0 .1-.1.1h-.01l-.17-.03h-.1q-.07 0-.07.14c0 .35.28.76.76 1.11q.1.09.1.14 0 .08-.09.09l-.16-.06-.1-.02q-.1 0-.1.13 0 .14.24.58.16.3.44.43l.59.25a.1.1 0 0 1 .05.08.1.1 0 0 1-.08.09l-.12.01-.1.02-.17-.02h-.03q-.11 0-.1.06c0 .06.06.23.18.42q.21.36.34.37.05 0 .08-.07l.14-.3q.04-.08.34-.25.2-.12.36-.15l.24-.04q.1 0 .1-.12v-.03l-.05-.25-.03-.28-.02-.24L6 9.4q0-.1-.06-.1t-.12.09c-.2.31-.35.41-.56.41-.7 0-1.22-1.22-1.22-2.83l.02-.53c.04-.42.04-.52.04-.68q0-1.05-.44-1.49l-.19-.18zm1.68 9.52-.38-.1q-.04 0-.25-.1-.3-.13-.5-.13a.8.8 0 0 0-.54.22l.12.1.26.18.25.19q.1.08.21.08c.26 0 .48-.12.83-.44m5.01 2.37c.07-.17.1-.21.26-.34q.55-.47.54-.73v-.29q0-.24.11-.22.06 0 .08.04l.07.15q.03.06.1.07.1-.01.2-.16l.13-.18q.09-.13.09-.25 0-.08-.03-.15 0-.04-.09-.21l-.05-.2q0-.14.12-.14.06 0 .09.04l.1.13a.1.1 0 0 0 .1.05q.08-.01.14-.11l.1-.21.04-.12q0-.06-.12-.12l-.17-.08c-.22-.1-.39-.46-.39-.83q0-.08.03-.14l.1-.22.03-.21a1 1 0 0 0-.13-.4l-.17-.28q-.1-.28-.18-.26l-.07.01-.09.06-.14.07-.17.21-.18.09c-.11.06-.22.29-.22.48 0 .34.04.43.49 1.2q.26.46.26.74 0 .8-1.43 1.15l-.6.14q-.65.15-.8.93c.19-.1.26-.11.58-.11H9c.18 0 .2-.01.31-.17a1 1 0 0 1 .43-.36l.21-.09.17-.1h.05q.07 0 .07.05 0 .08-.12.22-.21.22-.2.5c0 .13.02.2.13.35" fill="#FDDC02"/><path d="M8.41 13.84q.22.15.4.35c.12.17.14.19.26.19q.1 0 .2-.03l.1-.03q.31-.05.3-.12 0-.05-.07-.1l-.15-.14-.14-.13a.7.7 0 0 0-.43-.15c-.15 0-.24.03-.47.16m4.22.7h.08l.12-.02.11.01H13c.3 0 .57-.24.57-.5q0-.14-.23-.14-.52-.02-.7.66m26.72.9-.04-.24.02-.18c.03-.24.04-.35.04-.5a.4.4 0 0 0-.1-.26l-.15-.2q-.15-.2-.15-.37 0-.1.08-.1l.06.02.11.06q.08.05.13.05.12 0 .12-.37c0-.34-.06-.5-.26-.65l-.18-.15a.1.1 0 0 1-.06-.1q0-.1.1-.1l.15.02.15.04.05.01q.06 0 .07-.11v-.04l-.05-.28q-.04-.41-.17-.4l-.02.01-.34.06h-.06c-.4 0-.88-.38-1-.8L37.6 10q-.13-.38-.63-.8a1 1 0 0 0-.28-.14l-.23-.02q-.06 0-.07-.07 0-.08.15-.08.46 0 1.15.23c.42.13.66.19.87.19.65 0 1.04-.34 1.04-.9 0-.29-.1-.64-.25-.87q-.2-.3-.6-.57l-.11-.05q-.06.01-.07.07l.01.17v.02q0 .1-.08.11-.1 0-.23-.26c-.24-.5-.63-.81-1.02-.81q-.14 0-.14.08 0 .06.07.17a1 1 0 0 1 .15.35q0 .04-.06.04-.11-.01-.22-.12l-.2-.22-.16-.26c-.14-.2-.28-.32-.53-.45l-.32-.17a.4.4 0 0 0-.17-.06q-.06 0-.06.07 0 .06.06.15.11.16.12.25t-.07.08q-.13 0-.48-.48a1.2 1.2 0 0 1-.25-.73c0-.55.42-.97.96-.97q.45 0 .98.32l.63.38c.22.13.52.23.7.23.11 0 .14 0 .38-.06l.17-.07.04-.07q0-.08-.1-.08c-.3-.03-.9-.26-1.3-.51l-.43-.25q-.16-.07-.17-.14 0-.02.05-.03l.08.02.56.2.55.2c.27.1.69.18.88.18a.4.4 0 0 0 .41-.41 1 1 0 0 0-.08-.37c-.08-.15-.18-.29-.22-.29q-.09.01-.09.14v.07l.03.17q-.01.27-.25.29l-.21-.04-.85-.27a4 4 0 0 0-1.38-.3c-1.02 0-1.8.69-1.8 1.6 0 1.04.72 1.7 2.54 2.33 1.78.61 2.01.76 2.01 1.22 0 .27-.25.48-.56.48q-.16 0-.31-.02l-.89-.2a6 6 0 0 0-1.62-.2c-1.29 0-1.9.2-2.59.83-.15.14-.21.17-.39.17h-.09l-.2-.02q-.23 0-.37.24l-.2.35a.2.2 0 0 1-.16.08c-.13 0-.2-.1-.33-.4a1 1 0 0 0-.26-.4l-.27-.23q-.07-.06-.07-.1t.07-.12l.11-.18.07-.16.01-.12q.02-.06.1-.06c.08 0 .1.06.1.38q0 .12.1.35l.15.3q.02.08.11.08c.14 0 .3-.32.36-.66.03-.27.06-.36.12-.36s.08.03.19.26q.05.1.15.2.1.08.16.09h.01c.11 0 .15-.07.17-.32l.01-.13-.02-.18-.02-.12q0-.14.08-.14.04 0 .1.05l.13.13q.12.14.26.14.16-.01.18-.14c0-.06-.02-.1-.13-.29l-.1-.16c-.1-.22-.16-.28-.26-.28l-.14.02-.17.06-.1.03q-.04-.01-.04-.05 0-.18.22-.53.14-.22.22-1.03l.07-.6c.04-.39.08-.52.16-.52q.04 0 .04.03l.05.2v.15c0 .19.02.35.04.35q.09 0 .21-.18.09-.12.13-.26.07-.2.07-.34c0-.3-.12-.43-.54-.55q-.05 0-.07-.03l-.02-.12v-.22l-.02-.16-.05-.13-.07-.14-.1.06a1.4 1.4 0 0 0-.42.33c-.12.15-.16.19-.2.19q-.06 0-.07-.06l.05-.22V3.8q-.01-.44-.44-.77l-.1.1-.09.13-.15.19a.6.6 0 0 0-.15.38v.09q.01.14-.05.14l-.03-.02-.11-.12-.13-.16-.23-.14-.12-.1c-.13.28-.13.3-.13.66v.1q0 .19-.1.2l-.16-.07a.4.4 0 0 0-.2-.05c-.18 0-.32.16-.32.38 0 .24.05.4.2.66.11.17.24.3.3.3q.02-.02.04-.27l-.04-.23v-.1q0-.12.08-.13.1-.01.16.3l.1.48.1.61q.06.27.16.52.15.37.23.46c.14.18.16.21.16.25q0 .05-.06.06l-.12-.04-.15-.05-.1-.01c-.21 0-.26.17-.26 1.03 0 .54.12 1.26.25 1.61l.28.7q.06.14.06.32c0 .95-1.29 2.47-2.64 3.12-.53.25-.69.52-.73 1.24.22-.11.32-.14.46-.18.38-.11.46-.17.51-.34l.06-.17c.02-.07.07-.11.34-.25q.15-.07.2-.17.1-.16.16-.17.06 0 .06.07v.03l-.15.36-.02.1q.01.42.43.64l.05-.15q.06-.3.12-.4l.25-.36c.1-.13.11-.22.11-.56l-.02-.4v-.11q0-.1.09-.1.07 0 .08.04l.04.24q.01.1.13.1.2 0 .45-.46a1 1 0 0 0 .1-.31q0-.2-.04-.4v-.08q0-.1.1-.1.04 0 .06.02l.08.3q.06.15.18.16c.2 0 .4-.4.43-.84q0-.39.13-.37.05 0 .06.03l.05.17q.04.1.1.1.05 0 .18-.15l.11-.17.04-.14c0-.06-.01-.08-.11-.16a.3.3 0 0 1-.15-.28c0-.19.08-.39.32-.79.2-.36.24-.4.29-.4q.08 0 .08.1l-.02.12-.05.16q0 .07.1.09.1 0 .23-.08l.35-.14.45-.16.26-.04.23.03.3.05a.2.2 0 0 0 .2-.13l.01-.08-.08-.22-.12-.19q-.08-.08-.08-.11l.02-.06q.02-.04.07-.05c.1 0 .3.21.49.5 1.02 1.68 1.52 2.2 2.27 2.43.77.24.96.4.96.87q0 .37-.4.93c-.53.72-.71 1.15-.71 1.63v.1l.15-.07q.15-.08.2-.08l.33-.07c.1-.02.18-.14.18-.27v-.03l-.03-.29v-.04c0-.16.08-.3.18-.3q.06.01.1.08l.2.45c.1.18.2.26.46.39M28.67 6.5v.33q-.01.31.1.3c.09 0 .22-.16.28-.33.04-.11.07-.27.07-.35l-.07-.25q-.08-.2-.19-.2c-.1 0-.16.14-.19.5" fill="#FDDC02"/><path d="M27.66 3.97v.11c0 .12-.04.34-.09.56l-.08.3q-.03.1-.03.23c0 .18.1.36.23.42l.14.09.03.18q0 .1.03.29.06.19.06.39 0 .15-.04.15-.08-.02-.2-.34c-.14-.31-.25-.43-.42-.43a1 1 0 0 0-.41.1c.13.18.22.33.38.68.2.47.28.56.6.72q.13.06.13.12 0 .1-.12.1l-.18-.02-.1-.01q-.07 0-.07.14c0 .35.3.77.78 1.11q.1.08.1.14 0 .03-.04.06l-.07.03-.15-.06-.1-.02q-.1 0-.1.15.02.19.24.56.22.33.43.43l.59.25q.05.02.05.08 0 .07-.08.09l-.1.01-.12.02-.16-.02h-.02q-.12 0-.11.06 0 .09.18.42.22.37.33.37.05 0 .08-.07l.14-.3q.03-.06.34-.25.16-.12.36-.15c.32-.04.35-.06.35-.18l-.05-.26-.04-.28-.02-.24-.03-.29q0-.1-.06-.1t-.1.09c-.16.25-.39.41-.57.41-.73 0-1.22-1.15-1.22-2.86l.01-.5.04-.62v-.22c0-.52-.18-1.06-.44-1.33l-.18-.18zm1.68 9.52a2 2 0 0 1-.63-.2q-.3-.14-.49-.13-.28 0-.55.22l.12.1.26.18.25.2q.1.07.22.07c.25 0 .47-.12.82-.44m5.01 2.37c.07-.16.1-.2.26-.34q.55-.46.54-.73v-.28q-.01-.24.11-.23.06 0 .08.04l.07.16q.03.05.1.05c.1 0 .17-.06.33-.33q.1-.15.1-.25 0-.07-.04-.15l-.1-.21-.04-.2q0-.14.12-.14.05 0 .09.04l.1.13q.02.05.07.05.1-.01.17-.11l.1-.21.04-.12q0-.07-.1-.11l-.19-.09c-.21-.09-.39-.45-.39-.8q0-.06.04-.17l.08-.22.04-.22a1 1 0 0 0-.13-.4q-.15-.21-.16-.27-.1-.27-.18-.25-.07 0-.17.06l-.13.08-.18.2-.18.1c-.11.05-.22.29-.22.48 0 .28.06.44.49 1.2q.27.47.26.74c0 .52-.54.97-1.42 1.14-1.05.22-1.29.4-1.4 1.07.18-.1.25-.1.57-.1h.22c.18 0 .2-.02.31-.17a1 1 0 0 1 .43-.37l.21-.09.16-.09.06-.01q.07 0 .07.05 0 .07-.13.22a1 1 0 0 0-.19.43c0 .17.03.27.13.42" fill="#FDDC02"/><path d="M32.7 13.84q.24.15.4.35c.13.17.14.19.27.19l.19-.03.11-.03q.31-.05.3-.13 0-.06-.06-.1l-.16-.13-.14-.13a.7.7 0 0 0-.41-.15c-.17 0-.3.05-.5.16m4.23.7.08-.01.13-.01.1.01h.07q.18 0 .26-.05.12-.09.24-.3a.3.3 0 0 0 .06-.15q0-.14-.23-.14-.53-.01-.71.65M13.79 42.06l.08-.16.18-.2q.23-.25.24-.67 0-.21-.07-.42-.05-.16-.05-.23.02-.14.12-.16.04 0 .1.06l.2.23c.11.13.16.16.3.19l.02-.18.01-.21c0-.32-.11-.66-.29-.88q-.15-.2-.15-.26.01-.09.08-.1l.05.03q.18.14.22.13c.07 0 .12-.15.12-.33 0-.24-.1-.53-.26-.73l-.16-.2-.03-.06q0-.1.12-.1.06-.01.16.07l.1.04c.1 0 .14-.15.14-.54v-.16L15 37c-.02-.27-.04-.32-.16-.32h-.1c-.63 0-.93-.4-1.1-1.49-.11-.78-.4-1.34-.76-1.46q-.32-.1-.3-.17t.13-.08.25.07q.77.31 1.34.32c.62 0 1.1-.46 1.1-1.05 0-.45-.2-.9-.58-1.26a1 1 0 0 0-.33-.2h-.02l-.07.02.03.2.05.12.01.06q0 .05-.06.05a.1.1 0 0 1-.1-.05l-.23-.36c-.18-.27-.6-.5-.9-.5q-.16 0-.17.12.01.06.08.15c.07.07.12.17.12.2l-.01.06q-.03.05-.06.05h-.01c-.06 0-.1-.03-.37-.35-.24-.26-.71-.52-.97-.52l-.09.04q-.03.02-.03.05 0 .06.1.14.13.14.14.2 0 .05-.07.05-.1.01-.56-.35-.71-.55-.7-1.16c0-.5.36-.9.82-.9.27 0 .63.13.87.31l.64.49q.46.34 1.02.34.12 0 .23-.06.1-.04.1-.08-.01-.03-.12-.06a2 2 0 0 1-.55-.23l-.65-.5-.51-.35c-.35-.18-.41-.22-.41-.26q0-.03.07-.04.06 0 .11.03l.34.14q.17.07.55.32c.7.47 1.06.62 1.46.62s.68-.28.68-.65l-.05-.22-.07-.14q-.04-.07-.08-.06l-.04.05-.04.28-.03.09-.1.12q-.09.11-.23.1c-.2 0-.43-.11-1.04-.5q-.94-.6-1.62-.6a1.7 1.7 0 0 0-1.7 1.7c0 1.3.8 1.88 3.3 2.43.95.2 1.37.48 1.37.9 0 .4-.3.63-.8.63q-.22 0-.36-.02-.12-.02-1.34-.36a7 7 0 0 0-1.73-.25c-.99 0-1.65.3-2.1.92q-.08.12-.14.12l-.1-.05-.19-.15a1 1 0 0 0-.46-.17.4.4 0 0 0-.28.11q-.1.1-.13.1c-.07 0-.2-.17-.31-.39a2 2 0 0 1-.22-.88q0-.2.1-.22.06 0 .1.1l.1.38c.05.2.17.38.26.38q.07 0 .2-.16l.1-.18c.08-.24.1-.28.16-.28.08 0 .12.05.17.29l.08.22.16.24q.06.06.13.07c.12 0 .23-.2.23-.4v-.06l-.02-.25q0-.13.06-.12.04 0 .1.07.09.1.21.18.13.06.2.06.05 0 .12-.06.05-.06.05-.1.02-.04-.18-.24a2 2 0 0 1-.26-.52q-.07-.16-.12-.17l-.1.03-.16.06-.12.05-.04.01q-.1 0-.1-.09c0-.05.12-.19.26-.3a.5.5 0 0 0 .17-.36c0-.22.05-.39.1-.39l.03-.45a4 4 0 0 1 .25-.98c.03 0 .06.1.06.2v.2q0 .25.07.25.09 0 .18-.23l.12-.3.05-.24c0-.25-.15-.43-.36-.43l-.1.01-.09.03q-.12-.02-.13-.17l.02-.18-.02-.27-.05-.27-.02-.13-.11.07-.14.12-.21.17-.17.14-.1.03c-.1 0-.11-.02-.11-.22v-.06c0-.16-.07-.29-.34-.6l-.06-.08-.05.1-.15.23-.14.36-.03.24q0 .1-.06.12-.04 0-.12-.1a1 1 0 0 0-.56-.37l-.03.09-.07.27-.02.25v.19q0 .1-.07.1l-.08-.06q-.06-.04-.16-.04-.39.01-.4.34c0 .15.06.27.3.64.1.16.22.29.28.29q.04-.02.05-.19l-.02-.15-.04-.2q0-.11.06-.11c.12 0 .24.33.29.8l.05.48q.04.27.16.53.18.36.34.48.19.13.2.22 0 .07-.07.08l-.26-.1-.11-.01c-.26 0-.35.15-.35.6 0 .54.36 1.32.77 1.64l.6.48c.3.25.53.65.53.94 0 .38-.41.76-1.13 1.02l-.43.15c-.33.13-.47.34-.6.97a1 1 0 0 1 .36-.07h.26c.17 0 .3-.1.3-.25v-.11q0-.07.11-.12l.18-.1.14-.1a.1.1 0 0 1 .08-.04q.06.01.07.08l-.02.12a1 1 0 0 0-.08.45c0 .32.06.5.22.72l.03-.17q.04-.1.23-.35c.2-.28.34-.61.34-.79v-.06l-.04-.3a.2.2 0 0 1 .06-.14l.1-.04q.07 0 .12.13.05.12.1.12c.04 0 .13-.12.19-.26q.06-.16.07-.28l-.04-.16-.05-.15q0-.05.06-.09l.06-.02q.05 0 .08.02l.12.08.1.04q.09 0 .18-.14.18-.28.19-.37.01-.05-.1-.12c-.26-.18-.42-.46-.42-.69l.03-.2.13-.34.11-.28.04-.01q.06 0 .07.1l-.03.15-.05.25q0 .14.13.14.12 0 .22-.05.6-.26.89-.26c.18 0 .29.04.47.17l.12.05q.05 0 .08-.05l.03-.07q0-.07-.08-.16c-.07-.1-.1-.14-.1-.2q0-.05.08-.06c.2 0 .52.65.83 1.67.23.81.3.89 1.08 1.33.65.37.9.74.9 1.33s-.16 1.33-.5 2.31q-.15.46-.15.7a4 4 0 0 0 .22.92z" fill="#FDDC02"/><path d="M10.77 40.23c.08-.17.1-.22.25-.44.2-.32.28-.48.28-.64v-.2q0-.3.12-.3.04 0 .07.05l.06.1a.1.1 0 0 0 .1.06q.06-.01.14-.12.15-.23.15-.46l-.01-.14-.01-.15q0-.12.1-.11.07-.01.12.11.04.1.1.11.05-.01.1-.08l.1-.16.09-.11.02-.07q0-.04-.1-.12c-.24-.17-.35-.44-.36-.92q-.03-.55-.07-.72l-.23-.56q-.1-.22-.16-.46-.04-.18-.16-.16c-.36 0-.62.3-.62.7q0 .36.27 1.06c.25.63.32.85.32 1.08 0 .48-.2.68-.85.92-.75.27-1.1.65-1.22 1.34l.12-.05q.09-.04.19-.06l.2-.06c.18-.04.33-.14.36-.24l.05-.19a.1.1 0 0 1 .08-.09l.11-.05.12-.05.03.05-.05.17a1 1 0 0 0-.03.3c0 .29.05.46.22.66m-7-12.04q.03.07.03.14t-.05.34l-.02.27q0 .36.11.68c.07.19.09.25.09.3l-.01.05q-.02.1-.05.1t-.13-.09a.7.7 0 0 0-.48-.19l-.23.02.07.15.2.48.27.42.29.2.07.07q.04.06.04.09t-.05.04l-.26.02q-.06 0-.07.05 0 .06.1.39l.14.37.22.21.23.17q.12.08.11.15t-.04.07l-.13.02q-.06 0-.07.1.01.16.26.5c.2.28.35.37.58.37h.2q.14 0 .14.12 0 .09-.12.12-.25.05-.23.15 0 .06.06.15l.1.14q.16.19.25.2.07 0 .2-.12a1 1 0 0 1 .41-.29c.46-.11.55-.16.55-.27l-.05-.15a1.2 1.2 0 0 1-.2-.64c0-.15-.04-.27-.1-.27q-.04 0-.1.1a.6.6 0 0 1-.46.28c-.45 0-1-.7-1.26-1.64q-.1-.34-.1-.7 0-.38.1-.8l.14-.63.01-.18c0-.33-.29-.74-.75-1.06" fill="#FDDC02"/><path d="M4.71 30c-.1.18-.18.59-.18.84q0 .25.12.27.03 0 .06-.06l.15-.26.1-.16q.07-.12.08-.2c0-.14-.14-.34-.33-.43m1.44 5.87.06.07.1.1c.26.26.3.29.42.29s.35-.07.49-.13q.08-.05.08-.1l-.12-.14-.15-.13c-.1-.1-.27-.19-.34-.19-.15 0-.3.07-.54.23m3.02 2.35c.14.06.19.09.26.14l.2.13.21.02q.09 0 .16-.02l.28-.1.26-.1q.1-.04.11-.1-.01-.04-.14-.07l-.2-.06c-.32-.13-.36-.15-.47-.15a1 1 0 0 0-.67.31m3.3 2.62c.08-.2.14-.24.43-.26.34-.02.66-.61.66-1.02q0-.06-.03-.07-.03 0-.09.04l-.2.12-.38.17a.9.9 0 0 0-.46.7c0 .1.01.17.06.32m23.73-3.1.05-.15.06-.18q0-.05.14-.23.2-.26.2-.65l-.07-.24-.04-.13.02-.06.06-.03q.07 0 .14.08.08.1.13.11.1-.01.16-.25l.02-.13c0-.06-.05-.22-.11-.36l-.04-.14q0-.07.07-.08.06 0 .17.11.06.06.1.06.11 0 .2-.29l.06-.2q0-.06-.05-.06h-.05l-.15.01a1 1 0 0 1-.73-.35l-.36-.44-.33-.43-.3-.2q-.08-.05-.08-.1 0-.09.13-.08.09 0 .67.23a4 4 0 0 0 1.31.3c.63 0 1.14-.51 1.14-1.12 0-.34-.15-.65-.52-1.08-.06-.08-.18-.15-.23-.15q-.08 0-.08.07 0 .06.04.15l.03.12q0 .1-.07.1-.12-.01-.23-.38c-.09-.29-.25-.46-.65-.66a2 2 0 0 0-.41-.15q-.05 0-.05.06 0 .08.06.15.08.15.1.25v.02q0 .06-.07.07c-.09 0-.1-.02-.3-.31-.1-.15-.36-.35-.58-.44l-.22-.06h-.01q-.08 0-.09.05l.06.12.02.08q0 .06-.06.07c-.08 0-.32-.2-.5-.42a1.3 1.3 0 0 1-.35-.78c0-.5.48-.94 1-.94q.22 0 .34.07l.46.23.53.35c.31.2.73.36.99.36.09 0 .16-.02.4-.09q.21-.05.21-.13l-.05-.04-.29-.02a3 3 0 0 1-.8-.36l-.6-.4-.53-.22q-.07-.02-.07-.07 0-.03.06-.04l.15.02.5.15q.18.05.6.27c.54.29.89.42 1.15.42.3 0 .52-.21.52-.5q0-.18-.05-.36l-.08-.17q-.04-.06-.06-.06-.06.01-.06.11v.1l.01.06c0 .25-.1.33-.36.33-.22 0-.5-.08-1.17-.35-.62-.24-1-.34-1.4-.34-.97 0-1.83.8-1.83 1.71q0 1.2 1.59 1.83l1.1.46c.92.38 1.26.65 1.26 1 0 .3-.27.49-.7.49-.2 0-.43-.05-.85-.19a8 8 0 0 0-2.3-.46c-.97 0-1.66.26-2.2.84q-.1.11-.19.1-.05.01-.18-.07a1 1 0 0 0-.29-.1c-.1 0-.24.08-.31.18l-.13.16q-.06.08-.11.08c-.1 0-.27-.16-.37-.35q-.09-.16-.13-.34l-.03-.35.01-.25.04-.26.04-.22q.02-.05.06-.05.1 0 .1.2v.15c0 .36.14.7.3.7q.2 0 .34-.68.02-.13.1-.14t.12.27c.02.12.1.3.2.41q.07.1.14.1.15.01.23-.53.04-.23.11-.24.05 0 .06.03l.09.15q.05.08.14.12.1.06.15.06.08 0 .13-.06.08-.07.09-.1 0-.04-.08-.12a1 1 0 0 1-.23-.43l-.12-.3q-.03-.06-.07-.09h-.11l-.28.08-.08.01q-.06 0-.06-.06t.1-.14q.5-.39.6-1.35c.05-.38.1-.53.26-.77q.06-.06.09-.07.07 0 .07.11t-.04.19l-.03.16v.05l.03.07.15-.05.15-.18a1 1 0 0 0 .17-.53.4.4 0 0 0-.1-.3q-.12-.15-.2-.14h-.1l-.08.01q-.13 0-.13-.08l.02-.1.02-.14-.08-.32-.07-.16-.04-.13-.09.07-.2.11-.15.15c-.18.22-.2.23-.27.23q-.06 0-.07-.05v-.05q.04-.19.04-.27c0-.23-.16-.57-.36-.76q-.41.4-.42.82v.15q0 .1-.06.1t-.1-.07l-.15-.21-.2-.17-.11-.09-.06.1c-.13.26-.17.42-.18.63q0 .24-.06.23l-.08-.03c-.2-.11-.22-.12-.3-.12-.24 0-.4.17-.4.41q0 .15.17.44c.11.2.3.4.37.4q.03.01.03-.08v-.02l-.02-.23-.02-.17v-.02q0-.07.06-.07.17 0 .3 1.03.12.9.51 1.26.1.1.1.14t-.05.05a.4.4 0 0 1-.17-.07l-.14-.04c-.13 0-.27.15-.3.32l-.12.74-.09 1.04q-.02.3.08.78.09.42.09.62c0 .78-.48 1.4-1.29 1.63l-.83.25c-.52.15-.77.5-.85 1.13.14-.1.18-.12.38-.15l.25-.04q.16-.03.22-.07l.15-.14.21-.25q.14-.15.21-.15.05.01.05.08t-.09.21q-.09.16-.09.34c0 .17.04.27.2.51l.06-.15.2-.28c.18-.23.31-.47.31-.59 0-.2.02-.26.07-.26s.06 0 .08.12q0 .05.03.08.05.05.08.05l.1-.05a1 1 0 0 0 .33-.42q.08-.17.08-.24v-.17q0-.08.04-.08.06.02.14.14.04.07.09.07a.2.2 0 0 0 .12-.05q.25-.26.26-.5l-.01-.23-.05-.2v-.02q0-.06.05-.07.1 0 .22.27.06.14.12.13c.06 0 .1-.04.23-.22l.12-.17a.2.2 0 0 0 .03-.13.2.2 0 0 0-.03-.13l-.1-.15-.03-.13q0-.27.2-.62l.16-.32q.03-.09.08-.08.03 0 .04.06l-.02.15v.2q.03.07.12.07l.13-.02.33-.12.3-.15c.5-.28.66-.34.92-.34q.21 0 .62.19l.13.04q.05 0 .11-.07l.04-.1q0-.07-.05-.16l-.08-.19q0-.06.06-.06.06.01.1.07l.3.52c.24.43.56.73.83.8l.57.13c.18.04.23.1.23.33 0 .4-.2.76-.53.97l-.47.3c-.17.1-.3.4-.3.66 0 .16.03.44.09.67l.08-.1.23-.13.19-.2.1-.28.1-.26q.1-.19.16-.2.07 0 .07.2v.07c0 .2.02.28.17.56" fill="#FDDC02"/><path d="M28.5 41.68c.16-.15.19-.16.63-.25.35-.07.52-.23.6-.59.05-.25.09-.3.32-.44l.17-.13q.04-.05.07-.05t.04.06-.08.21l-.05.25c0 .21.04.35.15.52.08-.17.13-.22.33-.36.26-.19.35-.4.4-.86q.03-.3.11-.3.04 0 .06.03l.1.2q.01.05.08.05.06 0 .16-.1l.18-.17q.12-.1.16-.55.01-.16.1-.18.03 0 .05.07l.08.26q.04.1.1.1l.1-.06.18-.2q.1-.12.1-.26v-.22q0-.08.04-.15l.06-.05q.05 0 .07.07l.05.14q.05.1.13.1.09.01.24-.2l.08-.1q.09-.12.09-.17l-.05-.1a1.4 1.4 0 0 1-.29-.88c0-.43.17-.8.66-1.47.3-.41.47-.79.47-1.05q0-.1-.1-.11-.07 0-.16.05l-.1.04q-.03 0-.08-.06l-.1-.1-.06-.1a.1.1 0 0 0-.1-.07l-.1.03-.12.01q-.2-.01-.19.19v.07l.01.06c0 .11-.1.3-.24.41l-.24.22c-.3.28-.55.71-.55 1q0 .19.12.56c.11.4.16.58.16.7 0 .63-.96 1.45-2.73 2.35-.9.46-1.12.73-1.12 1.34zm-.85-13.66v.32q0 .11-.03.21l-.05.3c0 .25.03.37.18.63q.12.22.13.43 0 .09-.06.09-.03 0-.06-.04l-.1-.15c-.09-.1-.16-.14-.38-.14l-.22.02c.09.22.12.3.15.45.11.43.13.46.36.66s.25.24.25.31q0 .1-.1.11l-.07-.01h-.06c-.07 0-.13.12-.13.27a1 1 0 0 0 .17.48l.13.13a.2.2 0 0 1 .05.14q0 .1-.08.12l-.11-.05-.1-.02q-.08 0-.08.1l.02.2.08.34q.03.11.14.24l.2.16.26.11q.04.04.04.11 0 .09-.09.1l-.13-.03-.14-.02c-.13 0-.14 0-.14.11q0 .1.03.2l.05.21q.09.34.2.34l.1-.05c.2-.14.57-.27.8-.27a3 3 0 0 1 .76.1q.04.01.04-.16l.03-.23.05-.4.04-.3v-.17l-.1.09c-.23.2-.36.27-.6.27-.6 0-.94-.67-.94-1.84q0-.75.2-1.96.05-.24.05-.36c0-.43-.28-.85-.74-1.15" fill="#FDDC02"/><path d="m28.53 30.94.12-.12.11-.1c.1-.1.18-.27.18-.4l-.04-.2c-.05-.09-.13-.18-.19-.18q-.07.01-.1.28l-.03.2-.04.2zm-1.14 5.32c.13.05.16.07.3.23.17.22.28.26.51.26q.1 0 .19-.02l.17-.05.13-.04q.1-.04.1-.07-.01-.04-.26-.22-.15-.1-.31-.18a1 1 0 0 0-.3-.08 1 1 0 0 0-.53.17m1.77 3.81.57-.28.38-.21q.35-.19.35-.29-.01-.12-.4-.13c-.5 0-.92.34-.92.77zm5.28-3.3c.19-.04.25-.09.34-.1l.23.02.16-.1.18-.14c.26-.17.28-.19.28-.24q0-.1-.33-.11-.58-.02-.86.67" fill="#FDDC02"/><path d="m7.75 5.39-.06-.19-.02-.1q-.01-.15.2-.22c.25-.1.34-.14.44-.24l.14-.13h.02q.06 0 .07.1c0 .17-.18.47-.37.78q-.19.36-.25.38c-.06 0-.13-.1-.14-.22zm-.77-.52.22.11q.1.06.1.13l-.02.08c-.03.11 0 .23 0 .28-.02.23-.2.23-.27.23-.04 0-.01-.03-.12-.14l-.29-.33a1.3 1.3 0 0 1-.19-.59v-.03q0-.1.08-.1.06 0 .14.07zm.79 1.35.2-.13.12.03c.15 0 .18.04.18.2 0 .23-.14.33-.4.98-.12.3-.14.46-.31.46q-.28.01-.49-.53l-.17-.41a2 2 0 0 1-.17-.58q.01-.15.2-.16.09 0 .18.05l.16.1zm24.32-.8-.1-.21-.02-.11q-.02-.15.2-.22c.17-.06.35-.16.44-.24l.14-.13h.01q.06 0 .07.1c0 .17-.15.43-.34.74-.13.23-.22.42-.27.42q-.11-.02-.15-.22zm-.81-.55.22.11a.2.2 0 0 1 .1.16v.05l-.07.24-.04.25q-.01.06-.07.06h-.01a1 1 0 0 1-.28-.18l-.2-.33q-.05-.06-.17-.36l-.05-.23v-.03q0-.1.07-.1t.15.07zm.8 1.35.2-.13.06-.01c.15 0 .31.14.31.29 0 .13-.17.2-.24.38l-.14.59q-.15.42-.41.42-.28.01-.49-.53l-.17-.41q-.16-.38-.16-.54 0-.2.19-.2.09 0 .18.05l.15.1zM6.65 29.2l-.07-.19-.01-.06q0-.03.05-.04.06.01.16.08c.06.05.09.05.18.07.35.09.43.16.43.33l-.01.21-.06.2q-.03.12-.08.11c-.03 0-.25-.16-.28-.2l-.13-.18zm1.57.33-.17.3-.06.07h-.01c-.08 0-.14-.15-.15-.32l-.02-.26q.01-.15.24-.18l.27-.08.2-.14h.02q.06 0 .06.06V29l-.09.22zm-.33.88.2-.1.1-.03q.16 0 .17.22-.02.21-.27.63c-.17.31-.3.52-.43.52-.19 0-.46-.3-.71-.8a1 1 0 0 1-.1-.35q0-.26.2-.26.1 0 .16.04l.11.08a.6.6 0 0 0 .57.05m22.6-1.57.2.12.25.14c.2.08.28.11.28.19l-.03.15-.04.18c-.02.18-.12.22-.2.22q-.1 0-.32-.39l-.2-.52-.01-.05q0-.05.05-.05zm1.77.45-.3.3c-.1.15-.1.27-.13.29a.1.1 0 0 1-.1.04h-.01q-.12 0-.14-.13l-.01-.22-.02-.22v-.02q0-.12.12-.14l.28-.08.28-.14.13-.05q.05 0 .06.07 0 .05-.03.08zm-1.32.9.2.13q.08.05.17.04.13 0 .31-.08l.17-.07.1-.03q.17.01.19.25c0 .19-.14.39-.34.68l-.14.3q-.17.22-.29.22c-.15 0-.23-.1-.46-.55a2 2 0 0 1-.23-.7q.01-.21.17-.23.07 0 .15.03" fill="#211E1E"/><path d="M7.48 6.6H7.3l-.07.04-.02.06.06.32.05.27q.03.22.2.21.2 0 .22-.25l.03-.29.02-.3-.04-.07-.06-.03h-.01zm24.3 0h-.16l-.07.04-.04.06.07.32.05.27c.03.15.05.21.17.21q.2 0 .25-.25l.02-.29.03-.3-.04-.07-.07-.03h-.01zM7.58 30.73l-.14-.03h-.02q-.12 0-.13.14c0 .13.1.38.24.57a.1.1 0 0 0 .1.05q.12-.01.19-.42l.04-.2v-.03q.01-.11-.1-.1h-.02zm23.53.17.02.25c0 .1.1.22.19.22q.18-.02.25-.46l.03-.18q.01-.13-.16-.12h-.22q-.11-.01-.1.23z" fill="#FDDC02"/><path d="M16.46 18.28h1.38q.22-.49.7-.48c.32 0 .53.14.72.48h1.13q.21-.46.74-.48c.3 0 .6.2.7.48h1.05q.24-.46.7-.48.43 0 .7.4l.05.08h1.46v6.75H24.5v2.58H23v-2.58h-3.78v2.58h-1.5v-2.6h-1.27z" fill="#211E1E"/><path d="M17 24.5h8.28v-5.67H17z" fill="#EE2E4F"/><path d="M17.86 20.13a.4.4 0 0 0 0 .79.4.4 0 0 0 .4-.4.4.4 0 0 0-.4-.4" fill="#FDDC02"/><path d="M17.86 20.13a.4.4 0 0 0 0 .79.4.4 0 0 0 .4-.4.4.4 0 0 0-.4-.4Z" stroke="#211E1E" stroke-width=".43"/><path d="M24.36 20.13a.4.4 0 1 0 .16.76.4.4 0 0 0 .24-.36.4.4 0 0 0-.4-.4" fill="#FDDC02"/><path d="M24.36 20.13a.4.4 0 1 0 .16.76.4.4 0 0 0 .24-.36.4.4 0 0 0-.4-.4Z" stroke="#211E1E" stroke-width=".43"/><path d="M17.86 23.22a.4.4 0 0 0-.39.39c0 .22.18.4.4.4s.39-.18.39-.4a.4.4 0 0 0-.4-.4" fill="#FDDC02"/><path d="M17.86 23.22a.4.4 0 0 0-.39.39c0 .22.18.4.4.4s.39-.18.39-.4a.4.4 0 0 0-.4-.4Z" stroke="#211E1E" stroke-width=".43"/><path d="M24.36 23.22a.4.4 0 1 0 0 .79.4.4 0 0 0 0-.8" fill="#FDDC02"/><path d="M24.36 23.22a.4.4 0 1 0 0 .79.4.4 0 0 0 0-.8Z" stroke="#211E1E" stroke-width=".43"/><path d="M19.1 22.02q.8 1 2.04 1c.77 0 1.3-.28 1.92-1-.61-.64-1.2-.9-1.96-.9-.8 0-1.52.33-2 .9" fill="#FDDC02"/><path d="M19.5 22.02c.55-.42 1.01-.6 1.59-.6s1 .17 1.57.62c-.49.48-.92.66-1.58.66a2.2 2.2 0 0 1-1.58-.68" fill="#211E1E"/><path d="M20.16 21.89a1.6 1.6 0 0 0 1.85 0 2 2 0 0 0-.94-.22q-.5 0-.9.22" fill="#FDDC02"/><path d="M16.89 19.41h8.51v-.29h-8.5z" fill="#211E1E" stroke="#211E1E" stroke-width=".14"/><path d="M18.2 18.76v.8c0 .2.14.35.34.35q.35 0 .36-.34v-.8q-.01-.48-.32-.5l-.16.03-.1.06-.07.1-.06.15zm2.55.66v.15c0 .2.15.34.35.34q.36 0 .37-.34v-.8q-.01-.48-.33-.5-.37.02-.39.48zm2.49-.66v.8c0 .2.15.35.35.35q.34 0 .35-.34v-.8q-.01-.48-.32-.5l-.16.03-.1.06-.07.1-.05.15zM18 26.62h.77v-1H18zm0 .54h.77v-.32H18zm5.28-.54h.77v-1h-.77zm0 .54h.77v-.32h-.77z" fill="#FDDC02"/><path d="M65.83 1.4V2h-.4c-.57 0-1.55 0-1.55 1.82v7.44c0 4.55-1.98 6.76-6.05 6.76-4.6 0-6.75-1.84-6.75-5.77V3.82C51.08 2 50.1 2 49.23 2h-.18v-.6h6.88V2h-.18c-.85 0-1.92 0-1.92 1.82v8.05c0 3.47 1.45 5.16 4.43 5.16 2.9 0 4.43-1.82 4.43-5.26V3.82C62.7 2 61.7 2 60.96 2h-.37v-.6zm7.44 15.68v.59h-5.81v-.6h.23c1.9 0 2.15-1.45 2.15-3.08V4.22c0-1.56-.9-2.22-2.17-2.22h-.21v-.59h4.57l9.88 12.11v-9.2c0-2.09-1.46-2.32-2.08-2.32h-.41v-.59h5.86v.6h-.25c-1.03 0-2.12.23-2.12 3.08v12.66h-.87L70.83 4.2v9.79c0 1.63.24 3.1 2.2 3.1zm31.14-2.86 3.57-10c.64-1.7.23-2.22-1.25-2.22h-.3v-.6h4.63V2h-.1c-.5 0-1.1.15-1.53 1.27L104 17.73h-1.03L97.09 3.4c-.46-1.2-1.01-1.4-2-1.4h-.14v-.6h6.72V2h-.43c-1.15 0-1.37.71-1.05 1.59zm27.13-12.04v7.2h1.4c2.52 0 3.64-1.13 3.64-3.78 0-2.14-1.39-3.53-3.47-3.53-.49 0-1.15.04-1.57.1m2.5-.77c3.6 0 5.39 1.32 5.39 4.05 0 2.32-1.8 3.49-3.23 4.06l-.1.04 3.98 6.08c.64.98 1.16 1.36 2.26 1.42v.61h-4.17l-4.83-7.63h-1.8v5.06c0 1.83.81 1.97 1.97 1.97h.32v.6h-7.07v-.6h.32c.8 0 1.71-.35 1.71-1.36V3.89C128.8 2 127.68 2 127.08 2h-.32v-.6z" fill="#211E1E"/><mask id="e" style="mask-type:luminance" maskUnits="userSpaceOnUse" x="143" y="0" width="12" height="19"><path d="M143.31.56h11.16V18.7H143.3z" fill="#fff"/></mask><g mask="url(#e)"><path d="M150.93 14.58c0-1.98-1.7-2.76-3.28-3.58-1.86-.97-4-1.97-4-4.97 0-2.9 2.22-4.78 5.38-4.78 1.3 0 2.75.26 3.4.39l.22 3.16-.6.09c-.29-1.67-1.16-2.94-3.03-2.94-1.76 0-3.06 1.07-3.06 3.02 0 1.83 1.7 2.58 3.27 3.38 1.94.97 4.15 1.98 4.15 5 0 3.36-2.99 4.86-5.75 4.86-1.1 0-2.63-.22-3.86-.91l-.38-3.53.59-.1c.45 2.34 1.93 3.7 3.89 3.7 1.87 0 3.06-1.15 3.06-2.79" fill="#211E1E"/></g><path d="M162.53 1.4V2h-.23c-.93 0-1.78.18-1.78 1.44v12.2c0 1.26.85 1.43 1.78 1.43h.23v.6h-6.8v-.6h.24c.92 0 1.78-.17 1.78-1.43V3.44c0-1.26-.86-1.44-1.78-1.44h-.23v-.6zM94 1.4V2h-.23C92.85 2 92 2.18 92 3.44v12.2c0 1.26.85 1.43 1.78 1.43H94v.6h-6.8v-.6h.24c.93 0 1.78-.17 1.78-1.43V3.44c0-1.26-.85-1.44-1.78-1.44h-.23v-.6z" fill="#211E1E"/><mask id="f" style="mask-type:luminance" maskUnits="userSpaceOnUse" x="213" y="23" width="19" height="23"><path d="M213.94 23.65h17.22v22.3h-17.22z" fill="#fff"/></mask><g mask="url(#f)"><path d="m229.35 24.89.05 4.31-.69.18c-.15-1.89-.58-3.42-3.6-3.42h-4.05v7.97h3.48c1.7 0 2.17-.95 2.37-2.6h.69V38h-.7c-.1-1.58-.48-2.82-2.35-2.82h-3.5v7c0 2.04 1.76 2.04 3.62 2.04 3.33 0 4.88-.22 5.8-3.58l.7.15-.94 4.5h-15.14v-.75h.3c1.15 0 2.22-.22 2.22-1.8v-15.3c0-1.59-1.07-1.8-2.23-1.8h-.29v-.75z" fill="#211E1E"/></g><path d="m143.72 25.85-.01 9.03h1.74c3.18 0 4.58-1.41 4.58-4.73 0-2.69-1.74-4.43-4.34-4.43-.62 0-1.4.04-1.97.13m3.13-.96c4.51 0 6.75 1.66 6.75 5.08 0 2.9-2.26 4.37-4.05 5.1l-.13.05 5 7.62c.8 1.23 1.46 1.7 2.83 1.79v.76h-5.21l-6.07-9.58h-2.26v6.35c0 2.3 1.02 2.48 2.46 2.48h.41v.75h-8.87v-.75h.41c.99 0 2.15-.45 2.15-1.71V28c0-2.36-1.4-2.36-2.15-2.36h-.4v-.75zm20.17 0v.75h-.3c-1.16 0-2.23.21-2.23 1.8v15.3c0 1.58 1.07 1.8 2.24 1.8h.29v.74h-8.52v-.74h.28c1.16 0 2.24-.22 2.24-1.8v-15.3c0-1.59-1.08-1.8-2.24-1.8h-.28v-.76z" fill="#211E1E"/><mask id="g" style="mask-type:luminance" maskUnits="userSpaceOnUse" x="163" y="0" width="17" height="19"><path d="M163.14.56h16.1V18.7h-16.1z" fill="#fff"/></mask><g mask="url(#g)"><path d="M166.06 1.4h10.76c.54 0 1.24-.13 1.34-.84h.53l-.41 4.25h-.59c-.03-.98-.18-2.41-1.74-2.41h-3.28v12.56c0 1.95.93 2.12 1.99 2.12h.34v.59h-7.41v-.6h.34c1.24 0 2-.1 2-2.07V2.4h-3.33c-1.69 0-1.85.74-2.18 2.39h-.58l.37-4.2h.48c.22.69.8.82 1.37.82" fill="#211E1E"/></g><path d="M195.32 1.4v.61c-.94.06-1.5.7-1.92 1.29l-4.13 6.36v5.2c0 2.07.75 2.22 1.99 2.22h.34v.59h-7.41v-.6h.34c1.3 0 2-.32 2-2.02v-5l-4.49-6.4c-.68-1-1.2-1.65-2.28-1.65h-.14v-.6h6.71V2h-.2c-1.3 0-1.38.69-.84 1.47l3.48 5.38L191.84 4c.7-1.06.9-1.99-.84-1.99h-.26v-.6z" fill="#211E1E"/><mask id="h" style="mask-type:luminance" maskUnits="userSpaceOnUse" x="199" y="0" width="19" height="19"><path d="M199.08.56h18.58V18.7h-18.59z" fill="#fff"/></mask><g mask="url(#h)"><path d="M203.27 8.83c0 4.02 1.77 8.34 5.67 8.34 3.56 0 5.3-2.47 5.3-7.56 0-3.74-2-7.7-5.7-7.7-4.89 0-5.27 5.3-5.27 6.92m-3.02.82c0-4.82 3.67-8.6 8.35-8.6 5.1 0 8.66 3.31 8.66 8.04 0 5.17-3.6 8.93-8.55 8.93-4.9 0-8.46-3.52-8.46-8.37" fill="#211E1E"/></g><mask id="i" style="mask-type:luminance" maskUnits="userSpaceOnUse" x="218" y="1" width="14" height="18"><path d="M218.9 1.35h12.26V18.7H218.9z" fill="#fff"/></mask><g mask="url(#i)"><path d="M219.11 17.67v-.6h.23c.93 0 1.78-.17 1.78-1.43V3.44c0-1.26-.85-1.44-1.78-1.44h-.23v-.59h11.36l.04 3.44-.54.14c-.13-1.4-.45-2.73-2.39-2.73h-3.71v6.36h3.25c1.35 0 1.54-1.06 1.55-1.9h.54v5.2h-.53c-.02-1.01-.25-2.3-1.92-2.3h-2.9v6.02c0 1.44 1.22 1.44 2.3 1.44h.2v.59z" fill="#211E1E"/></g><path d="M50.34 35.07c0-3.03 1.23-6.01 3.35-7.9a11 11 0 0 1 7.46-2.76c2.6 0 4.78.47 6.9 1.46l.22 4.73-.67.09c-.77-2.74-2.05-5.25-6.37-5.25-4.44 0-7.2 3.52-7.2 9.17 0 5.04 2.23 9.8 7.63 9.8a8.1 8.1 0 0 0 6.84-3.24l.53 1c-1.84 2.39-4.68 3.65-7.92 3.65-6.58 0-10.77-3.88-10.77-10.75m43.98-6.24-.68 12.6c-.12 2.79.74 3.03 2.62 3.1h.17v.74h-6.87v-.74h.26c2.31-.09 2.46-1.38 2.57-3.26l.8-12.9c.1-1.76-.86-2.75-2.49-2.75h-.23v-.74h5.77l6.93 15.45 6.55-15.46h5.66v.75h-.11c-2.3 0-2.7.72-2.53 3.6l.8 13.53c.11 1.58.94 1.73 2.5 1.78v.74h-8.46v-.74h.06c1.38-.08 2.37-.14 2.37-1.53l-.03-1.46-.62-13.04-7.05 16.92h-.62c-.06-.16-7.37-16.59-7.37-16.59m81.9-2.98v16.02c0 2.16.9 2.51 3.1 2.51 5.15 0 7.5-4.44 7.5-8.78 0-6.76-2.8-9.84-8.53-9.84-.5 0-1.59.05-2.07.1m-6 19.43v-.75h.3c1.16 0 2.23-.21 2.23-1.8v-15.3c0-1.58-1.07-1.8-2.23-1.8h-.3v-.75h9.12c3.4 0 6.23.85 8.22 2.7 1.95 1.81 2.98 4.39 2.98 7.45a10.8 10.8 0 0 1-3.12 7.6c-2 1.97-4.79 2.65-7.62 2.65zm37.68-1.05v-5c0-1.09-.8-1.67-2.3-1.67h-.24v-.73h7.84v.73h-.24q-1.67.02-1.68 1.67v5.56a24 24 0 0 1-7.17 1.08c-6.73 0-11.08-4.36-11.08-11.11 0-7.18 5.74-10.46 11.14-10.46 2.42 0 4.9.49 6.48 1.01l.32 4.87-.68.04c-.85-3.5-2.4-4.88-5.92-4.88-4.74 0-7.61 3.5-7.61 9.12 0 5.16 2.42 10.28 7.84 10.28a8 8 0 0 0 3.3-.51m-78.79-10.05c2.57.18 3.94.75 5.08 1.93q1.36 1.37 1.37 3.4c0 3.2-2.94 5.76-6.76 5.76h-9.99v-.74h.4c1 0 2.15-.47 2.15-1.73V28c0-2.36-1.4-2.36-2.15-2.36h-.4v-.75h9.06c4.25 0 6.59 1.54 6.59 4.46 0 3.23-2.84 4.42-5.35 4.83m-4.18-8.54v8.19h1.53c2.82 0 4.37-1.37 4.37-3.97 0-2.88-1.36-4.22-4.05-4.22zm0 9.08v7.18c0 2 .64 2.56 2.7 2.56 2.49 0 4.37-2.05 4.37-4.83 0-3.14-1.91-4.91-5.1-4.91zm-47.21-5.68L80.57 37h-5.7zm.35-4.16-6.47 17.6c-.48 1.26-1.33 2.03-2.58 2.03h-.07v.76h6.2v-.76h-.27c-1.5 0-2.5-.48-1.86-2.4l1.49-4.12h6.42l1.6 4.49c.47 1.41-.14 2.05-1.67 2.05h-.18v.75h7.9v-.75h-.06c-1.05 0-1.77-.55-2.27-1.95l-6.64-17.7zm45.45-23.47.05 3.44-.55.14c-.13-1.5-.47-2.73-2.87-2.73h-3.23V8.6h2.77c1.36 0 1.73-.76 1.89-2.07h.55v5.31l-.55.01c-.09-1.27-.39-2.25-1.88-2.25h-2.78v5.58c0 1.62 1.4 1.62 2.88 1.62 2.65 0 3.88-.16 4.63-2.86l.54.12-.75 3.6h-12.06v-.6h.23c.92 0 1.78-.18 1.78-1.44V3.43c0-1.25-.86-1.43-1.78-1.43h-.23v-.6z" fill="#211E1E"/></svg>