<svg height="100%" viewBox="0 0 204 97" fill="none" xmlns="http://www.w3.org/2000/svg"><path d="M96.7.1H10a10 10 0 0 0-10 10V87a10 10 0 0 0 10 10h86.7zm97.3 0h-86.7v96.8H194a10 10 0 0 0 10-10V10a10 10 0 0 0-10-10" fill="#2F854C"/><path d="M58.5 76.8V56.2H70v21.7q0 2.4 1 3.3a4 4 0 0 0 3 1q1.6 0 2.8-1 1-.9 1-3.3V56.2h11.5v20.6q0 3.6-1.2 6.2-1 2.7-3 4.3t-5 2.3a25 25 0 0 1-12.3 0q-2.9-.8-4.9-2.3-2-1.6-3.2-4.3-1-2.6-1-6.2m-20.2 5.1q0 .4.4.4.2 0 .2-.4a175 175 0 0 1 2.5-14.6L44 56.2h10.7v33.3H48v-28q0-.3-.3-.3t-.2.2l-2 10.1-1.5 7.7-2.2 10.3h-6.6l-5.8-28q0-.3-.3-.3t-.2.2v28H23V56.3h10.7l.6 2.8.8 3.8A369 369 0 0 1 38.3 82M7 56.2h3V87h9.5v2.5H7zm107.4-5.7v-7.1h1.3v6h3.5v1zm9.6.1c-1.5 0-3-.6-3-3v-4.2h1.4v4.3q0 1.9 1.6 2 1.6-.1 1.6-2v-4.3h1.4v4.2c0 2.3-1.5 3-3 3m7.7-6.2h-.7v5h.7q2.3.2 2.3-2.5 0-2.5-2.3-2.5m0 6h-2v-7h2q3.8.2 3.7 3.5 0 3.5-3.6 3.6m12.8 0h-1.4l-1.4-5-1.4 5H139l-2.1-7.1h1.4l1.5 5.5 1.4-5h1.4l1.3 5 1.4-5.5h1.4zm5.4-7.1h-1.3v7h1.3zm6 7.2q-3.4-.2-3.5-3.7c0-2.5 1.8-3.7 3.4-3.7q1.8.1 2.4.8l-.5 1q-.6-.7-1.9-.8-1.9 0-2 2.7.1 2.5 2 2.7 1.1 0 1.4-.3v-1.8h-1.6v-1h2.9V50q-.9.6-2.7.7m7.3-3.9h-2.8v1h2.8zm-42.4 16.7-.3-5.4-1.8 4.4h-1.2l-1.8-4.4-.2 5.4h-1.3l.4-7.1h1.7l1.9 4.7 1.8-4.7h1.7l.4 7zm6.5-5.8-1.1 3h2.2zm2.1 5.8-.6-1.8h-3l-.6 1.8H124l2.8-7.1h1.4l2.8 7zm8 0-2-2.9-2 2.9H132l2.7-3.7-2.5-3.4h1.7l1.7 2.6 1.7-2.6h1.6l-2.5 3.4 2.7 3.7zm4.9-7.1H141v7h1.3zm9.2 7.1-.2-5.4-1.8 4.4h-1.2l-1.9-4.4-.2 5.4H145l.5-7.1h1.6l2 4.7 1.8-4.7h1.6l.4 7zm5.3-7.1h-1.3v7h1.3zm7.7 7.1v-1.1H161v-6h-1.3v7zm3.5-7.1h-1.3v7h1.4zm5.5 1.3-1.1 3h2.2zm2 5.8-.6-1.8H172l-.6 1.8H170l2.8-7.1h1.4l2.8 7zm7.7 0-3-5.3v5.3H179v-7.1h1.8l3 5.3v-5.3h1.2v7zm9.3-2q-.1-1.4-1.5-2l-1.4-.5q-.8-.3-.9-1t1.2-.8 1.7.9l.6-.9a3 3 0 0 0-2.3-1c-1.2 0-2.5.7-2.5 2q.1 1.4 1.3 1.8l1.4.6q1 .4 1 1 0 .9-1.3 1t-2-1l-.6 1c.4.3 1.2 1 2.6 1 2 0 2.7-1.4 2.7-2.1m4.5-1.7h-2.8v1h2.7zm-79.8 16.8c-1.5 0-3-.6-3-3v-4.2h1.4v4.3q0 1.9 1.6 2 1.6-.1 1.6-2v-4.3h1.4v4.2c0 2.3-1.5 3-3 3m9.9-.2-3-5.2v5.2h-1.3v-7h1.8l3 5.2v-5.2h1.2v7zm5.9-7h-1.3v7h1.3zm6 7h-1.4l-2.8-7h1.4l2.1 5.7 2-5.7h1.5zm4.8 0v-7h4.7v1h-3.4v1.9h3.2v1H145v2.1h3.6v1zm9.6-6h-1.2v2h1.2q1.4-.1 1.3-1t-1.3-1m1.6 6-1.4-2q-.6-1-1-1h-.4v3H151v-7h2.7c1.3 0 2.4.6 2.4 2s-1.2 1.8-1.8 1.8l.6.7 1.8 2.5zm5.5.2c-1.4 0-2.2-.7-2.5-1l.6-1q.6 1 2 1 1.3-.1 1.3-1 0-.6-1-1l-1.4-.6q-1.3-.5-1.4-1.7c0-1.4 1.4-2 2.5-2q1.6 0 2.4.9l-.6.9q-.5-.9-1.8-1-1 .1-1.1 1 .2.6.9.9l1.4.6q1.3.3 1.4 1.9c0 .7-.5 2-2.7 2m6.5-7.1h-1.4v7h1.3zm5.6 1v6h-1.3v-6H169v-1h6.1v1zm7.9-1.7a1 1 0 0 1-.7-.7q0-.5.7-.6t.7.6-.7.7m-1 2-1 3h2.2zm-1-2a1 1 0 0 1-.6-.7.7.7 0 0 1 1.4 0q-.1.7-.7.7m3.1 7.7-.6-1.7h-3l-.5 1.7H176l2.8-7h1.4l2.8 7zm6.1-6v6h-1.3v-6h-2.4v-1h6.1v1zm-67 19-.3-5.3-1.8 4.4h-1.2l-1.8-4.4-.2 5.3h-1.3l.4-7h1.7l1.9 4.7 1.8-4.7h1.7l.4 7zm7.7-7.7a1 1 0 0 1-.7-.7.7.7 0 0 1 1.4 0q-.1.7-.7.7m-2 0a1 1 0 0 1-.7-.7q0-.5.7-.6t.7.6-.7.7m1 7.9c-1.4 0-2.9-.6-2.9-3v-4.2h1.3v4.3q0 1.9 1.7 2 1.6-.1 1.6-2v-4.3h1.3v4.2c0 2.3-1.5 3-3 3m10-.2-3-5.2v5.2h-1.3v-7h1.7l3 5.2v-5.2h1.3v7zm7.5.2c-2.3 0-3.4-1.8-3.4-3.7s1.3-3.7 3.4-3.7q1.5 0 2.3 1l-.5 1q-.5-.9-1.8-1c-1.2 0-2 1.2-2 2.7 0 1.4.9 2.7 2 2.7q1.2 0 2-.9l.5 1q-1 .9-2.5.9m9-.2v-3.2h-3v3.2h-1.3v-7h1.3v2.9h3.2v-3h1.3v7.1zm4.2 0v-7h4.7v1h-3.4v1.9h3.2v1h-3.2v2.1h3.6v1zm11.4 0-3-5.2v5.2h-1.3v-7h1.8l3 5.2v-5.2h1.2v7z" fill="#fff"/></svg>