<svg height="100%" viewBox="0 0 210 61" fill="none" xmlns="http://www.w3.org/2000/svg"><path d="M16.37 1.895C20.51.225 25.092-.31 29.508.323c6.147.858 11.912 4.087 15.89 8.846a25.4 25.4 0 0 1 4.736 8.518c1.249 3.83 1.546 7.959.905 11.934a25.1 25.1 0 0 1-3.923 9.984 25.6 25.6 0 0 1-5.64 6.022c-.188.146-.354.318-.52.488-2.63 2.672-6.09 4.485-9.764 5.201-.47.096-.945.171-1.42.24.156.664.382 1.309.64 1.94q-.258.255-.514.512c-.464-.259-1.113-.113-1.355.377-.312.54.068 1.297.684 1.377.499.094.933-.237 1.245-.586.2.817.136 1.706-.274 2.45-.807 1.509-2.292 2.544-3.857 3.154-.224.073-.462.228-.7.115-1.646-.573-3.22-1.6-4.115-3.132-.466-.77-.567-1.714-.348-2.58.312.388.814.701 1.328.56.542-.13.863-.79.623-1.296-.203-.5-.849-.715-1.32-.46a14 14 0 0 1-.537-.524c.4-.688.775-1.396 1.044-2.148-.973-.19-1.921-.479-2.872-.745-1.248.453-2.639.53-3.912.13-1.95-.579-3.52-2.219-4.045-4.18a25.5 25.5 0 0 1-8.973-10.79A25.4 25.4 0 0 1 .44 23.563a25.3 25.3 0 0 1 4.405-12.442A25.66 25.66 0 0 1 16.37 1.895m6.409-.923a24.66 24.66 0 0 0-12.44 5.297C6.34 9.483 3.376 13.964 2.014 18.912a24.76 24.76 0 0 0 .054 13.375c1.49 5.27 4.806 9.993 9.239 13.206-.11-1.23.187-2.48.809-3.543a14 14 0 0 1-.864-.893l.2-.145c.283.247.59.465.9.68a6.15 6.15 0 0 1 2.519-2.076 17.8 17.8 0 0 1-4.823-5.814 17.6 17.6 0 0 1-1.965-9.58 17.7 17.7 0 0 1 3.778-9.62 17.9 17.9 0 0 1 9.088-6.098 17.96 17.96 0 0 1 9.096-.196 17.83 17.83 0 0 1 8.096 4.402 17.9 17.9 0 0 1 4.37 6.503 17.75 17.75 0 0 1 1.102 8.2 17.7 17.7 0 0 1-3.672 9.118c-2.188 2.807-5.228 4.944-8.622 6.023-.372.1-.7.328-.924.64-.576.798-.8 1.792-.894 2.755 3.727.841 7.706.682 11.302-.64a24.5 24.5 0 0 0 8.455-11.572 25 25 0 0 0 1.06-11.94 24.6 24.6 0 0 0-3.847-9.87C43.7 7.66 39.641 4.36 34.984 2.518 31.134.982 26.89.458 22.779.973m.185 7.709c-3.326.56-6.464 2.156-8.896 4.49-2.57 2.445-4.354 5.71-4.995 9.201a17 17 0 0 0 .686 8.813 17.2 17.2 0 0 0 5.725 7.89c.096.065.196.182.326.123a5.96 5.96 0 0 1 3.063.029 6.03 6.03 0 0 1 3.763 3.052 17.06 17.06 0 0 0 10.3-1.222 17.2 17.2 0 0 0 7.397-6.471 17.04 17.04 0 0 0 2.487-11.186 17 17 0 0 0-3.036-7.785 17.17 17.17 0 0 0-7.15-5.786 17.07 17.07 0 0 0-9.67-1.148m-9.99 33.316q.474.285.957.56c.793-1.085 2.114-1.77 3.463-1.732.652-.002 1.285.182 1.876.447.775.322 1.572.59 2.386.795-.954-1.435-2.64-2.354-4.367-2.342-1.699-.017-3.36.873-4.316 2.272m1.62.919c.951.475 1.914.927 2.894 1.339.284.126.623.235.763.54.24.449-.032 1.07-.533 1.182-.369.114-.7-.132-.999-.311-.9-.585-1.753-1.24-2.574-1.932-.384.89-.331 1.952.1 2.816.405.812 1.145 1.396 1.932 1.813 2.268 1.24 4.77 2.025 7.316 2.443 2.01.338 4.065.308 6.082.057 2.12-.27 4.208-.858 6.119-1.823 1.434-.714 2.755-1.643 3.95-2.708-3.23.891-6.667.975-9.944.287-3.433-.699-6.658-2.185-9.627-4.015-.684-.379-1.326-.891-2.12-1.01-1.253-.24-2.602.297-3.358 1.322m-1.926-.44c-.528 1.002-.746 2.168-.568 3.289.24 1.712 1.394 3.256 2.96 3.983 1.007.485 2.16.598 3.255.413-1.15-.494-2.316-.983-3.351-1.697-.693-.497-1.27-1.178-1.568-1.983-.398-1.043-.33-2.239.136-3.25-.287-.253-.57-.509-.864-.754m9.098.315c.644.355 1.302.682 1.961 1.006q.225-.31.506-.566c-.832-.086-1.65-.27-2.467-.44m4.193.514c-.613-.005-1.225.286-1.576.795a27 27 0 0 0 4.375 1.57c.098-.973.358-1.95.906-2.774-1.218.26-2.46.4-3.705.408m-3.66 9.824c.432.049.871.19 1.18.51.669.639.65 1.838-.045 2.45-.425.388-1.038.48-1.59.382.178.839.7 1.558 1.321 2.13a7.3 7.3 0 0 0 2.615 1.537c.604-.117 1.162-.448 1.693-.757 1.057-.674 2.065-1.637 2.326-2.912-.595.12-1.258-.031-1.678-.486-.639-.659-.59-1.854.122-2.442.339-.296.796-.406 1.237-.407-.173-.49-.346-.98-.46-1.487-1.982.2-3.992.167-5.957-.186a11 11 0 0 1-.763 1.668" fill="#002147"/><path d="M20.993 2.475c.251-.08.505-.15.76-.222-.192.99-.414 1.973-.591 2.964.128.575.323 1.132.476 1.702q-.334.096-.664.202c-.172-.503-.294-1.02-.448-1.53-.04-.178-.184-.299-.302-.426-.54-.55-1.06-1.115-1.602-1.662-.078-.086-.172-.166-.208-.28.224-.073.453-.133.678-.204.517.52 1.017 1.058 1.529 1.584.12-.71.261-1.416.372-2.128m10.608.381c.855-.177 1.807.27 2.165 1.076.452 1.025.109 2.318-.734 3.039-.547.476-1.368.568-2.028.283-.705-.284-1.169-1.012-1.19-1.763-.07-1.126.608-2.408 1.787-2.635m.085.637c-.65.205-1.014.88-1.126 1.514-.108.57.033 1.253.549 1.583.491.34 1.208.215 1.58-.246.465-.564.706-1.374.47-2.085-.19-.59-.88-.955-1.473-.766m-6.056.19c.422-.174.92.253.805.698-.07.443-.675.65-1 .337-.35-.278-.234-.902.194-1.035M13.82 5.314q1.442-.748 2.883-1.499l.276.546q-.561.287-1.118.582c.594 1.13 1.172 2.267 1.774 3.392q-.311.177-.63.341-.89-1.703-1.778-3.409-.56.298-1.126.587zm20.768 3.234c.748-1.283 1.506-2.558 2.26-3.837l2.126 1.251-.311.526c-.504-.302-1.012-.596-1.52-.895-.207.35-.41.706-.625 1.053.472.294.962.56 1.433.859q-.155.249-.302.501-.716-.417-1.43-.84-.513.868-1.024 1.737-.301-.183-.607-.355M11.379 7.037c.193-.138.382-.281.574-.42.884 1.188 1.796 2.354 2.69 3.536q-.282.215-.562.432c-.903-1.181-1.815-2.356-2.702-3.548m114.532.663c1.359-.278 2.872.036 3.908.99-.197.267-.417.515-.619.778-.595-.431-1.291-.746-2.03-.795-.639-.048-1.337.053-1.84.48-.487.402-.654 1.121-.434 1.706.133.33.402.582.693.774.973.626 2.126.917 3.069 1.594.62.442 1.116 1.104 1.23 1.87.13.88-.093 1.832-.687 2.507-.431.499-1.04.817-1.678.96-1.47.333-3.075-.068-4.237-1.023.195-.285.392-.57.578-.862.745.46 1.568.856 2.456.913.586.02 1.216-.072 1.691-.441.531-.413.721-1.148.614-1.791-.1-.537-.509-.951-.948-1.243-1.052-.693-2.341-.986-3.295-1.833-.968-.842-1.039-2.43-.307-3.444.432-.604 1.119-.986 1.836-1.14m40.307-.055c1.12-.138 2.304.097 3.232.757 1.293.895 1.991 2.447 2.123 3.982.158 1.734-.241 3.622-1.478 4.908-1.38 1.466-3.762 1.792-5.517.841-1.381-.728-2.25-2.19-2.504-3.7-.284-1.701-.025-3.569 1.016-4.98a4.54 4.54 0 0 1 3.128-1.808m-.341 1.16a3.04 3.04 0 0 0-1.611 1.066c-.571.712-.845 1.617-.936 2.513-.098.995-.009 2.028.382 2.956.278.668.726 1.277 1.328 1.686 1.167.817 2.907.712 3.94-.28.667-.63 1.025-1.52 1.187-2.408.176-1.044.163-2.141-.175-3.152-.249-.743-.698-1.435-1.341-1.893-.788-.573-1.839-.73-2.774-.487M64.723 7.804c.422-.001.845.005 1.268-.007.025 2.43-.005 4.861.015 7.292.002.627.143 1.299.603 1.757.64.644 1.623.813 2.493.687.718-.1 1.408-.527 1.724-1.193.236-.505.253-1.076.27-1.624.02-2.306-.006-4.611.015-6.917.417.008.834.005 1.252.005v4.771c-.017 1.057.046 2.12-.092 3.172-.092.725-.38 1.45-.93 1.95-.787.75-1.918 1.01-2.978.97-1.14-.03-2.331-.48-3.02-1.425-.512-.695-.606-1.59-.615-2.427-.012-2.338-.003-4.674-.005-7.011m11.744 0q.654-.001 1.31.002c1.718 2.916 3.414 5.848 5.151 8.754.008-2.919-.02-5.838-.024-8.756.392 0 .787-.005 1.18.007-.015 3.554.007 7.11-.011 10.664-.446-.01-.891.002-1.336-.01q-2.55-4.37-5.128-8.722c.005 2.91.03 5.822.025 8.732-.39-.007-.779-.005-1.168-.004zm12.071 10.674q-.021-5.34 0-10.678c.424.01.85.004 1.275.005v10.667c-.425 0-.85-.005-1.276.005m4.111-10.673h1.337c1.04 3.14 2.074 6.28 3.117 9.42q1.596-4.715 3.206-9.422c.412.003.826 0 1.239.002-1.249 3.555-2.501 7.11-3.748 10.665q-.736.003-1.474.001c-1.223-3.556-2.453-7.11-3.677-10.666m11.801.003c1.932-.008 3.864.008 5.797-.007.013.357.01.715.004 1.071-1.513-.006-3.026 0-4.539-.003q-.003 1.76-.001 3.52c1.424.005 2.848-.01 4.273.008q-.015.507.001 1.015c-1.424.035-2.849.006-4.274.015-.003 1.315.006 2.63-.003 3.943 1.558.016 3.116.001 4.675.008q-.003.548-.001 1.094c-1.978 0-3.955.005-5.933-.003q.007-5.33.001-10.66m9.323 10.656c.022-3.555-.011-7.111.017-10.668 1.166.023 2.333-.014 3.498.033.732.038 1.507.208 2.053.732.883.8 1.118 2.15.736 3.25-.322.905-1.224 1.492-2.148 1.629.639.088 1.078.62 1.331 1.173.604 1.275 1.159 2.571 1.736 3.858-.441.001-.882-.005-1.323.006-.511-1.086-.96-2.2-1.481-3.282-.254-.51-.577-1.075-1.164-1.242-.647-.171-1.327-.108-1.988-.123l-.001 4.64c-.422 0-.845.006-1.266-.006m1.267-9.635v3.982c.809-.012 1.635.055 2.429-.147.505-.127.98-.434 1.242-.894a2.1 2.1 0 0 0-.05-2.153c-.345-.509-.97-.74-1.564-.77-.685-.039-1.372-.009-2.057-.018m18.424-1.023h1.285v10.666h-1.285zm4.155 0h7.62v1.063c-1.054-.001-2.108.002-3.161-.001-.004 3.2-.001 6.403-.002 9.604-.424 0-.848-.007-1.27.008-.033-3.205.004-6.411-.019-9.616-1.056.011-2.112.002-3.168.005zm9.112-.001c.491 0 .982-.008 1.474.006.856 1.666 1.743 3.314 2.605 4.977.893-1.64 1.708-3.323 2.567-4.983q.695-.002 1.393 0l-3.32 6.322c-.076.125-.072.272-.071.413.005 1.31.001 2.62.003 3.93-.425 0-.85.006-1.273-.005.002-1.403.022-2.808-.01-4.21-1.097-2.161-2.257-4.294-3.368-6.45m28.388.001h5.669v1.063h-4.395q.002 1.76-.001 3.519c1.378.007 2.756-.01 4.134.007q-.013.511-.001 1.023c-1.377.02-2.755.002-4.132.009v5.045h-1.274zM8.047 10.53c.118-.806.854-1.436 1.646-1.542q.068.3.121.6c-.496.084-1.01.413-1.11.936-.068.328.269.632.59.547.596-.126 1.123-.532 1.754-.51.756.005 1.368.81 1.171 1.54-.207.787-.96 1.336-1.743 1.46a32 32 0 0 0-.149-.595c.477-.133 1.024-.349 1.199-.858.158-.37-.157-.843-.568-.798-.621.052-1.143.492-1.774.508-.66.027-1.245-.634-1.137-1.287m32.092-1.119c.382-.209.902.115.881.552.02.462-.565.78-.942.51-.395-.23-.358-.878.061-1.062m3.381 2.658c.44-.118.921-.121 1.346.055.92.364 1.486 1.485 1.15 2.432-.32.912-1.216 1.546-2.148 1.706a1.94 1.94 0 0 1-1.902-.782c-.368-.491-.5-1.161-.298-1.746.276-.829 1.03-1.43 1.853-1.665m.282.655c-.687.208-1.371.706-1.538 1.44-.17.717.46 1.502 1.207 1.44.73-.06 1.453-.475 1.825-1.115.322-.547.122-1.305-.405-1.647-.319-.212-.73-.217-1.089-.118m-23.576-.385.207-.022c.498.675.992 1.356 1.45 2.06-.233.055-.469.1-.703.152.261.466.588.891.883 1.337.442-.322.86-.68 1.256-1.056-.18-.094-.366-.175-.54-.279.019-.128.146-.184.236-.255q.657-.453 1.308-.917c.12-.088.251-.17.407-.17-.337 1.127-.727 2.237-1.085 3.358-1.11-.379-2.302-.408-3.464-.419-1.05.033-2.131.062-3.13.422q-.565-1.67-1.096-3.35c.29-.018.488.227.72.36.441.328.955.57 1.341.967-.187.088-.38.165-.55.285.343.39.758.709 1.141 1.058.312-.439.65-.867.891-1.352-.231-.043-.462-.081-.69-.14.44-.701.951-1.356 1.418-2.039m10.041 1.377c.331-.468.666-.934.994-1.405.312-.007.405.34.578.537.336.524.77.988 1.04 1.55-.226.04-.451.077-.676.123.24.477.585.89.87 1.34.452-.307.859-.68 1.262-1.049a10 10 0 0 0-.565-.28c.189-.257.487-.395.736-.585.358-.24.694-.516 1.067-.735.045 0 .135-.004.18-.006-.358 1.115-.731 2.226-1.092 3.34-1.088-.371-2.255-.404-3.394-.419-1.077.025-2.18.064-3.207.42-.364-1.115-.734-2.227-1.091-3.342.328-.019.554.275.821.422.406.308.898.517 1.232.908q-.287.122-.563.268c.37.348.734.707 1.128 1.028l.07-.006c.313-.4.572-.84.868-1.253-.205-.123-.45-.13-.679-.17.086-.26.269-.466.421-.686m-24.814.253c.206-.324.527-.612.928-.627.733-.085 1.536.593 1.332 1.367.347-.173.74-.094 1.11-.068.424.039.85.069 1.275.113q-.201.316-.372.65c-.587-.029-1.172-.14-1.76-.117-.376.023-.518.418-.677.696.546.29 1.085.59 1.628.887q-.166.309-.343.613-1.95-1.072-3.914-2.121c.258-.468.505-.943.793-1.393m.652.176c-.267.238-.405.581-.594.879q.627.342 1.258.68c.164-.314.377-.625.392-.99.01-.497-.65-.884-1.056-.57m41.528 2.374c.094.25.178.502.263.754-.378.479-.826.901-1.18 1.4.594.125 1.187.256 1.777.403.069.239.147.475.224.712q-1.223-.302-2.45-.59c-.575.694-1.164 1.377-1.728 2.08a6 6 0 0 1-.258-.765c.446-.497.875-1.006 1.304-1.517-.64-.163-1.293-.277-1.93-.452-.142-.21-.174-.487-.267-.724.888.198 1.767.443 2.658.623.511-.656 1.071-1.273 1.587-1.924m-29.145.465a14.6 14.6 0 0 1 3.314-.05c.486.06.988.112 1.437.32.14.043.266.241.094.334-.294.195-.658.245-.999.31a14.3 14.3 0 0 1-3.376.077c-.492-.053-.995-.109-1.454-.3-.125-.043-.197-.157-.279-.25.341-.316.826-.363 1.263-.441m9.943.29c.478-.238 1.024-.284 1.547-.348 1.205-.1 2.432-.097 3.626.125.312.08.707.12.873.44-.377.309-.876.366-1.34.44a14.2 14.2 0 0 1-3.737-.028c-.36-.073-.76-.111-1.06-.345-.127-.087-.01-.24.09-.284m-25.488 3.11c.244-.822.493-1.643.73-2.465q.298.074.592.155l-.542 1.787c.399.102.794.215 1.191.325.16-.542.283-1.094.477-1.624q.275.087.552.17l-.456 1.612c.45.117.897.245 1.345.367.161-.585.334-1.166.492-1.752q.3.076.6.157c-.218.82-.45 1.634-.673 2.45-1.434-.4-2.873-.784-4.308-1.182m14.54-.565h5.035c.674.012 1.398-.001 1.995.358.685.405.977 1.233.98 1.994.01 3.077 0 6.154.006 9.23a4 4 0 0 1-.035.58c-.19-.283-.127-.67-.361-.936-.4-.537-1.135-.587-1.75-.605q-2.933-.008-5.867-.001c-.007-3.54 0-7.08-.003-10.62m.646 1.686c.047.05.14.154.185.206.03.342.021.687.008 1.031.02.144-.146.191-.22.28.427-.013.902.077 1.285-.163.444-.263.465-1.038-.03-1.258-.388-.158-.82-.081-1.228-.096m2.262.036c-.567.233-.623 1.153-.064 1.429.503.288 1.212-.11 1.174-.703.057-.575-.61-.98-1.11-.726m1.25-.035c.076.09.254.136.227.284a8 8 0 0 1-.054.934c.006.142-.131.21-.213.302.216.002.435.009.648-.037l-.236-.134c-.035-.295-.012-.594-.001-.89.186.329.28.7.444 1.04.028-.005.084-.011.112-.014.173-.369.274-.768.465-1.128q.01.497.002.997l-.223.157c.271.01.542.009.813.008l-.196-.21a9 9 0 0 1-.032-1.11l.206-.203H23q-.178.462-.353.924-.214-.459-.414-.924-.297 0-.591.005m2.078 0c.295.148.2.489.217.754-.017.269.078.606-.212.764l.816.002-.195-.206a8 8 0 0 1-.002-1.114l.2-.18a6 6 0 0 0-.824-.02m-4.646 2.805c.083.094.253.14.26.283.033.354.01.71-.008 1.064l-.21.167c.22.014.44.013.66-.018-.47-.127-.23-.697-.288-1.044.309.34.573.717.861 1.075l.192.036c.057-.473-.036-.959.068-1.424l.208-.065c-.208-.12-.453-.068-.68-.07.417.146.25.623.285.957-.277-.31-.527-.64-.788-.961zm1.791.105c.394.381.361 1.054.713 1.448l.104-.024c.277-.498.307-1.157.774-1.529h-.635l.2.178c-.075.277-.176.546-.275.815-.145-.27-.242-.561-.346-.847l.222-.139c-.272-.007-.544-.007-.815-.017zm1.865-.051c-.224.128-.291.482-.095.664.158.133.357.204.515.337.108.143.025.383-.167.385-.248-.021-.33-.297-.515-.423.016.155.044.308.073.46.23.064.488.127.714.014a.477.477 0 0 0 .217-.668c-.149-.219-.452-.25-.613-.452-.094-.172.132-.358.29-.26.119.096.207.225.31.338l-.04-.434c-.227-.036-.48-.096-.689.039m-3.846 2.771.228.146q.02.594.002 1.189l-.23.15c.28.025.561.022.843.021-.064-.075-.153-.133-.196-.224-.029-.375-.008-.752-.005-1.127q.111-.085.221-.173a10 10 0 0 0-.863.018m.93-.007.218.142c.016.397.04.798-.003 1.193-.055.04-.165.117-.22.155.398.042.797.013 1.196.029q.055-.23.093-.463c-.162.214-.346.405-.642.324-.008-.375-.026-.751 0-1.126-.004-.134.143-.187.219-.272-.287.008-.575.006-.86.018m1.312-.003.22.164c.005.378.025.758-.002 1.136l-.218.211a72 72 0 0 0 1.198.003q.042-.226.076-.454c-.16.212-.342.4-.633.332-.012-.376-.03-.754-.005-1.13-.006-.135.14-.191.217-.277-.285.008-.57.007-.854.015m1-.012c.094.091.216.167.264.297.172.405.316.823.474 1.235l.178.028c.177-.422.32-.86.514-1.274.055-.125.178-.197.274-.286q-.33.006-.663.003l.23.166-.291.86c-.123-.284-.23-.573-.342-.861l.209-.165c-.284.001-.566.004-.848-.003m4.88-6.786c.536-.452 1.273-.492 1.942-.507 1.779-.006 3.558-.001 5.337-.002.004 3.536-.007 7.073.004 10.609-1.719.018-3.438.002-5.159.008-.66.01-1.353-.049-1.98.204a1.21 1.21 0 0 0-.742.95c-.05.113 0 .302-.143.355a2 2 0 0 1-.034-.36c.006-3.106 0-6.212.003-9.318-.004-.708.2-1.478.772-1.94m.229 1.176q.12.091.22.202a7 7 0 0 1-.05 1.013c.007.14-.127.211-.208.306h.597l.005-.067-.198-.11c-.03-.295-.01-.592.005-.887.18.33.276.696.438 1.035l.113-.003c.172-.37.277-.769.466-1.131q.012.498.001.998l-.219.157q.408.01.814.007c-.05-.053-.15-.157-.198-.21a10 10 0 0 1-.036-1.116l.22-.194-.614-.002q-.174.449-.343.9c-.17-.284-.29-.592-.417-.895q-.3-.006-.596-.003m2.088-.001.188.217q.035.547-.001 1.096l-.203.207.834.002c-.05-.052-.153-.153-.204-.205a8 8 0 0 1-.002-1.108l.203-.21zm.855.005q.136.095.25.213c.042.304.026.612.016.918.025.171-.074.292-.226.36.227.04.46.038.685-.016l-.28-.102a6 6 0 0 1-.025-.919c.215.235.406.492.6.746.125.153.234.363.463.358.01-.427-.015-.855.018-1.28-.012-.146.15-.194.23-.283q-.338-.002-.673.004.129.09.255.188c.043.255.027.517.034.775-.274-.318-.527-.653-.798-.974zm1.62 1.516q.318 0 .635-.009l-.224-.144.096-.305.38-.007q.055.16.108.322l-.196.134c.273.011.547.01.821.007-.093-.093-.217-.165-.26-.296-.174-.41-.29-.843-.47-1.251l-.11.01c-.328.473-.316 1.156-.78 1.539m-3.516 1.235q-.007.26-.009.52c.104-.187.23-.363.464-.372q.017.628-.003 1.257l-.246.154q.463.03.927-.002l-.263-.15q-.021-.63-.001-1.26c.23.005.351.192.468.363a6 6 0 0 0-.019-.492c-.437.036-.884.074-1.318-.018m1.46.057q.112.089.227.175c-.007.38.023.762-.015 1.141l-.194.197c.277.004.554.006.832-.008l-.217-.163c-.005-.358-.02-.716 0-1.073-.015-.138.14-.188.211-.276-.281 0-.563-.001-.843.007m1.39.067c-.41.234-.514.85-.214 1.212.272.336.828.36 1.145.073.332-.306.34-.905-.002-1.207-.25-.223-.643-.235-.929-.078m-3.23 2.732c.12.097.282.189.23.372-.043.388.057.845-.226 1.159.202-.005.41.014.607-.047-.438-.098-.2-.651-.226-.963.21.322.28.71.47 1.043.255-.374.346-.828.535-1.235-.053.393.182.913-.186 1.197q.398 0 .795-.005l-.195-.165c-.065-.39-.038-.79-.054-1.184q.12-.086.242-.17-.319 0-.636.006c-.113.306-.231.61-.344.914-.154-.302-.28-.617-.425-.923q-.293.005-.587 0m2.073.002.213.177c.005.377.025.755-.005 1.133l-.237.205q.626.016 1.254.004.038-.232.068-.463c-.099.103-.184.216-.283.318a3 3 0 0 1-.378.024 13 13 0 0 1-.014-.625c.203-.005.342.122.446.28q.01-.308.005-.615c-.116.14-.258.239-.447.245q-.005-.279-.007-.556c.259-.06.427.104.556.304l-.005-.422c-.39-.012-.778-.008-1.166-.01m1.285 1.521q.297.003.595 0l-.19-.166.094-.294.389.003c.076.162.087.327-.04.468.255-.008.51-.01.766-.02-.107-.092-.239-.171-.279-.316-.17-.42-.299-.856-.478-1.273-.453.425-.367 1.191-.857 1.598" fill="#002147"/><path d="M13.765 20.519c.242-.352.838-.363 1.063.012.15.313.533.305.817.413l-.003-.335h.734c.003 3.739 0 7.48.002 11.22 2.705-.003 5.409 0 8.113 0 .124.315.285.665.633.782a2.37 2.37 0 0 0 1.487.004c.354-.113.521-.466.645-.787 2.713-.005 5.427.009 8.14-.006-.01-3.738-.002-7.476-.004-11.214h.732q.003 5.976.001 11.954c-2.806.001-5.612-.004-8.418.001-.453.803-1.47 1.002-2.315.864a1.83 1.83 0 0 1-1.354-.864c-2.797-.001-5.593-.006-8.39.002q-.007-.399-.005-.798-.338.135-.666.291c-.105.327-.408.612-.772.544-.461-.049-.735-.633-.47-1.016.194-.33.632-.378.952-.213q.481-.2.958-.412l-.002-.873q-.326.098-.648.203c-.133.297-.434.548-.778.47-.48-.065-.723-.708-.402-1.073.224-.304.666-.309.961-.107q.434-.126.866-.258.002-.45.002-.903-.331.054-.662.112c-.164.25-.442.468-.76.39-.482-.07-.714-.717-.39-1.079.25-.326.736-.294 1.024-.039q.394-.061.787-.132v-.92q-.345.01-.69.026c-.246.338-.78.444-1.075.112-.364-.348-.15-1.033.347-1.113.278-.079.508.115.725.257.23.01.462-.01.693-.018q0-.499.002-.996a24 24 0 0 0-.738-.032c-.185.174-.427.329-.694.258-.432-.072-.679-.62-.44-.99.192-.36.732-.446 1.017-.147.217.24.568.133.853.173v-.917c-.27-.05-.538-.102-.809-.143-.201.144-.455.264-.703.168-.406-.116-.598-.65-.356-.995.213-.358.783-.42 1.044-.084.178.283.54.235.825.303l-.002-.904c-.29-.08-.574-.188-.868-.253-.227.05-.455.198-.692.092-.416-.127-.59-.691-.317-1.03" fill="#002147"/><path d="M18.732 21.616c.613-.058.711.806.395 1.172-.084.108-.35.191-.381.001-.041-.39-.013-.783-.014-1.173m1.846.009c.235-.134.424.16.452.361.043.296.093.674-.132.909-.245.157-.461-.139-.495-.357-.053-.3-.09-.7.175-.913m11.757.792q.081-.216.168-.43l.142.447zm12.417.413c1.482-.116 2.962-.253 4.445-.358.049.818.13 1.634.192 2.451l-.608.05q-.072-.876-.14-1.754c-.407.029-.812.07-1.22.087.021.556.086 1.11.125 1.664l-.596.046c-.04-.551-.088-1.1-.133-1.65q-1.005.088-2.011.16zm-42.251-.278c1.467.586 2.928 1.188 4.393 1.78q-.012.367-.03.735-2.254.678-4.51 1.345.001-.366-.002-.731c1.206-.348 2.418-.675 3.624-1.022-1.142-.508-2.331-.906-3.491-1.373zm28.893 1.875c.14-.08.303.018.368.149.135.262.133.574.087.86-.019.156-.125.322-.302.316-.261-.061-.338-.359-.362-.59-.015-.252-.015-.57.21-.735m14.64 2.456c1.086-.283 2.442.119 2.954 1.178.388.825.134 1.918-.623 2.445-1.005.673-2.485.46-3.317-.398-.52-.555-.62-1.42-.332-2.109.23-.553.74-.971 1.318-1.116m.293.667c-.609.079-1.148.599-1.14 1.232-.047.593.458 1.054.978 1.232.581.213 1.28.259 1.824-.08.582-.352.749-1.236.306-1.762-.468-.56-1.274-.722-1.968-.622m-14.538.498q.076-.229.158-.458.073.224.15.447zm41.38-.122c3.274-.341 6.71.61 9.21 2.786a11.2 11.2 0 0 1 3.197 4.61c1.226 3.356.86 7.271-1.015 10.32-1.315 2.158-3.384 3.83-5.75 4.707-3.746 1.395-8.188.9-11.453-1.438a11.2 11.2 0 0 1-4.431-6.658c-.778-3.458-.004-7.284 2.24-10.057 1.937-2.44 4.911-3.975 8.002-4.27m.275 1.123a6.9 6.9 0 0 0-3.418 1.398c-1.233.956-2.114 2.304-2.685 3.741-.782 1.98-1.04 4.138-.929 6.255.093 1.78.45 3.57 1.236 5.18.662 1.363 1.669 2.586 2.982 3.364 1.433.866 3.17 1.147 4.82.95a6.9 6.9 0 0 0 3.54-1.474c1.215-.977 2.076-2.335 2.632-3.78.787-2.055 1.017-4.294.863-6.479-.13-1.791-.536-3.588-1.387-5.18-.713-1.333-1.779-2.506-3.13-3.209-1.377-.732-2.986-.95-4.524-.766m71.86-1.113c3.344-.372 6.867.611 9.394 2.866a11.2 11.2 0 0 1 3.052 4.404c1.336 3.528.89 7.698-1.224 10.83-1.524 2.279-3.906 3.946-6.548 4.651-3.655.994-7.793.288-10.793-2.067-2.342-1.806-3.896-4.577-4.24-7.513-.426-3.37.584-6.945 2.908-9.456 1.908-2.11 4.629-3.425 7.451-3.715m.365 1.112a6.9 6.9 0 0 0-2.938 1.054c-1.284.825-2.247 2.077-2.892 3.447-.832 1.771-1.193 3.736-1.228 5.683-.026 2.023.251 4.08 1.054 5.95.616 1.436 1.584 2.754 2.897 3.624 1.249.841 2.77 1.223 4.268 1.19 1.439-.017 2.887-.443 4.061-1.291 1.327-.946 2.274-2.344 2.88-3.841.835-2.075 1.087-4.35.941-6.572-.123-1.823-.53-3.654-1.398-5.273-.704-1.315-1.75-2.471-3.075-3.177-1.386-.75-3.015-.98-4.57-.794M2.616 28.594c1.47-.208 2.936-.437 4.405-.646l.1.699c-1.466.22-2.933.441-4.402.651zm84.737-.364 9.89.002-.003.819c-.71.146-1.419.294-2.129.434-.179.046-.391.074-.503.238-.044.212.109.39.214.557 1.707 2.435 3.404 4.877 5.114 7.31.064.172.219.08.277-.04 1.753-2.45 3.511-4.896 5.26-7.348.148-.165.227-.468-.05-.547-.748-.26-1.532-.404-2.298-.605l-.001-.82h7.949l-.003.824c-.889.246-1.808.392-2.675.713-.756.28-1.23.959-1.703 1.569q-2.944 3.704-5.883 7.412l6.998 9.22c.377.548.836 1.074 1.478 1.307.765.28 1.57.432 2.351.66q-.001.405.004.813c-3.297.01-6.595 0-9.891.004q0-.407-.003-.812c.831-.195 1.683-.303 2.501-.545.292-.095.139-.425.007-.592-1.62-2.29-3.247-4.574-4.87-6.861-.276-.377-.526-.773-.828-1.129-1.745 2.335-3.424 4.722-5.143 7.077-.255.38-.568.722-.777 1.13-.089.242.222.332.392.391.693.188 1.394.338 2.088.525 0 .273 0 .547-.01.82-2.646-.008-5.29-.005-7.936-.002a40 40 0 0 1-.002-.82c.749-.183 1.498-.363 2.242-.565.594-.162 1.148-.489 1.54-.97 2.29-2.855 4.56-5.728 6.854-8.58-2.1-2.817-4.228-5.614-6.34-8.423-.468-.607-.884-1.323-1.627-1.63-.8-.323-1.655-.48-2.482-.716a59 59 0 0 1-.002-.82m27.347.003c5.675-.005 11.349-.001 17.024-.002v5.634h-.941l-1.074-3.423c-.112-.347-.258-.714-.566-.934-.276-.197-.629-.212-.955-.21-2.307.008-4.614-.007-6.92.008.009 3.229 0 6.457.003 9.685h4.871c.47-.009.988.059 1.407-.208.363-.231.53-.652.645-1.049q.262-.903.527-1.806.464.003.931-.005c.018 2.503.002 5.006.008 7.51q-.47 0-.936.003c-.196-.748-.377-1.5-.568-2.25-.083-.327-.225-.66-.506-.865-.295-.229-.683-.265-1.043-.267h-5.336c.002 2.765-.003 5.53.003 8.295-.032.427.233.855.663.952.941.23 1.893.415 2.837.634q-.002.402.011.808c-3.361.021-6.722.003-10.083.01l-.001-.817q1.063-.254 2.122-.512c.327-.09.69-.167.929-.428.198-.222.203-.539.206-.82-.003-5.839.003-11.678-.002-17.517a.905.905 0 0 0-.647-.95c-.858-.264-1.74-.438-2.608-.663zm46.373-.002h8.776c1.779 0 3.598-.027 5.321.486 1.703.494 3.137 1.805 3.805 3.445.621 1.471.577 3.221-.191 4.63-.782 1.474-2.222 2.497-3.766 3.052-.387.154-.804.218-1.181.393.801.427 1.345 1.171 1.905 1.86 1.644 2.094 3.228 4.233 4.837 6.352.369.49.909.849 1.512.973.776.165 1.55.342 2.325.512q-.002.405.006.813-2.771.014-5.541-.001c-.604-.002-1.024-.497-1.35-.943q-2.623-3.666-5.242-7.334c-.525-.705-1.107-1.499-2.019-1.697-.863-.17-1.749-.057-2.622-.094q-.008 3.845-.001 7.689c-.028.431.254.851.686.94.935.225 1.879.413 2.816.628l-.002.82q-5.034-.007-10.068 0a20 20 0 0 1-.005-.82c.869-.224 1.755-.39 2.613-.66a.89.89 0 0 0 .637-.914c.007-5.902.004-11.805.002-17.707.031-.422-.226-.83-.641-.945-.858-.262-1.742-.438-2.611-.66a74 74 0 0 1-.001-.818m6.572 1.069c.004 3.441-.011 6.883.007 10.324.979-.015 1.959.004 2.938-.01.972-.016 1.968-.168 2.835-.63a3.8 3.8 0 0 0 1.586-1.59c.491-.921.639-1.984.644-3.017.006-1.12-.3-2.264-.98-3.165-.784-1.052-2.035-1.706-3.332-1.84-1.229-.128-2.466-.052-3.698-.072m18.585-1.069h8.588c2.121.003 4.269-.056 6.354.404 1.716.353 3.354 1.113 4.687 2.257 2.271 1.916 3.538 4.836 3.741 7.768.191 2.842-.398 5.851-2.173 8.14-1.037 1.341-2.458 2.363-4.025 2.996-1.664.648-3.461.848-5.232.93-3.977.06-7.957.006-11.934.03a19 19 0 0 1-.005-.822c.845-.21 1.698-.392 2.536-.63.428-.103.75-.495.715-.943.008-5.842 0-11.684.004-17.527-.001-.296-.004-.635-.221-.863-.229-.233-.558-.313-.86-.394-.726-.173-1.449-.356-2.175-.527zm6.573 1.068v19.344c.009.274-.008.586.17.817.202.23.538.218.822.23 1.118-.005 2.236.008 3.355-.01 1.428-.04 2.887-.177 4.218-.736 1.375-.569 2.46-1.697 3.168-2.987.842-1.546 1.194-3.31 1.307-5.054.104-1.794-.001-3.615-.456-5.357-.396-1.494-1.089-2.94-2.173-4.056a6.5 6.5 0 0 0-3.461-1.896c-2.289-.45-4.634-.246-6.95-.295M3.246 31.939c1.404-.481 2.802-.98 4.204-1.469q.12.316.234.637c-.815.983-1.611 1.98-2.433 2.958a169 169 0 0 1 3.077-1.22q.104.309.217.616c-1.377.543-2.769 1.05-4.143 1.603a7 7 0 0 1-.246-.65c.809-.971 1.606-1.952 2.411-2.927-1.035.35-2.062.724-3.096 1.076zm40.606-.029c1.351.6 2.698 1.213 4.046 1.822-.281.596-.472 1.248-.879 1.776-.523.645-1.679.415-2.005-.319-.075-.165-.078-.349-.095-.526-.758.23-1.566.086-2.346.129.098-.225.197-.449.288-.675.582-.045 1.168.025 1.748-.045.387-.044.508-.467.64-.77-.564-.244-1.12-.506-1.681-.754zm1.633 2.657c.03.495.702.809 1.089.492.252-.252.351-.607.51-.917-.423-.215-.861-.393-1.291-.59-.131.325-.327.65-.308 1.015m-20.467 1.025c.255-.34.47-.71.75-1.03.237-.074.32.181.44.327.375.558.795 1.085 1.151 1.654-.107.219-.468.12-.67.233.303.444.574.912.924 1.321.407-.348.824-.682 1.22-1.042-.179-.118-.374-.207-.567-.296.376-.404.888-.65 1.318-.99.208-.117.383-.361.642-.34-.291 1.128-.726 2.22-1.055 3.339-1.066-.34-2.195-.399-3.305-.411-1.114.012-2.246.07-3.315.411-.33-1.045-.68-2.084-1.02-3.126-.07-.1-.014-.318.134-.199.633.416 1.27.828 1.877 1.282-.193.112-.39.216-.58.331.38.352.766.697 1.151 1.044.338-.419.622-.876.915-1.324a4.5 4.5 0 0 0-.69-.149c.168-.38.453-.69.68-1.035m-16.97.26c.4-.267.901-.479 1.382-.299.76.28 1.283 1.107 1.227 1.913-.033.475-.417.813-.774 1.077q-1.166.842-2.344 1.668a44 44 0 0 0-.401-.585c.731-.516 1.457-1.039 2.188-1.556.255-.195.578-.38.656-.716.084-.566-.389-1.203-.987-1.175-.228.026-.421.163-.61.28q-1.172.798-2.345 1.59l-.399-.573c.803-.539 1.598-1.093 2.407-1.624m32.801 1.411c.316-.447.667-.867 1.01-1.294 1.156.927 2.317 1.85 3.474 2.777-.48.572-.892 1.218-1.49 1.678-.576.454-1.409.45-2.046.129-.686-.347-1.262-.997-1.365-1.777-.084-.539.112-1.077.417-1.513m.319.667c-.223.464-.082 1.026.244 1.404.407.483 1.033.889 1.692.742.607-.136.939-.711 1.324-1.144-.842-.678-1.68-1.361-2.536-2.02a4.1 4.1 0 0 0-.724 1.018m-16.687 1.225c1.18-.1 2.376-.095 3.543.11.294.066.615.111.856.306.142.11-.019.263-.13.309-.493.223-1.04.273-1.572.33-1.166.094-2.348.086-3.503-.117-.297-.07-.629-.117-.863-.33-.091-.154.09-.253.206-.306.463-.192.968-.248 1.463-.303m-1.644 7.78c.37-.227.897.062.91.492.05.451-.486.811-.884.588-.432-.19-.448-.87-.026-1.08m6.233 1.008c.406-.231.955.149.885.61-.03.451-.617.711-.97.426-.365-.243-.314-.855.084-1.036" fill="#002147"/></svg>