<svg height="100%" viewBox="0 0 208 89" fill="none" xmlns="http://www.w3.org/2000/svg"><path d="M144.78 74.9v-3.7c15.95.04 31.9 0 47.84.03q.42-.01.84-.08l.02-13.75c-.18-.04-.36-.12-.54-.12q-15.47-.01-30.95.01l-.02-.69q.04-7.14-.01-14.27l.5-.02c9.35.07 18.7.02 28.05.02.09-.3.15-.5.15-.8-.07-4.13-.02-8.26-.01-12.38-.3-.09-.55-.15-.85-.15-9.28.07-18.56 0-27.84.02V15.29c.56.06.33.27.82.27h28.9c.68-.44.55-.17.57-.74.16-4.1-.02-8.45-.03-12.57 0-.13.23-.34.35-.4 4.59-.1 8.96.26 13.56.07.14 0 .62.17.75.26q-.04 36.17 0 72.33c-.09.12.01 13.97.01 13.97h-.76c-20.45 0-40.9-.03-61.36.02v-2.78" fill="#2C5273"/><path d="M153.85 76.03c1.81-1.55 4.48-1.6 6.64-.84l-.2.99a6.3 6.3 0 0 0-3.52-.44 4.1 4.1 0 0 0-2.98 2.1 5.8 5.8 0 0 0-.16 4.66 4 4 0 0 0 3.25 2.44c.96.1 1.96.07 2.87-.28v-3.7l-2.42-.01v-.93h3.54v5.32c-1.66.6-3.53.82-5.25.32a4.8 4.8 0 0 1-3.25-3.15c-.7-2.2-.34-4.92 1.48-6.48m-9.08-1.16h5.56v.93h-4.43v3.9q2.1.02 4.17 0v.94h-4.16v4.2c1.54.03 3.08 0 4.63.02v.92h-5.77zm17.63 0 1.32.01q1.46 2.65 2.96 5.27l.11-.02 3.05-5.26h1.26c-1.26 2.1-2.57 4.19-3.81 6.3-.05 1.54 0 3.08-.02 4.62h-1.12c-.02-1.55.03-3.1-.03-4.65-1.21-2.1-2.48-4.18-3.72-6.27m10.13 0h5.56v.93h-4.42v3.9h4.17v.94h-4.17v4.21h4.63v.93h-5.77zm6.75 0h7.74v.95h-3.3v9.96h-1.13v-9.96h-3.3zm9 0h5.56v.93h-4.43v3.9h4.17v.94h-4.17c.02 1.41-.02 2.82.02 4.23 1.54-.03 3.07 0 4.61-.01v.92h-5.76zm8.2 0h1.6c1.2 3.14 2.45 6.27 3.57 9.44 1.14-3.17 2.43-6.3 3.65-9.44h1.53l.37 10.91h-1.12q-.21-4.87-.26-9.77c-1.23 3.26-2.5 6.5-3.72 9.75-.32 0-.68.1-.96-.03q-1.9-4.83-3.65-9.72-.1 4.9-.28 9.77h-1.11z" fill="#fff"/><path d="m150.2 85.2-.17-.5zM13.24 71.72c-.1-.05-.2-.15-.31-.16a51 51 0 0 1-7.54-1.12c-1.28-.3-2.57-.71-3.91-1.03.48-5.1 1.1-10.26 1.64-15.37 1.12.73 2.92 1.62 4.15 2.05a74 74 0 0 0 6.28 1.87c1.02.25 3.01.41 4.09.5.12 0 .2.13.31.14 2.48.23 5.06.18 7.54.01.68-.05 2.46-.44 3.14-.64a11 11 0 0 0 2.52-1.24 6 6 0 0 0 1.76-2.01c.53-1 .58-2.01.64-3.14.12-2.4-1.55-4.16-3.34-5.45-.82-.58-3.1-1.57-4.09-1.91-2.87-.99-5.87-1.77-8.8-2.7a39 39 0 0 1-5.96-2.41c-1.3-.69-2.59-1.4-3.77-2.27a19 19 0 0 1-3.5-3.48c-.77-.98-1.9-3.2-2.24-4.4a26 26 0 0 1-.9-10.05c0-.12.13-.2.15-.32.24-1.34.35-2.48.78-3.77.46-1.4 1.39-2.85 2.15-4.08a14 14 0 0 1 3.24-3.52 26 26 0 0 1 5.66-3.44 38 38 0 0 1 5.65-1.86c1.66-.4 3.64-.76 5.34-.95 2.66-.3 6.15-.65 8.8-.37 2.56.28 5.28.26 7.85.67 2.32.38 4.94.97 7.23 1.56.52.12.7.38 1 .68-.33 4.57-.87 9.18-1.19 13.8-.25-.07-.51-.1-.75-.2a33 33 0 0 0-5.03-1.79c-1.46-.36-3.2-.54-4.71-.76-.12-.02-.2-.15-.32-.15-2.8-.21-5.67-.26-8.48-.05-1.17.08-2.31.36-3.46.64-.52.12-1.7.63-2.2.91-1.49.89-1.87 1.55-2.62 3-.05.1-.34 1.71-.33 1.88 0 .27.2 1.32.28 1.57.96 2.5 4.09 4.05 6.45 4.82 4.04 1.3 8.23 2.26 12.25 3.65 1.27.44 2.87 1.18 4.08 1.83 1.33.71 2.63 1.56 3.77 2.53a16 16 0 0 1 4.77 6.65c.4 1.1.74 2.3.93 3.46a35 35 0 0 1 .34 5.02c.02 1.75-.44 4.55-.92 6.28-.32 1.13-.8 2.38-1.32 3.46a19 19 0 0 1-2.67 3.77 22 22 0 0 1-8.35 5.67c-2.13.88-4.66 1.39-6.92 1.89-1.47.32-3.48.44-5.02.5-.12 0-.2.16-.32.17-4.87.22-9.07-.18-13.82-.34m40.93-.86c.11-4.76.03-9.5 0-14.26 0-.55 1.2-1.71 1.6-2.2C66.2 41.52 76.51 28.56 86.93 15.66c.13-.16-.33-.25-.5-.37l-31.27.03-.03-.5q.05-6.48 0-12.96h52.78c-.03 4.74.04 9.48-.01 14.22q.01.53-.34.94C96.44 30.48 85.2 43.86 74.05 57.3c.25.05.51.13.77.13 11.14.05 22.3 0 33.44-.02v13.57q-26.61-.08-53.23-.02a1 1 0 0 0-.4.15zm72.28 0c.1-18.26.06-36.52 0-54.78 0-.23-.14-.45-.27-.63a.4.4 0 0 0-.2-.15l-16.67.05q.04-6.55 0-13.1c0-.13.21-.35.32-.4l52.12.02-.01 13.44c-5.41-.01-10.83.02-16.24-.01q-.4.01-.79.05-.05.36-.06.73-.02 27.45.04 54.91-8.55-.1-17.1-.03-.35.01-.69.13zM3.4 74.91a6 6 0 0 1 3.2.26l-.23.98c-1.07-.48-2.41-.68-3.44-.03-.86.53-.96 1.88-.2 2.54 1.03.92 2.52 1.12 3.5 2.12 1.02.94 1.07 2.65.23 3.72a3.3 3.3 0 0 1-2 1.12A6 6 0 0 1 1 85.17q.08-.52.21-1.02a4.1 4.1 0 0 0 3.7.34c1.11-.5 1.39-2.2.47-3.02-1.07-.94-2.6-1.15-3.59-2.2-.8-.79-.9-2.13-.31-3.07a3 3 0 0 1 1.9-1.29m23.09 1.16c1.77-1.5 4.36-1.56 6.46-.82l-.2.96a6 6 0 0 0-3.42-.42c-1.21.2-2.34.94-2.9 2.04a5.6 5.6 0 0 0-.16 4.54 3.9 3.9 0 0 0 3.06 2.36c.97.11 1.98.08 2.9-.26v-3.61h-2.35v-.9l3.44-.01v5.18a8.3 8.3 0 0 1-5.22.28 4.7 4.7 0 0 1-3.05-3.04c-.68-2.14-.33-4.78 1.44-6.3m67.8-.27c-1.3.27-2.23 1.45-2.56 2.7a6 6 0 0 0 .55 4.73c.6.96 1.7 1.61 2.84 1.56a3.2 3.2 0 0 0 2.7-1.53c.73-1.16.92-2.6.74-3.94a4.4 4.4 0 0 0-1.6-3 3.3 3.3 0 0 0-2.67-.52m-.17-.92a4.6 4.6 0 0 1 4.07 1.08 5.7 5.7 0 0 1 1.58 3.98 6.4 6.4 0 0 1-1.2 4.19 4.7 4.7 0 0 1-6.66.4c-.9-.9-1.4-2.13-1.53-3.38a6.6 6.6 0 0 1 1-4.49 4.2 4.2 0 0 1 2.74-1.78m-85.57.06h6.79c-.03.33.08.7-.11 1l-5.7 8.7 5.93.02v.9H8.21c.03-.33-.08-.7.12-1l5.7-8.68-5.5-.02zm8.57 0h5.41v.9c-1.43.02-2.87-.01-4.3.02v3.78h4.06v.91H18.2l-.01 4.09c1.5.04 3 0 4.51.02v.9h-5.6zm18.76 0h5.41v.9l-4.3.01q.01 1.89-.01 3.78c1.35.03 2.71 0 4.07.01v.91h-4.06v4.1h4.5v.9h-5.6zm9.35.99v8.7c1.6.1 3.4.07 4.69-1.02 1.15-.95 1.46-2.55 1.34-3.97-.06-1.2-.57-2.43-1.61-3.08-1.3-.84-2.94-.75-4.42-.63m-1.1-.88c1.92-.08 3.98-.37 5.78.48a4.3 4.3 0 0 1 2.35 3.07c.27 1.43.2 3-.45 4.31a4.6 4.6 0 0 1-2.75 2.26c-1.59.53-3.29.38-4.93.36zm10.32-.11h1.09v10.62h-1.1zm6.32 0h7.53v.92h-3.21v9.7h-1.1v-9.7c-1.08-.01-2.16.03-3.23-.02zm9.23 0h1.1v5.76c0 1.07-.03 2.24.63 3.13.8 1.12 2.5 1.24 3.6.54.89-.6 1.18-1.73 1.2-2.74v-6.7h1.1v6.84c-.02 1.28-.52 2.68-1.68 3.36-1.58.93-3.91.77-5.12-.7a4.6 4.6 0 0 1-.83-2.82zm11.47.98v8.7c1.6.11 3.4.08 4.69-1.01 1.14-.96 1.46-2.55 1.34-3.97-.06-1.2-.57-2.43-1.61-3.08-1.31-.84-2.94-.75-4.42-.64m-1.1-.87c1.92-.09 3.97-.37 5.78.49a4.3 4.3 0 0 1 2.34 3.05c.28 1.44.22 3-.44 4.33a4.6 4.6 0 0 1-2.75 2.25c-1.6.53-3.3.38-4.94.36zm22.25-.11h1.54c1.17 3.06 2.38 6.1 3.47 9.19 1.1-3.1 2.36-6.13 3.55-9.2h1.49l.35 10.63h-1.1a304 304 0 0 1-.24-9.5l-3.62 9.48-.9.02c-1.22-3.16-2.46-6.31-3.57-9.51-.05 3.17-.17 6.33-.26 9.5h-1.09zm17-3.18 1.3-.01-1.79 2c-.21.25-.6.08-.88.13zm-.03 4.2-1.96 5.5h3.94zm-.58-1.01q.63-.03 1.26 0l3.95 10.61h-1.16l-1.18-3.19h-4.61l-1.16 3.2-1.1-.01q2.01-5.3 4-10.61m7.1-.01h1.26c1.87 3.07 3.82 6.1 5.53 9.27-.09-3.09-.05-6.18-.06-9.27h1.06v10.62l-1.27.01q-2.77-4.6-5.5-9.2c.06 3.06.05 6.13.05 9.2h-1.06zm9.51 0 1.28.01q1.43 2.57 2.89 5.13l.1-.03q1.5-2.56 2.97-5.11h1.23l-3.57 5.86q-.17.23-.16.51v4.25h-1.1V81.3c.04-.3-.17-.54-.3-.78z" fill="#2C5273"/></svg>