<svg height="100%" viewBox="0 0 244 61" fill="none" xmlns="http://www.w3.org/2000/svg"><path d="M6.044 24.019c-.552-.138-1.241-.138-1.793-.138-.138.138-.275.276-.275.413v.276H3.7c.138-.276.138-.69.138-.965 0-.276.138-.552.138-.965h.275v.275c0 .138 0 .414.138.414.552.138 1.241.414 1.793.414l.965.138c.828 0 1.517.413 1.93.965s.552 1.103.414 1.793c-.137.551-.275 1.103-.827 1.517-.69.413-1.517.551-2.206.275l-2.069-.413c-.965-.138-1.103-.138-1.24.276v.275h-.277c.138-.413.138-.69.276-1.103s.138-.69.138-1.103h.276v.414c0 .551.138.551.965.69l1.93.275c1.38.276 2.483 0 2.62-1.38.139-1.378-.689-1.93-2.068-2.205zm5.516-7.033c.276.138 1.103.69 1.379.69v.137c-.138 0-.552.138-1.793.276l-3.034.69-1.517.275c.138.138.276.276.414.276l1.655.965 1.655.828c.138 0 .275-.138.413-.276l.138-.276c.138 0 .138 0 .138.138-.276.276-.413.552-.551.965-.138.414-.276.552-.414.828h-.138l.138-.276c0-.138.138-.276 0-.414-.414-.414-.965-.69-1.517-.965L6.32 19.606c-.138-.138-.414-.138-.69-.138-.138 0-.414.138-.414.414l-.137.137c-.138 0-.138 0-.138-.137.275-.276.413-.69.551-.828 0-.138.138-.276.138-.413q1.242 0 2.482-.414l1.241-.276c.966-.138 1.517-.276 2.207-.552l-.276-.275-1.655-.966c-.551-.276-1.103-.551-1.655-.69q-.206 0-.413.415l-.138.137c-.138 0-.138 0-.138-.137.276-.276.414-.552.552-.966l.413-.827c.138 0 .138 0 .138.138v.138c-.138.275-.138.413-.138.551.414.414.966.69 1.517.966zm0-4.551c-.69-.69-.828-.827-1.242-.414l-.137.138-.138-.138.827-.827.828-.827.137.138-.138.137c-.275.414-.275.552.414 1.242l2.345 2.206c.689.69.827.69 1.24.414l.139-.138.137.138-.827.827-.827.828-.138-.138.138-.138c.275-.414.275-.552-.414-1.241zm3.171-3.585c-.413-.276-.69-.414-.965-.276h-.138c-.138 0-.138-.138-.138-.138l.828-.413c.275-.276.551-.414.965-.552l.138.138-.138.138c-.276.276-.276.276-.276.414s.414.413 1.103.827c.966.69 1.793 1.379 2.758 1.93-.138-.689-.275-1.654-.275-2.206 0-.551-.276-1.792-.414-2.206 0-.138 0-.276-.138-.276 0 0-.138 0-.414.138h-.276c-.137 0-.137-.138-.137-.138l.827-.414c.276-.138.414-.275.69-.551s.137.276.137.276l-.275.137c-.138.138-.276.276-.276.552 0 .827.138 1.517.276 2.344l.137 1.241c.138.966.276 1.931.414 2.483v.137h-.138c-.276-.275-.69-.551-.965-.827zm7.447-3.448c-.276-.965-.276-.965-.827-.965h-.138s-.138-.138 0-.276c.413-.138.69-.138.965-.276l1.655-.414c.413-.138.827-.275 1.103-.413.138.138.276.69.414 1.103h-.276c-.276-.414-.414-.69-.828-.69-.275 0-.551.138-.827.138l-.552.138c-.275.138-.275.138-.137.414l.551 1.655c0 .275.138.275.276.138l.552-.138c.275 0 .551-.138.689-.276.138 0 .138-.138.138-.414v-.414s.138-.137.276 0c.138.138.138.552.276.828.137.276.275.69.275.827 0 .138-.138.138-.276.138l-.275-.276c0-.138-.138-.275-.414-.275s-.414.137-.69.137l-.551.138c-.276.138-.276.138-.276.276l.276 1.241q.207.621.414.828c.137.137.275.137 1.103-.138.413 0 .69-.276 1.103-.414.138-.276.276-.69.414-.965h.275v1.379l-2.344.551-.827.276c-.414.138-.69.138-1.103.276-.138 0-.138-.138-.138-.276l.276-.138c.413-.138.413-.276.275-1.24zm7.171-1.378c0-.828 0-.966-.414-1.104h-.276v-.275h1.93c.553 0 .966 0 1.518.275.413.276.69.69.69 1.241 0 .69-.414 1.242-1.104 1.517v.276c.414.828 1.103 1.655 1.793 2.344.138.138.414.276.551.276v.138h-.413c-.828 0-1.241-.276-1.793-1.103-.276-.276-.552-.965-.827-1.38-.138-.275-.414-.275-.69-.275-.414 0-.414 0-.414.138v1.103c0 .966 0 1.103.552 1.103h.138v.276h-2.206v-.276h.275c.552 0 .552-.137.552-1.103V4.024zm.69 1.24v.276h.55c.277 0 .69 0 .966-.275.276-.276.552-.69.414-1.104 0-.827-.552-1.379-1.38-1.379-.55 0-.55 0-.55.276zm7.171 4.413c-.415-.138-.828-.414-1.242-.69 0-.413 0-.827.138-1.24h.276c-.138.69.276 1.516 1.103 1.792.551.276 1.103 0 1.379-.551V8.85c.138-.552 0-.966-.276-1.38l-.69-.827c-.413-.413-.551-1.103-.413-1.792.276-.828 1.241-1.241 2.068-.966h.138c.276.138.552.138.828.414.138 0 .138.138.276.138 0 .414 0 .69-.138 1.103h-.276c.138-.551-.276-1.24-.828-1.379-.413-.276-.965-.138-1.24.414 0 .138-.139.138-.139.276-.138.413 0 .965.414 1.24l.552.69c.551.552.69 1.241.551 1.93-.551.828-1.517 1.242-2.482.966m7.171-1.93c.551-.828.551-.965.138-1.241l-.138-.138.138-.138c.413.276.69.414.965.552l.965.551s0 .138-.138.138l-.138-.138c-.551-.276-.551-.138-1.103.69l-1.655 2.758c-.551.827-.551.965-.138 1.24l.138.139s0 .138-.138.138l-.965-.552c-.276-.276-.551-.414-.965-.552 0 0 0-.138.138-.138l.138.138c.413.276.551.138 1.103-.69zm3.724 7.309c-.69.689-.828.689-.414 1.103l.138.276-.138.137-.828-.827-.827-.965.138-.138.276.276c.414.275.551.275 1.24-.414l2.897-2.758c.276-.138.276-.138 0-.414l-.276-.414c-.276-.275-.552-.689-.965-.689-.276 0-.552 0-.69.138-.138 0-.138-.138-.138-.138.414-.138.828-.414 1.241-.69l.138.138s0 .414.276.69l2.482 2.62c.276.276.414.414.69.276l.138.138c-.414.276-.828.551-1.103.827-.138 0-.138-.138-.138-.138.138-.138.275-.413.275-.551-.137-.414-.275-.69-.551-.966l-.414-.413c-.138-.138-.138-.138-.414 0zm4.826 5.929c.138-.138.138-.138 0-.414l-.552-1.241c-.138-.276-.138-.276-.276-.276l-.965.138c-.276 0-.551 0-.69.138-.137 0-.137.138 0 .276l.139.276c0 .137-.138.137-.138.137s-.138-.413-.414-.827c-.276-.413-.276-.551-.414-.827s.138-.138.138-.138l.138.276c.138.276.414.276.69.276l2.206-.138 2.62-.276c.276 0 .414 0 .69-.138.137.138.275.276.551.276v.138c-.276.275-.552.551-.965.827l-2.758 2.62c-.552.552-.69.69-.552 1.103l.138.276c0 .138-.138.138-.138.138a7 7 0 0 1-.413-.965c-.138-.414-.276-.69-.414-.966 0-.138.138-.138.138-.138l.138.276.275.276c.138-.138.276-.138.414-.276zm0-1.93c-.276 0-.276 0-.138.275l.551.965c.138.276.138.276.276 0l1.103-1.103.414-.413h-.552zm-.551 7.998c-.138-.414 0-.966.138-1.38.413-.137.827-.413 1.24-.413 0 0 .139.138 0 .276-.689.275-1.102.965-1.102 1.654 0 .552.551.966 1.103.966h.138c.551 0 .965-.414 1.103-.965l.413-.966c.276-.551.69-1.103 1.38-1.24.827-.139 1.654.413 1.792 1.654v1.103a2.6 2.6 0 0 1-1.103.276s-.138-.138 0-.276c.551-.138.965-.827.827-1.379a.943.943 0 0 0-.965-.965h-.138c-.414.138-.827.413-.965.965l-.276.828c-.276.689-.827 1.24-1.517 1.379-.965.137-1.793-.552-1.93-1.517-.138.137-.138.137-.138 0M8.664 37.12c.552-.277.828-.277.69-.69v-.276h.138c.276.551.551 1.24.69 1.792.137.414.275.966.275 1.517 0 .414-.414.828-.827.966-.552.138-1.241 0-1.517-.552-.138 0-.138.138 0 .276.138.69-.276 1.379-.965 1.655-.966.413-1.931-.138-2.483-1.655-.138-.276-.275-.69-.275-.965 0-.276-.276-.69-.414-.966 0 0 .138-.138.276-.138v.138c.275.414.275.414 1.24.138zm-2.758 1.792c-.275.138-.69.276-.827.551-.138.276-.138.552 0 .69.276.69.827 1.241 1.655.827.827-.413 1.379-.827.827-2.206-.138-.414-.276-.414-.413-.414zm1.931-.828c-.276.138-.276.138 0 .552.276.827.827 1.241 1.517.965.551-.276.965-.827.69-1.517v-.138c0-.137-.139-.275-.139-.413 0 0-.137-.138-.275 0zm3.585 5.103c.69-.552.827-.69.552-1.104v-.137l.137-.138c.276.275.414.551.552.827l.965 1.379c.276.414.69.827.69.965l-.827.828-.138-.138c.275-.414.413-.552.275-1.103-.137-.276-.275-.552-.413-.69l-.414-.551c-.138-.276-.138-.138-.414 0l-1.379 1.103c-.275.138-.138.138 0 .413l.276.414c.138.276.276.414.552.552.138 0 .138.138.413 0l.276-.138c.138 0 .138.138.138.138s-.414.276-.69.551c-.275.276-.551.414-.689.552-.138 0-.138-.138-.138-.138l.276-.276c.138-.138.138-.276.138-.413a1.9 1.9 0 0 0-.414-.552l-.276-.414c-.137-.276-.137-.276-.413-.138l-.966.828c-.413.276-.551.551-.69.69-.137.137 0 .413.552.965.552.551.552.689.828.827.414.138.69.138 1.103 0 .138 0 .138.138.138.138l-1.241.413c-.414-.689-.965-1.379-1.38-1.93l-.413-.69c-.276-.275-.414-.551-.827-.965 0-.138.138-.138.138-.138l.275.276c.276.414.414.276 1.242-.276zm4.275 4.964c.551-.69.551-.827.276-1.103l-.276-.138c0-.138 0-.138.138-.138.551.414 1.103.69 1.654 1.103.414.276.828.69 1.104 1.103s.138.966-.138 1.517c-.414.552-1.103.69-1.793.552 0 0-.138.138-.138.276-.138.965-.138 1.93 0 3.033 0 .276.138.414.414.552 0 0 0 .138-.138.138s-.276-.138-.276-.138c-.69-.414-.965-1.241-.827-2.068 0-.414 0-1.104.138-1.655 0-.276 0-.414-.276-.552s-.276-.276-.414-.138l-.69.966c-.55.827-.55.827-.275 1.24l.138.139-.138.137-.828-.69-.965-.689s0-.137.138-.137l.276.137c.414.276.551.138 1.103-.551zm-.138 1.517c0 .138-.138.138-.138.276l.414.413q.413.414.827.414c.414 0 .828-.276.965-.69.414-.551.276-1.516-.275-1.93-.414-.276-.552-.276-.69-.138zm9.239 7.171c-.138.276-.138.551 0 .69v.137h-.414c-.551 0-1.103-.138-1.654-.276-.966-.275-1.793-.965-2.345-1.792-.413-.69-.413-1.517-.138-2.207.276-.69.69-1.379 1.38-1.792.965-.414 2.068-.552 3.033-.138.414.138.69.276 1.103.413.138.138.276.138.552.276-.138.414-.276.828-.276 1.241h-.276c.138-.827-.551-1.654-1.379-1.792-1.24-.414-2.62.138-3.033 1.379 0 .137-.138.137-.138.275-.69 1.38 0 3.034 1.379 3.724.138 0 .138 0 .276.138.551.137.827.137.965 0 .138-.138.276-.276.276-.414l.137-.276c.276-.69.276-.827-.275-.965l-.414-.138v-.276s.69.276 1.241.414.552.138.965.276v.275h-.138c-.413-.138-.413.138-.551.552zm4.551-3.172c0-.965 0-1.103-.552-1.103h-.138v-.276h3.999c.138.414.138.828.138 1.241h-.276c-.138-.414-.275-.69-.69-.827h-1.516c-.276 0-.276 0-.276.413v1.793c0 .276 0 .276.276.276h1.379c.138 0 .138-.138.276-.276l.138-.413h.276v1.792c0 .138-.138 0-.276 0v-.413a.3.3 0 0 0-.276-.276H30.59c-.276 0-.276 0-.276.276v1.24c0 .276 0 .69.138.966.138.138.276.276 1.103.276.414 0 .828 0 1.103-.138.276-.276.552-.552.69-.828h.276l-.414 1.242h-4.413v-.276h.276c.552 0 .552-.138.552-1.104zm12.273-1.379c-.276-.551-.414-1.103-.552-1.792q0-.207.414-.414h.137s0-.138-.137-.276c-.276.138-.552.276-.828.276-.276.138-.551.276-.965.276v.276h.138c.276-.138.551-.138.551 0q.621.827.828 1.654l.69 1.793c0 .138.137.276.137.414l-1.93-.966L39 52.978c-.69-.414-1.517-.828-2.068-1.241-.138 0-.276.138-.414.138s-.551.275-.965.275v.276h.689c.276.138.414.276.414.552l.965 2.482c.276.552.414 1.103.552 1.793a.3.3 0 0 1-.276.276l-.276.137c0 .138 0 .138.138.276.276-.138.552-.276.828-.276s.551-.275.965-.275v-.276l-.276.138h-.551l-.828-1.655-.69-1.793c-.137-.138-.137-.413-.137-.551l1.379.827 2.758 1.517c1.103.552 1.379.827 1.517.827.138.138.138-.138.138-.138s-.552-1.24-.552-1.517zm7.033-.275c-.414.276-.828.551-1.241.69-.414-.277-.69-.552-.965-.828l.137-.138c.552.552 1.38.552 2.069 0 .414-.276.551-.965.276-1.379 0 0 0-.138-.138-.138-.276-.414-.828-.551-1.38-.551l-.964.137c-.69.138-1.242-.137-1.793-.551-.552-.69-.414-1.655.276-2.207 0 0 .137 0 .137-.138.276-.137.414-.275.69-.413l.276-.138c.276.138.551.414.827.69l-.138.137c-.413-.413-1.103-.413-1.654 0-.414.276-.552.828-.276 1.241l.138.138c.275.276.827.414 1.24.414l.828-.138c.69-.138 1.517 0 1.93.552.69.69.552 1.792-.137 2.344 0 .138 0 .276-.138.276m.965-7.723c-.827-.552-.965-.552-1.24-.276l-.138.138-.138-.138.69-.965c.275-.276.413-.552.55-.965 0 0 .139 0 .139.137l-.138.138c-.276.414-.138.552.552 1.103l2.62 1.793c.827.552.827.552 1.24.276l.139-.138.137.138c-.275.276-.413.552-.69.827-.275.276-.413.552-.689.966 0 0-.138 0-.138-.138l.138-.276c.276-.414.138-.552-.551-1.103zm7.309-3.861q-.207.62-.828 1.24c-.413 0-.827-.137-1.24-.275v-.276c.689.138 1.516-.276 1.792-.965.276-.552 0-1.103-.551-1.38h-.138c-.414-.137-.966-.137-1.38.277l-.827.551c-.551.414-1.103.552-1.792.414-.828-.276-1.242-1.241-.828-2.069 0 0 0-.137.138-.137.138-.276.276-.552.414-.69 0-.138.138-.138.138-.276.413 0 .69.138 1.103.276v.276c-.552-.138-1.241.276-1.38.827-.275.414-.137 1.103.415 1.241 0 0 .137 0 .137.138.414.138.966 0 1.242-.276l.689-.551c.552-.552 1.241-.69 1.93-.414 1.104.138 1.38 1.103.966 2.069" fill="#000"/><path d="M30.866.3C14.18.3.666 13.814.666 30.5s13.514 30.2 30.2 30.2c16.685 0 30.2-13.514 30.2-30.2S47.55.3 30.866.3m0 59.434c-16.134 0-29.235-13.238-29.235-29.372S14.87 1.127 31.004 1.127s29.234 13.1 29.234 29.373c0 16.134-13.1 29.234-29.372 29.234" fill="#000"/><path d="M38.037 45.118c-.552.413-.965 1.103-1.241 1.654 1.24.69 2.62 1.242 3.999 1.38.965-.552 1.792-1.104 2.62-1.655-.69-.276-1.38-.552-2.069-.966-.965-.413-2.206-1.24-3.31-.413m-14.203-4c-.69-.276-1.517-.138-2.206.138-1.93.552-4.827 3.861-4.827 3.861.828.828 1.793 1.655 2.896 2.345.828-1.104 3.034-3.586 5.102-3.586.966 0 1.931.414 2.62.965l.276-.275c-1.517-.828-2.758-2.069-3.86-3.448" fill="#000"/><path d="M30.314 44.014c-.827.276-1.655.828-1.93 1.655 1.654 1.38 3.447 2.482 5.516 3.172 1.379.413 2.758.69 4.136.69.828-.276 1.517-.69 2.345-.966-1.241-.276-2.62-.69-3.724-1.241-2.206-.965-4.55-3.585-6.343-3.31" fill="#000"/><path d="M25.074 44.98c-2.482 0-3.586 2.068-4.413 3.033 3.034 1.793 6.62 2.758 10.067 2.758 1.93 0 3.723-.276 5.654-.827-1.241-.138-2.62-.414-3.724-.828-2.758-.965-5.791-4.136-7.584-4.136m18.203-1.655c-1.655-2.206-3.034-2.482-3.723-2.344s-.552.69-1.241 1.654c-.828.828-1.655 1.38-2.62 1.931l.69.827c.689-.827 1.792-1.379 2.895-1.516 1.793 0 2.344 1.378 4.689 2.344.551-.414.965-.828 1.517-1.38-.966-.275-1.793-.827-2.207-1.516" fill="#000"/><path d="M39.278 25.811v-.276c-.138-.413-.139-.69-.276-1.103 0-.276.138-.276.276-.414.137-.276.137-.413 0-.69-.138-.275-.552-.413-.552-.827 0-.413-.276-.551-.138-.827-.138-.414-.138-.965-.138-1.379-.138-.552-.138-.965-.138-1.517s-.138-1.241-.276-1.793a6.7 6.7 0 0 0-.551-1.516c0-.276-.414-.552-.276-.966.276-.414.552-.827.69-1.379.137-.276.137-.551.137-.965v-.828h-.138c-.137.414-.551.552-.965.828-.551.138-1.103.138-1.655.138-.413 0-.69.276-.965.138-.138-.138-.414-.138-.552-.276h-1.24c-.552 0-1.104-.276-1.655-.276-.552 0-1.38.276-2.207.276-.69-.138-1.379 0-1.93.414-.276 0-.414-.138-.69-.138-.552-.276-1.379.138-1.793-.276q-.413-.414-.413-.828c-.138 0-.138.138-.138.276-.138.276-.276.552-.276.828 0 .413 0 .69.138 1.103 0 .551.414 1.103.414 1.793-.138.275-.276.551-.276.827s-.138.69-.276 1.103a5.2 5.2 0 0 0 0 2.069c-.276.827-.552 1.792-.552 2.62 0 .551-.137 1.103-.275 1.655-.276.275-.552.69-.414 1.103 0 .276.138.414.276.551v1.38c0 .413-.414.413-.414.827 0 .413.138.551.276.69.138.137 0 .413.138.689 0 .551.138 1.103.276 1.655l.413 2.482c.138.827.414 1.93.69 2.896.276.69.413 1.379.69 2.068.275.552.413 1.103.55 1.793v.276c0 .413-.275.69-.275 1.103a10.2 10.2 0 0 0 2.758 3.171c.552-.827 1.517-1.24 2.482-1.24 1.793 0 3.448 1.792 5.103 3.171l.413-.414c-.551-.827-3.034-3.723-5.102-3.999 0 0 .138-.413 0-.551-.138-.276-.138-.414-.276-.69v-.413c.276 0 .414.413.552.689 0-.276.413-.552.551-.69h.138c0 .276 0 .828.276 1.104s0 .276 0 .276l-.276.275c1.241.69 2.344 1.517 3.31 2.62.551-.413 2.758-1.792 2.62-3.171 0-.414-.276-.414-.414-.69-.138-.138-.413-.413-.413-.551a1.92 1.92 0 0 1-.276-1.517c.138-.414.138-.828.413-1.241.276-.828.414-1.517.69-2.345.276-1.103.551-2.068.69-3.171.137-.414.137-.828.275-1.241s.138-.828.138-1.241c0-.276 0-.69.138-.966 0-.138 0-.276.138-.413.138-.138.276-.276.276-.414s.276-.276.276-.414c.551-.69.137-.965 0-1.241m-1.104-3.034c.138.138.414 0 .414.276s.138.276.276.414 0 .276-.138.276q-.414 0-.828-.414c.138-.138.276-.414.276-.552m-1.792 4.137c0 .552 0 1.103-.138 1.517v.276c-.138.552 0 1.103-.138 1.655-.138-.276-.552-.276-.552-.69.138-.965.276-1.793.276-2.758a6.7 6.7 0 0 0 0-2.344v-.138s.276.276.552.414c.138.69 0 1.379 0 2.068m-11.584-6.757c-.276 0-.276-.276-.276-.414v-.413c.138-.138.138-.138.138-.276-.138 0-.276 0-.276-.138s0-.414.138-.552c.138-.137.414 0 .69-.137.276-.138 0-.138 0-.138-.276 0-.414 0-.69.138 0 0 0-.138-.138-.138-.138-.552 0-1.104 0-1.517v-.276s.414.276.552.276c-.138-.138-.276-.276-.552-.276a.42.42 0 0 1 0-.552l.138-.138s.276.276.414.276v-.138c-.138-.275-.69-.275-.414-.69 0-.137.138-.275.276-.413s.276.276.414.414c-.138-.138-.276-.414-.138-.552s.276 0 .276.138h.137c.138.138.414.138.414.414s.138.414.414.69.138.275.276.413h-.276c-.276-.138-.276-.414-.414-.552-.138-.137 0 0-.138 0 0 .138.138.414.276.552v.138c-.276 0-.552-.276-.69-.414h-.137c-.138 0 0 .138 0 .138s.276.552.551.552v.276c0 .137-.138.137-.276 0l-.413-.276h-.138c0 .138.138.276.138.276s.551.275.413.551c0 0 0 .138-.137.138-.414 0-.966-.276-1.38.138 0 0 0 .138.139.138.413 0 .689 0 1.103.276.138.138.138.138.138.275h-.276c-.138.138-.276.138-.414.276 0 0 .414-.138.552-.276 0 0 .138 0 .138.138s-.138.138-.138.138-.414.276-.414.552c.276 0 .414-.414.69-.414 0 0 .137.138 0 .138-.414.276-.828.414-.966.965v.138l.138-.138c.276-.276.69-.413 1.103-.551h.138c0 .276-.276.276-.276.551 0 .138-.137.276-.137.414h.137c.138-.276.276-.69.69-.827 0 .137.138 0 .138.137.138 0 .413.138.551.276 0 .414-.138.966 0 1.241v-.275c0-.276.276-.552.276-.828 0-.138.138-.138.276-.138s.138.276.276.276c.138-.138 0-.276 0-.414s.138-.137.276 0h.137v-.137c.276-.138.276-.552.552-.414v.551s-.138-.137-.276-.137 0 .137 0 .275.138.414.276.552 0 .138 0 .138-.276-.276-.414-.276-.137 0-.137.138c0 .276.137.552.413.69.138 0 .138 0 .276.137.138.138-.138.138 0 .276l.138.138c-.138.138-.276 0-.414 0-.276-.138-.551-.552-.551-.827h-.138c0 .275 0 .413.138.551.137.138.275.276.275.414s-.137.138-.275.138c-.276-.276-.276-.552-.276-.828h-.138v.828c0 .138-.414 0-.552.138s-.138-.276-.138-.552-.138 0-.138 0-.137.552-.413.414-.414-.276-.552-.414c-.138-.276.138-.414.138-.552 0-.137.276-.275.276-.413s-.276.138-.276.138l-.414.827-.137.138c-.276-.276-.828-.414-.828-.965 0-.138.138-.138.138-.276.138-.414.138-.276 0-.276m5.93.965c.138-.275.138-.413.138-.69 0-.55.137-1.24.137-1.792 0-.138 0-.276.138-.276s.414.138.414.276c.138.828 0 1.517-.276 2.345-.138.275-.276.689-.551.965-.138.138-.138.276-.276.276-.552-.69-.828-1.655-.828-2.483 0-.275-.275-.827.138-1.103s.414-.276.69-.276v.138c.138.828.138 1.793.276 2.62m2.206 2.483c-.414-.138-.827-.552-.827-1.104h.138l.413.414c.276.138.69.414.828.828v.413c-.138.138-.414.276-.552.276-.414-.138-.827-.414-.965-.827a.88.88 0 0 1 0-.828c.138 0 0 .138.138.276.276.414.551.827.965.965 0-.276 0-.276-.138-.413q.207 0 0 0m-.138-4-.276.276c0-.138 0-.276.138-.413.138-.138 0-.138 0-.138s-.138 0-.138-.138v-.138h.138l.69.552c0 .137 0 .413-.138.551 0 .138-.138.276-.276.552h.138c.138-.276.276-.552.552-.828.275-.276.551 0 .827 0s0 .276.138.414 0 .276.138.414.138-.276.138-.276v-.827h.276l.413.413c.138.138 0-.138 0-.138s-.276-.276-.276-.551h.138c.276 0 .138.276.276.413.138.138 0-.137 0-.137-.138-.138-.138-.414-.138-.552s.138 0 .276 0c.276.138.414.138.69.276l.413.827c0 .276.138.552-.138.828s-.276.275-.551.275c-.276 0 0-.138-.138-.276-.138-.137-.276-.551-.552-.413s0 .276.138.413c.138.138.276.552 0 .69-.276-.138-.276.276-.551.138-.276-.138-.552.414-.828 0 0-.414 0-.69-.138-1.103 0-.138 0-.276-.138-.276s0 .276 0 .414c0 .275-.138.69-.276.965 0 .138-.137.138-.275.138 0-.138 0-.414.138-.552h-.138s-.414.552-.828.552l-.138-.138s.276-.276.276-.552c-.138 0-.276.138-.413.276-.138-.69.551-.965.689-1.517-.138-.413-.276-.413-.276-.413m0-2.758c.276-.275.69-.551 1.103-.551s.966.138 1.242.414c.275.413.413.965.275 1.517-.275.551-.827.965-1.379.965-.276 0-.413 0-.69-.138-.275-.138-.413-.414-.689-.69-.138-.551-.138-1.103.138-1.517m4.413 6.758.138-.138c.138 0 .276 0 .414.138a.42.42 0 0 1 0 .551c-.276.138-.414 0-.552-.138 0-.138.138-.276 0-.413m.138-.276c-.276 0-.414-.276-.69-.552s-.275-.414-.275-.69v-.55c.275.413.551.689.827 1.102.138.138.276.138.276.276s.138.414-.138.414m-1.93 5.24c-.276.138-.414-.276-.69-.414-.276-.276-.552-.69-.552-1.103h.138c.276.276.414.552.69.69h.138c0-.276-.276-.552-.138-.828.138 0 .275.276.413.276s0 .276 0 .414zm-.139 5.516c0-.69.138-1.38.138-2.207.138-.137.276-.137.414-.137v.413c0 .69-.138 1.38 0 2.069 0 .276-.138.551-.138.827 0 .138 0 .414-.138.552 0 .551-.138 1.103-.276 1.655-.137.138-.137.413-.275.413s-.138-.413-.138-.551 0-.414.138-.552c.138-.827.413-1.517.275-2.482m-.137 4.964c.137.276.275.69.275.966v.413c-.413 0-.827.138-1.103.276-.138 0-.138 0-.276-.138v-.413c.138-.138 0-.414.138-.552s.276 0 .276-.276-.414 0-.552-.138c-.275-.276-.275-.551-.413-.827.276-.276.69-.414 1.103-.276.138 0 .276.138.276.276.138.276.276.551.276.69m-.552 2.069c0-.276.414-.276.552-.414.137-.138.137 0 .137.138 0 .552-.137 1.103-.551 1.517h-.138v-.138c.138-.414.138-.827 0-1.103m-.828.827a1.4 1.4 0 0 1-.827-.69v-.275c.138-.138.414-.276.69-.276v.138c-.138.414-.276.827.137 1.103m-.551-1.379c-.276 0-.276.276-.552.138s0-.414-.138-.551c-.138-.552 0-1.104.414-1.517h.276c.138.137.276.413.414.69.137.137.137.275.275.413a.88.88 0 0 1 0 .827c-.275.138-.551-.138-.69 0m-3.861.828c.138-.138.413-.138.551-.138.138.138.138.413.138.551-.138.414-.551.69-.827.828h-.138c0-.276.138-.414.138-.69s0-.413.138-.551m.551-.276c-.138 0-.275 0-.413-.138-.138 0-.138.138-.276.276l-.138.138c0-.138-.138-.414-.138-.552a.42.42 0 0 1 0-.552c.138-.137.276-.275.414-.275v-.276h-.276c-.138.138-.276.138-.414.276-.138-.276-.138-.552-.138-.828s0-.551.276-.69c.276-.137.552 0 .552.276.413.414.69.966.827 1.517.138.276 0 .69-.138.966 0 0 0-.138-.138-.138m-.965-3.31c-.414-.276-.69-.827-.552-1.379 0-.138 0-.276.138-.276s0 .276.138.276c.276.552.828.828 1.241 1.241.276.276.552.552.552.966v.413h-.138c-.276-.551-.827-.965-1.379-1.24m-2.482-14.893c.138 0 .276-.276.413-.276.138 0 .276-.276.414-.413.138-.138.138 0 .138.137 0 .276 0 .414-.138.69-.276.552-.551 1.103-1.103 1.103-.138 0-.276 0-.414-.138 0-.276 0-.413-.138-.69.138-.413.276-.827.552-1.102 0 0 .276-.138.276 0 0 0-.138.413 0 .69m1.24 3.172c.277-.276.552-.552.828-.965h.138c0 .551-.276 1.24-.69 1.654-.275.276-.689.414-1.103.414-.275 0-.275-.414-.413-.552 0-.275.138-.413.276-.551.413-.138.69-.552.965-.828 0 0 .138-.137.138 0 0 .414-.138.828-.414 1.104a.3.3 0 0 0 .276-.276m.966-2.344c.276-.138.552-.414.69-.69s.138-.276.276-.414q0 1.034-.828 1.655h-.414c-.137-.138-.413-.138-.413-.414 0-.413.138-.69.413-.965.138-.138.138-.276.276-.276 0 .276-.138.414-.138.69s0 .413.138.413m1.655 5.93c.138 0 .138-.277.138-.414 0-.138.138 0 .138 0s.138.551.138.827-.138.551-.276.827c0 .138.138 0 .276 0a2.6 2.6 0 0 0 .275-1.103v-.276c0-.138.138 0 .138 0v.828c.276-.276.138-.828.276-1.103.138-.276 0-.414.138-.69.138 0 .138.276.138.276s.138.276.138.414c.138.827.276 2.068-.552 2.62-.276.137-.69.137-.965 0-.276-.138-.276-.414-.414-.552-.275-.552-.275-1.103-.275-1.655 0-.551.137-1.103.413-1.517v.276c.138.414.138.828.276 1.241m2.482-1.793c-.138-.276-.138-.414-.138-.69 0-.138.138 0 .138.138.138.552.965.552.965 1.241q.207.207 0 .414a1.05 1.05 0 0 1-.689.276 3.2 3.2 0 0 1-.965-.966c0-.276-.276-.413-.138-.69.138 0 .138 0 .138.139.276.275.413.551.827.69h.138s-.276-.415-.276-.552m-.413 4.964c-.138-.138-.276-.276-.414-.552s0-.276 0-.276c.413.138.69.414 1.103.828a.88.88 0 0 1 0 .827c0 .138 0 .276-.138.276h-.414q-.62-.414-.827-1.241c.138.138.276.551.552.414 0 0 .138-.138.138-.276m.689-.966c-.276-.275-.552-.689-.552-1.103h.138c.138 0 0 .138.138.276s.138.414.414.414 0-.138 0-.138-.138-.414-.138-.69c.276.276.69.69.552 1.241a.3.3 0 0 1-.276.276c0-.138-.138-.138-.276-.276m-4.275-.551c.276-.276.414-.552.552-.828h.138c0 .69-.276 1.242-.828 1.517-.138.138-.276.138-.413.138-.138-.138-.138-.276-.276-.276-.138-.413 0-.965.413-1.24.138-.138.138-.276.276-.414.138.138.138.413.138.551s-.276.414-.276.552.138.138.276 0m.414 1.103c.138-.276.414-.276.551-.552.138-.275.138 0 .138.138 0 .414-.138.828-.413 1.104.138.138.275-.138.413 0 .276-.276.276-.552.414-.828 0 0 .138 0 .138.138.276.552-.138 1.103-.414 1.517s-.551.276-.827.276-.276 0-.414-.276c0-.69.276-.965.414-1.517m.69-4.964c0 .276-.139.413-.139.69l-.137.137c.137 0 0 .138 0 .276-.138.414-.552.827-.966.965-.138 0-.276-.138-.413-.138-.276-.137-.138-.551-.138-.827.275-.552.413-1.103.827-1.517 0 0 .138-.138.138 0 0 .414 0 .965-.138 1.38 0 .137 0 .137.138.275.138 0 .276-.276.276-.414.276-.276.413-.69.413-1.103h.138c.138 0 0 .276 0 .276m-2.483-2.62c-.138.276-.414.276-.69.276-.137 0-.137 0-.137-.138 0-.414.275-.828.413-1.104.138-.137.138-.275.276-.275 0 .275 0 .551-.138.827.138 0 .138-.138.276-.138.138-.414.276-.69.414-1.103h.138c-.138.552-.276 1.103-.552 1.655m-.965 3.171.413-.413h.138c0 .276 0 .551-.138.827 0 .138-.137.276 0 .276a.3.3 0 0 0 .276-.276c.138-.276.414-.552.552-.69h.138c0 .414-.138.828-.414 1.104-.138.414-.552.551-.965.551l-.138-.137c0-.276-.138-.828.138-1.242m1.379 5.103c.138 0 .138-.138.138-.138s-.138.276-.276.413c-.138.138-.138.414-.138.552.138.138.138 0 .276 0 .138-.138.413-.276.551-.552v.138c-.137.414-.413.828-.827.966-.138 0-.276 0-.414-.138-.138-.276 0-.552.138-.828.276-.138.276-.276.552-.413m0 3.31c.138.413 0 .689-.138 1.102 0 .138-.138.138-.276.138s-.138-.276-.138-.276v-.965c.138-.276.138-.413.138-.69 0-.137 0-.413.138-.55 0 .137 0 .275.138.413 0 .138-.138.551.138.827m-.69 2.481c0-.275.138-.413.414-.551.138-.276.276-.138.552-.138.275 0 .413-.138.413.138-.138.276-.276.69-.276 1.103-.137.138-.551 0-.413.276s.413.138.551.276.138.551.138.827h-.138c-.275-.138-.551-.276-.827-.138l-.414.414c-.138.138 0 0 0-.138q-.207-.828 0-2.069m2.207-2.206-.414-.827v-.966c0-.138 0-.138.138-.276 0 .552.276 1.242.827 1.655.276.276.828.414.828.828 0 .276.138.413 0 .69-.138.275 0 0-.138-.139-.414-.276-.828-.551-1.241-.965m1.24-.69c-.413-.275-.55-.827-.413-1.24 0-.276.138-.69.414-.828 0-.138 0-.276.138-.276s0 .138 0 .138c0 .276.275.828 0 1.103v.138c.275.138.275-.276.413-.413 0 .275-.137.551-.275.689 0 .138.137.138.275.138s.276-.276.276-.414c.138-.413 0-.827-.138-1.103v-.414c0-.138.276.276.414.414.138.414.138.827.138 1.241s-.276.414-.552.69c-.276.138-.551.138-.69.138m.828.69c0-.138.138-.276.276-.414.138-.413.414-.69.552-1.103.138-.276.138-.414.138-.69.137 0 .137.139.137.276.138.414 0 .966-.138 1.38-.275.413-.689.965-.827 1.378-.138.138-.138.276-.138.276-.138-.276-.138-.69 0-1.103m.414 1.793c.138-.414.276-.69.414-1.103.275-.414.551-.828.69-1.242v-.275c.137.275.275.551.137.965 0 .827-.965 1.379-1.103 2.206l-.276.276c0-.276 0-.69.138-.827m1.93-1.793c0-.552.138-.965.138-1.379 0-.138.138-.276.138 0 0 .414 0 .965.138 1.379 0 .276 0 .69-.276.965-.275.276-.275 0-.275-.138 0-.137.137-.551.137-.827m.69-2.896c0 .138-.138.138-.276.138-.413-.138-.69-.69-.827-1.103.138 0 .138.138.276.138.137 0 .275.413.413.276 0-.276-.276-.414-.276-.552s-.137-.138 0-.276c.138-.138.138.276.276.276.276.138.552.276.552.551.138.138 0 .414-.138.552m-.965-7.446c-.276-.276-.414-.552-.552-.966v-.413c0-.138 0 0 .138.137.138.138.276.552.552.69.275.138 0 .138.137.138h.138c0-.138-.138-.276-.138-.276s-.413-.414-.275-.827c.138-.138.276.138.276.138.413.137.827.275.965.827 0 .276 0 .552-.276.69-.276 0-.69 0-.965-.138m1.103-2.62c.138 0 .138.137.276.275s.276.414.276.69c0 .138-.138.276-.138.276s-.414-.276-.552-.414-.276-.414-.138-.552c0-.138.138 0 .138 0s.276.276.414.138-.414-.276-.276-.413m.138-.138c-.276-.414-.414-.828-.552-1.242zm-.414-1.242c.138.276.414.69.828.69.137-.138 0-.276-.138-.414q-.207-.207 0-.413c.138-.138.138.137.275.137.276.138.414.414.552.69 0 .276 0 .552-.276.827-.276 0-.551 0-.827-.275zm-2.344 4.551c-.276.414-.69.69-1.241.69-.276 0-.552-.138-.69-.276 0-.276-.276-.276-.138-.552-.275-.413-.275-.965-.275-1.379 0-.551 0-1.103.137-1.654 0-.138.138-.414.276-.138a2.35 2.35 0 0 0 0 1.379l.138.137s0-.275.138-.551.138 0 .138.138c0 .551.138 1.103.276 1.517 0 .138.138.138.275.138.138 0 0-.138 0-.138a3.05 3.05 0 0 1 0-2.207h.138c0 .414 0 .966.138 1.38.138 0 .138-.276.276-.414.138-.414 0-.966.138-1.38v.139c.414.965 1.103 2.068.276 3.171m-1.93-9.653v-.276c-.139 0-.139 0-.277.138l-.137-.138v-.137a1.05 1.05 0 0 1 .689-.276c0-.138.138-.276.276-.138-.138.276-.276.551-.552.827m-.69-.827c-.138.138-.276.138-.552 0 0-.138.276-.138.414-.138s.414.138.551.138 0 0 0 .138-.275-.138-.413-.138m.551-1.38c-.138 0-.138-.137-.138-.137s-.137-.138-.275-.138c-.138.138-.138.276-.276.414v.138a.3.3 0 0 1-.276-.276c0-.138.138-.414.276-.69.138 0 .414.138.551.276s.276.276.138.414m-.69.552c0 .276.277.276.277.276h-.276c-.276-.138-.552-.138-.69 0h-.276c0-.138.276 0 .414-.138.138 0 .138-.138.276-.138-.276-.275-.552 0-.827 0a.42.42 0 0 1-.552 0v-.137c.276 0 .414-.138.69-.138.275-.138.413-.138.689 0 0 0 .138.275.276.275m-.689-.413c-.413 0-.827.276-1.24.138h-.139l.138-.138c.138-.138.276 0 .414-.138s.276 0 .276-.138c.276 0 .551 0 .69.276.137.138 0 0-.139 0m-1.103 1.24c.414-.137.965 0 1.38.277.275.551.413 1.103.275 1.654q-.207.621-.828.828c-.551.138-.965 0-1.379-.414-.413-.276-.551-.827-.413-1.241 0-.552.413-.965.965-1.103m-1.655 8.275c0 .965 0 1.93.138 3.034s.138 1.93.138 2.758c0 .137-.276.275-.276.413a.3.3 0 0 1-.276.276c-.137-.276-.137-.552-.137-.965 0-1.517-.276-3.034-.276-4.55 0-.139.276-.415.276-.552zm.414 6.067.69-.69h.137c-.138.415-.275.828-.551 1.242v.138c.138-.276.413-.414.551-.69.138-.137.276-.413.414-.413.138.138 0 .276 0 .413 0 .69-.414 1.241-.965 1.655-.276 0-.276.138-.552.138-.138 0-.276-.138-.413-.276 0-.827.413-1.24.689-1.517m-.276 1.93h.414c.138.828.138 1.518.276 2.345 0 .552.138 1.103.138 1.655 0 .414 0 .69.137 1.103.138.276-.137.552-.137.828-.276 0 0-.414-.138-.552-.276-.965-.552-2.068-.552-3.034 0-.551-.138-.965-.138-1.517-.138-.276 0-.551-.138-.827s0 0 .138 0m-.138 7.31c0-.276.138-.69.276-.966 0-.138.276-.138.276-.276 0-.137.414-.137.551 0 .138.138.138.138.138.276-.138.138-.275.414-.413.552-.138 0-.276-.138-.276 0s.276.138.414.276v.551c-.276 0-.414 0-.69.138-.138 0-.138.138-.276.138s-.138-.414 0-.69m.414.827h.552c0 .276 0 .414-.138.69 0 .275.138.551.413.551-.138 0-.275-.138-.551-.138s-.276-.413-.414-.551-.138-.414.138-.552m1.655.138c.138 0 .413 0 .413.276s-.137.413-.137.551c0 .276 0 .414.137.69v.138c-.137 0-.275-.138-.413-.276-.276-.276-.414-.552-.552-.828.276-.275.414-.275.552-.551m8.136-.138v-.138c.138-.276.414 0 .69-.138 0 .276-.276.414-.276.69v.276l-.414.413h-.138c-.138-.276.138-.69.138-1.103m.827-.552-.138.138s-.413.138-.69.138c-.137-.138-.137-.413-.137-.551l.414-.414c.138-.138 0-.138 0-.138s-.414.276-.552 0-.138-.414-.276-.69c.138-.137.276 0 .414.138h.276c.413.138.413.552.69.828.275.276.137.414 0 .551m-.965-8.687c-.552.138-1.103-.138-1.379-.552l-.414-.827h.138c.276.276.552.413.966.551l.137.138s.138 0 0-.138q-.62-.414-.827-1.24c0-.139 0-.139.138 0 .414.275.827.55 1.241.965.276.137.276.551.276.827zm.138-8.274c.138 0 .414.413.551.551.276.276.69.552.966.69.138.138.276.138.413.276 0 .138-.137.276-.275.413-.414 0-.69-.275-1.103-.69-.138-.413-.414-.826-.552-1.24m1.93-.828h-.275c-.276-.138-.138-.551-.276-.827s-.138-.414 0-.69c0 0 .138 0 .138.138.276.414.413.828.413 1.38m-.275-3.31c0 .139-.138 0-.138 0l-.414-.413c-.138-.138-.138 0-.138 0v.138c.276.276.276.69.552.965 0 .276-.138.276-.276.414h-.138c-.138-.138-.138-.276-.276-.414 0-.138 0-.276-.138-.276 0-.275-.275-.551-.413-.827s-.414-.138-.552-.276v-.138c.276-.275.552 0 .828 0h.413c.138.138.276.276.552.276.138.138.138.276.138.414zm-.414-3.17c0 .137-.138.275 0 .275s.276.138.276.276 0 .138-.138.138a.76.76 0 0 0-.69.413v.138s.138-.276.414-.276.276-.137.414 0c.138.138.138.276.138.414s0 .552-.138.828-.552-.414-.965-.138c-.138-.138-.414-.138-.69-.138-.138-.138-.276-.414-.138-.552 0-.138.276-.138.276-.276s.276 0 .276 0-.276-.138-.414-.138-.138.138-.276.138-.138-.276-.138-.276c.138-.413.552-.413.828-.413v-.138c-.414-.276-.69 0-.966.276h-.137c0-.276.275-.552.413-.552v-.138c0-.138-.138 0-.276 0-.137.138-.275.276-.413.276 0-.276.276-.414.276-.552-.276.138-.552.414-.69.552h-.276v-.138c.276-.276.414-.551.552-.827.138-.414.827-.414 1.103-.69.138 0 .414 0 .414.138-.138 0-.138.138-.276.138-.276.138-.552.276-.552.552.138.138.138-.138.276-.138s.138-.138.276-.138.276-.276.414 0-.276.138-.276.276c-.138.138-.276.275-.276.413s.138 0 .138 0 .276-.413.551-.413c.552.275.69.413.69.69m-3.034-2.345c.276-.276.552-.276.69-.414.551-.138 1.24 0 1.654-.276l.552-.413c.276 0 .276-.276.552-.276 0 0 .138 0 .138.138-.138.275-.138.551-.276.827 0 .414-.552.552-.828.827-.275.138-.413.138-.69.276-.55 0-.964.276-1.24.69.138.138 0 .276-.138.276s-.276 0-.414.138c-.138.137.138 0 .138.137-.276.276-.69 0-.965.276 0 0-.138 0-.138.138s.276 0 .276.138c-.276.138-.552.138-.69.276v.138c.138 0 .138-.138.276 0s-.138.138-.138.138-.551 0-.69.137c.139.138.276 0 .276.138-.275.138-.551.138-.827.276s0 .552-.276.414c-.138-.138-.276-.414-.276-.552s0-.276.138-.276.138.276.276.276.138-.138.276-.138c-.138-.275.276-.275.276-.413s.276-.138.276-.276c.275 0 .413-.138.689-.138h-.138c.276-.276.69-.276.965-.414 0-.138-.138-.138-.138-.275 0-.138.69-.138.69-.414 0 0 .138-.138 0-.276-.138.138-.276.276-.414.276-.138.138-.276.276-.551.276 0-.138.138-.138.138-.276.275-.276.413-.552.551-.966h-.138c-.276.276-.551.414-.827.69h-.276c-.138 0 .138-.138.138-.276.827-.414.965-.69 1.103-.827m-2.758 1.517c0-.138-.138-.276-.138-.414h-.138c-.137.138-.137.276-.137.414h-.138c0-.276 0-.552.137-.69 0 0 .138-.138.276-.138s.138.138.276.276 0 .414-.138.552m.828-.414c-.138 0-.138 0-.276.138s-.138.276-.276.276-.138 0-.138-.138c0-.276.138-.414.138-.69.138-.138.276-.138.414-.276.138-.137.276-.137.276 0 0 .138.137.414.137.552s-.138.276-.275.552h-.138c.276-.138.138-.138.138-.414m.275-1.93c0-.276.276-.139.414-.276.276 0 .552 0 .69.275 0 .138.137.138.137.276-.137.138-.137.276-.275.414s-.138-.414-.276-.552-.414.138-.69.138-.138-.138 0-.276m.276.551h.138c0 .276.414.552 0 .827-.276 0-.138-.275-.276-.413s-.276.138-.551.138h-.138v-.138c.138-.414.551-.414.827-.414m-1.793-.552c.138-.275.552-.413.828-.413s.138.275.276.413 0 .276-.138.276-.138-.138-.276-.138c-.138-.138-.414-.138-.552-.138-.137 0-.137.138-.275.138.137 0 0-.138.137-.138m.414.414c.276-.138.276.138.414.276s.276.138.138.276 0 .138-.138.138-.276-.276-.414-.276-.138.138-.276.276c-.137.137 0-.276 0-.414 0 0 0-.276.276-.276m-.551 3.31c.137-.138.275 0 .413-.138 0 .138.138.413 0 .551s.138.276 0 .276-.138-.138-.138-.276c0-.137 0-.137-.137-.137-.138 0-.138.413-.276.275s.138-.413-.138-.413-.138.275-.276.413c-.138 0-.138-.138-.138-.276.276-.137 0-.413.276-.551.276.138.414.276.414.276m-.138-1.655c-.138 0 0-.138-.138-.138s-.138-.138-.138-.138v.414c-.138-.138-.276-.414-.276-.552s.138-.276.276-.276.138.138.276.138c.138.138.138.276 0 .552m-.69-.965c0 .137-.138.137-.138.275-.138 0-.138 0-.138-.138v-.275c0-.138.138-.414.414-.552s.276.276.552.276c.275 0 0 .138 0 .276-.276 0-.552-.276-.69.138m0-1.38c.138 0 .276 0 .276.139.138.137.138.275.276.413s0 .138 0 .276c-.276 0-.276-.276-.69-.276s-.275.276-.275.414-.138.138-.138 0c-.138 0-.138-.138-.138-.276.138-.552.413-.827.69-.69m-.551 1.38v.275c-.138 0-.414 0-.552.276-.138.138-.138.276-.276.414l-.276-.276c.138-.276.138-.414.276-.552h.138c.138 0 .414 0 .552-.137zm-1.241-1.104c.137 0 .413 0 .551.138s.138.276.276.276l.138.138c-.138.138-.138 0-.276 0s-.414-.276-.552 0a.3.3 0 0 1-.275.276c-.138-.138-.138-.276-.138-.414.138-.276.138-.414.276-.552zm-4.275 0v-.69s0-.137.137-.137c.138 0 .138.276.276.276.138.276.276.413.552.551.552 0 .965 0 1.517.138.413.138.69.276.965.69h.138s.276.138.276.413c.276 0 .413.276.551.552-.137.138.414.414 0 .414-.413 0-.69.138-.965.138-.138 0-.138 0-.276-.138.276-.138.414-.276.69-.276 0 0 0-.138.138-.138s.138.138.138.138-.138-.276-.414-.276c-.138 0-.276 0-.276-.138 0-.276-.276-.276-.414-.413-.138-.138-.138-.138-.275-.138 0 0-.138.138 0 .138.137 0 .413.413.551.69-.276 0-.414-.277-.69-.277v.138s.276.276.139.552c-.138.276-.276-.138-.276-.276s-.276-.276-.414-.414-.414 0-.552 0c-.137 0-.413.138-.413 0-.828-.138-1.241-.827-1.103-1.517m-.138 9.515c.138-.275 0-.689.276-.965.137 0 0 .276.137.414 0 .276.138.551.138.827-.138.138-.276.276-.413.276-.276-.276-.276-.414-.138-.552m1.379-.413c0-.138.138-.138.138 0 0 .276-.138.551-.138.69-.276.413-.276.827-.69 1.102-.138.138-.276.414-.551.276-.276-.138-.276-.413-.276-.551a8 8 0 0 0 1.517-1.517m-1.104 3.172c-.137 0-.275.137-.275.137s-.138-.551.138-.551c.275 0 .275-.276.413-.138 0 .138 0 .276-.276.552m.414-.138c.276-.414.552-.552.69-.966 0 0 0-.138.138 0 0 .69-.276 1.38-.828 1.93-.138.277-.551.277-.827.415-.138 0-.138 0-.276-.138v-.276c.552-.414.827-.69 1.103-.965m-1.792-.276c0-.276.137-.414.275-.552s.276-.138.414-.138l.138.276c0 .414-.414.414-.552.69s0 .137-.138 0c-.137-.138-.137-.276-.137-.276m.275 3.172c-.138 0-.138 0-.275-.138-.138-.138-.138-.276-.138-.414 0-.276.275-.276.413-.414.276-.138.414-.414.69-.69.138 0 .276-.137.276 0-.138.69-.552 1.242-.966 1.656m1.38 7.998a14 14 0 0 1-.828-3.448c-.138-.965-.276-2.068-.414-3.034v-1.379c.138-.137.276-.275.414-.275h.138c0 .827.138 1.517.138 2.206l.276 1.793c0 .551.137 1.103.137 1.792s.276 1.241.276 1.93c-.138.139-.138.277-.138.415m.275-.828c-.138-.551-.138-1.103-.276-1.655-.138-.965-.138-2.068-.276-3.171 0-.276-.137-.69-.137-.965-.138-.69 0-1.38-.276-1.931 0-.414 0-.69.276-1.103.137-.138.275-.276.275-.138.138.69 0 1.379.138 2.068v.828c0 1.103.138 2.206.276 3.171.276 1.517.276 2.896.414 4.413 0 .552.138 1.103.276 1.655m.137.138c-.413-1.103-.551-2.207-.689-3.172zm11.308-2.896c-.138.827-.276 1.517-.551 2.344 0 .276-.138.552-.138.69 0-.552.138-.966.276-1.517 0-.414 0-.965.138-1.38.137-.413 0-1.102.137-1.792 0-.138.138-.414.138-.551 0-.414.138-.828 0-1.242.138-.413.138-.965.138-1.378 0-.828.276-1.655.276-2.483.138-.276 0-.551 0-.827v-.69c.138-.275-.138-.69.276-.69.138.139.276.139.413.277v.827c0 .276-.137.828 0 1.38 0 .689 0 1.24-.137 1.93-.138.69-.138 1.517-.276 2.206a6.4 6.4 0 0 0-.69 2.896m1.793-8.136c-.138.414 0 .965-.138 1.517s-.138.827-.138 1.24c0 .69-.276 1.242-.276 1.931s-.275 1.38-.413 1.931c-.138.827-.414 1.517-.69 2.206.138-.69.276-1.379.276-2.206s.276-1.793.414-2.62c.138-.69 0-1.379.276-2.068.275-.69.137-1.655.275-2.483.138-.138.276 0 .414.138zm.552-.414a4.2 4.2 0 0 1-1.104-1.103c-.138-.138-.138-.276-.138-.414 0 0 .138-.138.276-.138s.276.276.414.276 0 .138.138.276l.552.552a.43.43 0 0 1 .137.275c-.137.138-.137.276-.275.276" fill="#000"/><path d="M24.523 12.987c.276.137.413.137.69.275.275 0 .55 0 .689.138s.275.276.275.414c-.413-.276-1.103 0-1.516-.414-.138 0-.276-.138-.276-.414v-.137s0 .137.138.137m12.962-.137c0 .137-.138.275-.276.413-.414.276-1.103.414-1.655.414v-.138c.414-.138.69-.138 1.103-.414.276-.138.552-.138.828-.275m-10.343 4.275s-.69.965 0 1.379 1.655-.414 1.517-.827c-.138 0-.276.69-.965.551-.69-.138-.552-1.103-.552-1.103m6.206 1.241c.276.414.828.414 1.241.138l.138-.138c.552-.965-.276-1.379-.551-1.241 0 .138.551.276.275.965-.276.69-1.103.138-1.103.276m52.092-1.318c0 2.758-.966 4.688-3.586 4.688s-3.585-1.93-3.585-4.688v-3.724c0-1.792 0-2.206 1.103-2.206h.414q.207-.207 0-.414h-4.413c-.138 0-.138.414 0 .414h.414c.965.138 1.103.414 1.103 2.206v4.137c0 2.069.413 3.448 1.379 4.137.965.69 2.068 1.104 3.31.966 1.24 0 2.482-.414 3.309-1.241a6.03 6.03 0 0 0 1.241-4.275v-1.93c0-1.242 0-2.483.276-3.586.138-.276.552-.414.827-.414h.414q.207-.207 0-.414h-4q-.206.207 0 .414h.415c.275 0 .69.138.827.414.276 1.24.414 2.482.276 3.723zm16.961-2.069c-.138-1.24 0-2.482.276-3.585 0-.138.414-.276.965-.414h.276q.207-.207 0-.413h-3.861q-.207.206 0 .413h.276c.689.138.965.138 1.103.276.276 1.241.414 2.482.276 3.723v4.414c-.828-.828-1.655-1.794-2.896-3.173l-1.655-1.93c-1.241-1.241-2.206-2.482-3.172-3.861h-2.895c-.138 0-.138.275 0 .413h.275c.414 0 .828.138 1.103.414q.414.62.414 1.241v5.102c0 1.242 0 2.483-.276 3.586q-.207.207-.827.413h-.414q-.207.207 0 .414h3.862q.206-.207 0-.413h-.552c-.414 0-.828-.138-.965-.276-.276-1.241-.414-2.482-.276-3.724v-3.86c0-.415 0-.828.138-1.104.413.414 1.517 1.793 2.068 2.344l4.137 4.689c1.517 1.793 2.069 2.344 2.207 2.62.137 0 .275 0 .275-.138v-7.171zm6.895 4.551c0 1.93 0 2.069-1.103 2.206h-.414c-.138.138 0 .414 0 .414h4.413q.207-.207 0-.414h-.414c-1.103-.137-1.103-.413-1.103-2.206v-6.343c0-1.931 0-2.207 1.103-2.207h.414c.138 0 .138-.413 0-.413h-4.413q-.207.206 0 .413h.414c1.103.138 1.103.414 1.103 2.207zm11.308.552c.276.827.552 1.517.827 2.344h.414c.276-.965 1.103-3.034 1.793-4.55l.965-2.207c.552-1.38 1.241-2.758 1.931-4.137.138-.414.551-.552.965-.552h.552c.137-.138.137-.413 0-.413h-3.448q-.207.206 0 .413h.276c.689.138.827.276.827.276 0 .276-.138.414-.138.69-.275.827-1.103 2.758-1.654 3.999-.414.965-1.104 2.758-1.655 3.86-.828-2.068-1.655-3.998-2.482-6.067-.552-1.379-.828-2.344-.828-2.482s.138-.276.828-.276h.275q.207-.207 0-.413h-3.861q-.207.206 0 .413h.276c.689.138.965.414 1.379 1.517zm11.997-.552c0 1.93-.138 2.069-1.103 2.206h-.552q-.207.207 0 .414h8.826l.827-2.482c-.138-.138-.275-.276-.413-.138q-.414 1.035-1.241 1.655c-.69.276-1.517.276-2.345.276-1.517 0-1.93-.138-2.068-.414-.276-.552-.414-1.241-.276-1.793v-2.482c0-.414 0-.414.552-.414h1.103c.413 0 .965 0 1.379.138.276.138.551.414.551.69l.138.69c.138.137.414.137.414 0v-3.448c0-.138-.414-.138-.414 0l-.138.69c-.138.413-.275.55-.413.55-.552.139-.966.139-1.517.139h-1.103c-.552 0-.552 0-.552-.552v-3.447c0-.69 0-.69.552-.69h.965c.551 0 1.103 0 1.655.138.965.276 1.103.827 1.379 1.655.138.138.413 0 .413 0 0-.828-.138-1.517-.275-2.344h-7.723c-.138 0-.138.413 0 .413h.276c1.103.138 1.103.414 1.103 2.207zm12.963 0c0 1.93 0 2.069-1.103 2.206h-.414c-.138.138 0 .414 0 .414h4.275q.207-.207 0-.414h-.414c-1.103-.137-1.103-.413-1.103-2.206v-2.206c0-.414 0-.414.827-.414.552-.138.965.138 1.241.552.552.827 1.241 2.068 1.793 2.62 1.241 1.792 2.206 2.206 3.723 2.206.276 0 .552 0 .828-.138.138 0 .138-.138 0-.276-.414 0-.828-.138-1.241-.551-1.379-1.38-2.621-3.034-3.586-4.689-.138-.138-.138-.276-.138-.414 1.241-.413 2.207-1.654 2.207-3.033 0-1.104-.552-2.069-1.379-2.483-.966-.413-1.931-.551-3.034-.551-1.655 0-2.896 0-3.999.138q-.207.207 0 .413l.551.138c.69.138.828.414.828 2.069zm1.379-7.86c0-.552 0-.552 1.103-.552 1.379-.138 2.758.965 2.758 2.344v.414c.138.828-.276 1.655-.828 2.206-.551.276-1.241.552-1.792.414-.414 0-.828 0-1.241-.138zm18.065 7.584c0-1.379-.966-2.758-2.207-3.447l-1.379-.966c-.827-.413-1.379-1.24-1.517-2.206-.138-.965.69-1.93 1.655-1.93h.414c1.241 0 2.206.827 2.344 1.93.138.138.414 0 .414 0 0-.69-.138-1.517-.276-2.206-.276 0-.414 0-.552-.138-.551-.138-1.103-.276-1.654-.276-2.345 0-3.586 1.379-3.586 3.034.138 1.24.828 2.482 1.931 3.033l1.655 1.104c.965.551 1.516 1.379 1.516 2.482s-.827 2.068-1.93 2.068h-.276c-1.517 0-2.758-1.103-3.034-2.62q-.207-.207-.413 0 0 1.241.413 2.483c.828.413 1.793.689 2.758.689 2.345.276 3.861-1.103 3.724-3.034m5.929.276c0 1.93 0 2.069-1.103 2.206h-.414q-.207.207 0 .414h4.413q.207-.207 0-.414h-.414c-1.103-.137-1.103-.413-1.103-2.206v-6.343c0-1.931 0-2.207 1.103-2.207h.414c.138 0 0-.413 0-.413h-4.413c-.138 0-.138.413 0 .413h.414c1.103.138 1.103.414 1.103 2.207zm12.825-7.86c0-.552 0-.552.551-.552h1.242a5.5 5.5 0 0 1 2.068.414q.414.62.414 1.24.207.208.413 0c0-.964 0-1.792.276-2.757 0 0-.276-.138-.276 0-.275.414-.413.552-1.379.552h-7.17c-.828 0-1.379 0-1.517-.552h-.276c-.138.827-.414 1.793-.69 2.62.138.138.276.276.414.138q.207-.621.828-1.241c.689-.414 1.379-.552 2.206-.414h.965c.552 0 .552 0 .552.552v7.86c0 1.93-.138 2.069-1.103 2.206h-.69q-.207.207 0 .414h4.827q.207-.207 0-.414h-.552c-.965-.137-1.103-.413-1.103-2.206zm10.066 7.86c0 1.93-.137 2.069-1.103 2.206h-.551q-.207.207 0 .414h8.825l.828-2.482c-.138-.138-.276-.276-.414-.138q-.414 1.035-1.241 1.655c-.69.276-1.517.276-2.207.276-1.516 0-1.93-.138-2.206-.414-.276-.552-.414-1.241-.276-1.793v-2.482c0-.414 0-.414.552-.414h1.103c.414 0 .965 0 1.379.138.276.138.552.414.552.69l.138.69c.137.137.413.137.413 0v-3.448c0-.138-.413-.138-.413 0l-.138.69c-.138.413-.276.55-.414.55-.552.139-.965.139-1.517.139h-1.103c-.552 0-.552 0-.552-.552v-3.447c0-.69 0-.69.552-.69h1.241c.552 0 1.103 0 1.655.138.965.276 1.103.827 1.379 1.655.138.138.413 0 .413 0 0-.828-.137-1.517-.275-2.344-.828 0-1.517 0-2.345-.138h-5.378c-.138 0-.138.413 0 .413h.276c1.103.138 1.103.414 1.103 2.207zm17.238-7.86c0-.552 0-.552.551-.552h1.242a5.5 5.5 0 0 1 2.068.414q.414.62.414 1.24.207.208.413 0c0-.964 0-1.792.276-2.757 0 0-.276-.138-.276 0-.275.414-.413.552-1.379.552h-7.17c-.828 0-1.379 0-1.517-.552h-.276c-.138.827-.414 1.793-.689 2.62.137.138.275.276.413.138q.207-.621.828-1.241c.689-.414 1.379-.552 2.206-.414h.965c.552 0 .552 0 .552.552v7.86c0 1.93-.138 2.069-1.103 2.206h-.69q-.207.207 0 .414h4.827q.207-.207 0-.414h-.552c-.965-.137-1.103-.413-1.103-2.206zm10.067 7.86c0 1.93-.138 2.069-1.104 2.206h-.551q-.207.207 0 .414h8.825l.828-2.482c-.138-.138-.276-.276-.414-.138q-.413 1.035-1.241 1.655c-.69.276-1.517.276-2.206.276-1.517 0-1.931-.138-2.207-.414-.276-.552-.414-1.241-.276-1.793v-2.482c0-.414 0-.414.552-.414h1.103c.414 0 .965 0 1.379.138.276.138.414.414.552.69l.138.69c.138.137.413.137.413 0 0-.415-.138-1.104-.138-1.656s.138-1.379.138-1.792c-.138-.138-.413-.138-.413 0l-.138.69c-.138.413-.276.55-.414.55-.552.139-.965.139-1.517.139h-1.103c-.552 0-.552 0-.552-.552v-3.447c0-.69 0-.69.552-.69h1.241c.552 0 1.103 0 1.655.138.965.276 1.103.827 1.379 1.655.138.138.413 0 .413 0 0-.828-.137-1.517-.275-2.344h-7.723c-.138 0-.138.413 0 .413h.276c1.103.138 1.103.414 1.103 2.207zm17.237-7.86c0-.552 0-.552.552-.552h1.241a5.5 5.5 0 0 1 2.068.414q.414.62.414 1.24.207.208.414 0c0-.964 0-1.792.275-2.757 0 0-.275-.138-.275 0-.276.414-.414.552-1.379.552h-7.171c-.828 0-1.379 0-1.517-.552h-.276c-.138.827-.414 1.793-.689 2.62.137.138.275.276.413.138q.207-.621.828-1.241c.689-.414 1.379-.552 2.206-.414h.965c.552 0 .552 0 .552.552v7.86c0 1.93-.138 2.069-1.103 2.206h-.69q-.207.207 0 .414h4.827q.207-.207 0-.414h-.552c-.965-.137-1.103-.413-1.103-2.206zM77.789 46.601c0 3.28 0 3.515-1.64 3.75h-.47q-.351.35 0 .702h7.031c5.389 0 7.967-2.343 7.967-5.858 0-2.343-1.64-4.452-3.984-4.92a.504.504 0 0 1-.469-.47c1.875-.468 3.047-2.108 3.047-4.217 0-1.64-.938-3.046-2.344-3.75-1.64-.702-3.28-.937-4.92-.937-2.812 0-4.921 0-6.562.235q-.351.35 0 .703h.938c1.406.234 1.406.703 1.406 2.812zm2.343-4.92c0-.47 0-.704 1.64-.704 4.687 0 6.093 2.812 6.093 5.155 0 3.047-2.11 4.218-4.687 4.218-.937 0-1.64-.234-2.343-.937-.469-.937-.703-2.109-.703-3.28zm0-8.436c0-.47 0-.703.469-.703.468-.235.937-.235 1.406-.235 2.108-.234 4.217 1.172 4.452 3.515v.703c0 2.812-1.64 3.75-4.687 3.75-1.406 0-1.64 0-1.64-.938zM100.284 46.6c0 3.28-.235 3.515-1.875 3.75h-.937q-.351.35 0 .702h14.762l1.406-4.218c-.234-.234-.468-.468-.703-.234q-.702 1.758-2.109 2.812c-1.171.469-2.577.469-3.749.469-2.577 0-3.28-.235-3.749-.703-.469-.47-.469-1.64-.469-3.047v-4.218c0-.703 0-.703.938-.703h1.64c.703 0 1.64 0 2.343.235.469.234.703.703.937 1.172l.235 1.171c.234.234.703.234.703 0V37.93c0-.234-.703-.234-.703 0l-.235 1.172c-.234.703-.468.937-.703.937-.937.234-1.64.234-2.577.234h-1.64c-.938 0-.938 0-.938-.937v-5.858c0-1.172 0-1.172.938-1.172h2.109c.937 0 1.874 0 2.811.235 1.641.468 1.875 1.405 2.344 2.811.234.235.703 0 .703 0 0-1.406-.235-2.577-.469-3.983H98.175q-.351.352 0 .703h.469c1.874.234 1.874.703 1.874 3.75zm22.261 0c0 3.28 0 3.515-1.875 3.75h-.703q-.351.35 0 .702h7.264q.351-.35 0-.703h-.703c-1.64-.234-1.875-.703-1.875-3.749v-3.75c0-.702 0-.702 1.406-.702.938-.235 1.641.234 2.109.937.938 1.406 2.109 3.515 3.046 4.452 2.109 3.047 3.75 3.75 6.327 3.75.469 0 .937 0 1.406-.235.234 0 .234-.234 0-.468-.703 0-1.406-.235-2.109-.938-2.343-2.343-4.452-5.155-6.092-7.967-.235-.234-.234-.468-.234-.703 2.108-.703 3.749-2.812 3.749-5.155 0-1.875-.938-3.515-2.578-4.218s-3.28-.937-4.921-.937c-3.046 0-4.92 0-6.795.234q-.351.352 0 .703l.937.235c1.172.234 1.406.703 1.406 3.514zm2.343-13.356c0-.938 0-.938 1.874-.938 2.344-.234 4.687 1.64 4.921 3.984v.703c.234 1.406-.469 2.812-1.406 3.749-.937.468-2.109.937-3.046.703-.703 0-1.406 0-2.109-.234v-.938zm36.086 13.122c0-1.64 0-2.344 1.405-2.578h.469q.351-.35 0-.703h-7.498c-.235 0-.235.703 0 .703l1.406.234c1.874.235 1.874.47 1.874 2.812v1.172c0 .703 0 1.172-.234 1.64-.234.469-1.406.938-3.281.938-6.092 0-9.138-4.453-9.138-10.31-.469-4.453 2.812-8.202 7.264-8.67h1.171c2.812-.47 5.624 1.405 6.093 4.217.234.234.703.234.703 0-.234-1.406-.469-2.812-.469-4.452-.703 0-1.171 0-1.874-.234-1.172-.235-2.578-.469-3.75-.469-3.514-.234-7.029.937-9.607 3.515-1.874 1.874-2.812 4.452-2.812 7.03 0 2.577.938 4.92 2.812 6.795 2.578 2.343 5.858 3.515 9.139 3.28 1.874 0 3.515-.234 5.389-.703.469-.234.938-.234 1.406-.234v-.234q-.703-.35-.703-2.11zm11.247.234c0 3.28-.234 3.515-1.875 3.75h-.937c-.234.233-.234.702 0 .702h14.763l1.406-4.218c-.235-.234-.469-.468-.703-.234q-.703 1.758-2.109 2.812c-1.172.469-2.578.469-3.75.469-2.577 0-3.28-.235-3.749-.703-.468-.47-.468-1.64-.468-3.047v-4.218c0-.703 0-.703.937-.703h1.64c.703 0 1.64 0 2.343.235.469.234.938.703.938 1.172l.234 1.171c.234.234.703.234.703 0 0-.703-.234-1.875-.234-2.812s.234-2.343.234-3.046c-.234-.234-.703-.234-.703 0l-.234 1.172c-.235.703-.235.937-.703.937-.938.234-1.641.234-2.578.234h-1.64c-.937 0-.937 0-.937-.937v-5.858c0-1.172 0-1.172.937-1.172h2.109c.937 0 1.874 0 2.812.235 1.64.468 1.874 1.405 2.343 2.811q.351.352.703 0c0-1.406-.234-2.577-.469-3.983h-13.122c-.234 0-.234.703 0 .703h.469c1.874.234 1.874.703 1.874 3.75zm38.195-7.733c-.235-2.109 0-4.218.468-6.092 0-.234.703-.469 1.641-.703h.468q.352-.352 0-.703h-6.561c-.234 0-.234.469 0 .703h.469c1.172.234 1.64.234 1.875.469q.702 3.162.703 6.326v6.561c0 .469-.001.938-.235 1.172-1.406-1.406-2.812-3.046-4.921-5.39l-2.811-3.28c-1.875-2.109-3.75-4.218-5.156-6.561h-4.686c-.234 0-.234.469 0 .703h.469c.703 0 1.405.234 1.874.703q.703 1.054.703 2.109v8.67c0 2.109 0 4.218-.469 6.092q-.351.352-1.405.703h-.938q-.351.352 0 .703h6.561q.352-.35 0-.703h-.937c-.703 0-1.406-.234-1.64-.468-.469-2.11-.703-4.218-.469-6.327v-6.561c0-.703 0-1.406.234-1.875.703.703 2.578 3.046 3.515 3.984l7.03 7.967c2.578 3.046 3.515 3.983 3.749 4.452.234 0 .469-.234.469-.234z" fill="#000"/></svg>