<svg height="100%" viewBox="0 0 242 61" fill="none" xmlns="http://www.w3.org/2000/svg"><path d="M97.767 42.088c0-.519-.345-.865-1.036-1.038v-.346c.345 0 1.64.087 1.986.087.26 0 1.555-.087 1.9-.087v.346c-.604.173-.95.519-.95 1.038v6.485c0 2.075 1.123 3.2 3.455 3.2 2.073 0 3.627-.952 3.627-3.114v-6.658c0-.518-.345-.864-1.036-1.037v-.26c.259 0 1.295.087 1.641.087.345 0 1.382-.087 1.641-.087v.346c-.777.173-1.037.519-1.037 1.038V48.4c0 2.853-1.641 4.496-5.182 4.496-3.281 0-5.009-1.47-5.009-4.15v-6.658Zm14.164 10.289c.778-.173 1.037-.519 1.037-1.038v-8.992c0-.778-.432-1.124-1.123-1.297v-.346h2.504l7.774 9.166v-7.782c0-.52-.346-.865-1.037-1.038v-.346c.259 0 1.296.087 1.641.087.346 0 1.382-.087 1.641-.087v.346c-.777.173-1.123.519-1.123 1.038v10.807h-.432c-.259-.086-.863-.345-1.727-1.297l-6.996-8.127v7.955c0 .518.259.864 1.037 1.037v.346c-.259 0-1.296-.087-1.641-.087-.346 0-1.382.087-1.641.087l.086-.432Zm61.492-2.421h.346c.173.692.518 1.297 1.123 1.643.518.432 1.468.605 2.159.605 1.554 0 2.591-.778 2.591-1.989 0-1.297-1.296-1.902-2.764-2.68-1.123-.605-3.368-1.47-3.368-3.632 0-1.988 1.554-3.285 3.973-3.285 1.641 0 2.332.432 3.454.346v2.42h-.345c-.432-1.47-1.728-1.902-3.196-1.902-1.641 0-2.159.952-2.159 1.816 0 1.297 1.296 1.989 2.764 2.68 1.641.692 3.454 1.643 3.454 3.719 0 1.988-1.554 3.372-4.318 3.372-1.641 0-2.677-.52-3.541-.606l-.173-2.507Zm33.424-2.248-3.196-5.102c-.518-.864-.95-1.383-1.554-1.556v-.346c.432 0 1.641.087 1.9.087.345 0 1.555-.087 2.073-.087v.346c-.432.086-.605.26-.605.605 0 .26.173.605.346.951.172.26 2.331 3.891 2.331 3.891l2.246-3.89c.259-.433.345-.779.345-1.038 0-.26-.172-.433-.518-.433v-.432c.346 0 1.209.087 1.468.087.26 0 1.21-.087 1.555-.087v.346c-.864.346-1.382 1.124-1.9 1.989l-2.85 4.842m.173-.605v4.063c0 .433.345.952 1.036 1.038v.346c-.345 0-1.641-.087-1.986-.087-.346 0-1.555.087-1.987.087v-.346c.691-.173 1.037-.605 1.037-1.038v-3.89m-58.814-6.745h7.428c.259 0 .604 0 .863-.173h.346l-.087 2.421h-.345c-.259-.778-.605-1.383-1.986-1.383h-3.196v4.323h2.505c.345 0 .777 0 .95-.086.518-.087.777-.433.95-.951h.345v3.026h-.345c-.173-.52-.346-.865-.95-.951-.173-.087-.605-.087-.95-.087h-2.505v4.929h3.541c1.555 0 1.986-.605 2.332-1.557h.345l-.345 2.508c-1.123-.087-1.814-.087-3.109-.087h-3.714c-.345 0-1.641.087-2.073.087v-.346c.691-.173 1.037-.432 1.037-1.124v-9.165c0-.605-.346-.951-1.037-1.038v-.346Zm-19 1.47c0-.605-.346-.951-1.037-1.124v-.346c.432 0 1.641.087 2.073.087.345 0 1.641-.087 2.073-.087v.346c-.691.173-1.123.432-1.123 1.124v9.079c0 .605.345.95 1.123 1.124v.345c-.432 0-1.641-.086-2.073-.086-.346 0-1.641.086-2.073.086v-.345c.777-.173 1.123-.433 1.123-1.124l-.086-9.08Zm56.397 0c0-.605-.345-.951-1.036-1.124v-.346c.432 0 1.727.087 2.073.087.345 0 1.641-.087 2.073-.087v.346c-.691.173-1.037.432-1.037 1.124v9.079c0 .605.346.95 1.037 1.124v.345c-.432 0-1.641-.086-2.073-.086-.346 0-1.641.086-2.073.086v-.345c.777-.173 1.036-.433 1.036-1.124v-9.08Zm10.364-1.383c-4.059 0-4.75-.087-5.527-.173v2.42h.345c.345-1.123.95-1.383 1.727-1.383h2.591v9.511c0 .605-.345.951-1.122 1.124v.346c.431 0 1.727-.086 2.072-.086.346 0 1.641.086 2.073.086v-.346c-.691-.173-1.123-.519-1.123-1.124v-9.51h2.505c.777 0 1.382.259 1.727 1.383h.346v-2.421c-.95.086-1.555.172-5.614.172Zm-32.56 10.462c0 .605.346.95 1.123 1.124v.345c-.432 0-1.727-.086-2.073-.086-.345 0-1.554.086-1.986.086v-.345c.691-.173 1.036-.433 1.036-1.124v-9.166c0-.605-.345-.95-1.036-1.037v-.346c.432 0 1.641.087 1.986.087.605 0 2.246-.087 2.937-.087 2.85 0 4.404 1.21 4.404 3.2 0 1.556-1.209 2.68-3.022 3.112 0 0 .431.26.863.692.518.605 1.9 2.507 2.418 3.199.519.692 1.296 1.47 2.073 1.47v.26c-.345.086-.95.172-1.382.172-.95 0-1.727-.346-2.504-1.21-.691-.778-1.727-2.421-2.418-3.286-.432-.519-.95-.951-1.814-1.124-.173 0-.346-.087-.518-.087l-.087 4.15Zm0-4.843c.346.087.95.087 1.468.087 2.246 0 2.937-1.297 2.937-2.421 0-1.643-1.037-2.594-3.023-2.594-.432 0-.95.086-1.382.173v4.755Zm-28.328-4.236c-.259-.606-.691-1.038-1.381-1.124v-.346c.431 0 1.9.086 2.245.086.259 0 1.555-.086 1.986-.086v.346c-.345.086-.863.259-.863.691 0 .26.173.692.518 1.384l3.109 7.004 2.937-7.004c.259-.606.431-1.038.431-1.297 0-.346-.345-.606-.863-.692v-.432c.345 0 1.295.086 1.641.086.259 0 1.382-.086 1.813-.086v.346c-.691.172-1.209.605-1.554 1.556l-4.319 10.116h-.95l-4.75-10.548Zm11.055-31.906c-.518-1.124-1.295-1.902-2.505-2.162v-.605c.778 0 3.455.087 4.06.087.518 0 3.109-.087 3.972-.087v.605c-.69.173-1.554.52-1.554 1.297 0 .52.345 1.297.95 2.594l5.873 13.316 5.527-13.316c.432-1.037.778-1.902.778-2.507 0-.692-.691-1.21-1.555-1.384v-.605c.778 0 2.505.086 3.109.086.519 0 2.591-.086 3.455-.086v.605c-1.382.346-2.246 1.21-3.023 2.94l-8.118 19.195h-1.814l-9.155-19.973ZM67.28 29.463c1.037-.26 1.814-.692 1.814-1.902V10.009c0-1.124-.691-1.643-1.814-1.903v-.691c.519 0 2.937.086 3.541.086.691 0 3.196-.086 3.714-.086v.605c-1.036.26-1.814.692-1.814 1.902v7.436H85.85v-7.35c0-1.21-.691-1.729-1.814-1.902v-.691c.518 0 3.023.086 3.714.086.605 0 3.023-.086 3.627-.086v.605c-1.036.26-1.813.692-1.813 1.902v17.553c0 1.124.69 1.642 1.813 1.902v.605c-.518 0-3.023-.086-3.627-.086-.691 0-3.11.086-3.714.086v-.519c1.037-.26 1.814-.692 1.814-1.902v-8.3H72.72v8.3c0 1.21.691 1.643 1.814 1.902v.606c-.518 0-3.11-.087-3.714-.087-.604 0-2.936.087-3.54.087v-.606Zm151.315 0c1.382-.26 2.073-.778 2.073-1.988V10.009c0-1.21-.777-1.73-2.073-1.903v-.691c.777 0 3.196.086 3.887.086 1.122 0 4.145-.26 6.564-.26 8.032 0 12.954 4.497 12.954 11.328 0 6.658-5.095 11.586-13.386 11.586-2.419 0-5.182-.173-6.305-.173-.691 0-2.937.086-3.714.086v-.605Zm5.7-1.124c.864.173 2.332.26 3.541.26 6.737 0 10.278-4.064 10.278-9.77 0-5.88-3.714-10.03-10.018-10.03-1.296 0-2.937.086-3.801.259v19.281Zm-96.815-.95c0 1.123.777 1.815 2.073 2.074v.606c-.778 0-3.196-.087-3.973-.087-.605 0-3.023.087-3.8.087v-.606c1.295-.26 1.986-.864 1.986-2.075V10.095c0-1.037-.604-1.73-1.986-1.989v-.691c.777 0 3.109.086 3.8.086 1.123 0 4.232-.173 5.527-.173 5.442 0 8.464 2.248 8.464 6.053 0 3.026-2.245 5.015-5.7 5.88 0 0 .778.432 1.555 1.383.95 1.124 3.627 4.929 4.664 6.226 1.036 1.297 2.418 2.767 3.886 2.767v.518c-.691.173-1.814.26-2.677.26-1.814 0-3.282-.692-4.75-2.421-1.21-1.47-3.369-4.67-4.578-6.226-.777-1.037-1.727-1.816-3.455-2.075-.345-.087-.691-.087-1.036-.173v7.868Zm0-9.166c.691.087 1.814.173 2.85.173 4.232 0 5.528-2.421 5.528-4.583 0-3.026-2.073-4.928-5.701-4.928-.777 0-1.9.086-2.677.259v9.079Zm71.339 9.165c0 1.124.777 1.816 2.073 2.075v.606c-.778 0-3.196-.087-3.887-.087-.604 0-3.023.087-3.8.087v-.606c1.296-.26 1.987-.864 1.987-2.075V10.095c0-1.037-.605-1.73-1.987-1.989v-.691c.777 0 3.109.086 3.8.086 1.123 0 4.232-.173 5.441-.173 5.442 0 8.465 2.248 8.465 6.053 0 3.026-2.246 5.015-5.701 5.88 0 0 .778.432 1.555 1.383.95 1.124 3.627 4.929 4.664 6.226 1.036 1.297 2.418 2.767 3.886 2.767v.518c-.691.173-1.814.26-2.677.26-1.814 0-3.282-.692-4.75-2.421-1.21-1.47-3.369-4.67-4.578-6.226-.777-1.037-1.727-1.816-3.455-2.075-.345-.087-.69-.087-1.036-.173v7.868Zm0-9.165c.691.087 1.814.173 2.85.173 4.232 0 5.528-2.421 5.528-4.583 0-3.026-2.073-4.928-5.701-4.928-.777 0-1.9.086-2.677.259v9.079ZM94.66 29.463c1.468-.346 2.246-1.297 2.764-2.507l7.255-17.466c.345-.692.691-2.162.691-2.162h2.072s.346 1.47.691 2.248l7.687 17.466c.518 1.21 1.123 2.075 2.677 2.421v.606c-.863 0-3.368-.087-3.972-.087-.605 0-3.023.087-3.887.087v-.606c1.123-.259 1.468-.864 1.468-1.383 0-.432-.172-1.038-.431-1.556l-1.641-3.718h-8.464l-1.469 3.804c-.172.432-.345 1.038-.345 1.47 0 .605.345 1.124 1.554 1.47v.605c-.777 0-2.763-.086-3.195-.086l-3.282.086-.173-.692Zm14.423-8.473-3.627-8.388-3.368 8.388h6.995Zm57.433 8.473c1.468-.346 2.245-1.297 2.763-2.507l7.255-17.466c.346-.692.691-2.162.691-2.162h2.073s.346 1.47.691 2.248l7.687 17.466c.518 1.21 1.122 2.075 2.677 2.421v.606c-.864 0-3.368-.087-3.973-.087-.604 0-3.023.087-3.886.087v-.606c1.122-.259 1.468-.864 1.468-1.383 0-.432-.173-1.038-.432-1.556l-1.641-3.718h-8.464l-1.468 3.804c-.173.432-.346 1.038-.346 1.47 0 .605.346 1.124 1.555 1.47v.605c-.777 0-2.764-.086-3.196-.086l-3.281.086v-.692h-.173Zm14.336-8.473-3.627-8.388-3.368 8.388h6.995Z" fill="#1E1E1E"/><path d="M.346.413h50.523V19.52c0 8.733-3.282 27.323-25.046 41.158 0 0-23.665-9.857-25.479-41.158L.346.413Z" fill="#A51C30"/><path d="M16.959 30.559a.475.475 0 0 0-.326.135c-.173.15-.276.357-.282.368-.192.27-.598.338-.966.328-.368-.01-.685-.095-.685-.095l-.02-.005-.02.007c-.53.177-.766.402-.863.596a.554.554 0 0 0-.06.248c0 .05.006.072.01.087v1.98a.316.316 0 0 1-.14.223.59.59 0 0 1-.262.083c-.19.02-.376-.02-.376-.02h-.001c-.665-.133-1.12.023-1.404.216-.28.19-.39.411-.395.419-.284.385-.096.925-.096.925v.004c.019.049.04.095.064.138l.004.01c.259.692 1.21.691 1.21.691.345.26.949.086.949.086.177 0 .28.074.344.167.031.128.017.255.017.255l-.002.015.003.014c.006.023.018.143.024.307.006.165.008.381.01.632.004.502.002 1.14-.003 1.766a315.77 315.77 0 0 1-.032 2.464c0 .423-.083.67-.083.67l-.003.01v.013c0 .02-.007.032-.03.05a.34.34 0 0 1-.12.054c-.11.03-.268.04-.427.04-.318 0-.64-.041-.64-.041l-.008-.002-.008.002c-.9.09-1.178.898-1.181.907v.001a.7.7 0 0 0-.017.492c.024.077.06.15.1.22.16.392.588.698.588.698 0 .173 1.641.259 1.641.259.1.025.168.095.218.179l.015.045c.04.152.04.294.04.294a.811.811 0 0 0-.02.172 5.059 5.059 0 0 0-.003.304c.004.233.018.518.034.794.032.552.076 1.07.076 1.07l.002.004v.004c.009.055.035.102.069.145l.001.015c.087.519 1.728.346 1.728.346s5.751-.133 7.306-.108c.221.003.358.011.379.022.173 0 .606-.086.606-.086l.604.432a1.038 1.038 0 0 0 .861.211c.443-.08.78-.385.78-.385l.863-.172c.173 0 7.17-.086 7.17-.086.604.173.863-.088.863-.088l1.122-.086a.688.688 0 0 0 .121-.01c.275-.05.416-.27.49-.485.021-.042.044-.085.06-.128.092-.252.09-.5.09-.5v-1.462c.014-.116.04-.206.07-.288.158-.277.378-.325.378-.325l1.036-.174.52-.259c.199-.05.304-.19.364-.358.015-.024.032-.047.044-.072a1.18 1.18 0 0 0 .093-.499c0-.337-.09-.646-.09-.646l-.002-.007-.001-.007c-.19-.379-.626-.533-1.002-.6-.377-.066-.709-.044-.709-.044h-.001c-.416.042-.573-.077-.645-.194-.072-.117-.055-.243-.055-.243v-.005l.087-5.359c.034-.2.093-.36.15-.491.068-.13.125-.208.125-.208.26.087 1.122-.174 1.122-.174.496-.05.703-.354.793-.606.008-.015.02-.03.027-.044.114-.24.113-.46.113-.466.046-.34-.19-.62-.424-.809-.235-.19-.48-.3-.48-.3l-.014-.008h-1.213c-.033-.007-.06-.024-.09-.062a.533.533 0 0 1-.077-.166 2.147 2.147 0 0 1-.065-.513c-.011-.372.032-.735.032-.735l.001-.005v-.695c0-.336-.24-.573-.465-.72-.226-.146-.449-.212-.449-.212l-.01-.004h-1.54a.445.445 0 0 0-.132-.152 1.11 1.11 0 0 0-.25-.114c-.169-.057-.325-.078-.325-.078-.281-.089-.7-.088-.7-.088h-.022l-.019.012c-.537.373-1.48.529-2.285.583-.805.053-1.47.012-1.47.012l-2.708-.176-.024.022c.008-.008-.01.006-.037.015a1.13 1.13 0 0 1-.113.03c-.09.02-.205.039-.317.055-.225.032-.44.054-.44.054l-.044.003-.016.044c-.074.223-.3.3-.3.3l-.238.082c-.158-.135-.404-.237-.637-.308-.247-.075-.451-.116-.46-.118-.003 0-.004-.003-.006-.003a.337.337 0 0 0-.07-.014 1.875 1.875 0 0 0-.136-.005c-.111-.001-.264.002-.445.008-.361.012-.834.036-1.304.063-.939.054-1.866.12-1.867.12-1.071.043-1.794-.13-2.249-.31-.454-.18-.634-.36-.634-.36-.114-.157-.24-.232-.364-.237Zm-.006.142c.076.003.164.045.264.186l.001.003.004.005s.21.206.683.394c.474.187 1.217.362 2.306.319h.005s.927-.066 1.866-.12c.469-.027.94-.05 1.3-.063.18-.006.333-.009.44-.008.054 0 .097.002.125.005.012 0 .02.002.026.003l.003.004.02.005s.214.042.459.116c.245.075.522.188.63.296l.03.03.3-.1s.184-.107.309-.295c-.097.234-.333.314-.333.314l-.258.174c-.259-.26-1.123-.432-1.123-.432-.087-.087-3.8.172-3.8.172-2.16.087-2.938-.69-2.938-.69-.431-.606-.863.258-.863.258-.432.605-1.727.26-1.727.26-.479.16-.693.355-.792.52a.427.427 0 0 1 .036-.1c.075-.15.277-.352.77-.52.028.007.317.084.687.095.388.01.846-.052 1.085-.387l.003-.003.004-.005s.104-.21.25-.337c.074-.063.153-.102.228-.1Zm16.231.13c.031 0 .422.005.65.08l.007.003.005.001s.147.021.302.073a.992.992 0 0 1 .217.098c.01.006.015.014.024.02-.208-.128-.533-.176-.533-.176-.26-.086-.692-.086-.692-.086-1.123.778-3.8.607-3.8.607l-2.677-.174c-.086.085-.92.17-.94.172.004-.006.009-.01.012-.017.013 0 .21-.02.432-.052a4.91 4.91 0 0 0 .327-.056c.048-.01.09-.022.127-.034.02-.007.035-.018.052-.027l2.663.17s.675.045 1.49-.01c.805-.053 1.748-.197 2.334-.592Zm1.353.43h1.552c.005.002.129.05.272.124a1.916 1.916 0 0 0-.26-.108h-1.555l-.009-.015Zm1.852.139c.037.02.068.03.107.056l.03.023a1.729 1.729 0 0 0-.137-.079Zm.616 2.805c.01.016.018.034.029.049a.297.297 0 0 0 .177.118l.007.002h1.197c.01.004.225.104.439.277.15.121.281.273.34.44-.154-.248-.44-.439-.614-.538a1.627 1.627 0 0 0-.148-.076h-1.208c-.105-.021-.174-.127-.219-.272Zm-23.23.264c-.216.41-.82.266-.82.266-1.296-.26-1.728.607-1.728.607-.012.015-.018.032-.029.049a.584.584 0 0 1 .088-.181l.007-.01s.098-.2.354-.374.664-.32 1.294-.194c0 0 .202.045.422.022a.716.716 0 0 0 .325-.105.451.451 0 0 0 .088-.08Zm23.12 8.56c.103.159.33.294.767.251 0 0 .317-.02.674.043.357.063.74.21.896.521l.014.06c-.406-.6-1.59-.522-1.59-.522-.564.056-.72-.18-.762-.353Zm-23.24.407a6.473 6.473 0 0 0-.009.032c0 .043-.02.08-.056.108a.404.404 0 0 1-.146.066c-.365.097-1.094 0-1.094 0a1.324 1.324 0 0 0-1.054.714s.24-.732 1.061-.816c.015.002.32.043.643.043.165 0 .33-.01.462-.046a.466.466 0 0 0 .174-.08c.007-.005.012-.014.019-.021Zm6.017-36.878-.026.022c-1.348 1.096-3.306.591-3.306.591l-.009-.002h-.008c-1.902 0-2.515.087-2.515.087l-.027.005-.017.02c-.196.236-.437.233-.65.172a1.268 1.268 0 0 1-.37-.18.325.325 0 0 0-.17-.114 1.257 1.257 0 0 0-.247-.054c-.168-.022-.322-.023-.322-.023H12L12 7.083c-1.896.13-3.078.021-3.782-.118a3.945 3.945 0 0 1-.729-.206c-.144-.059-.194-.096-.194-.096l.009.009a.184.184 0 0 0-.086-.048.829.829 0 0 0-.11-.023 2.914 2.914 0 0 0-.27-.026 7.233 7.233 0 0 0-.361-.012h-.044l-.02.04a5.04 5.04 0 0 1-.326.489.382.382 0 0 1-.076.015c-.048.005-.112.01-.183.012-.144.004-.321.002-.493-.003-.344-.011-.666-.032-.666-.032l-.004-.002h-.001c-.36 0-.577.117-.699.238a.555.555 0 0 0-.148.252l-.002.005L3.73 9.23v.005c.043.514-.009.721-.044.777-.017.028-.018.022-.018.022l-.06-.039-.04.06c-.022.033-.108.08-.23.106a2.5 2.5 0 0 1-.424.046c-.298.01-.575-.01-.575-.01l-.007-.002-.007.001a.763.763 0 0 0-.533.293 1.357 1.357 0 0 0-.241.528c-.09.37-.066.725-.066.725v.008c.047.235.18.4.348.505.166.106.366.157.556.179.37.044.695-.018.714-.022h.001c.46.042.627.185.689.299.061.114.027.214.027.214l-.004.01v.012c0 .18.022 1.601.044 2.985l.042 2.713c-.02.186-.07.302-.128.374a.315.315 0 0 1-.192.116c-.136.027-.272-.027-.272-.027l-.013-.007h-.014c-.966 0-1.41.338-1.596.686-.184.346-.115.689-.114.692.047.628.442.918.814 1.03.374.114.73.068.73.068l-.008.002c.463 0 .652.122.732.23.081.107.063.205.063.205l-.003.022.01.022c-.003-.006.01.044.013.11.004.066.005.153.004.253a16.6 16.6 0 0 1-.034.703c-.033.496-.076.97-.076.97v.01l.002.01c.09.497.377.7.636.76.24.054.436-.002.467-.01h.003l6.894.173c.984.718 1.62.739 2 .543.365-.188.46-.524.473-.563l.12.019c.077.013.228.02.448.025.221.006.508.01.837.012.66.004 1.49.002 2.311-.003.82-.006 1.632-.014 2.247-.02.613-.008 1.032-.012 1.073-.012h.005c.283.063.504.048.675-.017a.742.742 0 0 0 .367-.31c.152-.245.152-.516.152-.52v-.003l.086-2.06c.035-.136.182-.235.334-.296.147-.059.28-.078.29-.08.96.128 1.43-.21 1.635-.588.206-.379.16-.782.16-.786v-.001c-.046-.63-.418-.94-.77-1.076-.35-.136-.687-.112-.687-.112l.005-.001c-.458 0-.668-.16-.774-.314a.59.59 0 0 1-.107-.304v-.002c.024-.15.039-.523.05-1.029.013-.51.02-1.143.026-1.76.011-1.232.012-2.399.012-2.399 0-.106.06-.277.123-.414.055-.12.097-.189.11-.21.532.053.938.022 1.223-.08.297-.107.48-.28.585-.461.208-.359.115-.736.113-.745.04-.325-.01-.57-.123-.741a.823.823 0 0 0-.462-.325c-.335-.1-.67-.039-.69-.035-.591 0-.794-.164-.866-.307-.071-.144-.018-.29-.018-.29l.002-.007.001-.007c.131-.828.088-1.4.01-1.766-.077-.366-.195-.534-.195-.534l-.007-.01-.012-.009c-.088-.058-.215-.08-.37-.097a4.834 4.834 0 0 0-.5-.022c-.338 0-.641.022-.641.022l-.022.001-.015.012c-.062.046-.129.041-.221-.005a1.155 1.155 0 0 1-.29-.235c-.188-.199-.338-.432-.338-.432l-.017-.026-.495-.099Zm24.442 0-.026.022c-1.348 1.096-3.306.591-3.306.591l-.008-.002h-.01c-1.816 0-2.428.087-2.428.087l-.027.005-.017.02c-.196.236-.437.233-.65.172a1.265 1.265 0 0 1-.369-.179.323.323 0 0 0-.17-.115 1.259 1.259 0 0 0-.248-.054 2.926 2.926 0 0 0-.322-.023h-.003l-.002.001c-1.895.13-3.077.021-3.782-.118a3.947 3.947 0 0 1-.729-.206c-.143-.059-.194-.096-.194-.096l.009.009a.189.189 0 0 0-.088-.048.804.804 0 0 0-.108-.023 2.957 2.957 0 0 0-.271-.026c-.187-.01-.36-.012-.36-.012h-.044l-.02.04c-.075.15-.31.468-.327.49a.46.46 0 0 1-.076.014c-.049.005-.11.01-.182.012-.143.004-.32.002-.493-.003-.344-.011-.668-.032-.668-.032l-.001-.002h-.002c-.402 0-.638.114-.771.235a.548.548 0 0 0-.164.255v1.75c.043.469-.01.655-.042.699-.015.021-.014.013-.017.013h-.005l-.057-.039-.04.06c-.023.033-.11.079-.232.106a2.51 2.51 0 0 1-.425.045c-.297.011-.575-.01-.575-.01l-.005-.002-.007.002a.86.86 0 0 0-.582.289 1.32 1.32 0 0 0-.268.53c-.1.37-.078.726-.078.726v.004l.002.005c.047.235.18.4.348.505.167.105.364.156.555.179.37.043.696-.019.715-.022h.002c.46.042.625.184.686.299.062.114.029.214.029.214l-.002.002v.003a2.144 2.144 0 0 0-.027.358c-.006.181-.01.42-.012.696-.004.552-.002 1.255.004 1.947.01 1.379.033 2.704.033 2.714-.02.185-.072.302-.13.373a.315.315 0 0 1-.192.117.533.533 0 0 1-.27-.027l-.013-.007h-.015c-.966 0-1.41.338-1.596.686-.185.346-.116.689-.115.692.048.628.443.917.815 1.03.373.113.732.068.732.068l-.008.001c.417 0 .606.122.7.233.093.112.092.215.092.215v.017l.007.015c-.003-.006.01.044.014.11.003.065.003.153.001.253-.004.2-.017.454-.034.703-.032.496-.074.97-.074.97l-.002.01.002.01c.09.496.38.7.638.76.24.054.436 0 .467-.01h.003l6.894.175c.985.717 1.619.738 2 .542.367-.19.485-.549.495-.583l.002-.002a.169.169 0 0 1 .13-.087c.017 0 .015.003.012-.002-.004-.005.003-.002-.012.029l-.042.086.094.015c.077.013.228.02.449.025.22.006.507.01.837.012.659.004 1.49.002 2.31-.003.821-.005 1.63-.014 2.246-.02l1.08-.012c.303.063.535.047.71-.019a.696.696 0 0 0 .365-.31c.143-.25.117-.53.117-.53l.002.011.085-2.064c.036-.135.18-.234.333-.295.148-.06.284-.077.292-.078.959.127 1.428-.213 1.634-.591.206-.378.16-.78.159-.784v-.003c-.046-.63-.417-.94-.768-1.076-.351-.136-.69-.111-.69-.111l.007-.002c-.502 0-.708-.16-.803-.312-.094-.151-.076-.3-.076-.3v-.008c0-.51.086-5.186.086-5.186v-.002c0-.106.06-.277.123-.413.056-.12.099-.19.112-.211.532.054.938.022 1.223-.08.297-.106.48-.28.585-.46.208-.36.115-.737.113-.746.04-.324-.011-.57-.125-.741a.823.823 0 0 0-.462-.324 1.607 1.607 0 0 0-.69-.036c-.59 0-.792-.164-.864-.307-.071-.143-.018-.289-.018-.289l.003-.014c.13-.828.088-1.4.01-1.766-.077-.366-.195-.534-.195-.534l-.009-.01-.01-.009c-.088-.059-.215-.08-.37-.098a4.835 4.835 0 0 0-.5-.022c-.338 0-.643.022-.643.022l-.02.002-.017.012c-.062.046-.127.041-.22-.005a1.162 1.162 0 0 1-.291-.235c-.188-.199-.336-.432-.336-.432l-.017-.026-.495-.099Z" fill="#000"/><path d="m25.737 60.936-.172-.087C25.392 60.763 1.813 50.56 0 19.52V.064h51.128v19.368c0 7.61-2.418 26.977-25.219 41.33l-.172.174ZM.605.668V19.43C2.332 48.83 23.75 59.379 25.737 60.242c22.37-14.266 24.787-33.289 24.787-40.812V.668H.604Z" fill="#000"/><path d="M7.6 7.33s-.518 0-.432.346L6.996 20.82s0 .605.95.692c0 0 1.208.086 1.468 0h2.764s.518.517.518-.088c0 0 .345-10.634.172-12.882 0 0 0-.952-.777-.952 0 0-3.108.26-3.367 0L7.6 7.33Zm11.989.02c-.114-.01-.298.023-.59.152 0 0 .089.347-3.798.174-.086 0-1.555 0-1.641.605 0 0-.086 6.226-.086 6.399l-.088 5.188-.086 1.815s.26.346.432.086c0 0 1.295-.345 2.16-.172 0 0 2.591.258 3.196-.174 0 0 .431.173.517-.432 0 0 .173-11.5.087-11.673 0 0 .172-1.643.086-1.816 0 0 0-.135-.19-.152ZM5.35 7.673c-.17.005-.416.111-.773.436l-.086 1.729s0 .951-.863.865c0 0-.951 0-1.47.432 0 0-.258.863.692.777 0 0 1.469 0 1.555.606l-.087 6.225s.347 1.038-.776 1.038c0 0-1.383-.087-1.383.777 0 0 .26.693 1.469.52 0 0 .864.173.777.951v1.555s-.087.607.776.693h6.391s.346 0 .346-.346c0 0 0-.347-.518-.347l-5.268-.172s-.865.26-.95-1.037c0 0 .083-11.102.085-11.591l.002.005-.002-.046.002-.128-.004-.007c-.009-.425-.01-1.929.436-2.673 0 0-.068-.27-.351-.262Zm16.354.032c-.37.032-.371.49-.371.49.173.173.258.778.258.778.086 1.384 0 2.94 0 4.41-.086 4.928-.258 9.425-.258 9.425 0 .95-.518.69-.518.69h-5.702c-.604 0-.603.346-.603.346.086.52.604.347.604.347.518.086 6.219 0 6.219 0 .864.086.777-1.039.777-1.039.087-1.989.259-2.162.259-2.162.172-.086 1.123-.086 1.123-.086 1.555.087.864-.95.864-.95-.173-.26-1.21-.26-1.21-.26-.95.086-.863-.951-.863-.951l.086-5.966c-.173-.52.26-.777.26-.777h.949c1.296.086.95-.779.95-.779 0-.432-1.122-.606-1.122-.606-1.036.173-.951-.433-.951-.433V8.713c.172-.95-.432-.95-.432-.95a.737.737 0 0 0-.319-.058Zm-1.22.193c-.11.014-.231.102-.36.297v12.97s.345 1.123.863 1.036c0 0 .086-.258.086-.69l.174-12.366s-.285-1.312-.763-1.247Zm-13.92.123c-.777 0-.863 1.47-.863 1.47L5.613 21.77c.087.606.26.519.26.519.777-.52.692-1.383.692-1.383S6.65 9.232 6.65 9.059c0-.173-.086-1.038-.086-1.038Zm.36 13.83a.52.52 0 0 0-.122.02c-.172.049-.385.198-.565.557l-.003.007-.002.007s-.051.16-.012.319c.02.079.07.163.162.206.089.042.206.043.36.001h4.217l1.132.262.015-.003s.08-.019.18-.056a.859.859 0 0 0 .31-.18.353.353 0 0 0 .098-.166.328.328 0 0 0-.027-.215c-.068-.146-.23-.296-.54-.473l-.016-.01H8.04c-.007-.001-.19-.041-.402-.094a4.26 4.26 0 0 1-.525-.157l-.003-.002H7.11s-.074-.03-.185-.024Zm12.832.227c-.243-.012-.582.037-.582.037-.691.433-4.75.086-4.75.086-.26 0-.606.433-.606.433-.087.778 1.21.432 1.123.432h4.836c.778.173.778-.172.778-.172 0-.26-.604-.779-.604-.779a.541.541 0 0 0-.195-.037Zm-6.39.97a.177.177 0 0 0-.066.018s-.777 0-.777 1.039c0 0 .086.776.863.776 0 0 .692-.172.692-.95 0 0-.38-.912-.712-.884ZM31.955 7.33s-.518 0-.432.346L31.35 20.82s0 .605.95.692c0 0 1.21.086 1.469 0h2.763s.518.518.518-.174c0 0 .346-10.636.173-12.884 0 0 0-.95-.777-.95 0 0-3.11.259-3.369 0l-1.123-.173Zm11.954.106c-.102.005-.251.044-.467.152 0 0 .086.347-3.8.174-.087 0-1.642-.087-1.642.605 0 0-.086 6.226-.086 6.399l-.086 5.188-.172 1.815s.26.346.432.086c0 0 1.296-.345 2.16-.172 0 0 2.59.26 3.194-.172 0 0 .432.173.518-.433 0 0 .172-11.5.086-11.672 0 0 .174-1.645.088-1.817 0 0 0-.163-.225-.153Zm-14.29.237c-.17.005-.417.111-.773.436V9.75s0 .951-.864.865c0 0-.949 0-1.467.432 0 0-.26.865.69.779 0 0 1.469 0 1.555.606l-.086 6.225s.345 1.037-.864 1.037c0 0-1.381-.086-1.381.778 0 0 .258.692 1.467.519 0 0 .864.174.864.952v1.555s-.086.606.692.693h6.39s.345 0 .345-.346c0 0 0-.346-.518-.346l-5.182-.087s-.863.26-.95-1.037c0 0 .087-11.587 0-11.76v.174s-.086-1.99.432-2.854c0 0-.068-.27-.35-.262Zm16.44.032c-.371.032-.372.49-.372.49.087.173.26.778.26.778.087 1.384 0 2.94 0 4.41-.086 4.928-.26 9.425-.26 9.425 0 .95-.517.69-.517.69h-5.7c-.605 0-.606.346-.606.346.087.52.692.347.692.26.518.087 6.217 0 6.217 0 .864.087.778-1.038.778-1.038.086-1.989.26-2.162.26-2.162.172-.086 1.122-.086 1.122-.086 1.468.087.777-.95.777-.95-.172-.26-1.21-.26-1.21-.26-.95.086-.863-.951-.863-.951l.088-5.967a.658.658 0 0 1 .258-.778h.95c1.295.086.95-.777.95-.777 0-.432-1.123-.606-1.123-.606-1.036.173-.95-.433-.95-.433V8.713c.173-.95-.431-.95-.431-.95a.744.744 0 0 0-.32-.058Zm-1.22.225c-.11.009-.231.086-.361.265v12.97s.346 1.123.864 1.036c0 0 .087-.258.087-.69l.172-12.366s-.285-1.255-.762-1.215Zm-13.92.09c-.777 0-.864 1.472-.864 1.472l-.086 12.277c.087.606.258.519.258.519.778-.52.692-1.383.692-1.383s.086-11.673.086-11.846c0-.173-.086-1.038-.086-1.038Zm.494 13.817c-.15-.005-.428.063-.666.538 0 0-.173.606.432.433h4.23l1.124.258s1.21-.259 0-.95h-4.058s-.779-.174-.952-.26c0 0-.041-.017-.11-.02Zm12.744.154c-.219.004-.455.038-.455.038-.69.433-4.75.086-4.75.086-.26 0-.606.433-.606.433-.172.778 1.124.432 1.124.432h4.836c.777.173.778-.172.778-.172 0-.26-.606-.779-.606-.779-.065-.032-.189-.041-.32-.038Zm-6.349.97a.173.173 0 0 0-.065.02s-.778-.002-.692 1.036c0 0 .086.779.864.779 0 0 .691-.087.691-.951 0 0-.456-.912-.798-.883ZM24.96 39.755s0 .95-.086 1.902c-.086.519.173 2.94 0 4.15 0 0 0 .432-.864.087 0 0-5.268.086-5.354-.087 0 0-1.469.087-1.555-.692 0 0 .173-5.62.086-5.793 0 0-.086-3.026 0-3.372 0 0 .087-2.853 0-3.2 0 0 0-.691-.086-.95 0 0 0-.433.69-.173 0 0 .26.432 1.555.26 0 0 .95.172 1.9 0 0 0 2.073-.174 2.591 0 0 0 .864-.174 1.037.777v2.508l.259.864.26-.172.085-.606v-2.68s.173-.519.864-.605c0 0 1.037-.087 1.21 0 .172.086 2.418.172 3.022.086.605-.086.691.432 2.591-.519 0 0 .518 0 .518.346 0 0-.172 3.459 0 4.15 0 0 0 6.399-.172 6.831l.086 2.076s.086.864-1.382.95c0 0 .864.087-4.75-.086 0 0-.864-.086-1.9.432 0 0-.173-.086-.173-.605 0 0 .173-1.902 0-3.804l-.086-2.075h-.346Zm9.069 5.62s.518.951.69 1.038c0 0 .432.518.346-.433l.086-11.845s-.086-.433 0-1.038l-.518-.865s-.518-.432-.518.26v12.537l-.086.346Zm-17.187.519s.604.605 1.554.605l5.528.086s.605.087.605.346c0 0-.087.52-.864.346l-6.737-.086-.777.086s-.518-.086.259-1.037l.432-.346Zm-1.21-13.575s-.518.864-.431 1.124v13.661s-.087.951.69.692c0 0 7.17-.173 7.688 0 0 0 .69.086.431.432 0 0 0 .26-.431.173 0 0-3.369.346-6.478.173 0 0-2.073.087-2.16-.086 0 0-.345-.087-.345-1.21 0 0 0-1.125-.086-1.298 0 0 .086-.605-.95-.691 0 0-1.468.259-1.468-.606 0 0 .172-.605 1.64-.519 0 0 1.037.173.778-.691l.086-6.053s.173-1.038-.604-1.124h-.864s-1.209 0-1.123-.692c0 0 .432-.692 1.641-.605 0 0 .864.173.95-.865 0 0 0-2.075.432-2.161-.086 0 .95.086.605.346Zm.692-.087s.259 0 .259.519l-.086 12.364s.086.778-.605 1.384c0 0-.346.432-.346-.26l.173-12.624s0-.95.605-1.383Zm9.672 14.526s.692-.519 1.037-.432c0 0 3.714.26 4.836.086 1.123-.173.432-.086.432-.086s.95 0 1.296-.346c0 0 .259-.087.432.173l.604.692s0 .432-.69.345c0 0-6.651 0-6.91.087.086 0-1.123.173-1.037-.519Zm.432 1.124s.518-.26.864-.173c.345.087 5.096-.086 5.096-.086s2.073.173 2.418-.173l.518-.173s.173-.26.173-.605v-1.47l.086-.433V33.443s.173-.865-.345-1.384c0 0 0-.346.172-.26.173.087.087 0 .087 0s.69-.172.864.087c0 0 .345.951 0 1.557 0 0-.087 1.21.518 1.21 0 0 .259.26.69.087 0 0 1.037.086 1.037.432 0 0 0 .778-.69.605l-.95.087s-.692.172-.605.864c.086.779 0 6.399 0 6.399s0 .692 1.036.605c0 0 1.295-.086 1.295.346 0 0 .346.778-.604.865 0 0-1.727-.087-1.555.432 0 0-.086 1.124-.172 1.383 0 0 .172.952 0 1.124 0 0-.087.52-1.21.433 0 0-6.995 0-8.118.086-.087.173-.777.086-.605-.519Zm-1.209-.778s.691.087.691.779c0 .691 0 1.037-.345 1.123-.432.087-.864-.086-.95-.605-.173-.519 0-1.124.604-1.297Z" fill="#fff"/><path d="m12.35 12.084-.345.778s-.864 3.977-1.382 4.756c0 0-.086.864-.777.173 0 0-1.641-5.016-1.728-5.189l-.518-.345s-.345-.433.26-.52h1.554s.518.433-.173.865c0 0 .087.692.95 3.2 0 0 .26.95.518.26l.864-2.94-.259-.865s-.26-.433.086-.433c0 0 .864-.086.95.26Zm2.332.691V17.1l-.086.346s-.432.518-.087.605c0 0-.345.26 2.591.26 0 0 1.123.172.864-1.298 0 0-.086-.518-.518.26 0 0-.087.692-1.641.432 0 0-.345-.26-.345-.605v-1.816s0-.432.69-.432c0 0 .778.518.864.26 0 0 .26-.693 0-1.039 0 0-.345 0-.432.087 0 0-.259.519-.95.173 0 0-.345-.692-.086-1.21 0 0-.086-1.038.605-.952 0 0 .863.173.863.433 0 0 .173.518.432-.087l-.173-.605s-.086-.26-.345-.173c0 0-1.382.173-1.555 0l-1.122.086s-.173.433.345.606c0 .086.086.172.086.345Zm24.787-.691c-.086-.346.691-.346.691-.346l.432.086c.26 0 .605.087.605.087.259.432-.173.692-.173.692l-.173.518v4.324c.087.173.432.605.432.605 0 .346-.432.26-.432.26h-1.209c-.345 0-.259-.433-.259-.433.432-.173.518-.951.518-.951v-4.064l-.432-.778Zm-5.527 3.804-.086 1.297.345.606c.26.345-.173.605-.173.605l-1.295-.173c-.26-.087 0-.519 0-.519.345-.173.345-.692.345-.692v-4.15c0-.173-.345-.605-.345-.605-.26 0-.173-.433-.173-.433.087-.172.777-.086.777-.086h1.728c1.64.519 1.382 1.73 1.382 1.73.086 1.21-1.123 1.642-1.123 1.642l-.087.692 1.21 1.902c.172.173.172.346.172.346-.172.432-.863 0-.863 0l-1.469-2.335c-.172-.173-.345.173-.345.173Zm0-3.285v2.161c.777.606 1.21-.26 1.21-.26 1.035-.95-.001-1.901-.174-2.16-.172-.26-.95 0-.95 0l-.086.259Zm-12.61 24.21s.087 3.026 0 3.459v.691s.173.433.433.606c0 0 .172.605-.26.518 0 0-1.036-.086-1.295 0 0 0-.605 0 0-.691 0 0 .173-.26.173-1.038 0 0 0-3.458.086-3.631 0 0 .086-.433-.173-.606h-.518l-.604.606s-.173.605-.432 0v-.346l.345-.951h.26s.345.259.69.345h1.9l.691-.345s.26 0 .173.432c0 0 .086.951-.432 1.038 0 0-.345-.087-.518-.606 0-.086-.518-.432-.518.519Zm8.982-1.124s-1.554-.173-1.554 1.556c0 0-.173 1.124 1.554 1.903 0 0 1.296.605 1.21 1.383 0 0-.173 1.383-1.555.692 0 0-.69-.346-.605-.692 0 0-.172-.432-.431-.346 0 0-.26.087-.173 1.47 0 0 0 .519.604 0l.346.087s1.123.864 2.073-.173c0 0 1.036-.952.259-2.076 0 0-.518-.864-1.468-1.21 0 0-.864-.432-1.123-1.124 0 0 .259-1.21 1.382-.605 0 0 .432.518.69.605 0 0 .346 0 .26-.778l-.087-.606s-.086-.432-.69 0c0-.086-.519.173-.692-.086Zm-4.922-.865c.259.173.345.605.345.605.864 2.162 1.555 5.361 1.555 5.361.172.433.604.692.604.692.691.26 0 .433 0 .433-.259.086-1.209 0-1.209 0-.518-.087-.26-.26-.26-.26.174-.173 0-1.037 0-1.037 0-.346-.43-.865-.43-.865-.174-.087-.433.26-.433.26s-.432.172-.518 0c-.086-.174-.345-.346-.345-.346-.519 0-.691 1.21-.691 1.21.259 1.038 0 .865 0 .865-.26.346-1.037.086-1.037.086-.345-.086-.086-.346-.086-.346.432-.086.604-.605.604-.605.173-.26 1.555-5.62 1.555-5.62-.086-.087 0-.606.346-.433Zm-.691 2.767c0 .173-.346 1.384-.346 1.384l.26.432h.863c.173 0 .259-.173.259-.432 0-.173-.432-1.47-.432-1.47l-.173-.26-.431.346Z" fill="#000"/></svg>