<svg height="100%" viewBox="0 0 250 53" fill="none" xmlns="http://www.w3.org/2000/svg"><path d="M70.338 39.404c-1.081 0-2.164 0-3.246-.039-.121-2.516-.08-5.778-.08-11.833v-.039c8.9 0 9.302.315 9.863 1.69l.201-.117c-.16-.746-.201-1.22-.201-2.043 0-.786.042-1.336.201-2.083l-.201-.039c-.441 1.375-.921 1.572-9.863 1.69 0-5.504-.041-8.02.08-11.165 1.123-.117 2.206-.079 3.208-.079 4.05 0 7.216.59 9.261 2.44l.201-.199c-.24-.55-.963-2.594-.963-3.065H65.447c-.601 0-2.245 0-2.808-.197l-.04.197c.8.276 1.203.827 1.243 1.652.12 2.515.08 5.148.08 11.242 0 6.172.04 8.649-.08 11.204-.041.668-.443 1.258-1.243 1.69l.04.156c.602-.117 2.166-.157 2.808-.157h14.717c0-.353 1.242-2.672 1.443-3.065l-.201-.197c-2.526 1.847-6.656 2.356-11.068 2.356m23.418 0c-.762 0-1.563 0-2.365-.038-.122-2.517-.08-5.819-.08-11.951 0-6.092-.042-8.727.08-11.242.04-.826.44-1.376 1.242-1.652l-.041-.197c-.521.197-2.205.197-2.807.197s-2.245 0-2.846-.197l-.041.197c.8.276 1.203.827 1.242 1.652.121 2.515.08 5.15.08 11.242 0 6.172.041 8.649-.08 11.204-.041.668-.442 1.258-1.242 1.69l.04.156c.602-.117 2.165-.157 2.807-.157h14.036c0-.392 1.203-2.672 1.402-3.065l-.201-.197c-2.725 2.005-6.695 2.397-11.226 2.358m8.782-24.883c0 .315-.762 2.594-.963 3.107l.201.156c2.727-1.848 6.015-2.358 9.824-2.32v11.95c0 6.172.041 8.65-.079 11.205-.041.785-.442 1.258-1.284 1.689l.041.156c.561-.116 2.206-.156 2.846-.156s2.245.04 2.808.156l.08-.156c-.842-.392-1.242-.943-1.284-1.69-.121-2.555-.08-5.032-.08-11.204v-11.95c3.849-.038 7.057.394 9.784 2.32l.201-.198c-.201-.512-.963-2.752-.963-3.065zm34.843 24.883c-1.083 0-2.166 0-3.247-.039-.122-2.516-.081-5.778-.081-11.833v-.039c8.901 0 9.304.315 9.864 1.69l.202-.117c-.161-.746-.202-1.22-.202-2.043 0-.786.041-1.336.202-2.083l-.202-.039c-.442 1.375-.922 1.572-9.864 1.69 0-5.504-.041-8.02.081-11.165 1.122-.117 2.205-.079 3.207-.079 4.049 0 7.217.59 9.262 2.44l.202-.199c-.241-.55-.963-2.594-.963-3.065h-13.354c-.601 0-2.244 0-2.807-.197l-.041.197c.802.276 1.204.827 1.243 1.652.12 2.515.08 5.148.08 11.242 0 6.172.04 8.649-.08 11.204-.041.668-.441 1.258-1.243 1.69l.041.156c.602-.117 2.165-.157 2.807-.157h14.717c0-.353 1.242-2.672 1.443-3.065l-.201-.197c-2.526 1.847-6.656 2.356-11.066 2.356m-90.813-12.81c0-.63-.029-1.263-.088-1.89a.115.115 0 0 0-.127-.103l-.173.018a.114.114 0 0 0-.102.125c.057.611.085 1.235.085 1.85 0 10.839-8.818 19.657-19.655 19.657-10.839 0-19.657-8.818-19.657-19.657 0-5.1 1.943-9.934 5.475-13.612A19.56 19.56 0 0 1 25.53 6.96a.116.116 0 0 0 .11-.12l-.008-.173a.117.117 0 0 0-.121-.112 19.97 19.97 0 0 0-13.476 6.147 19.96 19.96 0 0 0-5.589 13.891c0 11.061 9 20.061 20.062 20.061 11.06 0 20.06-9 20.06-20.061" fill="#0D274E"/><path d="M26.554.21c-7.02 0-13.624 2.735-18.588 7.699-4.965 4.966-7.7 11.567-7.7 18.59a26.1 26.1 0 0 0 4.707 15.016c.038.053.11.066.162.03l.141-.1a.114.114 0 0 0 .028-.16A25.7 25.7 0 0 1 .668 26.338 25.93 25.93 0 0 1 8.48 7.967C13.346 3.217 19.758.61 26.57.614a25.87 25.87 0 0 1 18.285 7.582c4.91 4.91 7.605 11.446 7.582 18.392a25.85 25.85 0 0 1-7.582 18.216c-4.89 4.89-11.389 7.581-18.302 7.581-.766 0-1.538-.033-2.298-.1a.116.116 0 0 0-.125.105l-.016.171a.117.117 0 0 0 .106.127 27 27 0 0 0 2.333.102c7.02 0 13.623-2.735 18.587-7.699 4.966-4.966 7.7-11.568 7.7-18.588s-2.736-13.624-7.7-18.588C40.18 2.945 33.576.21 26.554.21" fill="#0D274E"/><path d="m26.235 10.18-.075.022q-.051.015-.098.031c-.23.077-.43.231-.562.428a.3.3 0 0 0-.05.075.16.16 0 0 1-.133.088l-.092.015-.09.015c-.24.04-.49.098-.79.184a7.4 7.4 0 0 0-3.078 1.75 7.3 7.3 0 0 0-1.503 2.032l-.033.073-.029.064a.1.1 0 0 0 .013.13l.078.095.073.088c.1.117.226.273.33.447.095.145.19.315.287.522.256.535.45 1.03.588 1.51.066.215.125.44.181.66l.077.295.097.381c.034.127.066.252.098.384.012.036.032.067.094.069l.657-.076c.138-.021.266-.031.405-.043l.333-.031.44-.032.503-.03c.216-.01.43-.022.624-.032l.029-.002c.183-.01.355-.02.539-.02.55-.015 1.12-.025 1.669-.015q.253.005.511.006c.23 0 .461.01.686.02l.483.019c.047.002.09.006.14.006l.537.03.569.044c.098.012.193.021.301.033l.633.065.586.075h.034c.026 0 .044-.02.058-.032a.07.07 0 0 0 .021-.056l.08-.294q.042-.15.08-.301l.01-.043q.026-.112.065-.227.009-.038.02-.07c.007-.026.017-.051.02-.078.106-.389.215-.793.354-1.18a9 9 0 0 1 .459-1.102c.2-.387.423-.723.682-1.022l.017-.02c.069-.053.071-.145.036-.21l-.004-.018a7.34 7.34 0 0 0-5.218-3.997l-.373-.064-.01-.002a.1.1 0 0 1-.094-.062l-.006-.015-.005-.005a1.1 1.1 0 0 0-.688-.53l-.088-.027-.005-.016c-.005-.008-.009-.02-.01-.021a3 3 0 0 1-.003-.405l.008-.025.012-.011c.004-.002.021-.002.03-.002h.17a.4.4 0 0 0 .07-.007q.028-.005.06-.006c.041 0 .07-.036.07-.062l.012-.056a.7.7 0 0 0-.008-.212l-.002-.008a.07.07 0 0 0-.06-.067c-.028-.012-.053-.012-.075-.012l-.19.002a.16.16 0 0 1-.09-.009l-.013-.01c-.002-.005-.002-.022-.002-.03v-.409l-.005-.021-.012-.012a.08.08 0 0 0-.065-.036h-.27c-.038 0-.091.007-.091.08v.394l-.002.01-.007.03-.008.007c-.005.002-.022.002-.03.002h-.172c-.045 0-.1 0-.14.01-.031 0-.071.039-.07.06a.6.6 0 0 0 .005.295c.008.013.028.052.077.052h.334q.014.002.015.006v.452c.004.004-.004.013-.011.017m-.2 3.697q.136-.12.326-.153a.8.8 0 0 1 .348.021c.1.03.192.08.266.144.17.148.291.355.332.57q.03.157.03.327V16.6q0 .003-.015.005H25.67q-.005 0-.006-.015v-1.903a1.02 1.02 0 0 1 .372-.81m-.091-1.475a1.22 1.22 0 0 0 .961.034l.09-.03c-.022.109-.034.21-.043.314-.01.148-.034.3-.056.454 0 .06-.009.118-.02.187l-.301-.065a1 1 0 0 0-.11-.008.6.6 0 0 0-.121.01l-.244.056q-.014.006-.034.005l-.007-.008-.055-.449a7 7 0 0 0-.06-.5m-.482-.332.009-.002q.003.002.007.017l.01.016a5 5 0 0 1 .03.246q.01.101.025.207.016.112.03.23.017.119.035.231l.064.532q.011.048-.021.081l-.009.01c-.007.016-.027.035-.049.057-.197.22-.32.494-.353.793-.022.142-.022.276-.022.414v1.526l.005.166-.283.016s-.015-.01-.017-.047c-.005-.041-.005-.069-.005-.114l-.034-.892c0-.236-.01-.478-.021-.713a2 2 0 0 0-.055-.35 1.16 1.16 0 0 0-.354-.588 1.2 1.2 0 0 0-.308-.22 1.1 1.1 0 0 0-.655-.133c-.31.021-.589.167-.788.41a1.34 1.34 0 0 0-.312.609q-.035.22-.021.396c.012.141.034.286.064.424.087.464.184.933.28 1.387v.008l.008.009.002.01q-.003.005-.008.009a.1.1 0 0 1-.049.015l-.2.032h-.022a.3.3 0 0 1-.037-.113c-.13-.397-.296-.813-.509-1.274l-.097-.195a1.2 1.2 0 0 0-.467-.446l-.038-.018c-.007-.006-.023-.017-.025-.015q-.002.001.014-.022a5.9 5.9 0 0 1 1.559-1.645 6.3 6.3 0 0 1 2.04-.949c.171-.038.37-.083.577-.115m-.929 4.475v.098q.002.017-.02.016l-1.33.107-.008-.011c-.003-.006-.005-.019-.007-.028a.2.2 0 0 0-.013-.043l-.043-.199c-.083-.39-.162-.757-.235-1.139l-.034-.172q-.016-.085-.03-.172a.89.89 0 0 1 .27-.797.7.7 0 0 1 .184-.143.66.66 0 0 1 .52-.06.89.89 0 0 1 .639.65c.02.068.03.15.03.226.01.28.022.57.032.978 0 .154.024.428.045.69m-4.154-1.84a7 7 0 0 1 4.554-3.335q.131-.032.28-.064a.3.3 0 0 1 .06-.01l.055-.008v.026c0 .103.012.212.031.3v.051l-.043.008q-.032.005-.055.012c-.57.1-1.12.273-1.633.52a6.5 6.5 0 0 0-2.096 1.566 8 8 0 0 0-.564.748 1 1 0 0 1-.082.135l-.006.012c-.004.013-.024.017-.037.017l-.13-.009h-.003a1 1 0 0 0-.338.048zm1.036 2.397q-.01.006-.028.008-.016.002-.034.01l-.007-.005-.006-.02c-.003-.01-.005-.025-.01-.034a9 9 0 0 0-.433-1.036 5.5 5.5 0 0 0-.505-.837l-.028-.053h.002a1.05 1.05 0 0 1 .56-.012q.098.027.21.084a.72.72 0 0 1 .347.348c.116.252.234.513.332.78l.098.27.095.268q.015.036.019.064a.2.2 0 0 1-.058.026zm10.111.404-.03.092c-.043.127-.085.248-.12.38q-.032.119-.07.234t-.07.236l-.194.614-.004.005c-.011.032-.056.016-.094.01l-.949-.107-.23-.021a6 6 0 0 0-.233-.022l-1.073-.075-.099-.012a14 14 0 0 1-.366-.013c-.24-.01-.488-.02-.732-.02q-.233 0-.467-.006-.233-.005-.466-.006h-.002a27 27 0 0 1-.575.01l-.574.012c-.195 0-.392.012-.583.022l-.623.033q-.27.015-.528.034l-.775.064-.396.043-.362.03c-.021 0-.025-.005-.03-.017l-.03-.115-.14-.538q-.099-.368-.196-.747c-.02-.04-.03-.079-.04-.111q-.002-.006.006-.01l.077-.03a6 6 0 0 1 .653-.16c.165-.035.34-.06.51-.086q.138-.02.27-.043.113-.016.229-.027.117-.011.233-.027c.19-.022.394-.043.6-.065a3 3 0 0 1 .18-.01q.089-.003.185-.011t.197-.01q.103-.005.199-.012c.469-.021.95-.031 1.428-.031.29 0 .584.01.868.019l.443.013c.15 0 .309.01.46.02l.223.014 1.226.086c.18.01.356.034.525.053.242.03.492.064.739.107l.021.004c.218.041.438.084.644.125q.04.008.07.02a.4.4 0 0 0 .07.02q-.005.016-.005.032m-1.719-.762-.009.01h-.07c-.065 0-.116 0-.18-.01l-1.055-.09h-.028v-.042c0-.17 0-.332.01-.49q.008-.09.012-.18.003-.089.01-.176v-.002c.011-.27.011-.537.011-.798 0-.073.008-.14.018-.216l.004-.026a.7.7 0 0 1 .082-.244c.086-.15.21-.283.354-.373a.77.77 0 0 1 .96.12q.185.22.23.467a1 1 0 0 1 0 .35 7 7 0 0 0-.06.292q-.027.144-.058.291-.042.218-.086.434c-.03.144-.059.291-.086.433l-.055.235c-.004.004-.004.015-.004.015m2.806-1.588q-.01.017-.026.035a5.5 5.5 0 0 0-.455.759 9 9 0 0 0-.475 1.103l-.02.053q-.005.005-.009.006h-.017l-.62-.16-.01-.002h-.016l-.007-.008q.006-.012.008-.024l.01-.026a13 13 0 0 1 .494-1.243 1 1 0 0 1 .051-.104.2.2 0 0 1 .024-.043.66.66 0 0 1 .306-.297.94.94 0 0 1 .557-.113l.013.002c.063.01.135.02.198.043l.003.006a.03.03 0 0 0-.009.013m-4.97-3.522a1 1 0 0 0 .028-.223q-.001-.03.005-.066.005-.039.006-.074.003-.004.013-.004.162.033.35.062c.793.17 1.58.49 2.276.93a6.9 6.9 0 0 1 2.262 2.332.3.3 0 0 0 .041.077l.017.026.003.009h-.005a1.5 1.5 0 0 0-.439-.033h-.054c-.016 0-.035-.002-.04-.017l-.002-.008-.01-.01a6.52 6.52 0 0 0-4.02-2.886l-.202-.043-.196-.04-.039-.009q0-.01.006-.023m-.377 1.902q.004-.03.005-.06c.022-.182.043-.353.066-.525l.064-.451.015-.135c.006-.045.01-.092.016-.13q.007-.034.012-.073c.002-.022.004-.045.015-.069a4.4 4.4 0 0 1 .73.15 6.1 6.1 0 0 1 2.404 1.325 6.6 6.6 0 0 1 1.004 1.175l.025.04c.012.02.026.04.028.04-.004.005-.03.019-.053.032l-.03.018a1.2 1.2 0 0 0-.488.531 15 15 0 0 0-.55 1.34 1 1 0 0 1-.052.133h-.004l-.267-.04-.002-.003.018-.087q.017-.062.024-.127c.085-.391.173-.796.249-1.194l.065-.356a1.26 1.26 0 0 0-.2-.93 1.5 1.5 0 0 0-.23-.275 1.16 1.16 0 0 0-.623-.289 1.1 1.1 0 0 0-.712.144c-.318.17-.56.477-.662.84a.8.8 0 0 0-.033.223l-.012.292-.01.289-.032.935q0 .07-.007.137c-.002.047-.002.076-.002.125l-.007.076h-.032l-.248-.01q-.004 0-.006-.015V15.59c0-.288 0-.582-.032-.881a1.5 1.5 0 0 0-.067-.441 1.4 1.4 0 0 0-.342-.597l-.021-.021a.08.08 0 0 1-.022-.059zm-.795-2.937a.9.9 0 0 1 .35.072c.017.008.039.016.058.03a.746.746 0 0 1-.082 1.318.8.8 0 0 1-.338.072c-.063 0-.111 0-.172-.02a.85.85 0 0 1-.43-.294.8.8 0 0 1-.134-.442.745.745 0 0 1 .748-.736M24.78 40.834l-.071-.015-.069-.017-.234-.054h-.043a.06.06 0 0 0-.059.058v.01l.007.01a.36.36 0 0 0 .128.14c.084.061.163.102.244.133a1.37 1.37 0 0 0 .733.1l.494-.095.111-.022c.081-.017.165-.036.253-.04q.337-.038.59.02.144.033.285.059l.285.058c.113.024.213.034.319.034.132 0 .254-.022.372-.043.137-.032.26-.084.387-.166a.4.4 0 0 0 .137-.114q.015-.015.022-.043l.01-.011v-.086h-.063q-.1.014-.238.054a3 3 0 0 1-.321.053q-.251.032-.502-.031l-.862-.215a1 1 0 0 0-.355 0 2 2 0 0 0-.262.054q-.16.04-.314.081l-.319.082q-.326.069-.666.006m-4.089-1.405c.056.054.112.111.18.144.147.09.31.154.475.188.15.025.268.031.385.021.096-.008.191-.025.283-.04q.069-.014.141-.024c.2-.043.407-.086.61-.118a1.5 1.5 0 0 1 .377-.021c.117.01.236.034.35.053q.16.035.324.067.132.024.263.052.149.044.335.044.148-.002.306-.019l.031-.004a1.35 1.35 0 0 0 .544-.223.6.6 0 0 0 .122-.111c.013-.011.017-.026.022-.043l.012-.011v-.053l-.012-.012c-.015-.016-.024-.02-.05-.02-.034 0-.069 0-.106.01a3 3 0 0 1-.426.096 1.4 1.4 0 0 1-.5 0l-.092-.02c-.175-.037-.357-.074-.53-.119a7 7 0 0 0-.473-.12.9.9 0 0 0-.382-.01 4 4 0 0 0-.356.075q-.319.08-.666.163c-.24.062-.503.062-.742 0a3 3 0 0 0-.31-.074c-.038-.012-.075-.012-.11-.012-.012 0-.05.004-.05.058l.005.019q.02.041.04.064m7.047.059q.003.01.016.024c.04.053.098.1.16.139.075.042.152.087.24.12q.229.097.498.096.077 0 .159-.008l.1-.015q.055-.01.105-.016.152-.032.313-.07.157-.038.312-.07c.236-.059.495-.067.765-.022.117.03.235.049.348.068l.172.03.027.004c.12.02.233.039.354.039s.23-.015.351-.043c.147-.03.312-.098.475-.2a1 1 0 0 0 .18-.168l.008-.009v-.004q.01-.01.01-.032l-.004-.017c-.006-.013-.025-.043-.055-.043-.035 0-.07 0-.107.011a4 4 0 0 1-.499.118c-.094.01-.199.01-.302 0-.147-.022-.3-.043-.438-.075l-.602-.128a1.26 1.26 0 0 0-.64.02q-.152.043-.301.082l-.303.081a3 3 0 0 1-.39.096 1.3 1.3 0 0 1-.407 0l-.364-.074c-.044-.011-.089-.024-.138-.024a.06.06 0 0 0-.06.058l.005.022zM21.55 29.294a.91.91 0 0 0 .773.4c.215 0 .43-.075.602-.206a.89.89 0 0 0 .28-1.098.7.7 0 0 0-.335-.356.85.85 0 0 0-.494-.076.67.67 0 0 0-.484.312c-.017.026-.041.043-.057.06a.05.05 0 0 1-.031.015c0-.026.003-.043.003-.064a2.6 2.6 0 0 1 .066-.43 2 2 0 0 1 .407-.796c.087-.107.205-.204.323-.279l.053-.043.011-.01a.053.053 0 0 0 0-.076c-.011-.01-.021-.01-.033-.01s-.033 0-.044.01c-.312.14-.58.334-.805.592-.366.43-.528.988-.44 1.547.033.186.098.358.205.508m.322-.58a.8.8 0 0 1 .14-.334.402.402 0 0 1 .612-.107c.065.055.12.128.15.214a.8.8 0 0 1 .065.311v.055a.8.8 0 0 1-.052.333.48.48 0 0 1-.398.301.37.37 0 0 1-.28-.097.76.76 0 0 1-.248-.494c.001-.053.001-.118.011-.182m-2.149-1.342c.01 0 .033-.012.043-.012l.27-.085.064-.022c.009-.01.03.011.03.022.01.043.01.075.01.118v1.991c0 .065-.031.13-.074.181-.005.009-.01.013-.011.022-.002.021.021.032.032.032h.58c.022 0 .028-.018.022-.032a.1.1 0 0 0-.021-.033c-.043-.043-.052-.098-.052-.15v-.034c0-.31-.013-.613-.013-.924v-.386c.012-.28.012-.55.012-.828v-.528c0-.01-.012-.031-.012-.052 0-.01-.021-.023-.032-.01-.034.02-.056.053-.086.074-.087.064-.16.15-.246.214-.109.075-.216.16-.323.236-.064.044-.118.087-.184.13q-.016.015-.03.033c0 .01.01.043.02.043m12 .848s.039.014.064-.01l.054-.053a.7.7 0 0 1 .356-.193.8.8 0 0 1 .311 0 .55.55 0 0 1 .43.377c.02.053.03.12.03.184.01.107 0 .214-.02.322a.92.92 0 0 1-.636.7.95.95 0 0 1-.43.03l-.064-.01c-.01.01-.022.022-.022.034.01.022.01.043.022.074l.034.034c.009 0 .03.009.043.009a1.4 1.4 0 0 0 .526-.022c.377-.075.7-.321.882-.666a1.04 1.04 0 0 0 .077-.837.7.7 0 0 0-.335-.409.9.9 0 0 0-.73-.085.9.9 0 0 0-.356.183.5.5 0 0 0-.077.065l-.021.021c-.01.012-.045.026-.043-.021.01-.165.034-.485.043-.667q0-.034.01-.065c.01-.02.032-.042.053-.042h1.139c.017 0 .04-.006.043-.065.021-.12.043-.227.075-.334v-.01c.01-.045-.009-.054-.042-.054-.086.021-.172.021-.258.021h-.946c-.171 0-.162 0-.171.16-.022.14-.022.268-.032.41l-.043.698c-.002.07-.01.107-.01.162.001.028.012.05.044.058m-2.18-1.03c.01.021.032.021.042.011l.12-.098a1 1 0 0 1 .236-.129.73.73 0 0 1 .451-.021.35.35 0 0 1 .258.301.5.5 0 0 1-.119.441.6.6 0 0 1-.139.13 1.3 1.3 0 0 1-.27.15l-.128.052c-.021.013-.034.034-.021.055.009.01.009.033.02.043.012.022.044.031.065.022.043-.022.086-.032.129-.043a.6.6 0 0 1 .28 0c.171.021.322.14.386.3a1 1 0 0 1 .043.173c.01.086.01.18 0 .27a.73.73 0 0 1-.343.548.8.8 0 0 1-.216.098 1.4 1.4 0 0 1-.613.03l-.128-.02c-.01 0-.01.01-.01.02v.065c0 .021.01.053.042.053l.163.032c.203.021.42 0 .623-.053.171-.055.344-.129.494-.227.129-.098.248-.203.334-.344a.85.85 0 0 0 .086-.773.6.6 0 0 0-.291-.356c-.065-.043-.15-.064-.227-.086-.054-.012-.117-.033-.172-.043l-.01-.01v-.01l.096-.064c.086-.052.15-.129.216-.204a.6.6 0 0 0 .116-.45.4.4 0 0 0-.171-.291c-.056-.032-.108-.065-.172-.087a.9.9 0 0 0-.537-.01 1.17 1.17 0 0 0-.646.44c-.021.032-.021.053.012.085" fill="#0D274E"/><path d="M18.58 20.176v16.74c0 2.48 2.024 4.353 3.386 4.997 1.827.863 2.58 1.193 3.83 1.742l.576.25a.2.2 0 0 0 .173 0l.432-.187c1.502-.66 1.961-.861 3.958-1.805.987-.465 2.32-1.58 2.981-3.118.25-.584.405-1.229.405-1.925V20.134a.107.107 0 0 0-.108-.108H18.69c-.061 0-.11.046-.11.15m15.336 11.283v1.527q-.025.022-.03.04c-.085.054-.333.236-.421.29l-1.458.98-.064.038c-.021.015-.021.015-.047-.017s-.04-.077-.057-.121c-.045-.121-.062-.174-.13-.283-.194-.348-.427-.627-.774-.829-.068-.039-.102-.039.024-.175l1.592-1.541h1.29c.042 0 .076.032.076.075v.016m-4.88 5.968c-.038-.03-.074-.035-.121-.03a.6.6 0 0 0-.135.036l-.33.182-.588.295c-.143.07-.285.093-.443.107l-.153-.01c-.012.002-.023-.009-.023-.009-.008-.038.028-.049.028-.049.218-.124.423-.256.642-.379q.161-.098.324-.213c.098-.067.181-.142.267-.207a.6.6 0 0 0 .135-.16c.01-.023.008-.047-.017-.066a.11.11 0 0 0-.141-.022c-.052.039-.108.066-.162.095l-1.1.71c-.064.04-.14.082-.205.123-.143.07-.426.125-.512.068-.031-.02.018-.047.04-.06l.327-.169c.151-.095.237-.17.319-.227.117-.075.216-.165.322-.257.191-.166.358-.353.498-.55.042-.047.057-.085.087-.134.009-.023.021-.068-.004-.078-.038-.032-.083-.028-.126 0l-.16.118-.711.62c-.043.04-.086.065-.127.104-.105.09-.257.176-.377.233l-.475.236a3 3 0 0 1-.353.142.8.8 0 0 1-.223.016.2.2 0 0 1-.07-.016s-.014-.02-.004-.032c.01-.024.031-.038.04-.05l.259-.195c.236-.16.46-.328.685-.51a10 10 0 0 0 1.231-1.178c.082-.1.08-.102.162-.199.092-.111.231-.293.231-.293.09-.113-.018-.203-.113-.195a7 7 0 0 0-.616.197c-.242.101-.424.281-.707.463-.08.05-.286.18-.374.213-.292.119-.505-.033-.362-.155 0 0 .353-.315.492-.429.203-.156.732-.717 1.26-1.09a.74.74 0 0 1 .414-.164c.893-.115 1.627-.362 2.016-.625.096-.067.191-.128.275-.203q.065-.057.128-.116c.019-.025.066-.03.1-.01.037.008.073.028.097.038.252.124.46.293.63.529.118.16.215.346.278.535a.2.2 0 0 1 .031.079c.034.122.034.122-.062.189-.385.287-.717.65-.977 1.063-.119.193-.238.4-.358.593l-.497.813-.13.208c-.118.193-.267.36-.476.448-.143.06-.225.123-.37.172-.087.031-.188.063-.289.096-.045.016-.246.057-.275.004-.018-.029.04-.048.06-.06.164-.084.346-.212.513-.284.13-.063.173-.1.257-.164.03-.051.055-.105.018-.137m-4.58-.021-.65-3.765 5.009-.877c.021-.003.044.012.047.04l.198.911q-.111.029-.196.045c-.204.037-.863.14-.965.16-.202.048-.283.114-.356.157-.251.154-.732.606-.972.79-.075.064-.225.227-.3.292-.24.221-.618.566-.67.627-.126.176-.042.35.099.494.14.145.4.122.433.118a.9.9 0 0 0 .29-.073c.144-.058.756-.476.921-.58l.088-.054c.036-.026.057-.002.023.026l-.056.06-.057.058a8 8 0 0 1-.587.569 10 10 0 0 1-1.012.814c-.112.09-.233.172-.347.262l-.967.178a.5.5 0 0 0 .028-.252m-.408.242a.26.26 0 0 1-.163.104l-.038.005a.254.254 0 0 1-.293-.206l-.6-3.468a.3.3 0 0 0 .137.039 1 1 0 0 0 .104-.008.44.44 0 0 0 .294-.142l.601 3.485a.25.25 0 0 1-.042.19m1.43-9.238c.166.077.415.115.624.006.111-.05.185-.137.185-.259a.15.15 0 0 0-.074-.13l-.109-.05c-.038-.015-.066-.07-.055-.128a1 1 0 0 1 .035-.116 1.1 1.1 0 0 1 .367-.48l.006-.006.362.435c.021.052.03.1.04.157.018.072-.007.123-.054.147-.008.006-.016.006-.022.009-.009.004-.072.03-.077.036-.075.043-.09.105-.067.181q.034.119.146.194a.68.68 0 0 0 .653-.002.4.4 0 0 0 .086-.063c.05-.05.078-.098.078-.171a.4.4 0 0 0-.006-.069l-.004-.04c0-.05.02-.095.039-.144q.04-.119.164-.184a.5.5 0 0 1 .326-.038l.026.002-.01.02a.43.43 0 0 0-.183.173c-.012.021-.028.035-.036.055l-.027.058c-.055.12-.087.255-.1.393-.006.076-.017.183-.017.266l-.066-.006c-.305-.014-.555-.028-.829-.032-.164-.002-.33-.01-.492-.01h-.028l-.77.032-.398.01c-.043.002-.048-.022-.05-.035q-.008-.077-.012-.151a3 3 0 0 0-.055-.298l-.014-.04a1 1 0 0 0-.062-.166.48.48 0 0 0-.217-.252.53.53 0 0 1 .295.032c.119.05.243.161.245.271.003.1-.019.093-.019.164 0 .115.132.207.176.229m2.284.662c0 .08-.008.087-.076.086-.068-.004-.305-.03-.432-.038a12 12 0 0 0-1.258-.023c-.45.016-.715.053-.715.053h-.086c-.027 0-.035-.053-.035-.09l.002-.12c0-.017.016-.027.033-.027l.436-.021q.095-.004.19-.014c.128-.01.177-.017.442-.021.403-.006.796.004 1 .015.204.015.45.04.45.04.044 0 .046.018.046.018.003.009.003.12.003.142m-1.297.352c1.89 0 2.487.51 2.974.893.092.072.17.152.257.222.045.043.088.054.169.028.81-.278 1.816-.06 2.326.405-2.084.002-9.256.002-11.452.002.545-.47 1.553-.685 2.364-.407.08.021.12.011.168-.028.088-.07.166-.15.258-.223.469-.373 1.045-.892 2.936-.892m.896-8.482q.001-.194.062-.36l.017-.042.015-.035.004-.01.034-.066h6.25a.17.17 0 0 1 .171.17v10.296c0 .07-.018.08-.115.08h-1.094c-.635-.72-1.766-1.087-2.812-.786a.1.1 0 0 1-.092-.022c-.043-.034-.08-.077-.128-.113-.39-.302-.795-.627-1.608-.824l-.004-.067v-.619c0-.128.021-.265.064-.39a.4.4 0 0 1 .055-.14l.022-.028q.006-.01.011-.015c.01-.013.04-.021.053-.017l.06.032c.032.021.056.031.075.043.021.017.051.017.077.017a.14.14 0 0 0 .144-.144c0-.066 0-.124-.024-.194a.52.52 0 0 0-.3-.336.85.85 0 0 0-.575-.023.65.65 0 0 0-.385.303c-.011.015-.005.03-.013.049v-1.408h1.37c.228 0 .4.102.552.195q.065.048.133.083c.016.01.083.053.107.053a.07.07 0 0 0 .047-.021.08.08 0 0 0 .021-.06v-.107c.012-.603-.002-1.644-.002-2.055v-.012c-.011-.03-.039-.043-.052-.048-.014-.006-.036-.01-.07.01 0 0-.14.107-.16.117a1 1 0 0 1-.51.166c-.106.011-.214.011-.32.011h-.864c-.038 0-.167-.003-.206-.006-.04-.002-.042-.05-.042-.091v-.82c0-.046.017-.056.054-.056h.727c.184 0 .37.051.529.145.055.034.104.058.169.09l.042.022.026.01c.03.013.072-.017.082-.055.01-.03.008-.096.008-.112l-.002-1.885v-.1c0-.054-.043-.066-.07-.062l-.058.018a1 1 0 0 0-.167.088.96.96 0 0 1-.477.133c-.16.009-.324.009-.48.009l-.304-.002c-.054 0-.049-.023-.049-.067v-.942zm-1.505-.464s-.01-.027-.01-.05l1.222.005a.4.4 0 0 1-.015.076 2 2 0 0 0-.067.585v1.085c0 .022 0 .056.028.081.028.027.067.027.143.027h.865q.15.014.332-.022a1 1 0 0 0 .184-.043l.035-.005.023-.004h.006v1.166l-.025-.006q-.016-.002-.033-.01a1.5 1.5 0 0 0-.442-.066h-.961l-.026.002c-.118.01-.127.032-.127.164v1.417c0 .04.037.07.071.07h.893l.74-.012q.214.015.443-.055a.4.4 0 0 0 .06-.02q.031-.011.028.017c-.002.017.002.04.002.064v1.082c-.002.012-.009.012-.015.01l-.028-.01-.015-.005a1.6 1.6 0 0 0-.453-.067H27.2l-.085-.002c-.077.002-.114.045-.118.082q-.008.054-.006.12v1.241s-.02-.081-.05-.142c-.034-.072-.207-.238-.327-.318-.077-.069-.206-.064-.284-.006-.119.08-.206.154-.32.293-.017.027-.075.111-.072.171v-1.376c0-.041-.047-.069-.08-.069H24.32c-.1 0-.184 0-.28.011a1 1 0 0 0-.306.056c-.014.004-.031.01-.031-.013v-1.144l.025.005a1 1 0 0 0 .219.049l.024.005c.05.01.12.023.188.023h1.558l.075-.006.066-.006c.043 0 .08-.039.08-.08v-1.47c0-.026-.026-.056-.051-.067-.022-.016-.04-.016-.05-.016h-.968c-.203 0-.395.042-.533.076l-.047.01h-.006v-1.17l.058.01c.141.043.287.066.43.066h.954c.044 0 .091 0 .146-.016.024-.01.063-.03.063-.077v-1.136a1.8 1.8 0 0 0-.078-.58m-6.87.121a.17.17 0 0 1 .169-.17h6.241c.006.006.026.025.032.04s.015.028.021.047q.074.178.074.334c.01.095.01.19.01.287v.755c0 .056-.006.07-.047.07h-.631a1.2 1.2 0 0 1-.646-.188q-.04-.022-.074-.046l-.07-.043c-.022-.021-.048-.021-.06-.021-.037 0-.05.018-.056.031-.014.022-.014.047-.014.058v2.072l.002.017c.018.058.078.047.096.037 0 0 .035-.015.047-.026l.18-.095a1 1 0 0 1 .486-.121h.772c.027 0 .049-.002.049.023.009.249.007.79.005.919a.036.036 0 0 1-.035.035h-1.38a.93.93 0 0 1-.486-.145l-.223-.126-.032-.009c-.051-.004-.07.035-.07.07v2.084c0 .038.046.058.07.058.013 0 .043 0 .062-.018.063-.031.129-.064.19-.105a1.04 1.04 0 0 1 .498-.135h1.3l.102.005v1.476q0-.004-.003-.008-.01-.018-.022-.047a.66.66 0 0 0-.512-.377.94.94 0 0 0-.424.033.524.524 0 0 0-.369.56l.013.046c.017.041.04.057.075.074a.14.14 0 0 0 .115.004q.015-.008.035-.015l.036-.017c.021-.005.037-.017.05-.023l.031-.017c.035-.008.047.004.06.023.028.028.048.067.07.105a1 1 0 0 1 .072.24c.01.062.021.126.021.186v.712c-.796.202-1.17.527-1.528.808-.032.028-.064.06-.095.085a.18.18 0 0 1-.166.037c-1.036-.281-2.182.087-2.808.798h-1.05c-.168 0-.184-.043-.184-.184zm0 10.897c0-.096.015-.127.102-.127l12.384-.002h.572c-.5.506-1.336 1.317-1.484 1.446a6.3 6.3 0 0 1-.887.658q-.109.064-.227.114l-.168-.8a.454.454 0 0 0-.521-.369l-5.167.893v.002a.206.206 0 0 0-.176.195c-.006.223-.147.274-.264.29-.037.005-.203.046-.277-.178-.036-.108-.124-.174-.233-.14a.204.204 0 0 0-.144.2v.004q0 .01.002.016l.002.022.664 3.85c.056.322.312.557.629.557a1 1 0 0 0 .113-.01l.037-.006.055-.01 1.113-.201c.008.094.058.154.07.158a.54.54 0 0 0 .344.129.8.8 0 0 0 .284-.037l.088-.031a.3.3 0 0 1 .171.008l.047.017c.131.045.259.086.383.075l.159-.015a.27.27 0 0 1 .164.032c.13.056.27.09.408.088.104.002.217-.008.318-.03a1 1 0 0 1 .319-.017c.242.012.52.053.756.008.113-.021.224-.055.336-.088l.334-.111c.057-.018.1-.043.154-.073.184-.109.346-.308.467-.492l.059-.098c.308-.51.588-1.02.897-1.529.14-.22.293-.417.473-.592a3.3 3.3 0 0 1 .585-.48l1.893-1.343a.5.5 0 0 1 .092-.059v3.448c0 2.337-1.885 4.076-3.153 4.675-1.992.942-2.677 1.241-4.177 1.9l-.062.028a.17.17 0 0 1-.131 0l-.436-.188c-1.246-.548-1.998-.876-3.821-1.738-1.268-.6-3.153-2.338-3.153-4.675v-5.374zm138.283-9.472.012.043c.161-.033.583-.043.756-.043h3.967c0-.097.336-.744.389-.854l-.054-.054c-.682.516-1.796.657-2.984.657-.291 0-.584 0-.875-.013-.032-.701-.021-1.61-.021-3.296v-.01c2.399 0 2.508.087 2.658.47l.055-.034a2.4 2.4 0 0 1-.055-.567c0-.22.01-.374.055-.58l-.055-.013c-.119.383-.248.438-2.658.471 0-1.533-.011-2.235.021-3.11.302-.034.594-.021.865-.021 1.092 0 1.946.164 2.497.68l.055-.055c-.065-.153-.26-.724-.26-.854h-3.6c-.163 0-.606 0-.756-.054l-.012.054c.216.076.325.23.336.46.034.7.021 1.433.021 3.13 0 1.72.013 2.41-.021 3.122-.011.186-.12.35-.336.47m10.648-8.914a.42.42 0 0 0 .422.427.415.415 0 0 0 .432-.427.427.427 0 0 0-.432-.428.433.433 0 0 0-.422.428m3.536 5.322c0-2.322-1.795-3.81-3.881-3.81-2.098 0-3.892 1.488-3.892 3.81s1.795 3.811 3.892 3.811c2.086 0 3.881-1.49 3.881-3.81m-3.881 3.482c-1.612 0-2.984-1.325-2.984-3.483 0-2.157 1.374-3.484 2.984-3.484 1.599 0 2.961 1.325 2.961 3.484s-1.362 3.483-2.961 3.483m-1.221-8.805c0 .25.174.427.422.427a.415.415 0 0 0 .432-.427.427.427 0 0 0-.432-.428.42.42 0 0 0-.422.428m5.665 2.596.055.043c.735-.514 1.621-.657 2.649-.647v3.329c0 1.719.012 2.408-.022 3.121-.011.22-.118.35-.345.471l.011.043c.151-.033.595-.043.768-.043s.606.012.756.043l.021-.043c-.226-.11-.336-.264-.345-.47-.033-.712-.021-1.403-.021-3.122V15.1c1.036-.012 1.903.11 2.637.647l.054-.055c-.054-.143-.259-.766-.259-.854h-5.698c0 .088-.206.723-.261.866m13.231-.866c-.226 0-.453-.01-.627-.054l-.009.054q.422.165.291.46c-.291.7-.541 1.37-1.318 3.033-.638 1.37-.854 1.929-1.2 2.66-.346-.721-.465-1.029-1.212-2.66-.745-1.663-1.102-2.322-1.394-3.033q-.13-.28.29-.46l-.011-.054c-.162.054-.734.054-.929.054-.218 0-.64-.01-.845-.054l-.022.054c.206.056.487.33.649.647.346.712.584 1.194 1.361 2.848a145 145 0 0 1 1.73 3.778h.15c.291-.7.93-2.102 1.72-3.778.777-1.652 1.079-2.223 1.426-2.934q.243-.477.584-.559l-.013-.054a3 3 0 0 1-.621.052m6.25-1.73a.427.427 0 0 0-.432-.428.433.433 0 0 0-.422.428c0 .25.195.427.422.427a.415.415 0 0 0 .432-.427m-1.567 0a.427.427 0 0 0-.432-.428.42.42 0 0 0-.422.428c0 .25.172.427.422.427a.415.415 0 0 0 .432-.427m-3.524 5.322c0 2.323 1.796 3.811 3.892 3.811 2.086 0 3.881-1.488 3.881-3.81s-1.795-3.812-3.881-3.812c-2.099 0-3.892 1.49-3.892 3.812m3.892-3.483c1.6 0 2.961 1.325 2.961 3.484 0 2.156-1.361 3.483-2.961 3.483-1.611 0-2.983-1.325-2.983-3.483 0-2.16 1.372-3.484 2.983-3.484m10.174 5.168c0-1.434-1.102-1.927-2.129-2.332-.876-.383-1.687-.69-1.687-1.577 0-.79.616-1.26 1.438-1.26.768 0 1.449.295 1.892 1.206l.043-.055-.098-.908c-.388-.362-.951-.569-1.774-.569-1.211 0-2.194.68-2.194 1.971 0 1.118.984 1.533 1.947 1.95.918.404 1.804.799 1.804 1.82 0 .918-.682 1.566-1.665 1.566-.8 0-1.654-.492-2.172-1.513l-.086.043.184 1.063c.432.405 1.276.722 2.044.722 1.295-.002 2.453-.812 2.453-2.127m9.869 1.052-.054-.055c-.736.56-1.806.668-3.026.657-.206 0-.422 0-.64-.012-.032-.702-.021-1.62-.021-3.329 0-1.697-.009-2.432.021-3.131.012-.23.12-.383.336-.46l-.011-.054c-.141.054-.594.054-.756.054s-.605 0-.768-.054l-.012.054c.217.077.325.231.336.46.034.7.021 1.434.021 3.131 0 1.72.013 2.409-.021 3.122-.009.186-.119.35-.336.47l.012.043c.163-.032.584-.043.756-.043h3.784c.002-.109.327-.743.379-.853m.239-2.738c0 2.323 1.794 3.811 3.891 3.811 2.086 0 3.881-1.488 3.881-3.81s-1.795-3.812-3.881-3.812c-2.097 0-3.891 1.49-3.891 3.812m6.854 0c0 2.157-1.362 3.484-2.961 3.484-1.612 0-2.983-1.325-2.983-3.483 0-2.157 1.372-3.484 2.983-3.484 1.597 0 2.961 1.325 2.961 3.484m7.945 3.458a1 1 0 0 1-.118.022c-.445 0-.854-.735-1.276-1.512-.453-.777-.94-1.643-1.59-1.819 1.177-.175 2.162-.79 2.162-1.971 0-.987-.854-1.819-2.821-1.819-.172 0-1.156.012-1.514.043v.043c.206.012.313.143.324.416.034.702.022 1.435.022 3.132 0 1.719.01 2.408-.022 3.122-.011.206-.118.36-.345.471l.021.043c.162-.034.606-.043.767-.043.173 0 .606.011.757.043l.011-.043a.53.53 0 0 1-.323-.47c-.034-.681-.034-1.392-.034-2.892.119-.012.195-.012.315-.012.098 0 .195 0 .291.012.52.142.755.82 1.049 1.533.346.932.734 1.928 1.654 1.928.248 0 .487-.011.692-.175zm-3.643-3.559c-.119 0-.217 0-.336-.011 0-1.447 0-2.585.034-3.242 1.415 0 2.238.362 2.238 1.534 0 1.184-.756 1.719-1.936 1.719m4.91 3.692c-.27-.12-.368-.285-.291-.47.205-.517.4-.975.777-1.808h3.513c.4.833.616 1.315.822 1.807.076.186-.011.35-.281.471l.01.043c.174-.033.724-.043.93-.043.226 0 .638.012.853.043l.012-.043c-.217-.076-.474-.328-.639-.646-.379-.702-.605-1.182-1.383-2.849-.778-1.676-1.438-3.089-1.719-3.778h-.151c-.302.702-.929 2.102-1.719 3.778-.777 1.655-1.048 2.223-1.427 2.925-.163.34-.358.492-.585.57l.022.043c.205-.033.422-.043.627-.043.216 0 .443.012.615.043zm1.028-3.495c.638-1.379.853-1.937 1.199-2.66.346.722.465 1.029 1.211 2.66q.243.51.422.92h-3.254c.118-.274.259-.568.422-.92m2.873-5.355-.226-.58a8 8 0 0 1-1.763 1.007l.032.077c.488-.088 1.461-.297 1.957-.504m9.816 2.125c.034-.252.108-.374.325-.46l-.01-.054a2.3 2.3 0 0 1-.541.054 2.3 2.3 0 0 1-.551-.054l-.01.054c.227.088.303.208.336.46.055.7.086 1.434.086 3.132 0 1.335.012 1.795.043 2.408a348 348 0 0 1-2.454-2.77 338 338 0 0 1-2.789-3.232h-.175a7 7 0 0 1-.972-.054l-.012.054q.373.148.389.526c.033.702.021 1.37.021 3.068 0 1.718-.011 2.408-.064 3.12a.53.53 0 0 1-.336.471l.011.043c.163-.032.368-.043.542-.043.162 0 .4.013.541.043l.012-.043c-.226-.12-.325-.25-.336-.47-.055-.711-.087-1.413-.087-3.121 0-1.653-.021-2.147-.021-2.87 1.427 1.652 2.39 2.739 2.726 3.122l3.08 3.56h.195c-.032-.713-.021-2.094-.021-3.812-.002-1.696.019-2.431.072-3.132m2.457 6.68v.043c.336.034 1.211.043 1.762.043 3.059 0 4.335-1.74 4.335-3.735 0-2.496-1.74-3.538-4.368-3.538-.174 0-1.395.012-1.729.043v.043c.174.012.312.11.324.416.033.702.022 1.435.022 3.132 0 1.719.011 2.408-.022 3.122-.012.31-.152.399-.324.431m1.211-6.921c.141-.012.291-.012.422-.012 2.638 0 3.546 1.488 3.546 3.286 0 2.224-1.092 3.462-3.47 3.472-.162 0-.324 0-.498-.012-.031-.701-.022-1.577-.022-3.274v-.295c0-1.446-.011-2.509.022-3.165M165.92 29.56a3 3 0 0 1-.736-.08l-.015.08c.336.114.494.34.51.68.016 1.05.049 2.797.049 5.757 0 2.474-1.358 3.833-3.417 3.833-2.219 0-3.482-1.198-3.482-3.67 0-2.507-.015-4.885.032-5.92.015-.34.176-.567.494-.68l-.015-.08c-.207.08-.879.08-1.118.08s-.895 0-1.133-.08l-.015.08c.319.113.478.34.494.68.047 1.035.031 3.413.031 5.92 0 3.154 2.028 4.334 4.503 4.334 2.235 0 4.04-1.488 4.04-4.497 0-2.507 0-4.724.048-5.758q.026-.51.479-.679l-.015-.08c-.207.062-.479.08-.734.08m13.234 0c-.256 0-.574-.016-.814-.08l-.017.08c.336.129.448.307.495.68.08 1.035.127 2.12.127 4.626 0 1.972.016 2.653.065 3.56a482 482 0 0 1-7.744-8.866h-.256c-.495 0-1.053-.016-1.439-.08l-.015.08q.552.219.574.775c.049 1.036.032 2.023.032 4.529 0 2.54-.016 3.56-.096 4.61-.016.307-.176.549-.495.696l.017.064c.24-.049.542-.064.799-.064.24 0 .59.015.798.064l.017-.064c-.336-.178-.479-.372-.495-.696-.08-1.05-.127-2.086-.127-4.61 0-2.442-.031-3.171-.031-4.237 2.108 2.442 3.528 4.043 4.024 4.61l4.55 5.257h.287c-.049-1.051-.032-3.089-.032-5.628 0-2.506.032-3.591.112-4.627.049-.37.16-.55.479-.679l-.016-.08c-.239.062-.558.08-.799.08m5.956 0-.015-.08c-.207.08-.879.08-1.117.08-.24 0-.895 0-1.133-.08l-.016.08c.32.114.479.34.494.68.049 1.035.049 2.12.049 4.626 0 2.54 0 3.56-.049 4.61-.015.307-.176.549-.494.696l.016.064c.255-.049.878-.064 1.133-.064s.894.015 1.117.064l.015-.064c-.206-.113-.478-.243-.494-.696-.048-1.05-.031-2.07-.031-4.61 0-2.506-.016-3.591.031-4.627.016-.34.176-.567.494-.679m11.273 0c-.336 0-.67-.016-.926-.08l-.015.08q.622.242.431.68c-.431 1.035-.799 2.022-1.947 4.479-.942 2.022-1.262 2.846-1.772 3.93-.512-1.066-.686-1.52-1.787-3.93-1.102-2.457-1.63-3.429-2.06-4.48q-.191-.412.432-.679l-.016-.08c-.24.08-1.086.08-1.373.08-.319 0-.942-.016-1.244-.08l-.032.08c.303.08.719.484.957.953.511 1.051.862 1.762 2.013 4.206 1.165 2.476 2.107 4.546 2.554 5.582h.224c.431-1.036 1.373-3.106 2.537-5.582 1.149-2.442 1.596-3.284 2.108-4.335q.36-.703.861-.824l-.015-.08c-.307.062-.625.08-.93.08m4.983 10.239c-.432 0-.861 0-1.293-.016-.049-1.035-.032-2.377-.032-4.869V34.9c3.544 0 3.705.129 3.929.696l.08-.05a3.6 3.6 0 0 1-.08-.84c0-.326.016-.55.08-.859l-.08-.015c-.175.566-.367.646-3.929.695 0-2.264-.015-3.3.032-4.593.447-.049.877-.031 1.278-.031 1.611 0 2.873.242 3.688 1.003l.079-.081c-.095-.227-.382-1.066-.382-1.262h-5.318c-.24 0-.894 0-1.117-.08l-.015.08c.319.113.478.34.494.68.048 1.035.031 2.12.031 4.625 0 2.54.016 3.56-.031 4.61-.016.277-.176.519-.494.696l.015.066c.24-.05.862-.066 1.117-.066h5.859c0-.146.494-1.099.575-1.261l-.081-.08c-1.006.756-2.648.967-4.405.967m13.795.208c-.655 0-1.263-1.085-1.884-2.233-.67-1.149-1.389-2.426-2.346-2.685 1.741-.257 3.194-1.163 3.194-2.91 0-1.455-1.262-2.685-4.167-2.685-.255 0-1.707.017-2.235.066v.064c.304.015.463.21.479.615.049 1.035.031 2.12.031 4.626 0 2.54.016 3.56-.031 4.61-.016.307-.175.534-.509.696l.03.065c.24-.05.895-.065 1.134-.065.255 0 .895.016 1.117.065l.016-.065c-.304-.147-.463-.389-.479-.695-.049-1.003-.049-2.056-.049-4.271.176-.016.288-.016.463-.016.144 0 .287 0 .431.016.766.21 1.119 1.213 1.55 2.264.511 1.376 1.086 2.846 2.442 2.846.367 0 .719-.015 1.022-.257l-.032-.08c-.081.014-.147.029-.177.029m-5.205-5.289c-.176 0-.318 0-.494-.015 0-2.136 0-3.818.049-4.788 2.092 0 3.306.533 3.306 2.264-.002 1.747-1.12 2.54-2.861 2.54m10.779-.81c-1.293-.565-2.491-1.018-2.491-2.328 0-1.164.91-1.86 2.123-1.86 1.134 0 2.14.439 2.795 1.78l.064-.08-.145-1.342c-.574-.533-1.404-.842-2.618-.842-1.787 0-3.241 1.002-3.241 2.911 0 1.65 1.454 2.264 2.873 2.88 1.359.598 2.667 1.18 2.667 2.683 0 1.36-1.006 2.314-2.459 2.314-1.182 0-2.444-.729-3.209-2.233l-.128.064.272 1.57c.639.597 1.883 1.066 3.018 1.066 1.917 0 3.624-1.198 3.624-3.138 0-2.117-1.629-2.845-3.145-3.444m8.03-4.351-.015-.08c-.208.08-.88.08-1.118.08-.241 0-.895 0-1.134-.08l-.015.08c.321.114.479.34.494.68.047 1.035.047 2.12.047 4.626 0 2.54 0 3.56-.047 4.61-.015.307-.175.549-.494.696l.015.064c.257-.049.878-.064 1.134-.064s.895.015 1.118.064l.015-.064c-.207-.113-.478-.243-.494-.696-.05-1.05-.031-2.07-.031-4.61 0-2.506-.016-3.591.031-4.627.014-.34.173-.567.494-.679m2.043 0c0 .13-.303 1.067-.383 1.277l.08.066c1.087-.76 2.395-.972 3.912-.954v4.917c0 2.54.015 3.56-.032 4.61-.015.325-.176.518-.512.696l.016.065c.222-.05.879-.065 1.133-.065.256 0 .895.016 1.118.065l.03-.065c-.336-.162-.494-.389-.509-.695-.047-1.051-.032-2.071-.032-4.61v-4.918c1.534-.016 2.81.162 3.895.954l.081-.081c-.081-.21-.383-1.133-.383-1.261zm18.905-.082c-.302.064-.542.08-.861.08-.303 0-.703-.016-.975-.08l-.015.08c.432.146.558.371.383.662a64 64 0 0 1-2.093 3.042c-.431.566-.703.986-1.006 1.424l-.957-1.375c-1.149-1.602-1.533-2.151-2.124-3.138-.145-.257-.015-.437.448-.615l-.016-.08c-.222.08-1.228.08-1.534.08-.287 0-.957 0-1.244-.08l-.031.08c.303.08.67.518.975.953.463.598.83 1.18 1.996 2.798l1.405 1.941c0 2.442 0 3.22-.047 4.222 0 .324-.145.518-.479.696l.016.064c.223-.049.879-.064 1.133-.064.256 0 .895.015 1.118.064l.031-.064c-.336-.162-.494-.39-.51-.696-.048-1.035-.031-1.746-.031-4.302l1.342-1.86c1.213-1.617 1.389-1.957 2.108-2.91.318-.405.685-.76.99-.842z" fill="#0D274E"/></svg>