<svg width="20" height="20" viewBox="0 0 20 20" fill="none" xmlns="http://www.w3.org/2000/svg">
<g clip-path="url(#clip0_624_38)">
<path d="M10 -0.00149536C15.523 -0.00149536 20 4.4755 20 9.9985C20 15.5215 15.523 19.9985 10 19.9985C8.23276 20.0015 6.49659 19.5338 4.97001 18.6435L0.00401545 19.9985L1.35601 15.0305C0.464974 13.5034 -0.00308162 11.7665 1.52687e-05 9.9985C1.52687e-05 4.4755 4.47701 -0.00149536 10 -0.00149536ZM6.59201 5.2985L6.39201 5.3065C6.2627 5.31541 6.13636 5.34937 6.02001 5.4065C5.91159 5.46801 5.81257 5.5448 5.72601 5.6345C5.60601 5.7475 5.53801 5.8455 5.46501 5.9405C5.09513 6.4214 4.89598 7.01181 4.89901 7.6185C4.90101 8.1085 5.02901 8.5855 5.22901 9.0315C5.63801 9.9335 6.31101 10.8885 7.19901 11.7735C7.41301 11.9865 7.62301 12.2005 7.84901 12.3995C8.95244 13.3709 10.2673 14.0715 11.689 14.4455L12.257 14.5325C12.442 14.5425 12.627 14.5285 12.813 14.5195C13.1042 14.5041 13.3885 14.4253 13.646 14.2885C13.7769 14.2208 13.9046 14.1474 14.029 14.0685C14.029 14.0685 14.0713 14.0398 14.154 13.9785C14.289 13.8785 14.372 13.8075 14.484 13.6905C14.568 13.6038 14.638 13.5032 14.694 13.3885C14.772 13.2255 14.85 12.9145 14.882 12.6555C14.906 12.4575 14.899 12.3495 14.896 12.2825C14.892 12.1755 14.803 12.0645 14.706 12.0175L14.124 11.7565C14.124 11.7565 13.254 11.3775 12.722 11.1355C12.6663 11.1113 12.6067 11.0974 12.546 11.0945C12.4776 11.0873 12.4084 11.095 12.3432 11.1169C12.278 11.1388 12.2182 11.1745 12.168 11.2215C12.163 11.2195 12.096 11.2765 11.373 12.1525C11.3315 12.2083 11.2743 12.2504 11.2088 12.2736C11.1433 12.2967 11.0723 12.2998 11.005 12.2825C10.9398 12.2651 10.876 12.2431 10.814 12.2165C10.69 12.1645 10.647 12.1445 10.562 12.1085C9.98788 11.8584 9.45645 11.52 8.98701 11.1055C8.86101 10.9955 8.74401 10.8755 8.62401 10.7595C8.23062 10.3827 7.88776 9.95648 7.60401 9.4915L7.54501 9.3965C7.50327 9.33229 7.46905 9.26351 7.44301 9.1915C7.40501 9.0445 7.50401 8.9265 7.50401 8.9265C7.50401 8.9265 7.74701 8.6605 7.86001 8.5165C7.97001 8.3765 8.06301 8.2405 8.12301 8.1435C8.24101 7.9535 8.27801 7.7585 8.21601 7.6075C7.93601 6.9235 7.64668 6.24317 7.34801 5.5665C7.28901 5.4325 7.11401 5.3365 6.95501 5.3175C6.90101 5.31083 6.84701 5.3055 6.79301 5.3015C6.65874 5.2938 6.5241 5.29514 6.39001 5.3055L6.59201 5.2985Z" fill="#F6F6FD"/>
</g>
<defs>
<clipPath id="clip0_624_38">
<rect width="20" height="20" fill="white" transform="translate(0 -0.00149536)"/>
</clipPath>
</defs>
</svg>
