<svg width="20" height="20" viewBox="0 0 20 20" fill="none" xmlns="http://www.w3.org/2000/svg">
<g clip-path="url(#clip0_624_39)">
<path d="M0 9.69884C0 4.12509 4.36625 -0.00115967 10 -0.00115967C15.6337 -0.00115967 20 4.12509 20 9.69884C20 15.2726 15.6337 19.3988 10 19.3988C8.9875 19.3988 8.0175 19.2651 7.105 19.0151C6.92805 18.966 6.73959 18.9792 6.57125 19.0526L4.58625 19.9301C4.46636 19.983 4.33532 20.0056 4.20465 19.996C4.07397 19.9864 3.94766 19.9448 3.83681 19.8749C3.72596 19.8051 3.63397 19.709 3.56892 19.5953C3.50387 19.4815 3.46775 19.3536 3.46375 19.2226L3.40875 17.4438C3.40488 17.3356 3.37906 17.2292 3.33286 17.1313C3.28667 17.0333 3.22105 16.9457 3.14 16.8738C1.195 15.1338 0 12.6138 0 9.69884ZM6.9325 7.87509L3.995 12.5351C3.71375 12.9826 4.2625 13.4863 4.68375 13.1676L7.84 10.7726C7.94381 10.6937 8.07047 10.6508 8.20083 10.6504C8.33119 10.6499 8.45815 10.692 8.5625 10.7701L10.8987 12.5226C11.0645 12.6469 11.2542 12.7355 11.4559 12.7829C11.6577 12.8302 11.867 12.8352 12.0707 12.7977C12.2745 12.7601 12.4683 12.6807 12.6398 12.5645C12.8114 12.4483 12.957 12.2978 13.0675 12.1226L16.005 7.46259C16.2875 7.01509 15.7375 6.51134 15.3163 6.83009L12.16 9.22509C12.0562 9.30394 11.9295 9.34683 11.7992 9.34728C11.6688 9.34773 11.5419 9.30571 11.4375 9.22759L9.10125 7.47384C8.93549 7.34953 8.74577 7.26092 8.54406 7.21357C8.34235 7.16623 8.13301 7.16119 7.92926 7.19877C7.7255 7.23635 7.53174 7.31574 7.36018 7.43193C7.18863 7.54811 7.04301 7.69983 6.9325 7.87509Z" fill="#F6F6FD"/>
</g>
<defs>
<clipPath id="clip0_624_39">
<rect width="20" height="19.9993" fill="white" transform="translate(0 -0.00115967)"/>
</clipPath>
</defs>
</svg>
